<!-- Generated by IcoMoon.io -->
<svg version="1.1" xmlns="http://www.w3.org/2000/svg" width="24" height="24" viewBox="0 0 24 24">
<title>ui-bulb</title>
<path fill="#090" d="M18.91 7.88c-0.561-3.351-3.441-5.874-6.909-5.874-3.866 0-7 3.134-7 7 0 2.368 1.176 4.462 2.977 5.729l0.022 0.015v1.25c0 1.105 0.895 2 2 2v0h4c1.105 0 2-0.895 2-2v0-1.26c1.823-1.281 3-3.375 3-5.744 0-0.394-0.033-0.78-0.095-1.157l0.006 0.041zM14.5 13.33c-0.299 0.175-0.498 0.494-0.5 0.86v1.81h-4v-1.8c0.001-0.014 0.001-0.030 0.001-0.046 0-0.359-0.206-0.67-0.506-0.822l-0.005-0.002c-1.502-0.881-2.495-2.488-2.495-4.327 0-1.487 0.649-2.823 1.68-3.738l0.005-0.004c0.878-0.782 2.043-1.26 3.318-1.26 0.001 0 0.001 0 0.002 0h-0c0.093-0.007 0.201-0.011 0.31-0.011s0.217 0.004 0.324 0.012l-0.014-0.001c2.485 0.316 4.386 2.417 4.386 4.962 0 1.839-0.993 3.447-2.473 4.315l-0.024 0.013zM8 20h8v2h-8z"></path>
</svg>
