<?xml version="1.0" standalone="no"?>
<!DOCTYPE svg PUBLIC "-//W3C//DTD SVG 1.1//EN" "http://www.w3.org/Graphics/SVG/1.1/DTD/svg11.dtd" >
<svg xmlns="http://www.w3.org/2000/svg" xmlns:xlink="http://www.w3.org/1999/xlink" version="1.1">
<metadata>
Created by FontForge 20170731 at Mon May 16 19:16:40 2016
 By Aleksey,,,
Copyright (c) 2011 Klim Type Foundry. All rights reserved.
</metadata>
<defs>
<font id="KPNMetricApp-SemiBold" horiz-adv-x="500" >
  <font-face 
    font-family="KPN Metric App SemiBold"
    font-weight="600"
    font-variant="small-caps"
    font-stretch="normal"
    units-per-em="1000"
    panose-1="2 11 7 4 2 1 1 1 1 2"
    ascent="750"
    descent="-250"
    x-height="447"
    cap-height="614"
    bbox="-275 -225 3413 906"
    underline-thickness="50"
    underline-position="-150"
    unicode-range="U+0020-FB02"
  />
<missing-glyph horiz-adv-x="228" 
d="M169 650v-734h-110v734h110z" />
    <glyph glyph-name="fi" unicode="fi" horiz-adv-x="558" 
d="M316 542q-10 7 -21.5 9.5t-22.5 2.5q-29 0 -45 -15.5t-16 -46.5v-45h93v-100h-93v-347h-122v347h-73v100h73v53q0 76 43 117.5t115 41.5q42 0 69 -12v-105zM380 0v447h124v-447h-124zM515 577q0 -32 -22.5 -51.5t-51.5 -19.5t-51.5 19.5t-22.5 51.5q0 31 22.5 51t51.5 20
t51.5 -20t22.5 -51z" />
    <glyph glyph-name="fl" unicode="fl" horiz-adv-x="558" 
d="M316 542q-10 7 -21.5 9.5t-22.5 2.5q-29 0 -45 -15.5t-16 -46.5v-45h93v-100h-93v-347h-122v347h-73v100h73v53q0 76 43 117.5t115 41.5q42 0 69 -12v-105zM380 0v650h124v-650h-124z" />
    <glyph glyph-name="f_f" unicode="ff" horiz-adv-x="617" 
d="M607 542q-10 7 -21 9.5t-23 2.5q-28 0 -44.5 -15.5t-16.5 -46.5v-45h93v-100h-93v-347h-122v347h-169v-347h-122v347h-73v100h73v47q0 76 43 117.5t115 41.5q42 0 69 -12v-105q-10 7 -21.5 9.5t-22.5 2.5q-28 0 -44.5 -15t-16.5 -45v-41h169v53q0 76 43.5 117.5
t114.5 41.5q23 0 39 -3t30 -9v-105z" />
    <glyph glyph-name=".notdef" horiz-adv-x="228" 
d="M169 650v-734h-110v734h110z" />
    <glyph glyph-name=".null" horiz-adv-x="0" 
 />
    <glyph glyph-name="nonmarkingreturn" horiz-adv-x="212" 
 />
    <glyph glyph-name="space" unicode=" " horiz-adv-x="212" 
 />
    <glyph glyph-name="exclam" unicode="!" horiz-adv-x="217" 
d="M30 70q0 33 22.5 55.5t55.5 22.5t56 -22.5t23 -55.5q0 -32 -23 -54.5t-56 -22.5t-55.5 22.5t-22.5 54.5zM184 614l-30 -416h-91l-30 416h151z" />
    <glyph glyph-name="quotedbl" unicode="&#x22;" horiz-adv-x="327" 
d="M139 614v-248h-101v248h101zM289 614v-248h-101v248h101z" />
    <glyph glyph-name="numbersign" unicode="#" horiz-adv-x="616" 
d="M430 159l-38 -159h-99l38 159h-118l-38 -159h-97l38 159h-96l19 86h97l30 124h-102l18 86h104l38 159h98l-39 -159h118l39 159h98l-38 -159h96l-19 -86h-97l-30 -124h102l-18 -86h-104zM351 245l30 124h-118l-30 -124h118z" />
    <glyph glyph-name="dollar" unicode="$" horiz-adv-x="481" 
d="M187 6q-47 5 -85.5 18t-64.5 30v121q39 -29 87.5 -47t99.5 -18q45 0 75 14t30 49q0 29 -18 43t-51 27l-86 28q-33 11 -60 25.5t-45.5 34.5t-29 47t-10.5 63q0 35 12 63t33 49t50 34t63 19v92h107v-92q35 -5 65 -15.5t56 -26.5v-120q-38 28 -80 44.5t-93 16.5
q-40 0 -66 -14t-26 -44q0 -27 16.5 -40t47.5 -24l92 -31q74 -26 108.5 -67.5t34.5 -106.5q0 -71 -43.5 -112.5t-111.5 -55.5v-99h-107v95z" />
    <glyph glyph-name="percent" unicode="%" horiz-adv-x="670" 
d="M110 481q0 -24 17 -41t42 -17q24 0 41.5 17t17.5 41q0 25 -17.5 42.5t-41.5 17.5q-25 0 -42 -17.5t-17 -42.5zM567 614l-380 -614h-84l380 614h84zM643 133q0 -30 -11 -56t-30.5 -45.5t-45 -30.5t-55.5 -11t-55.5 11t-45 30.5t-30.5 45.5t-11 56q0 29 11 55t30.5 45
t45 30t55.5 11t55.5 -11t45 -30t30.5 -45t11 -55zM311 481q0 -29 -11 -55t-30.5 -45t-45 -30t-55.5 -11t-55.5 11t-45 30t-30.5 45t-11 55q0 30 11 56t30.5 45.5t45 30.5t55.5 11t55.5 -11t45 -30.5t30.5 -45.5t11 -56zM560 133q0 24 -17 41t-42 17t-42.5 -17t-17.5 -41
q0 -25 17.5 -42.5t42.5 -17.5t42 17.5t17 42.5z" />
    <glyph glyph-name="ampersand" unicode="&#x26;" horiz-adv-x="607" 
d="M289 522q-32 0 -52.5 -16.5t-20.5 -46.5q0 -26 15.5 -47.5t35.5 -43.5l139 -154q16 45 18 103h112q-1 -51 -15 -98t-40 -88l119 -131h-150l-43 47q-35 -27 -76 -42t-87 -15q-47 0 -85.5 14t-66 39t-42.5 60.5t-15 78.5q0 53 28 95.5t73 66.5q-20 27 -30 53.5t-10 60.5
q0 38 14 69t39 52.5t59.5 33t75.5 11.5q40 0 75.5 -11t61.5 -30v-117q-27 24 -60.5 40t-71.5 16zM245 89q53 0 95 31l-138 150q-23 -12 -37.5 -35.5t-14.5 -52.5q0 -41 25 -67t70 -26z" />
    <glyph glyph-name="quotesingle" unicode="'" horiz-adv-x="182" 
d="M144 614v-248h-106v248h106z" />
    <glyph glyph-name="parenleft" unicode="(" horiz-adv-x="325" 
d="M30 283q0 70 19 130t55 107.5t87 81t114 48.5v-125q-34 -9 -63 -30t-50 -51.5t-32.5 -71t-11.5 -89.5t11.5 -89.5t32.5 -71.5t50 -51.5t63 -29.5v-125q-63 15 -114 48.5t-87 81t-55 107.5t-19 130z" />
    <glyph glyph-name="parenright" unicode=")" horiz-adv-x="325" 
d="M295 283q0 -70 -19 -130t-55 -107.5t-87 -81t-114 -48.5v125q34 9 63 29.5t50 51.5t32.5 71.5t11.5 89.5t-11.5 89.5t-32.5 71t-50 51.5t-63 30v125q63 -15 114 -48.5t87 -81t55 -107.5t19 -130z" />
    <glyph glyph-name="asterisk" unicode="*" horiz-adv-x="346" 
d="M59 603l82 -48v95h64v-95l82 48l32 -56l-83 -47l83 -47l-32 -56l-82 48v-95h-64v95l-82 -48l-32 56l82 47l-82 47z" />
    <glyph glyph-name="plus" unicode="+" horiz-adv-x="560" 
d="M328 347h168v-96h-168v-167h-95v167h-169v96h169v168h95v-168z" />
    <glyph glyph-name="comma" unicode="," horiz-adv-x="210" 
d="M87 3q-25 5 -42.5 23t-17.5 49q0 33 22.5 54.5t55.5 21.5q32 0 55 -21.5t23 -63.5q0 -23 -9 -46.5t-23 -43.5l-57 -85h-80z" />
    <glyph glyph-name="hyphen" unicode="-" horiz-adv-x="317" 
d="M279 316v-108h-241v108h241z" />
    <glyph glyph-name="period" unicode="." horiz-adv-x="210" 
d="M27 73q0 34 22.5 56.5t55.5 22.5t55.5 -22.5t22.5 -56.5t-22.5 -57t-55.5 -23t-55.5 23t-22.5 57z" />
    <glyph glyph-name="slash" unicode="/" horiz-adv-x="373" 
d="M368 650l-248 -734h-115l248 734h115z" />
    <glyph glyph-name="zero" unicode="0" horiz-adv-x="542" 
d="M271 -10q-54 0 -98.5 23t-76.5 65t-49.5 100.5t-17.5 128.5t17.5 128.5t49.5 100.5t76.5 65t98.5 23t98.5 -23t76.5 -65t49.5 -100.5t17.5 -128.5t-17.5 -128.5t-49.5 -100.5t-76.5 -65t-98.5 -23zM271 510q-31 0 -53 -15.5t-36.5 -43t-21 -64.5t-6.5 -80t6.5 -80
t21 -64.5t36.5 -43t53 -15.5t53 15.5t36 43t21 64.5t7 80t-7 80t-21 64.5t-36 43t-53 15.5z" />
    <glyph glyph-name="one" unicode="1" horiz-adv-x="337" 
d="M157 0v468l-143 -71v125l187 92h81v-614h-125z" />
    <glyph glyph-name="two" unicode="2" horiz-adv-x="452" 
d="M432 0h-420v4l179 234q21 28 39 51.5t31 46t20.5 44.5t7.5 46q0 36 -22.5 58t-66.5 22q-25 0 -49.5 -7t-46.5 -18.5t-41.5 -26t-34.5 -28.5v125q33 31 84 52t111 21q90 0 142.5 -49t52.5 -133q0 -30 -9 -59.5t-24.5 -58t-35.5 -57t-42 -58.5l-75 -98h200v-111z" />
    <glyph glyph-name="three" unicode="3" horiz-adv-x="437" 
d="M408 614v-3l-127 -243q60 -19 95 -63.5t35 -110.5q0 -48 -17.5 -85.5t-46.5 -64t-68.5 -40.5t-82.5 -14q-62 0 -103.5 14.5t-71.5 37.5v124q35 -32 77 -50t87 -18q51 0 79.5 23t28.5 72q0 28 -12.5 48t-35 32.5t-52.5 18.5t-64 5v3l106 202h-209v112h382z" />
    <glyph glyph-name="four" unicode="4" horiz-adv-x="513" 
d="M302 226v129h114v-129h82v-105h-82v-121h-114v121h-260v90l183 403h127l-176 -388h126z" />
    <glyph glyph-name="five" unicode="5" horiz-adv-x="449" 
d="M203 397q47 0 87.5 -13.5t70.5 -39.5t47.5 -63.5t17.5 -86.5q0 -48 -17.5 -86t-49 -64t-74 -40t-91.5 -14q-54 0 -94.5 13.5t-71.5 36.5v124q32 -31 72 -49t85 -18q25 0 47.5 6t39 18t26 30.5t9.5 42.5q0 48 -35.5 73t-89.5 25q-38 0 -70 -6.5t-64 -19.5v348h346v-112
h-244v-110q11 3 24.5 4t28.5 1z" />
    <glyph glyph-name="six" unicode="6" horiz-adv-x="489" 
d="M245 -10q-48 0 -88.5 16.5t-70 46t-46 69.5t-16.5 87q0 41 13.5 83.5t47.5 100.5l128 221h134l-114 -199q5 2 14.5 3.5t17.5 1.5q45 -2 82 -18.5t63.5 -45t41 -66.5t14.5 -81q0 -47 -16.5 -87t-45.5 -69.5t-70 -46t-89 -16.5zM351 209q0 22 -8 42t-22 34.5t-33.5 23
t-42.5 8.5t-42 -8.5t-33 -23t-22 -34.5t-8 -42q0 -46 29.5 -77t75.5 -31q47 0 76.5 31t29.5 77z" />
    <glyph glyph-name="seven" unicode="7" horiz-adv-x="454" 
d="M44 0l231 502h-264v112h443v-3l-278 -611h-132z" />
    <glyph glyph-name="eight" unicode="8" horiz-adv-x="499" 
d="M250 91q42 0 69.5 23t27.5 64q0 42 -27.5 64.5t-69.5 22.5t-70 -22.5t-28 -64.5q0 -41 28 -64t70 -23zM250 369q34 0 58.5 20.5t24.5 56.5q0 38 -24.5 58.5t-58.5 20.5q-35 0 -59.5 -20.5t-24.5 -58.5q0 -36 24.5 -56.5t59.5 -20.5zM250 -10q-46 0 -86.5 12t-70.5 35
t-47 56t-17 75q0 59 31.5 97t75.5 50q-38 17 -63 52t-25 84q0 42 16.5 74.5t44 54t64 33t77.5 11.5q40 0 76.5 -11.5t64 -33t44 -54t16.5 -74.5q0 -49 -25 -84t-63 -52q44 -12 75.5 -50t31.5 -97q0 -42 -17 -75t-47 -56t-70 -35t-86 -12z" />
    <glyph glyph-name="nine" unicode="9" horiz-adv-x="489" 
d="M244 624q48 0 88.5 -16.5t70 -46t46 -69.5t16.5 -87q0 -41 -13.5 -83.5t-47.5 -100.5l-128 -221h-134l113 198q-5 -2 -14 -3t-17 -1q-45 1 -82 18t-63.5 45.5t-41 66t-14.5 81.5q0 47 16.5 87t45.5 69.5t70 46t89 16.5zM138 405q0 -23 8 -42.5t22 -34t33.5 -23t42.5 -8.5
t42 8.5t33 23t22 34t8 42.5q0 46 -29.5 77t-75.5 31q-47 0 -76.5 -31t-29.5 -77z" />
    <glyph glyph-name="colon" unicode=":" horiz-adv-x="210" 
d="M27 73q0 34 22.5 56.5t55.5 22.5t55.5 -22.5t22.5 -56.5t-22.5 -57t-55.5 -23t-55.5 23t-22.5 57zM27 358q0 34 22.5 56.5t55.5 22.5t55.5 -22.5t22.5 -56.5t-22.5 -57t-55.5 -23t-55.5 23t-22.5 57z" />
    <glyph glyph-name="semicolon" unicode=";" horiz-adv-x="210" 
d="M87 3q-25 5 -42.5 23t-17.5 49q0 33 22.5 54.5t55.5 21.5q32 0 55 -21.5t23 -63.5q0 -23 -9 -46.5t-23 -43.5l-57 -85h-80zM27 358q0 34 22.5 56.5t55.5 22.5t55.5 -22.5t22.5 -56.5t-22.5 -57t-55.5 -23t-55.5 23t-22.5 57z" />
    <glyph glyph-name="less" unicode="&#x3c;" horiz-adv-x="441" 
d="M383 511v-108l-240 -106l240 -105v-109l-328 153v123z" />
    <glyph glyph-name="equal" unicode="=" horiz-adv-x="576" 
d="M504 262v-87h-431v87h431zM504 426v-88h-431v88h431z" />
    <glyph glyph-name="greater" unicode="&#x3e;" horiz-adv-x="441" 
d="M57 83v109l240 105l-240 106v108l329 -152v-123z" />
    <glyph glyph-name="question" unicode="?" horiz-adv-x="428" 
d="M205 314q12 15 25 28t23.5 26.5t17 28t6.5 32.5q0 74 -86 74q-26 0 -50.5 -7t-46 -18t-40.5 -25t-34 -28v126q33 31 83 52t110 21q89 0 142 -48t53 -132q0 -28 -9 -52t-23 -45t-31 -40.5t-34 -37.5q-23 -24 -29.5 -40.5t-7.5 -30.5h-122q1 18 4 32t9 27.5t15.5 26.5
t24.5 30zM131 70q0 34 22.5 56t55.5 22q34 0 57 -22t23 -56q0 -32 -23 -54.5t-57 -22.5q-33 0 -55.5 22.5t-22.5 54.5z" />
    <glyph glyph-name="at" unicode="@" horiz-adv-x="768" 
d="M533 150q-1 -5 -1 -8.5v-7.5q0 -31 31 -31q46 0 74 45t28 126q0 53 -19.5 94.5t-54 70.5t-82 44t-102.5 15q-67 0 -122.5 -22.5t-95 -63t-61.5 -97.5t-22 -125q0 -79 28 -131t72 -83.5t97.5 -44.5t104.5 -13q70 0 123 13.5t101 34.5v-73q-38 -19 -96.5 -33t-127.5 -14
q-74 0 -143 20t-122.5 62t-86 107t-32.5 155q0 79 27.5 148t78 121t121 82t156.5 30q75 0 136.5 -22.5t106 -62.5t69 -94.5t24.5 -117.5q0 -62 -17 -107.5t-45 -75.5t-64.5 -45t-76.5 -15q-35 0 -65 13.5t-47 39.5q-14 -25 -41.5 -38.5t-55.5 -13.5q-32 0 -57 11.5t-42.5 32
t-27 48t-9.5 59.5q0 42 13.5 80.5t38 67.5t58.5 46.5t75 17.5q29 0 52 -11t33 -26l6 28h103zM448 266q-5 16 -20 26.5t-37 10.5q-20 0 -36 -9t-27 -24.5t-17.5 -36t-6.5 -42.5q0 -29 14.5 -47.5t43.5 -18.5q24 0 40.5 12t27.5 29z" />
    <glyph glyph-name="A" unicode="A" horiz-adv-x="627" 
d="M612 0h-130l-55 148h-230l-54 -148h-128l235 614h127zM387 256l-75 204l-75 -204h150z" />
    <glyph glyph-name="B" unicode="B" horiz-adv-x="553" 
d="M420 317q44 -14 72 -53t28 -90q0 -85 -54.5 -129.5t-151.5 -44.5h-255v614h235q97 0 152 -42t55 -125q0 -50 -23.5 -84t-57.5 -46zM286 362q93 0 93 73q0 71 -93 71h-104v-144h104zM303 108q45 0 68.5 21t23.5 56q0 36 -23.5 56.5t-68.5 20.5h-121v-154h121z" />
    <glyph glyph-name="C" unicode="C" horiz-adv-x="538" 
d="M29 307q0 71 22.5 129.5t63 100t96.5 64.5t123 23q51 0 90.5 -12.5t69.5 -35.5v-129q-69 60 -154 60q-41 0 -74.5 -14t-57.5 -40.5t-37 -63.5t-13 -82t13 -81.5t37 -63t57.5 -40.5t74.5 -14q44 0 81.5 14t72.5 45v-129q-30 -23 -69.5 -35.5t-90.5 -12.5q-67 0 -123 23
t-96.5 64.5t-63 100t-22.5 129.5z" />
    <glyph glyph-name="D" unicode="D" horiz-adv-x="609" 
d="M271 113q88 0 134.5 52t46.5 142q0 91 -46.5 143t-134.5 52h-85v-389h85zM276 614q70 0 126 -21.5t95.5 -61.5t60.5 -97t21 -127t-21 -127t-60.5 -97t-95.5 -61.5t-126 -21.5h-217v614h217z" />
    <glyph glyph-name="E" unicode="E" horiz-adv-x="516" 
d="M476 502h-291v-134h264v-109h-264v-146h291v-113h-417v614h417v-112z" />
    <glyph glyph-name="F" unicode="F" 
d="M59 614h409v-112h-282v-156h261v-111h-261v-235h-127v614z" />
    <glyph glyph-name="G" unicode="G" horiz-adv-x="597" 
d="M335 104q30 0 56.5 7.5t46.5 24.5v93h-104v105h220v-257q-45 -46 -103 -66.5t-119 -20.5q-70 0 -126 23t-95.5 65t-60.5 100t-21 128q0 71 23.5 129.5t65.5 100.5t100 65t127 23q53 0 98 -13.5t78 -37.5v-128q-38 30 -80 46t-96 16q-41 0 -75.5 -14.5t-59.5 -40.5
t-38.5 -63.5t-13.5 -82.5t12.5 -82t35.5 -63.5t55.5 -41.5t73.5 -15z" />
    <glyph glyph-name="H" unicode="H" horiz-adv-x="652" 
d="M593 0h-128v258h-278v-258h-128v614h128v-244h278v244h128v-614z" />
    <glyph glyph-name="I" unicode="I" horiz-adv-x="245" 
d="M59 0v614h128v-614h-128z" />
    <glyph glyph-name="J" unicode="J" horiz-adv-x="410" 
d="M27 150q29 -20 57 -31.5t63 -11.5q48 0 67 28.5t19 93.5v385h129v-400q0 -117 -53 -170.5t-151 -53.5q-40 0 -75.5 11t-55.5 24v125z" />
    <glyph glyph-name="K" unicode="K" horiz-adv-x="585" 
d="M411 614h154l-255 -294l264 -320h-157l-230 278v-278h-128v614h128v-264z" />
    <glyph glyph-name="L" unicode="L" horiz-adv-x="507" 
d="M187 614v-501h286v-113h-414v614h128z" />
    <glyph glyph-name="M" unicode="M" horiz-adv-x="724" 
d="M184 396v-396h-125v614h119l186 -290l185 290h117v-614h-126v396l-175 -264h-4z" />
    <glyph glyph-name="N" unicode="N" horiz-adv-x="632" 
d="M472 0l-290 409v-409h-123v614h120l271 -388v388h123v-614h-101z" />
    <glyph glyph-name="O" unicode="O" horiz-adv-x="640" 
d="M610 307q0 -69 -21.5 -127t-60 -100t-92 -66t-117.5 -24t-117.5 24t-91.5 66t-59.5 100t-21.5 127t21.5 127t59.5 100.5t91.5 66t117.5 23.5t117.5 -23.5t92 -66t60 -100.5t21.5 -127zM481 307q0 45 -11.5 82.5t-32.5 64t-51 41.5t-67 15q-36 0 -65.5 -15t-50.5 -41.5
t-32.5 -64t-11.5 -82.5t11.5 -82.5t32.5 -64t50.5 -41.5t65.5 -15q37 0 67 15t51 41.5t32.5 64t11.5 82.5z" />
    <glyph glyph-name="P" unicode="P" horiz-adv-x="552" 
d="M186 0h-127v614h250q49 0 88.5 -13t68 -38.5t44 -63t15.5 -86.5t-15.5 -86t-44 -62.5t-68 -38.5t-88.5 -13h-123v-213zM399 413q0 42 -24 67t-74 25h-115v-183h115q50 0 74 25.5t24 65.5z" />
    <glyph glyph-name="Q" unicode="Q" horiz-adv-x="639" 
d="M444 19q-56 -29 -125 -29q-64 0 -117.5 24t-91.5 66t-59.5 100t-21.5 127t21.5 127t59.5 100.5t91.5 66t117.5 23.5t117.5 -23.5t92 -66t60 -100.5t21.5 -127t-22 -126t-61 -100l49 -60l-82 -64zM481 307q0 45 -11.5 82.5t-32.5 64t-51 41.5t-67 15q-36 0 -65.5 -15
t-50.5 -41.5t-32.5 -64t-11.5 -82.5t11.5 -83t32.5 -65t50.5 -42.5t65.5 -15.5q31 0 53 7l-50 63l82 63l48 -60q29 50 29 133z" />
    <glyph glyph-name="R" unicode="R" horiz-adv-x="563" 
d="M186 0h-127v614h253q97 0 156 -50t59 -145q0 -74 -37.5 -119.5t-102.5 -61.5l162 -238h-144l-152 229h-67v-229zM304 334q48 0 72.5 23.5t24.5 61.5q0 39 -24.5 62.5t-72.5 23.5h-118v-171h118z" />
    <glyph glyph-name="S" unicode="S" horiz-adv-x="499" 
d="M38 168q42 -31 92 -49.5t104 -18.5q47 0 78 15.5t31 51.5q0 30 -18.5 44.5t-53.5 27.5l-90 30q-34 11 -62 26t-47.5 36.5t-30.5 50t-11 66.5q0 43 17 75.5t47 55t69.5 34t84.5 11.5q57 0 102.5 -12.5t83.5 -35.5v-125q-40 29 -84 46.5t-98 17.5q-42 0 -69.5 -14.5
t-27.5 -46.5q0 -29 18 -42.5t50 -24.5l96 -33q78 -26 114 -69.5t36 -112.5q0 -45 -18 -79.5t-49.5 -57t-74 -34t-91.5 -11.5q-62 0 -113.5 15.5t-84.5 36.5v126z" />
    <glyph glyph-name="T" unicode="T" horiz-adv-x="575" 
d="M550 614v-112h-198v-502h-129v502h-197v112h524z" />
    <glyph glyph-name="U" unicode="U" horiz-adv-x="610" 
d="M305 -10q-57 0 -104 16.5t-80.5 48.5t-52 80.5t-18.5 111.5v367h128v-354q0 -79 33 -117t94 -38t94 38t33 117v354h128v-367q0 -63 -18 -111.5t-51.5 -80.5t-80.5 -48.5t-105 -16.5z" />
    <glyph glyph-name="V" unicode="V" horiz-adv-x="614" 
d="M15 614h135l159 -444l159 444h132l-231 -614h-124z" />
    <glyph glyph-name="W" unicode="W" horiz-adv-x="794" 
d="M555 201l101 413h126l-160 -614h-117l-108 405l-108 -405h-117l-160 614h129l100 -413l108 413h100z" />
    <glyph glyph-name="X" unicode="X" horiz-adv-x="586" 
d="M579 0h-144l-144 213l-143 -213h-141l213 313l-203 301h145l132 -199l135 199h140l-203 -299z" />
    <glyph glyph-name="Y" unicode="Y" horiz-adv-x="593" 
d="M582 614l-223 -381v-233h-127v233l-221 381h139l149 -260l148 260h135z" />
    <glyph glyph-name="Z" unicode="Z" horiz-adv-x="545" 
d="M27 0v4l290 498h-277v112h475v-4l-288 -497h284v-113h-484z" />
    <glyph glyph-name="bracketleft" unicode="[" horiz-adv-x="322" 
d="M302 23v-107h-243v734h243v-107h-127v-520h127z" />
    <glyph glyph-name="backslash" unicode="\" horiz-adv-x="373" 
d="M253 -84l-248 734h115l248 -734h-115z" />
    <glyph glyph-name="bracketright" unicode="]" horiz-adv-x="322" 
d="M20 543v107h243v-734h-243v107h127v520h-127z" />
    <glyph glyph-name="asciicircum" unicode="^" horiz-adv-x="409" 
d="M399 394h-116l-78 126l-79 -126h-116l138 220h113z" />
    <glyph glyph-name="underscore" unicode="_" horiz-adv-x="381" 
d="M361 -42v-101h-341v101h341z" />
    <glyph glyph-name="grave" unicode="`" 
d="M149 650h123l79 -142h-113z" />
    <glyph glyph-name="a" unicode="a" horiz-adv-x="468" 
d="M300 279q0 32 -26 51t-74 19q-34 0 -65 -9.5t-57 -26.5v107q24 15 64 26t85 11q93 0 142.5 -45t49.5 -127v-285h-119v24q-11 -11 -41 -21.5t-67 -10.5q-34 0 -64 9.5t-52.5 28t-35.5 45.5t-13 62q0 32 13 58.5t36.5 45t55 29t68.5 10.5q29 0 57.5 -8t42.5 -18v25z
M300 154q-8 18 -30.5 28.5t-48.5 10.5q-15 0 -29 -3.5t-25 -10t-18 -17t-7 -24.5q0 -15 7 -25t18 -17t25 -10t29 -3q26 0 48.5 10.5t30.5 28.5v32z" />
    <glyph glyph-name="b" unicode="b" horiz-adv-x="519" 
d="M53 0v650h125v-240q15 18 45.5 32.5t66.5 14.5q49 0 86.5 -18.5t63.5 -50.5t39.5 -74.5t13.5 -90.5t-13.5 -90.5t-39.5 -74t-63.5 -50t-86.5 -18.5q-36 0 -66.5 14.5t-45.5 32.5v-37h-125zM178 150q11 -23 33.5 -37.5t50.5 -14.5q51 0 79 35.5t28 89.5t-28 90t-79 36
q-27 0 -50 -14.5t-34 -37.5v-147z" />
    <glyph glyph-name="c" unicode="c" horiz-adv-x="405" 
d="M26 223q0 54 17.5 97.5t48 73.5t71.5 46.5t89 16.5q34 0 65.5 -8t55.5 -27v-113q-44 40 -106 40q-50 0 -84 -33t-34 -93t34 -93t84 -33q60 0 106 40v-112q-24 -19 -55.5 -27t-65.5 -8q-48 0 -89 16.5t-71.5 46.5t-48 73t-17.5 97z" />
    <glyph glyph-name="d" unicode="d" horiz-adv-x="519" 
d="M341 37q-15 -18 -45.5 -32.5t-66.5 -14.5q-49 0 -86.5 18.5t-63.5 50t-39.5 74t-13.5 90.5t13.5 90.5t39.5 74.5t63.5 50.5t86.5 18.5q36 0 66.5 -14.5t45.5 -32.5v240h125v-650h-125v37zM341 297q-11 23 -34 37.5t-50 14.5q-51 0 -79 -36t-28 -90t28 -89.5t79 -35.5
q28 0 50.5 14.5t33.5 37.5v147z" />
    <glyph glyph-name="e" unicode="e" horiz-adv-x="460" 
d="M145 195q8 -55 43.5 -79t85.5 -24q37 0 66 9t62 30v-102q-28 -20 -65 -29.5t-82 -9.5q-51 0 -93 16t-72.5 46t-47 72.5t-16.5 95.5q0 52 15.5 96t43.5 75t66.5 48.5t84.5 17.5q49 0 85.5 -16t61.5 -45.5t37.5 -70.5t12.5 -90v-40h-288zM239 358q-31 0 -55 -20t-35 -62
h169q-2 36 -22 59t-57 23z" />
    <glyph glyph-name="f" unicode="f" horiz-adv-x="326" 
d="M316 542q-10 7 -21.5 9.5t-22.5 2.5q-29 0 -45 -15.5t-16 -46.5v-45h93v-100h-93v-347h-122v347h-73v100h73v53q0 76 43 117.5t115 41.5q42 0 69 -12v-105z" />
    <glyph glyph-name="g" unicode="g" horiz-adv-x="515" 
d="M337 51q-15 -17 -43 -31t-66 -14q-48 0 -86 18t-63.5 49t-39 72t-13.5 86q0 46 13.5 87t39 72t63.5 49t86 18q38 0 66 -14t43 -31v35h124v-398q0 -62 -21 -104.5t-55 -69t-77.5 -38.5t-89.5 -12t-86.5 10.5t-67.5 27.5v122q35 -30 71.5 -42.5t80.5 -12.5q25 0 47 6.5
t38.5 19.5t26 33.5t9.5 47.5v14zM337 307q-11 19 -33 32.5t-50 13.5q-50 0 -77 -34t-27 -88q0 -53 27 -87t77 -34q28 0 50 13t33 33v151z" />
    <glyph glyph-name="h" unicode="h" horiz-adv-x="505" 
d="M178 650v-244q18 21 49.5 36t70.5 15q76 0 117 -45t41 -120v-292h-124v266q0 35 -18 57t-55 22q-29 0 -51 -16.5t-30 -45.5v-283h-124v650h124z" />
    <glyph glyph-name="i" unicode="i" horiz-adv-x="232" 
d="M54 0v447h124v-447h-124zM190 577q0 -32 -22.5 -51.5t-51.5 -19.5t-51.5 19.5t-22.5 51.5q0 31 22.5 51t51.5 20t51.5 -20t22.5 -51z" />
    <glyph glyph-name="j" unicode="j" horiz-adv-x="230" 
d="M178 -18q0 -75 -39 -116t-117 -41q-12 0 -25.5 1t-22.5 4v99q5 -1 12.5 -2t14.5 -1q27 0 40 13.5t13 43.5v464h124v-465zM191 577q0 -32 -22.5 -51.5t-51.5 -19.5t-51.5 19.5t-22.5 51.5q0 31 22.5 51t51.5 20t51.5 -20t22.5 -51z" />
    <glyph glyph-name="k" unicode="k" horiz-adv-x="484" 
d="M339 0l-161 206v-206h-124v650h124v-380l153 177h149l-186 -205l190 -242h-145z" />
    <glyph glyph-name="l" unicode="l" horiz-adv-x="232" 
d="M54 0v650h124v-650h-124z" />
    <glyph glyph-name="m" unicode="m" horiz-adv-x="742" 
d="M411 400q22 24 54.5 40.5t80.5 16.5q69 0 108 -44.5t39 -120.5v-292h-124v266q0 36 -16 58t-48 22q-24 0 -43.5 -14.5t-25.5 -43.5v-288h-125v266q0 36 -15.5 58t-47.5 22q-24 0 -44 -14.5t-26 -43.5v-288h-124v447h124v-37q17 21 46 34t67 13q40 0 70.5 -16t49.5 -41z
" />
    <glyph glyph-name="n" unicode="n" horiz-adv-x="505" 
d="M178 447v-41q18 21 49.5 36t70.5 15q76 0 117 -45t41 -120v-292h-124v266q0 35 -18 57t-55 22q-29 0 -51 -16.5t-30 -45.5v-283h-124v447h124z" />
    <glyph glyph-name="o" unicode="o" horiz-adv-x="489" 
d="M464 223q0 -51 -16 -94t-45 -74t-69 -48t-89 -17t-89 17t-69 48t-45 74t-16 94q0 52 16 95t45 74t69 48t89 17t89 -17t69 -48t45 -74t16 -95zM341 223q0 57 -24.5 93t-71.5 36t-71.5 -36t-24.5 -93q0 -56 24.5 -92t71.5 -36t71.5 36t24.5 92z" />
    <glyph glyph-name="p" unicode="p" horiz-adv-x="519" 
d="M54 -165v612h124v-37q15 18 45.5 32.5t66.5 14.5q49 0 87 -19t64 -51t39.5 -74.5t13.5 -89.5t-13.5 -89.5t-39.5 -74.5t-64 -50.5t-87 -18.5q-36 0 -66.5 14.5t-45.5 32.5v-202h-124zM178 150q11 -23 34 -37.5t50 -14.5q51 0 79 35.5t28 89.5t-28 90t-79 36
q-28 0 -50.5 -14.5t-33.5 -37.5v-147z" />
    <glyph glyph-name="q" unicode="q" horiz-adv-x="519" 
d="M341 37q-15 -18 -45.5 -32.5t-66.5 -14.5q-49 0 -87 18.5t-64 50.5t-39.5 74.5t-13.5 89.5t13.5 89.5t39.5 74.5t64 51t87 19q36 0 66.5 -14.5t45.5 -32.5v37h124v-612h-124v202zM341 297q-11 23 -33.5 37.5t-50.5 14.5q-51 0 -79 -36t-28 -90t28 -89.5t79 -35.5
q27 0 50 14.5t34 37.5v147z" />
    <glyph glyph-name="r" unicode="r" horiz-adv-x="351" 
d="M325 325q-26 15 -62 15q-32 0 -55 -16t-30 -47v-277h-124v447h124v-44q14 24 40.5 39t59.5 15q16 0 29 -2.5t18 -5.5v-124z" />
    <glyph glyph-name="s" unicode="s" horiz-adv-x="406" 
d="M35 150q32 -29 74.5 -45.5t79.5 -16.5q28 0 47 9t19 29q0 19 -14 27.5t-37 16.5l-43 12q-59 16 -93 46.5t-34 88.5q0 33 13.5 59t36.5 44t55 27.5t70 9.5q43 0 78 -10t65 -30v-113q-30 24 -64.5 39.5t-72.5 15.5q-26 0 -43 -9.5t-17 -28.5q0 -18 12.5 -26t35.5 -16
l50 -15q64 -18 94 -50t30 -86q0 -34 -14 -59.5t-38.5 -43t-58.5 -26.5t-73 -9q-45 0 -87 11.5t-71 33.5v115z" />
    <glyph glyph-name="t" unicode="t" horiz-adv-x="346" 
d="M106 0v347h-85v100h85v121h124v-121h95v-100h-95v-347h-124z" />
    <glyph glyph-name="u" unicode="u" horiz-adv-x="503" 
d="M326 0v41q-19 -21 -50 -36t-70 -15q-75 0 -116 45t-41 120v292h124v-267q0 -35 17.5 -57t54.5 -22q29 0 51 16.5t29 45.5v284h125v-447h-124z" />
    <glyph glyph-name="v" unicode="v" horiz-adv-x="485" 
d="M13 447h130l103 -297l101 297h125l-170 -447h-120z" />
    <glyph glyph-name="w" unicode="w" horiz-adv-x="672" 
d="M539 447h120l-136 -447h-114l-73 274l-73 -274h-114l-136 447h124l80 -285l73 285h95l74 -285z" />
    <glyph glyph-name="x" unicode="x" horiz-adv-x="477" 
d="M469 0h-137l-96 140l-97 -140h-130l161 228l-152 219h137l86 -127l88 127h130l-153 -216z" />
    <glyph glyph-name="y" unicode="y" horiz-adv-x="487" 
d="M184 -2l-171 449h131l103 -297l102 297h125l-233 -612h-122z" />
    <glyph glyph-name="z" unicode="z" horiz-adv-x="436" 
d="M22 0v4l201 343h-190v100h371v-4l-197 -343h197v-100h-382z" />
    <glyph glyph-name="braceleft" unicode="{" horiz-adv-x="353" 
d="M213 52q0 -29 29 -29h91v-107h-108q-57 0 -93 36t-36 94v154q0 29 -29 29h-47v108h47q29 0 29 29v154q0 58 36 94t93 36h108v-107h-91q-29 0 -29 -29v-148q0 -32 -13.5 -51.5t-33.5 -31.5q20 -12 33.5 -31.5t13.5 -51.5v-148z" />
    <glyph glyph-name="bar" unicode="|" horiz-adv-x="228" 
d="M169 650v-734h-110v734h110z" />
    <glyph glyph-name="braceright" unicode="}" horiz-adv-x="353" 
d="M140 200q0 32 13.5 51.5t33.5 31.5q-20 12 -33.5 31.5t-13.5 51.5v148q0 29 -29 29h-91v107h108q57 0 93 -36t36 -94v-154q0 -29 29 -29h47v-108h-47q-29 0 -29 -29v-154q0 -58 -36 -94t-93 -36h-108v107h91q29 0 29 29v148z" />
    <glyph glyph-name="asciitilde" unicode="~" horiz-adv-x="428" 
d="M392 347q0 -73 -28 -112.5t-78 -39.5q-23 0 -40.5 9t-32 20.5t-27 20.5t-26.5 9q-36 0 -36 -55h-88q0 72 27.5 112t78.5 40q23 0 40.5 -9t31.5 -20.5t27 -20.5t27 -9q36 0 36 55h88z" />
    <glyph glyph-name="uni00A0" unicode="&#xa0;" horiz-adv-x="212" 
 />
    <glyph glyph-name="exclamdown" unicode="&#xa1;" horiz-adv-x="224" 
d="M30 448q0 32 22.5 54.5t55.5 22.5t56 -22.5t23 -54.5q0 -33 -23 -55.5t-56 -22.5t-55.5 22.5t-22.5 55.5zM154 320l30 -416h-151l30 416h91z" />
    <glyph glyph-name="cent" unicode="&#xa2;" horiz-adv-x="412" 
d="M192 8q-72 19 -118 77t-46 148t46 148.5t118 77.5v93h106v-89q22 -3 42.5 -10.5t37.5 -20.5v-113q-23 20 -50.5 30t-58.5 10q-49 0 -83 -33t-34 -93t34 -93t83 -33q63 0 109 40v-112q-17 -13 -37.5 -20.5t-42.5 -11.5v-90h-106v95z" />
    <glyph glyph-name="sterling" unicode="&#xa3;" horiz-adv-x="472" 
d="M100 352v58q0 49 16 88.5t45 67.5t69 43t89 15q35 0 66.5 -8.5t51.5 -21.5v-111q-21 14 -48.5 22.5t-61.5 8.5q-48 0 -77.5 -30t-29.5 -90v-42h131v-98h-131v-60q0 -26 -5 -51t-16 -40h253v-103h-424v103h52q10 17 15 37.5t5 53.5v60h-72v98h72z" />
    <glyph glyph-name="yen" unicode="&#xa5;" horiz-adv-x="561" 
d="M170 340l-151 274h137l127 -242l127 242h132l-153 -274h106v-84h-152v-56h152v-84h-152v-116h-126v116h-152v84h152v56h-152v84h105z" />
    <glyph glyph-name="section" unicode="&#xa7;" horiz-adv-x="473" 
d="M168 356q-20 -5 -28 -18t-8 -28q0 -20 16 -34.5t36 -27.5l121 -80q20 5 28 18t8 28q0 20 -16 34.5t-36 27.5zM93 422q-10 14 -15.5 30t-5.5 39q0 30 13 54.5t35.5 42t54 27t69.5 9.5q83 0 145 -40v-112q-30 24 -65 39t-73 15q-26 0 -42.5 -10t-16.5 -29q0 -17 12 -28.5
t33 -24.5l107 -68q23 -14 43 -29t34.5 -32.5t23 -38t8.5 -46.5q0 -37 -19 -68.5t-54 -50.5q10 -14 15.5 -30t5.5 -38q0 -30 -13 -54.5t-36 -42t-54.5 -27t-68.5 -9.5q-84 0 -146 40v112q31 -24 66 -39t73 -15q26 0 42.5 10t16.5 29q0 17 -12 28.5t-33 24.5l-108 68
q-23 14 -42.5 29t-34 32.5t-23 38t-8.5 46.5q0 37 19 68.5t54 49.5z" />
    <glyph glyph-name="dieresis" unicode="&#xa8;" 
d="M101 570q0 29 19.5 48t47.5 19q27 0 46.5 -19t19.5 -48q0 -27 -19.5 -46.5t-46.5 -19.5q-28 0 -47.5 19.5t-19.5 46.5zM265 570q0 29 19.5 48t46.5 19t47 -19t20 -48q0 -27 -20 -46.5t-47 -19.5t-46.5 19.5t-19.5 46.5z" />
    <glyph glyph-name="copyright" unicode="&#xa9;" horiz-adv-x="704" 
d="M669 307q0 -69 -25 -127t-68 -100.5t-101 -66t-123 -23.5t-123 23.5t-101 66t-68 100.5t-25 127t25 127t68 100.5t101 66t123 23.5t123 -23.5t101 -66t68 -100.5t25 -127zM622 307q0 59 -21.5 108.5t-58 85.5t-86 56.5t-104.5 20.5q-56 0 -105 -20.5t-85.5 -56.5
t-58 -85.5t-21.5 -108.5t21.5 -108.5t58 -85.5t85.5 -56.5t105 -20.5q55 0 104.5 20.5t86 56.5t58 85.5t21.5 108.5zM167 309q0 45 14.5 81.5t40.5 63t63 40.5t82 14q58 0 97 -25v-99q-41 30 -88 30q-48 0 -77 -28.5t-29 -76.5t29 -76t77 -28q49 0 88 29v-99
q-39 -25 -97 -25q-45 0 -82 14t-63 40.5t-40.5 63t-14.5 81.5z" />
    <glyph glyph-name="ordfeminine" unicode="&#xaa;" horiz-adv-x="308" 
d="M189 499q0 18 -16.5 30t-48.5 12q-21 0 -41.5 -6t-38.5 -17v83q18 10 45.5 17t59.5 7q67 0 101.5 -31t34.5 -90v-187h-96v15q-8 -8 -27.5 -14.5t-43.5 -6.5q-22 0 -42 6.5t-35 18.5t-23.5 30t-8.5 42q0 45 33 71t82 26q19 0 37.5 -5.5t27.5 -11.5v11zM189 419
q-5 10 -17 16t-27 6q-16 0 -29.5 -7.5t-13.5 -23.5t13.5 -23t29.5 -7q15 0 27 5.5t17 15.5v18z" />
    <glyph glyph-name="guillemotleft" unicode="&#xab;" horiz-adv-x="420" 
d="M25 222l92 161h106l-92 -161l92 -161h-106zM197 222l92 161h106l-92 -161l92 -161h-106z" />
    <glyph glyph-name="uni00AD" unicode="&#xad;" horiz-adv-x="317" 
d="M279 316v-108h-241v108h241z" />
    <glyph glyph-name="registered" unicode="&#xae;" horiz-adv-x="407" 
d="M384 441q0 -40 -14.5 -73.5t-39 -58t-57.5 -38t-70 -13.5t-70 13.5t-57.5 38t-39 58t-14.5 73.5t14.5 73.5t39 58t57.5 38t70 13.5t70 -13.5t57.5 -38t39 -58t14.5 -73.5zM351 441q0 33 -11.5 61t-31.5 48.5t-47 31.5t-58 11t-58 -11t-47 -31.5t-31.5 -48.5t-11.5 -61
t11.5 -61t31.5 -48.5t47 -31.5t58 -11t58 11t47 31.5t31.5 48.5t11.5 61zM182 346h-54v192h90q32 0 51.5 -17.5t19.5 -49.5q0 -45 -37 -58l44 -67h-60l-37 61h-17v-61zM237 471q0 22 -25 22h-30v-43h30q25 0 25 21z" />
    <glyph glyph-name="macron" unicode="&#xaf;" 
d="M368 607v-91h-237v91h237z" />
    <glyph glyph-name="degree" unicode="&#xb0;" horiz-adv-x="357" 
d="M119 487q0 -25 17.5 -43t42.5 -18q24 0 41.5 18t17.5 43q0 26 -17.5 44t-41.5 18q-25 0 -42.5 -18t-17.5 -44zM314 487q0 -28 -10.5 -53t-29 -43.5t-43 -29t-52.5 -10.5t-52.5 10.5t-43 29t-29 43.5t-10.5 53t10.5 53t29 44t43 29.5t52.5 10.5t52.5 -10.5t43 -29.5
t29 -44t10.5 -53z" />
    <glyph glyph-name="plusminus" unicode="&#xb1;" horiz-adv-x="569" 
d="M330 418h164v-90h-164v-130h-90v130h-165v90h165v130h90v-130zM494 153v-91h-419v91h419z" />
    <glyph glyph-name="twosuperior" unicode="&#xb2;" horiz-adv-x="281" 
d="M265 273h-254v2l99 132q23 32 36.5 51.5t13.5 39.5q0 17 -11.5 27t-31.5 10q-26 0 -52 -15t-43 -29v89q20 16 51 27.5t69 11.5q51 0 81 -28t30 -74q0 -32 -17 -61t-39 -60l-31 -43h99v-80z" />
    <glyph glyph-name="threesuperior" unicode="&#xb3;" horiz-adv-x="272" 
d="M252 614v-2l-67 -132q32 -14 49 -38.5t17 -57.5q0 -28 -10 -49.5t-27.5 -36.5t-40.5 -23t-49 -8q-36 0 -60.5 8.5t-42.5 20.5v85q20 -18 43.5 -28t48.5 -10q51 0 51 40q0 27 -25 37.5t-58 8.5v2l52 102h-111v81h230z" />
    <glyph glyph-name="acute" unicode="&#xb4;" 
d="M228 650h123l-90 -142h-112z" />
    <glyph glyph-name="paragraph" unicode="&#xb6;" horiz-adv-x="538" 
d="M479 614v-704h-91v704h91zM233 259q-39 0 -78.5 10t-71 32t-51 55.5t-19.5 80.5t19.5 80.5t51 55t71 31.5t78.5 10h91v-704h-91v349z" />
    <glyph glyph-name="periodcentered" unicode="&#xb7;" horiz-adv-x="214" 
d="M29 263q0 34 22.5 56.5t55.5 22.5t55.5 -22.5t22.5 -56.5t-22.5 -57t-55.5 -23t-55.5 23t-22.5 57z" />
    <glyph glyph-name="cedilla" unicode="&#xb8;" 
d="M225 -47h114l-74 -139h-110z" />
    <glyph glyph-name="onesuperior" unicode="&#xb9;" horiz-adv-x="230" 
d="M101 273v237l-87 -43v92l115 55h63v-341h-91z" />
    <glyph glyph-name="ordmasculine" unicode="&#xba;" horiz-adv-x="324" 
d="M315 468q0 -71 -42 -114.5t-111 -43.5q-34 0 -62.5 11.5t-48.5 32.5t-31.5 50t-11.5 64q0 34 11.5 63t31.5 50t48.5 32.5t62.5 11.5t62 -11.5t48.5 -32.5t31.5 -50t11 -63zM214 468q0 32 -13.5 52.5t-38.5 20.5t-38.5 -20.5t-13.5 -52.5t13.5 -52.5t38.5 -20.5t38.5 20.5
t13.5 52.5z" />
    <glyph glyph-name="guillemotright" unicode="&#xbb;" horiz-adv-x="420" 
d="M289 222l-92 161h106l92 -161l-92 -161h-106zM117 222l-92 161h106l92 -161l-92 -161h-106z" />
    <glyph glyph-name="onequarter" unicode="&#xbc;" horiz-adv-x="659" 
d="M523 137v57h79v-57h42v-75h-42v-62h-79v62h-167v26l117 253h91l-93 -204h52zM101 273v237l-87 -43v92l115 55h63v-341h-91zM65 0l431 614h90l-431 -614h-90z" />
    <glyph glyph-name="onehalf" unicode="&#xbd;" horiz-adv-x="678" 
d="M662 0h-254v2l99 132q23 32 36.5 51.5t13.5 39.5q0 17 -11.5 27t-31.5 10q-26 0 -52 -15t-43 -29v89q20 16 51 27.5t69 11.5q51 0 81 -28t30 -74q0 -32 -17 -61t-39 -60l-31 -43h99v-80zM101 273v237l-87 -43v92l115 55h63v-341h-91zM65 0l431 614h90l-431 -614h-90z" />
    <glyph glyph-name="threequarters" unicode="&#xbe;" horiz-adv-x="667" 
d="M531 137v57h79v-57h42v-75h-42v-62h-79v62h-167v26l117 253h91l-93 -204h52zM252 614v-2l-67 -132q32 -14 49 -38.5t17 -57.5q0 -28 -10 -49.5t-27.5 -36.5t-40.5 -23t-49 -8q-36 0 -60.5 8.5t-42.5 20.5v85q20 -18 43.5 -28t48.5 -10q51 0 51 40q0 27 -25 37.5t-58 8.5
v2l52 102h-111v81h230zM73 0l431 614h90l-431 -614h-90z" />
    <glyph glyph-name="questiondown" unicode="&#xbf;" horiz-adv-x="428" 
d="M223 204q-12 -15 -25 -28t-23.5 -26.5t-17 -28t-6.5 -32.5q0 -74 86 -74q26 0 50.5 7t46 18t40.5 25t34 28v-126q-33 -31 -83 -52t-110 -21q-89 0 -142 48t-53 132q0 28 9 52t23 45t31 40.5t34 37.5q23 24 29.5 40.5t7.5 30.5h122q-1 -18 -4 -32t-9 -27.5t-15.5 -27
t-24.5 -29.5zM297 448q0 -34 -22.5 -56t-55.5 -22q-34 0 -57 22t-23 56q0 32 23 54.5t57 22.5q33 0 55.5 -22.5t22.5 -54.5z" />
    <glyph glyph-name="Agrave" unicode="&#xc0;" horiz-adv-x="627" 
d="M612 0h-130l-55 148h-230l-54 -148h-128l235 614h127zM387 256l-75 204l-75 -204h150zM164 791h135l80 -122h-122z" />
    <glyph glyph-name="Aacute" unicode="&#xc1;" horiz-adv-x="627" 
d="M612 0h-130l-55 148h-230l-54 -148h-128l235 614h127zM387 256l-75 204l-75 -204h150zM326 791h135l-93 -122h-122z" />
    <glyph glyph-name="Acircumflex" unicode="&#xc2;" horiz-adv-x="627" 
d="M612 0h-130l-55 148h-230l-54 -148h-128l235 614h127zM387 256l-75 204l-75 -204h150zM360 669l-47 54l-47 -54h-105l100 127h104l100 -127h-105z" />
    <glyph glyph-name="Atilde" unicode="&#xc3;" horiz-adv-x="627" 
d="M612 0h-130l-55 148h-230l-54 -148h-128l235 614h127zM387 256l-75 204l-75 -204h150zM462 802q0 -30 -5 -55t-15 -44t-26.5 -29.5t-38.5 -10.5q-18 0 -33 6.5t-28.5 14.5t-26 14.5t-25.5 6.5q-28 0 -29 -39h-71q0 30 5 55t15 44t26 29.5t39 10.5q18 0 33 -6.5
t28.5 -14.5t26 -14.5t25.5 -6.5q27 0 29 39h71z" />
    <glyph glyph-name="Adieresis" unicode="&#xc4;" horiz-adv-x="627" 
d="M612 0h-130l-55 148h-230l-54 -148h-128l235 614h127zM387 256l-75 204l-75 -204h150zM164 730q0 29 19 48.5t48 19.5q28 0 47.5 -19.5t19.5 -48.5q0 -27 -19.5 -46.5t-47.5 -19.5q-29 0 -48 19.5t-19 46.5zM329 730q0 29 19.5 48.5t47.5 19.5t48 -19.5t20 -48.5
q0 -27 -20 -46.5t-48 -19.5t-47.5 19.5t-19.5 46.5z" />
    <glyph glyph-name="Aring" unicode="&#xc5;" horiz-adv-x="627" 
d="M612 0h-130l-55 148h-230l-54 -148h-128l235 614h127zM387 256l-75 204l-75 -204h150zM412 743q0 -21 -7.5 -38.5t-21 -30.5t-31.5 -20.5t-39 -7.5t-39 7.5t-31.5 20.5t-21 30.5t-7.5 38.5t7.5 38.5t21 30.5t31.5 20.5t39 7.5t39 -7.5t31.5 -20.5t21 -30.5t7.5 -38.5z
M353 743q0 17 -11.5 28.5t-28.5 11.5t-28 -11.5t-11 -28.5t11 -28t28 -11t28.5 11t11.5 28z" />
    <glyph glyph-name="AE" unicode="&#xc6;" horiz-adv-x="879" 
d="M839 502h-272v-134h245v-109h-245v-146h272v-113h-398v148h-208l-84 -148h-134l350 614h474v-112zM441 256v256l-146 -256h146z" />
    <glyph glyph-name="Ccedilla" unicode="&#xc7;" horiz-adv-x="538" 
d="M29 307q0 71 22.5 129.5t63 100t96.5 64.5t123 23q51 0 90.5 -12.5t69.5 -35.5v-129q-69 60 -154 60q-41 0 -74.5 -14t-57.5 -40.5t-37 -63.5t-13 -82t13 -81.5t37 -63t57.5 -40.5t74.5 -14q44 0 81.5 14t72.5 45v-129q-30 -23 -69.5 -35.5t-90.5 -12.5q-67 0 -123 23
t-96.5 64.5t-63 100t-22.5 129.5zM279 -47h114l-74 -139h-110z" />
    <glyph glyph-name="Egrave" unicode="&#xc8;" horiz-adv-x="516" 
d="M476 502h-291v-134h264v-109h-264v-146h291v-113h-417v614h417v-112zM124 791h135l80 -122h-122z" />
    <glyph glyph-name="Eacute" unicode="&#xc9;" horiz-adv-x="516" 
d="M476 502h-291v-134h264v-109h-264v-146h291v-113h-417v614h417v-112zM283 791h135l-93 -122h-122z" />
    <glyph glyph-name="Ecircumflex" unicode="&#xca;" horiz-adv-x="516" 
d="M476 502h-291v-134h264v-109h-264v-146h291v-113h-417v614h417v-112zM318 669l-47 54l-47 -54h-105l100 127h104l100 -127h-105z" />
    <glyph glyph-name="Edieresis" unicode="&#xcb;" horiz-adv-x="516" 
d="M476 502h-291v-134h264v-109h-264v-146h291v-113h-417v614h417v-112zM121 730q0 29 19 48.5t48 19.5q28 0 47.5 -19.5t19.5 -48.5q0 -27 -19.5 -46.5t-47.5 -19.5q-29 0 -48 19.5t-19 46.5zM286 730q0 29 19.5 48.5t47.5 19.5t48 -19.5t20 -48.5q0 -27 -20 -46.5
t-48 -19.5t-47.5 19.5t-19.5 46.5z" />
    <glyph glyph-name="Igrave" unicode="&#xcc;" horiz-adv-x="245" 
d="M59 0v614h128v-614h-128zM-25 791h135l80 -122h-122z" />
    <glyph glyph-name="Iacute" unicode="&#xcd;" horiz-adv-x="245" 
d="M59 0v614h128v-614h-128zM137 791h135l-93 -122h-122z" />
    <glyph glyph-name="Icircumflex" unicode="&#xce;" horiz-adv-x="245" 
d="M59 0v614h128v-614h-128zM171 669l-47 54l-47 -54h-105l100 127h104l100 -127h-105z" />
    <glyph glyph-name="Idieresis" unicode="&#xcf;" horiz-adv-x="245" 
d="M59 0v614h128v-614h-128zM-26 730q0 29 19 48.5t48 19.5q28 0 47.5 -19.5t19.5 -48.5q0 -27 -19.5 -46.5t-47.5 -19.5q-29 0 -48 19.5t-19 46.5zM139 730q0 29 19.5 48.5t47.5 19.5t48 -19.5t20 -48.5q0 -27 -20 -46.5t-48 -19.5t-47.5 19.5t-19.5 46.5z" />
    <glyph glyph-name="Eth" unicode="&#xd0;" horiz-adv-x="626" 
d="M76 367v247h217q70 0 126 -21.5t95.5 -61.5t60.5 -97t21 -127t-21 -127t-60.5 -97t-95.5 -61.5t-126 -21.5h-217v264h-51v103h51zM288 113q88 0 134.5 52t46.5 142q0 91 -46.5 143t-134.5 52h-85v-135h103v-103h-103v-151h85z" />
    <glyph glyph-name="Ntilde" unicode="&#xd1;" horiz-adv-x="632" 
d="M472 0l-290 409v-409h-123v614h120l271 -388v388h123v-614h-101zM465 802q0 -30 -5 -55t-15 -44t-26.5 -29.5t-38.5 -10.5q-18 0 -33 6.5t-28.5 14.5t-26 14.5t-25.5 6.5q-28 0 -29 -39h-71q0 30 5 55t15 44t26 29.5t39 10.5q18 0 33 -6.5t28.5 -14.5t26 -14.5t25.5 -6.5
q27 0 29 39h71z" />
    <glyph glyph-name="Ograve" unicode="&#xd2;" horiz-adv-x="640" 
d="M610 307q0 -69 -21.5 -127t-60 -100t-92 -66t-117.5 -24t-117.5 24t-91.5 66t-59.5 100t-21.5 127t21.5 127t59.5 100.5t91.5 66t117.5 23.5t117.5 -23.5t92 -66t60 -100.5t21.5 -127zM481 307q0 45 -11.5 82.5t-32.5 64t-51 41.5t-67 15q-36 0 -65.5 -15t-50.5 -41.5
t-32.5 -64t-11.5 -82.5t11.5 -82.5t32.5 -64t50.5 -41.5t65.5 -15q37 0 67 15t51 41.5t32.5 64t11.5 82.5zM172 791h135l80 -122h-122z" />
    <glyph glyph-name="Oacute" unicode="&#xd3;" horiz-adv-x="640" 
d="M610 307q0 -69 -21.5 -127t-60 -100t-92 -66t-117.5 -24t-117.5 24t-91.5 66t-59.5 100t-21.5 127t21.5 127t59.5 100.5t91.5 66t117.5 23.5t117.5 -23.5t92 -66t60 -100.5t21.5 -127zM481 307q0 45 -11.5 82.5t-32.5 64t-51 41.5t-67 15q-36 0 -65.5 -15t-50.5 -41.5
t-32.5 -64t-11.5 -82.5t11.5 -82.5t32.5 -64t50.5 -41.5t65.5 -15q37 0 67 15t51 41.5t32.5 64t11.5 82.5zM332 791h135l-93 -122h-122z" />
    <glyph glyph-name="Ocircumflex" unicode="&#xd4;" horiz-adv-x="640" 
d="M610 307q0 -69 -21.5 -127t-60 -100t-92 -66t-117.5 -24t-117.5 24t-91.5 66t-59.5 100t-21.5 127t21.5 127t59.5 100.5t91.5 66t117.5 23.5t117.5 -23.5t92 -66t60 -100.5t21.5 -127zM481 307q0 45 -11.5 82.5t-32.5 64t-51 41.5t-67 15q-36 0 -65.5 -15t-50.5 -41.5
t-32.5 -64t-11.5 -82.5t11.5 -82.5t32.5 -64t50.5 -41.5t65.5 -15q37 0 67 15t51 41.5t32.5 64t11.5 82.5zM366 669l-47 54l-47 -54h-105l100 127h104l100 -127h-105z" />
    <glyph glyph-name="Otilde" unicode="&#xd5;" horiz-adv-x="640" 
d="M610 307q0 -69 -21.5 -127t-60 -100t-92 -66t-117.5 -24t-117.5 24t-91.5 66t-59.5 100t-21.5 127t21.5 127t59.5 100.5t91.5 66t117.5 23.5t117.5 -23.5t92 -66t60 -100.5t21.5 -127zM481 307q0 45 -11.5 82.5t-32.5 64t-51 41.5t-67 15q-36 0 -65.5 -15t-50.5 -41.5
t-32.5 -64t-11.5 -82.5t11.5 -82.5t32.5 -64t50.5 -41.5t65.5 -15q37 0 67 15t51 41.5t32.5 64t11.5 82.5zM468 802q0 -30 -5 -55t-15 -44t-26.5 -29.5t-38.5 -10.5q-18 0 -33 6.5t-28.5 14.5t-26 14.5t-25.5 6.5q-28 0 -29 -39h-71q0 30 5 55t15 44t26 29.5t39 10.5
q18 0 33 -6.5t28.5 -14.5t26 -14.5t25.5 -6.5q27 0 29 39h71z" />
    <glyph glyph-name="Odieresis" unicode="&#xd6;" horiz-adv-x="640" 
d="M610 307q0 -69 -21.5 -127t-60 -100t-92 -66t-117.5 -24t-117.5 24t-91.5 66t-59.5 100t-21.5 127t21.5 127t59.5 100.5t91.5 66t117.5 23.5t117.5 -23.5t92 -66t60 -100.5t21.5 -127zM481 307q0 45 -11.5 82.5t-32.5 64t-51 41.5t-67 15q-36 0 -65.5 -15t-50.5 -41.5
t-32.5 -64t-11.5 -82.5t11.5 -82.5t32.5 -64t50.5 -41.5t65.5 -15q37 0 67 15t51 41.5t32.5 64t11.5 82.5zM170 730q0 29 19 48.5t48 19.5q28 0 47.5 -19.5t19.5 -48.5q0 -27 -19.5 -46.5t-47.5 -19.5q-29 0 -48 19.5t-19 46.5zM335 730q0 29 19.5 48.5t47.5 19.5t48 -19.5
t20 -48.5q0 -27 -20 -46.5t-48 -19.5t-47.5 19.5t-19.5 46.5z" />
    <glyph glyph-name="multiply" unicode="&#xd7;" horiz-adv-x="495" 
d="M126 484l121 -121l121 121l67 -66l-122 -120l122 -121l-67 -67l-121 121l-121 -121l-66 67l122 121l-122 120z" />
    <glyph glyph-name="Oslash" unicode="&#xd8;" horiz-adv-x="649" 
d="M102 94q-32 42 -50 96t-18 117q0 69 21.5 127t59.5 100.5t91.5 66t117.5 23.5q50 0 93 -14.5t78 -40.5l48 58l58 -44l-54 -65q32 -42 50 -95t18 -116q0 -69 -21.5 -127t-60 -100t-92 -66t-117.5 -24q-49 0 -91.5 13.5t-77.5 39.5l-47 -56l-58 44zM163 307q0 -67 21 -113
l236 284q-19 15 -43 23.5t-53 8.5q-36 0 -66 -15t-51 -41.5t-32.5 -64t-11.5 -82.5zM486 307q0 64 -21 111l-235 -284q39 -30 94 -30q36 0 66 15t51.5 41.5t33 64t11.5 82.5z" />
    <glyph glyph-name="Ugrave" unicode="&#xd9;" horiz-adv-x="610" 
d="M305 -10q-57 0 -104 16.5t-80.5 48.5t-52 80.5t-18.5 111.5v367h128v-354q0 -79 33 -117t94 -38t94 38t33 117v354h128v-367q0 -63 -18 -111.5t-51.5 -80.5t-80.5 -48.5t-105 -16.5zM156 791h135l80 -122h-122z" />
    <glyph glyph-name="Uacute" unicode="&#xda;" horiz-adv-x="610" 
d="M305 -10q-57 0 -104 16.5t-80.5 48.5t-52 80.5t-18.5 111.5v367h128v-354q0 -79 33 -117t94 -38t94 38t33 117v354h128v-367q0 -63 -18 -111.5t-51.5 -80.5t-80.5 -48.5t-105 -16.5zM318 791h135l-93 -122h-122z" />
    <glyph glyph-name="Ucircumflex" unicode="&#xdb;" horiz-adv-x="610" 
d="M305 -10q-57 0 -104 16.5t-80.5 48.5t-52 80.5t-18.5 111.5v367h128v-354q0 -79 33 -117t94 -38t94 38t33 117v354h128v-367q0 -63 -18 -111.5t-51.5 -80.5t-80.5 -48.5t-105 -16.5zM352 669l-47 54l-47 -54h-105l100 127h104l100 -127h-105z" />
    <glyph glyph-name="Udieresis" unicode="&#xdc;" horiz-adv-x="610" 
d="M305 -10q-57 0 -104 16.5t-80.5 48.5t-52 80.5t-18.5 111.5v367h128v-354q0 -79 33 -117t94 -38t94 38t33 117v354h128v-367q0 -63 -18 -111.5t-51.5 -80.5t-80.5 -48.5t-105 -16.5zM156 730q0 29 19 48.5t48 19.5q28 0 47.5 -19.5t19.5 -48.5q0 -27 -19.5 -46.5
t-47.5 -19.5q-29 0 -48 19.5t-19 46.5zM321 730q0 29 19.5 48.5t47.5 19.5t48 -19.5t20 -48.5q0 -27 -20 -46.5t-48 -19.5t-47.5 19.5t-19.5 46.5z" />
    <glyph glyph-name="Yacute" unicode="&#xdd;" horiz-adv-x="593" 
d="M582 614l-223 -381v-233h-127v233l-221 381h139l149 -260l148 260h135zM309 791h135l-93 -122h-122z" />
    <glyph glyph-name="Thorn" unicode="&#xde;" horiz-adv-x="552" 
d="M186 0h-127v614h127v-99h123q49 0 88.5 -13t68 -38t44 -63t15.5 -87t-15.5 -86t-44 -62.5t-68 -38.5t-88.5 -13h-123v-114zM399 314q0 42 -24 67t-74 25h-115v-183h115q50 0 74 25.5t24 65.5z" />
    <glyph glyph-name="germandbls" unicode="&#xdf;" horiz-adv-x="526" 
d="M54 497q0 78 43 120t115 42q23 0 39 -3t30 -9v-105q-10 7 -21.5 9.5t-22.5 2.5q-28 0 -44.5 -15.5t-16.5 -46.5v-45h326v-4l-104 -209q41 -25 70 -69t29 -105q0 -57 -21 -101t-59 -74t-90 -45t-115 -15v104q75 0 121.5 32t46.5 100q0 47 -32.5 77.5t-86.5 49.5v4l74 155
h-159v-347h-122v497z" />
    <glyph glyph-name="agrave" unicode="&#xe0;" horiz-adv-x="468" 
d="M300 279q0 32 -26 51t-74 19q-34 0 -65 -9.5t-57 -26.5v107q24 15 64 26t85 11q93 0 142.5 -45t49.5 -127v-285h-119v24q-11 -11 -41 -21.5t-67 -10.5q-34 0 -64 9.5t-52.5 28t-35.5 45.5t-13 62q0 32 13 58.5t36.5 45t55 29t68.5 10.5q29 0 57.5 -8t42.5 -18v25z
M300 154q-8 18 -30.5 28.5t-48.5 10.5q-15 0 -29 -3.5t-25 -10t-18 -17t-7 -24.5q0 -15 7 -25t18 -17t25 -10t29 -3q26 0 48.5 10.5t30.5 28.5v32zM100 650h123l79 -142h-113z" />
    <glyph glyph-name="aacute" unicode="&#xe1;" horiz-adv-x="468" 
d="M300 279q0 32 -26 51t-74 19q-34 0 -65 -9.5t-57 -26.5v107q24 15 64 26t85 11q93 0 142.5 -45t49.5 -127v-285h-119v24q-11 -11 -41 -21.5t-67 -10.5q-34 0 -64 9.5t-52.5 28t-35.5 45.5t-13 62q0 32 13 58.5t36.5 45t55 29t68.5 10.5q29 0 57.5 -8t42.5 -18v25z
M300 154q-8 18 -30.5 28.5t-48.5 10.5q-15 0 -29 -3.5t-25 -10t-18 -17t-7 -24.5q0 -15 7 -25t18 -17t25 -10t29 -3q26 0 48.5 10.5t30.5 28.5v32zM257 650h123l-90 -142h-112z" />
    <glyph glyph-name="acircumflex" unicode="&#xe2;" horiz-adv-x="468" 
d="M300 279q0 32 -26 51t-74 19q-34 0 -65 -9.5t-57 -26.5v107q24 15 64 26t85 11q93 0 142.5 -45t49.5 -127v-285h-119v24q-11 -11 -41 -21.5t-67 -10.5q-34 0 -64 9.5t-52.5 28t-35.5 45.5t-13 62q0 32 13 58.5t36.5 45t55 29t68.5 10.5q29 0 57.5 -8t42.5 -18v25z
M300 154q-8 18 -30.5 28.5t-48.5 10.5q-15 0 -29 -3.5t-25 -10t-18 -17t-7 -24.5q0 -15 7 -25t18 -17t25 -10t29 -3q26 0 48.5 10.5t30.5 28.5v32zM290 502l-49 69l-49 -69h-98l95 145h104l95 -145h-98z" />
    <glyph glyph-name="atilde" unicode="&#xe3;" horiz-adv-x="468" 
d="M300 279q0 32 -26 51t-74 19q-34 0 -65 -9.5t-57 -26.5v107q24 15 64 26t85 11q93 0 142.5 -45t49.5 -127v-285h-119v24q-11 -11 -41 -21.5t-67 -10.5q-34 0 -64 9.5t-52.5 28t-35.5 45.5t-13 62q0 32 13 58.5t36.5 45t55 29t68.5 10.5q29 0 57.5 -8t42.5 -18v25z
M300 154q-8 18 -30.5 28.5t-48.5 10.5q-15 0 -29 -3.5t-25 -10t-18 -17t-7 -24.5q0 -15 7 -25t18 -17t25 -10t29 -3q26 0 48.5 10.5t30.5 28.5v32zM384 643q0 -30 -5 -55t-15.5 -44t-27 -29.5t-38.5 -10.5q-17 0 -30 7t-24.5 16t-22.5 16t-22 7q-14 0 -21.5 -11t-8.5 -31
h-71q0 30 5 55t15.5 44t26.5 29.5t39 10.5q16 0 29.5 -7t25.5 -16t22.5 -16t21.5 -7q14 0 21.5 11t8.5 31h71z" />
    <glyph glyph-name="adieresis" unicode="&#xe4;" horiz-adv-x="468" 
d="M300 279q0 32 -26 51t-74 19q-34 0 -65 -9.5t-57 -26.5v107q24 15 64 26t85 11q93 0 142.5 -45t49.5 -127v-285h-119v24q-11 -11 -41 -21.5t-67 -10.5q-34 0 -64 9.5t-52.5 28t-35.5 45.5t-13 62q0 32 13 58.5t36.5 45t55 29t68.5 10.5q29 0 57.5 -8t42.5 -18v25z
M300 154q-8 18 -30.5 28.5t-48.5 10.5q-15 0 -29 -3.5t-25 -10t-18 -17t-7 -24.5q0 -15 7 -25t18 -17t25 -10t29 -3q26 0 48.5 10.5t30.5 28.5v32zM93 570q0 29 19.5 48t47.5 19q27 0 46.5 -19t19.5 -48q0 -27 -19.5 -46.5t-46.5 -19.5q-28 0 -47.5 19.5t-19.5 46.5z
M257 570q0 29 19.5 48t46.5 19t47 -19t20 -48q0 -27 -20 -46.5t-47 -19.5t-46.5 19.5t-19.5 46.5z" />
    <glyph glyph-name="aring" unicode="&#xe5;" horiz-adv-x="468" 
d="M300 279q0 32 -26 51t-74 19q-34 0 -65 -9.5t-57 -26.5v107q24 15 64 26t85 11q93 0 142.5 -45t49.5 -127v-285h-119v24q-11 -11 -41 -21.5t-67 -10.5q-34 0 -64 9.5t-52.5 28t-35.5 45.5t-13 62q0 32 13 58.5t36.5 45t55 29t68.5 10.5q29 0 57.5 -8t42.5 -18v25z
M300 154q-8 18 -30.5 28.5t-48.5 10.5q-15 0 -29 -3.5t-25 -10t-18 -17t-7 -24.5q0 -15 7 -25t18 -17t25 -10t29 -3q26 0 48.5 10.5t30.5 28.5v32zM340 584q0 -21 -7.5 -38.5t-21 -30.5t-31.5 -20.5t-39 -7.5t-39 7.5t-31.5 20.5t-21 30.5t-7.5 38.5t7.5 38.5t21 30.5
t31.5 20.5t39 7.5t39 -7.5t31.5 -20.5t21 -30.5t7.5 -38.5zM281 584q0 17 -11.5 28.5t-28.5 11.5t-28 -11.5t-11 -28.5t11 -28t28 -11t28.5 11t11.5 28z" />
    <glyph glyph-name="ae" unicode="&#xe6;" horiz-adv-x="724" 
d="M519 -10q-106 0 -167 63q-30 -28 -68.5 -45t-90.5 -17q-34 0 -64 9.5t-52.5 27.5t-36 44t-13.5 59q0 34 14 60.5t39 45t57.5 28t70.5 9.5h91v9q-2 31 -28 49t-71 18q-35 0 -65 -10t-57 -27v107q24 15 63.5 26t83.5 11q51 0 86 -15t57 -43q24 26 58.5 42t73.5 16
q48 0 85 -16.5t61.5 -46t37 -71t12.5 -90.5v-40h-287q8 -53 44 -77t84 -24q37 0 66.5 9t62.5 30v-102q-28 -20 -65 -29.5t-82 -9.5zM212 87q32 0 54 13.5t33 37.5v55h-80q-29 0 -53 -11.5t-24 -40.5q0 -28 21.5 -41t48.5 -13zM502 359q-31 0 -56 -20t-35 -65h171
q-2 35 -22.5 60t-57.5 25z" />
    <glyph glyph-name="ccedilla" unicode="&#xe7;" horiz-adv-x="405" 
d="M26 223q0 54 17.5 97.5t48 73.5t71.5 46.5t89 16.5q34 0 65.5 -8t55.5 -27v-113q-44 40 -106 40q-50 0 -84 -33t-34 -93t34 -93t84 -33q60 0 106 40v-112q-24 -19 -55.5 -27t-65.5 -8q-48 0 -89 16.5t-71.5 46.5t-48 73t-17.5 97zM199 -47h114l-74 -139h-110z" />
    <glyph glyph-name="egrave" unicode="&#xe8;" horiz-adv-x="460" 
d="M145 195q8 -55 43.5 -79t85.5 -24q37 0 66 9t62 30v-102q-28 -20 -65 -29.5t-82 -9.5q-51 0 -93 16t-72.5 46t-47 72.5t-16.5 95.5q0 52 15.5 96t43.5 75t66.5 48.5t84.5 17.5q49 0 85.5 -16t61.5 -45.5t37.5 -70.5t12.5 -90v-40h-288zM239 358q-31 0 -55 -20t-35 -62
h169q-2 36 -22 59t-57 23zM102 650h123l79 -142h-113z" />
    <glyph glyph-name="eacute" unicode="&#xe9;" horiz-adv-x="460" 
d="M145 195q8 -55 43.5 -79t85.5 -24q37 0 66 9t62 30v-102q-28 -20 -65 -29.5t-82 -9.5q-51 0 -93 16t-72.5 46t-47 72.5t-16.5 95.5q0 52 15.5 96t43.5 75t66.5 48.5t84.5 17.5q49 0 85.5 -16t61.5 -45.5t37.5 -70.5t12.5 -90v-40h-288zM239 358q-31 0 -55 -20t-35 -62
h169q-2 36 -22 59t-57 23zM259 650h123l-90 -142h-112z" />
    <glyph glyph-name="ecircumflex" unicode="&#xea;" horiz-adv-x="460" 
d="M145 195q8 -55 43.5 -79t85.5 -24q37 0 66 9t62 30v-102q-28 -20 -65 -29.5t-82 -9.5q-51 0 -93 16t-72.5 46t-47 72.5t-16.5 95.5q0 52 15.5 96t43.5 75t66.5 48.5t84.5 17.5q49 0 85.5 -16t61.5 -45.5t37.5 -70.5t12.5 -90v-40h-288zM239 358q-31 0 -55 -20t-35 -62
h169q-2 36 -22 59t-57 23zM292 502l-49 69l-49 -69h-98l95 145h104l95 -145h-98z" />
    <glyph glyph-name="edieresis" unicode="&#xeb;" horiz-adv-x="460" 
d="M145 195q8 -55 43.5 -79t85.5 -24q37 0 66 9t62 30v-102q-28 -20 -65 -29.5t-82 -9.5q-51 0 -93 16t-72.5 46t-47 72.5t-16.5 95.5q0 52 15.5 96t43.5 75t66.5 48.5t84.5 17.5q49 0 85.5 -16t61.5 -45.5t37.5 -70.5t12.5 -90v-40h-288zM239 358q-31 0 -55 -20t-35 -62
h169q-2 36 -22 59t-57 23zM95 570q0 29 19.5 48t47.5 19q27 0 46.5 -19t19.5 -48q0 -27 -19.5 -46.5t-46.5 -19.5q-28 0 -47.5 19.5t-19.5 46.5zM259 570q0 29 19.5 48t46.5 19t47 -19t20 -48q0 -27 -20 -46.5t-47 -19.5t-46.5 19.5t-19.5 46.5z" />
    <glyph glyph-name="igrave" unicode="&#xec;" horiz-adv-x="232" 
d="M54 0v447h124v-447h-124zM-24 650h123l79 -142h-113z" />
    <glyph glyph-name="iacute" unicode="&#xed;" horiz-adv-x="232" 
d="M54 0v447h124v-447h-124zM135 650h123l-90 -142h-112z" />
    <glyph glyph-name="icircumflex" unicode="&#xee;" horiz-adv-x="232" 
d="M150 502l-34 70l-35 -70h-95l78 145h104l77 -145h-95zM54 0v447h124v-447h-124z" />
    <glyph glyph-name="idieresis" unicode="&#xef;" horiz-adv-x="232" 
d="M-27 570q0 29 19.5 48t47.5 19q27 0 46.5 -19t19.5 -48q0 -27 -19.5 -46.5t-46.5 -19.5q-28 0 -47.5 19.5t-19.5 46.5zM127 570q0 29 19 48t47 19q27 0 46.5 -19t19.5 -48q0 -27 -19.5 -46.5t-46.5 -19.5q-28 0 -47 19.5t-19 46.5zM54 0v447h124v-447h-124z" />
    <glyph glyph-name="eth" unicode="&#xf0;" horiz-adv-x="489" 
d="M176 565q-26 21 -52.5 41.5t-53.5 39.5v4h157q17 -11 32 -23.5t29 -25.5l85 28l24 -62l-56 -18q59 -67 91 -146.5t32 -168.5q0 -56 -16 -101t-45 -77t-69 -49t-89 -17t-89 17t-69 47.5t-45 73t-16 93.5t16 93.5t43.5 73t65.5 47t83 16.5q24 0 41 -7t28 -17h4
q-9 17 -28 39.5t-45 47.5l-97 -31l-24 62zM341 221q0 56 -24.5 91.5t-71.5 35.5t-71.5 -35.5t-24.5 -91.5t24.5 -91t71.5 -35t71.5 35t24.5 91z" />
    <glyph glyph-name="ntilde" unicode="&#xf1;" horiz-adv-x="505" 
d="M178 447v-41q18 21 49.5 36t70.5 15q76 0 117 -45t41 -120v-292h-124v266q0 35 -18 57t-55 22q-29 0 -51 -16.5t-30 -45.5v-283h-124v447h124zM400 643q0 -30 -5 -55t-15.5 -44t-27 -29.5t-38.5 -10.5q-17 0 -30 7t-24.5 16t-22.5 16t-22 7q-14 0 -21.5 -11t-8.5 -31h-71
q0 30 5 55t15.5 44t26.5 29.5t39 10.5q16 0 29.5 -7t25.5 -16t22.5 -16t21.5 -7q14 0 21.5 11t8.5 31h71z" />
    <glyph glyph-name="ograve" unicode="&#xf2;" horiz-adv-x="489" 
d="M464 223q0 -51 -16 -94t-45 -74t-69 -48t-89 -17t-89 17t-69 48t-45 74t-16 94q0 52 16 95t45 74t69 48t89 17t89 -17t69 -48t45 -74t16 -95zM341 223q0 57 -24.5 93t-71.5 36t-71.5 -36t-24.5 -93q0 -56 24.5 -92t71.5 -36t71.5 36t24.5 92zM105 650h123l79 -142h-113z
" />
    <glyph glyph-name="oacute" unicode="&#xf3;" horiz-adv-x="489" 
d="M464 223q0 -51 -16 -94t-45 -74t-69 -48t-89 -17t-89 17t-69 48t-45 74t-16 94q0 52 16 95t45 74t69 48t89 17t89 -17t69 -48t45 -74t16 -95zM341 223q0 57 -24.5 93t-71.5 36t-71.5 -36t-24.5 -93q0 -56 24.5 -92t71.5 -36t71.5 36t24.5 92zM262 650h123l-90 -142h-112z
" />
    <glyph glyph-name="ocircumflex" unicode="&#xf4;" horiz-adv-x="489" 
d="M464 223q0 -51 -16 -94t-45 -74t-69 -48t-89 -17t-89 17t-69 48t-45 74t-16 94q0 52 16 95t45 74t69 48t89 17t89 -17t69 -48t45 -74t16 -95zM341 223q0 57 -24.5 93t-71.5 36t-71.5 -36t-24.5 -93q0 -56 24.5 -92t71.5 -36t71.5 36t24.5 92zM295 502l-49 69l-49 -69h-98
l95 145h104l95 -145h-98z" />
    <glyph glyph-name="otilde" unicode="&#xf5;" horiz-adv-x="489" 
d="M464 223q0 -51 -16 -94t-45 -74t-69 -48t-89 -17t-89 17t-69 48t-45 74t-16 94q0 52 16 95t45 74t69 48t89 17t89 -17t69 -48t45 -74t16 -95zM341 223q0 57 -24.5 93t-71.5 36t-71.5 -36t-24.5 -93q0 -56 24.5 -92t71.5 -36t71.5 36t24.5 92zM389 643q0 -30 -5 -55
t-15.5 -44t-27 -29.5t-38.5 -10.5q-17 0 -30 7t-24.5 16t-22.5 16t-22 7q-14 0 -21.5 -11t-8.5 -31h-71q0 30 5 55t15.5 44t26.5 29.5t39 10.5q16 0 29.5 -7t25.5 -16t22.5 -16t21.5 -7q14 0 21.5 11t8.5 31h71z" />
    <glyph glyph-name="odieresis" unicode="&#xf6;" horiz-adv-x="489" 
d="M464 223q0 -51 -16 -94t-45 -74t-69 -48t-89 -17t-89 17t-69 48t-45 74t-16 94q0 52 16 95t45 74t69 48t89 17t89 -17t69 -48t45 -74t16 -95zM341 223q0 57 -24.5 93t-71.5 36t-71.5 -36t-24.5 -93q0 -56 24.5 -92t71.5 -36t71.5 36t24.5 92zM98 570q0 29 19.5 48
t47.5 19q27 0 46.5 -19t19.5 -48q0 -27 -19.5 -46.5t-46.5 -19.5q-28 0 -47.5 19.5t-19.5 46.5zM262 570q0 29 19.5 48t46.5 19t47 -19t20 -48q0 -27 -20 -46.5t-47 -19.5t-46.5 19.5t-19.5 46.5z" />
    <glyph glyph-name="divide" unicode="&#xf7;" horiz-adv-x="560" 
d="M496 347v-96h-432v96h432zM210 472q0 29 20.5 50t49.5 21t50.5 -21t21.5 -50t-21.5 -49.5t-50.5 -20.5t-49.5 20.5t-20.5 49.5zM210 126q0 29 20.5 49.5t49.5 20.5t50.5 -20.5t21.5 -49.5t-21.5 -50t-50.5 -21t-49.5 21t-20.5 50z" />
    <glyph glyph-name="oslash" unicode="&#xf8;" horiz-adv-x="499" 
d="M81 67q-50 62 -50 156q0 52 16 95t45 74t69 48t89 17q35 0 66 -9t57 -26l41 50l48 -36l-45 -55q25 -30 38.5 -70t13.5 -88q0 -51 -16 -94t-45 -74t-69 -48t-89 -17q-72 0 -124 35l-43 -53l-49 37zM348 223q0 17 -2.5 32t-7.5 29l-142 -174q22 -17 54 -17q47 0 72.5 37
t25.5 93zM152 223q0 -34 9 -59l142 172q-23 17 -53 17q-47 0 -72.5 -36.5t-25.5 -93.5z" />
    <glyph glyph-name="ugrave" unicode="&#xf9;" horiz-adv-x="503" 
d="M326 0v41q-19 -21 -50 -36t-70 -15q-75 0 -116 45t-41 120v292h124v-267q0 -35 17.5 -57t54.5 -22q29 0 51 16.5t29 45.5v284h125v-447h-124zM112 650h123l79 -142h-113z" />
    <glyph glyph-name="uacute" unicode="&#xfa;" horiz-adv-x="503" 
d="M326 0v41q-19 -21 -50 -36t-70 -15q-75 0 -116 45t-41 120v292h124v-267q0 -35 17.5 -57t54.5 -22q29 0 51 16.5t29 45.5v284h125v-447h-124zM270 650h123l-90 -142h-112z" />
    <glyph glyph-name="ucircumflex" unicode="&#xfb;" horiz-adv-x="503" 
d="M326 0v41q-19 -21 -50 -36t-70 -15q-75 0 -116 45t-41 120v292h124v-267q0 -35 17.5 -57t54.5 -22q29 0 51 16.5t29 45.5v284h125v-447h-124zM301 502l-49 69l-49 -69h-98l95 145h104l95 -145h-98z" />
    <glyph glyph-name="udieresis" unicode="&#xfc;" horiz-adv-x="503" 
d="M326 0v41q-19 -21 -50 -36t-70 -15q-75 0 -116 45t-41 120v292h124v-267q0 -35 17.5 -57t54.5 -22q29 0 51 16.5t29 45.5v284h125v-447h-124zM104 570q0 29 19.5 48t47.5 19q27 0 46.5 -19t19.5 -48q0 -27 -19.5 -46.5t-46.5 -19.5q-28 0 -47.5 19.5t-19.5 46.5zM268 570
q0 29 19.5 48t46.5 19t47 -19t20 -48q0 -27 -20 -46.5t-47 -19.5t-46.5 19.5t-19.5 46.5z" />
    <glyph glyph-name="yacute" unicode="&#xfd;" horiz-adv-x="487" 
d="M184 -2l-171 449h131l103 -297l102 297h125l-233 -612h-122zM264 650h123l-90 -142h-112z" />
    <glyph glyph-name="thorn" unicode="&#xfe;" horiz-adv-x="519" 
d="M54 -165v815h124v-240q15 18 45.5 32.5t66.5 14.5q49 0 87 -19t64 -51t39.5 -74.5t13.5 -89.5t-13.5 -89.5t-39.5 -74.5t-64 -50.5t-87 -18.5q-36 0 -66.5 14.5t-45.5 32.5v-202h-124zM178 150q11 -23 34 -37.5t50 -14.5q51 0 79 35.5t28 89.5t-28 90t-79 36
q-28 0 -50.5 -14.5t-33.5 -37.5v-147z" />
    <glyph glyph-name="ydieresis" unicode="&#xff;" horiz-adv-x="487" 
d="M184 -2l-171 449h131l103 -297l102 297h125l-233 -612h-122zM99 570q0 29 19.5 48t47.5 19q27 0 46.5 -19t19.5 -48q0 -27 -19.5 -46.5t-46.5 -19.5q-28 0 -47.5 19.5t-19.5 46.5zM263 570q0 29 19.5 48t46.5 19t47 -19t20 -48q0 -27 -20 -46.5t-47 -19.5t-46.5 19.5
t-19.5 46.5z" />
    <glyph glyph-name="Amacron" unicode="&#x100;" horiz-adv-x="627" 
d="M612 0h-130l-55 148h-230l-54 -148h-128l235 614h127zM387 256l-75 204l-75 -204h150zM435 760v-91h-243v91h243z" />
    <glyph glyph-name="amacron" unicode="&#x101;" horiz-adv-x="468" 
d="M300 279q0 32 -26 51t-74 19q-34 0 -65 -9.5t-57 -26.5v107q24 15 64 26t85 11q93 0 142.5 -45t49.5 -127v-285h-119v24q-11 -11 -41 -21.5t-67 -10.5q-34 0 -64 9.5t-52.5 28t-35.5 45.5t-13 62q0 32 13 58.5t36.5 45t55 29t68.5 10.5q29 0 57.5 -8t42.5 -18v25z
M300 154q-8 18 -30.5 28.5t-48.5 10.5q-15 0 -29 -3.5t-25 -10t-18 -17t-7 -24.5q0 -15 7 -25t18 -17t25 -10t29 -3q26 0 48.5 10.5t30.5 28.5v32zM360 607v-91h-237v91h237z" />
    <glyph glyph-name="Abreve" unicode="&#x102;" horiz-adv-x="627" 
d="M612 0h-130l-55 148h-230l-54 -148h-128l235 614h127zM387 256l-75 204l-75 -204h150zM313 663q-60 0 -97 34t-37 100h88q0 -25 13 -36.5t33 -11.5q22 0 34.5 11.5t12.5 36.5h88q0 -66 -37 -100t-98 -34z" />
    <glyph glyph-name="abreve" unicode="&#x103;" horiz-adv-x="468" 
d="M300 279q0 32 -26 51t-74 19q-34 0 -65 -9.5t-57 -26.5v107q24 15 64 26t85 11q93 0 142.5 -45t49.5 -127v-285h-119v24q-11 -11 -41 -21.5t-67 -10.5q-34 0 -64 9.5t-52.5 28t-35.5 45.5t-13 62q0 32 13 58.5t36.5 45t55 29t68.5 10.5q29 0 57.5 -8t42.5 -18v25z
M300 154q-8 18 -30.5 28.5t-48.5 10.5q-15 0 -29 -3.5t-25 -10t-18 -17t-7 -24.5q0 -15 7 -25t18 -17t25 -10t29 -3q26 0 48.5 10.5t30.5 28.5v32zM241 492q-60 0 -96.5 36t-36.5 106h88q0 -26 11 -42t34 -16t34 16t11 42h88q0 -70 -36.5 -106t-96.5 -36z" />
    <glyph glyph-name="Aogonek" unicode="&#x104;" horiz-adv-x="627" 
d="M612 0q-15 -21 -24.5 -34t-15 -22.5t-8 -16.5t-2.5 -15q0 -9 5.5 -15t14.5 -6t17 4t20 12v-74q-13 -9 -28 -15t-34 -6q-39 0 -60.5 20.5t-21.5 54.5q0 31 16 57.5t38 55.5h-47l-55 148h-230l-54 -148h-128l235 614h127zM387 256l-75 204l-75 -204h150z" />
    <glyph glyph-name="aogonek" unicode="&#x105;" horiz-adv-x="468" 
d="M300 154q-8 18 -30.5 28.5t-48.5 10.5q-15 0 -29 -3.5t-25 -10t-18 -17t-7 -24.5q0 -15 7 -25t18 -17t25 -10t29 -3q26 0 48.5 10.5t30.5 28.5v32zM300 24q-11 -11 -41 -21.5t-67 -10.5q-34 0 -64 9.5t-52.5 28t-35.5 45.5t-13 62q0 32 13 58.5t36.5 45t55 29t68.5 10.5
q29 0 57.5 -8t42.5 -18v25q0 32 -26 51t-74 19q-34 0 -65 -9.5t-57 -26.5v107q24 15 64 26t85 11q93 0 142.5 -45t49.5 -127v-285q-15 -21 -24.5 -34t-15 -22.5t-8 -16.5t-2.5 -15q0 -9 5.5 -15t15.5 -6q9 0 16.5 4t19.5 12v-74q-13 -9 -27.5 -15t-34.5 -6q-39 0 -60.5 20.5
t-21.5 54.5q0 31 16 57.5t39 55.5h-37v24z" />
    <glyph glyph-name="Cacute" unicode="&#x106;" horiz-adv-x="538" 
d="M29 307q0 71 22.5 129.5t63 100t96.5 64.5t123 23q51 0 90.5 -12.5t69.5 -35.5v-129q-69 60 -154 60q-41 0 -74.5 -14t-57.5 -40.5t-37 -63.5t-13 -82t13 -81.5t37 -63t57.5 -40.5t74.5 -14q44 0 81.5 14t72.5 45v-129q-30 -23 -69.5 -35.5t-90.5 -12.5q-67 0 -123 23
t-96.5 64.5t-63 100t-22.5 129.5zM346 791h135l-93 -122h-122z" />
    <glyph glyph-name="cacute" unicode="&#x107;" horiz-adv-x="405" 
d="M26 223q0 54 17.5 97.5t48 73.5t71.5 46.5t89 16.5q34 0 65.5 -8t55.5 -27v-113q-44 40 -106 40q-50 0 -84 -33t-34 -93t34 -93t84 -33q60 0 106 40v-112q-24 -19 -55.5 -27t-65.5 -8q-48 0 -89 16.5t-71.5 46.5t-48 73t-17.5 97zM268 650h123l-90 -142h-112z" />
    <glyph glyph-name="Ccircumflex" unicode="&#x108;" horiz-adv-x="538" 
d="M29 307q0 71 22.5 129.5t63 100t96.5 64.5t123 23q51 0 90.5 -12.5t69.5 -35.5v-129q-69 60 -154 60q-41 0 -74.5 -14t-57.5 -40.5t-37 -63.5t-13 -82t13 -81.5t37 -63t57.5 -40.5t74.5 -14q44 0 81.5 14t72.5 45v-129q-30 -23 -69.5 -35.5t-90.5 -12.5q-67 0 -123 23
t-96.5 64.5t-63 100t-22.5 129.5zM380 669l-47 54l-47 -54h-105l100 127h104l100 -127h-105z" />
    <glyph glyph-name="ccircumflex" unicode="&#x109;" horiz-adv-x="405" 
d="M26 223q0 54 17.5 97.5t48 73.5t71.5 46.5t89 16.5q34 0 65.5 -8t55.5 -27v-113q-44 40 -106 40q-50 0 -84 -33t-34 -93t34 -93t84 -33q60 0 106 40v-112q-24 -19 -55.5 -27t-65.5 -8q-48 0 -89 16.5t-71.5 46.5t-48 73t-17.5 97zM285 502l-49 69l-49 -69h-98l95 145h104
l95 -145h-98z" />
    <glyph glyph-name="Cdotaccent" unicode="&#x10a;" horiz-adv-x="538" 
d="M29 307q0 71 22.5 129.5t63 100t96.5 64.5t123 23q51 0 90.5 -12.5t69.5 -35.5v-129q-69 60 -154 60q-41 0 -74.5 -14t-57.5 -40.5t-37 -63.5t-13 -82t13 -81.5t37 -63t57.5 -40.5t74.5 -14q44 0 81.5 14t72.5 45v-129q-30 -23 -69.5 -35.5t-90.5 -12.5q-67 0 -123 23
t-96.5 64.5t-63 100t-22.5 129.5zM403 734q0 -31 -22.5 -51t-51.5 -20t-51.5 20t-22.5 51q0 32 22.5 51.5t51.5 19.5t51.5 -19.5t22.5 -51.5z" />
    <glyph glyph-name="cdotaccent" unicode="&#x10b;" horiz-adv-x="405" 
d="M26 223q0 54 17.5 97.5t48 73.5t71.5 46.5t89 16.5q34 0 65.5 -8t55.5 -27v-113q-44 40 -106 40q-50 0 -84 -33t-34 -93t34 -93t84 -33q60 0 106 40v-112q-24 -19 -55.5 -27t-65.5 -8q-48 0 -89 16.5t-71.5 46.5t-48 73t-17.5 97zM315 579q0 -32 -22.5 -51.5t-51.5 -19.5
t-51.5 19.5t-22.5 51.5q0 31 22.5 51t51.5 20t51.5 -20t22.5 -51z" />
    <glyph glyph-name="Ccaron" unicode="&#x10c;" horiz-adv-x="538" 
d="M29 307q0 71 22.5 129.5t63 100t96.5 64.5t123 23q51 0 90.5 -12.5t69.5 -35.5v-129q-69 60 -154 60q-41 0 -74.5 -14t-57.5 -40.5t-37 -63.5t-13 -82t13 -81.5t37 -63t57.5 -40.5t74.5 -14q44 0 81.5 14t72.5 45v-129q-30 -23 -69.5 -35.5t-90.5 -12.5q-67 0 -123 23
t-96.5 64.5t-63 100t-22.5 129.5zM286 795l47 -54l47 54h105l-100 -127h-104l-100 127h105z" />
    <glyph glyph-name="ccaron" unicode="&#x10d;" horiz-adv-x="405" 
d="M26 223q0 54 17.5 97.5t48 73.5t71.5 46.5t89 16.5q34 0 65.5 -8t55.5 -27v-113q-44 40 -106 40q-50 0 -84 -33t-34 -93t34 -93t84 -33q60 0 106 40v-112q-24 -19 -55.5 -27t-65.5 -8q-48 0 -89 16.5t-71.5 46.5t-48 73t-17.5 97zM191 502l-95 145h98l49 -69l49 69h98
l-95 -145h-104z" />
    <glyph glyph-name="Dcaron" unicode="&#x10e;" horiz-adv-x="609" 
d="M271 113q88 0 134.5 52t46.5 142q0 91 -46.5 143t-134.5 52h-85v-389h85zM276 614q70 0 126 -21.5t95.5 -61.5t60.5 -97t21 -127t-21 -127t-60.5 -97t-95.5 -61.5t-126 -21.5h-217v614h217zM231 795l47 -54l47 54h105l-100 -127h-104l-100 127h105z" />
    <glyph glyph-name="dcaron" unicode="&#x10f;" horiz-adv-x="519" 
d="M341 37q-15 -18 -45.5 -32.5t-66.5 -14.5q-49 0 -86.5 18.5t-63.5 50t-39.5 74t-13.5 90.5t13.5 90.5t39.5 74.5t63.5 50.5t86.5 18.5q36 0 66.5 -14.5t45.5 -32.5v240h125v-650h-125v37zM341 297q-11 23 -34 37.5t-50 14.5q-51 0 -79 -36t-28 -90t28 -89.5t79 -35.5
q28 0 50.5 14.5t33.5 37.5v147zM545 650h97l-38 -167h-97z" />
    <glyph glyph-name="Dcroat" unicode="&#x110;" horiz-adv-x="626" 
d="M76 367v247h217q70 0 126 -21.5t95.5 -61.5t60.5 -97t21 -127t-21 -127t-60.5 -97t-95.5 -61.5t-126 -21.5h-217v264h-51v103h51zM288 113q88 0 134.5 52t46.5 142q0 91 -46.5 143t-134.5 52h-85v-135h103v-103h-103v-151h85z" />
    <glyph glyph-name="dcroat" unicode="&#x111;" horiz-adv-x="519" 
d="M341 581v69h125v-69h54v-84h-54v-497h-125v37q-15 -18 -45.5 -32.5t-66.5 -14.5q-49 0 -86.5 18.5t-63.5 50t-39.5 74t-13.5 90.5t13.5 90.5t39.5 74.5t63.5 50.5t86.5 18.5q36 0 66.5 -14.5t45.5 -32.5v87h-93v84h93zM341 297q-11 23 -34 37.5t-50 14.5q-51 0 -79 -36
t-28 -90t28 -89.5t79 -35.5q28 0 50.5 14.5t33.5 37.5v147z" />
    <glyph glyph-name="Emacron" unicode="&#x112;" horiz-adv-x="516" 
d="M476 502h-291v-134h264v-109h-264v-146h291v-113h-417v614h417v-112zM393 760v-91h-243v91h243z" />
    <glyph glyph-name="emacron" unicode="&#x113;" horiz-adv-x="460" 
d="M145 195q8 -55 43.5 -79t85.5 -24q37 0 66 9t62 30v-102q-28 -20 -65 -29.5t-82 -9.5q-51 0 -93 16t-72.5 46t-47 72.5t-16.5 95.5q0 52 15.5 96t43.5 75t66.5 48.5t84.5 17.5q49 0 85.5 -16t61.5 -45.5t37.5 -70.5t12.5 -90v-40h-288zM239 358q-31 0 -55 -20t-35 -62
h169q-2 36 -22 59t-57 23zM362 607v-91h-237v91h237z" />
    <glyph glyph-name="Ebreve" unicode="&#x114;" horiz-adv-x="516" 
d="M476 502h-291v-134h264v-109h-264v-146h291v-113h-417v614h417v-112zM271 663q-60 0 -97 34t-37 100h88q0 -25 13 -36.5t33 -11.5q22 0 34.5 11.5t12.5 36.5h88q0 -66 -37 -100t-98 -34z" />
    <glyph glyph-name="ebreve" unicode="&#x115;" horiz-adv-x="460" 
d="M145 195q8 -55 43.5 -79t85.5 -24q37 0 66 9t62 30v-102q-28 -20 -65 -29.5t-82 -9.5q-51 0 -93 16t-72.5 46t-47 72.5t-16.5 95.5q0 52 15.5 96t43.5 75t66.5 48.5t84.5 17.5q49 0 85.5 -16t61.5 -45.5t37.5 -70.5t12.5 -90v-40h-288zM239 358q-31 0 -55 -20t-35 -62
h169q-2 36 -22 59t-57 23zM243 492q-60 0 -96.5 36t-36.5 106h88q0 -26 11 -42t34 -16t34 16t11 42h88q0 -70 -36.5 -106t-96.5 -36z" />
    <glyph glyph-name="Edotaccent" unicode="&#x116;" horiz-adv-x="516" 
d="M476 502h-291v-134h264v-109h-264v-146h291v-113h-417v614h417v-112zM345 734q0 -31 -22.5 -51t-51.5 -20t-51.5 20t-22.5 51q0 32 22.5 51.5t51.5 19.5t51.5 -19.5t22.5 -51.5z" />
    <glyph glyph-name="edotaccent" unicode="&#x117;" horiz-adv-x="460" 
d="M145 195q8 -55 43.5 -79t85.5 -24q37 0 66 9t62 30v-102q-28 -20 -65 -29.5t-82 -9.5q-51 0 -93 16t-72.5 46t-47 72.5t-16.5 95.5q0 52 15.5 96t43.5 75t66.5 48.5t84.5 17.5q49 0 85.5 -16t61.5 -45.5t37.5 -70.5t12.5 -90v-40h-288zM239 358q-31 0 -55 -20t-35 -62
h169q-2 36 -22 59t-57 23zM317 579q0 -32 -22.5 -51.5t-51.5 -19.5t-51.5 19.5t-22.5 51.5q0 31 22.5 51t51.5 20t51.5 -20t22.5 -51z" />
    <glyph glyph-name="Eogonek" unicode="&#x118;" horiz-adv-x="516" 
d="M476 502h-291v-134h264v-109h-264v-146h291v-113h-34q-28 -39 -39 -56t-11 -32q0 -9 5.5 -15t15.5 -6q8 0 16 4t20 12v-74q-13 -9 -27.5 -15t-34.5 -6q-39 0 -60.5 20.5t-21.5 54.5q0 31 16 57.5t39 55.5h-301v614h417v-112z" />
    <glyph glyph-name="eogonek" unicode="&#x119;" horiz-adv-x="460" 
d="M221 -111q0 26 10.5 50.5t36.5 50.5h-13q-51 0 -93 16t-72.5 46t-47 72.5t-16.5 95.5q0 52 15.5 96t43.5 75t66.5 48.5t84.5 17.5q49 0 85.5 -16t61.5 -45.5t37.5 -70.5t12.5 -90v-40h-286q7 -55 42.5 -79t84.5 -24q37 0 66 9t62 30v-102q-11 -7 -22 -13.5t-23 -16.5
q-20 -17 -34.5 -39t-14.5 -42q0 -27 21 -27q9 0 16.5 4t19.5 12v-74q-13 -9 -27.5 -15t-34.5 -6q-38 0 -60 21t-22 56zM239 358q-30 0 -54.5 -19.5t-34.5 -62.5h168q-2 36 -22 59t-57 23z" />
    <glyph glyph-name="Ecaron" unicode="&#x11a;" horiz-adv-x="516" 
d="M476 502h-291v-134h264v-109h-264v-146h291v-113h-417v614h417v-112zM224 795l47 -54l47 54h105l-100 -127h-104l-100 127h105z" />
    <glyph glyph-name="ecaron" unicode="&#x11b;" horiz-adv-x="460" 
d="M145 195q8 -55 43.5 -79t85.5 -24q37 0 66 9t62 30v-102q-28 -20 -65 -29.5t-82 -9.5q-51 0 -93 16t-72.5 46t-47 72.5t-16.5 95.5q0 52 15.5 96t43.5 75t66.5 48.5t84.5 17.5q49 0 85.5 -16t61.5 -45.5t37.5 -70.5t12.5 -90v-40h-288zM239 358q-31 0 -55 -20t-35 -62
h169q-2 36 -22 59t-57 23zM191 502l-95 145h98l49 -69l49 69h98l-95 -145h-104z" />
    <glyph glyph-name="Gcircumflex" unicode="&#x11c;" horiz-adv-x="597" 
d="M335 104q30 0 56.5 7.5t46.5 24.5v93h-104v105h220v-257q-45 -46 -103 -66.5t-119 -20.5q-70 0 -126 23t-95.5 65t-60.5 100t-21 128q0 71 23.5 129.5t65.5 100.5t100 65t127 23q53 0 98 -13.5t78 -37.5v-128q-38 30 -80 46t-96 16q-41 0 -75.5 -14.5t-59.5 -40.5
t-38.5 -63.5t-13.5 -82.5t12.5 -82t35.5 -63.5t55.5 -41.5t73.5 -15zM388 669l-47 54l-47 -54h-105l100 127h104l100 -127h-105z" />
    <glyph glyph-name="gcircumflex" unicode="&#x11d;" horiz-adv-x="515" 
d="M337 51q-15 -17 -43 -31t-66 -14q-48 0 -86 18t-63.5 49t-39 72t-13.5 86q0 46 13.5 87t39 72t63.5 49t86 18q38 0 66 -14t43 -31v35h124v-398q0 -62 -21 -104.5t-55 -69t-77.5 -38.5t-89.5 -12t-86.5 10.5t-67.5 27.5v122q35 -30 71.5 -42.5t80.5 -12.5q25 0 47 6.5
t38.5 19.5t26 33.5t9.5 47.5v14zM337 307q-11 19 -33 32.5t-50 13.5q-50 0 -77 -34t-27 -88q0 -53 27 -87t77 -34q28 0 50 13t33 33v151zM321 502l-49 69l-49 -69h-98l95 145h104l95 -145h-98z" />
    <glyph glyph-name="Gbreve" unicode="&#x11e;" horiz-adv-x="597" 
d="M335 104q30 0 56.5 7.5t46.5 24.5v93h-104v105h220v-257q-45 -46 -103 -66.5t-119 -20.5q-70 0 -126 23t-95.5 65t-60.5 100t-21 128q0 71 23.5 129.5t65.5 100.5t100 65t127 23q53 0 98 -13.5t78 -37.5v-128q-38 30 -80 46t-96 16q-41 0 -75.5 -14.5t-59.5 -40.5
t-38.5 -63.5t-13.5 -82.5t12.5 -82t35.5 -63.5t55.5 -41.5t73.5 -15zM341 663q-60 0 -97 34t-37 100h88q0 -25 13 -36.5t33 -11.5q22 0 34.5 11.5t12.5 36.5h88q0 -66 -37 -100t-98 -34z" />
    <glyph glyph-name="gbreve" unicode="&#x11f;" horiz-adv-x="515" 
d="M337 51q-15 -17 -43 -31t-66 -14q-48 0 -86 18t-63.5 49t-39 72t-13.5 86q0 46 13.5 87t39 72t63.5 49t86 18q38 0 66 -14t43 -31v35h124v-398q0 -62 -21 -104.5t-55 -69t-77.5 -38.5t-89.5 -12t-86.5 10.5t-67.5 27.5v122q35 -30 71.5 -42.5t80.5 -12.5q25 0 47 6.5
t38.5 19.5t26 33.5t9.5 47.5v14zM337 307q-11 19 -33 32.5t-50 13.5q-50 0 -77 -34t-27 -88q0 -53 27 -87t77 -34q28 0 50 13t33 33v151zM272 492q-60 0 -96.5 36t-36.5 106h88q0 -26 11 -42t34 -16t34 16t11 42h88q0 -70 -36.5 -106t-96.5 -36z" />
    <glyph glyph-name="Gdotaccent" unicode="&#x120;" horiz-adv-x="597" 
d="M335 104q30 0 56.5 7.5t46.5 24.5v93h-104v105h220v-257q-45 -46 -103 -66.5t-119 -20.5q-70 0 -126 23t-95.5 65t-60.5 100t-21 128q0 71 23.5 129.5t65.5 100.5t100 65t127 23q53 0 98 -13.5t78 -37.5v-128q-38 30 -80 46t-96 16q-41 0 -75.5 -14.5t-59.5 -40.5
t-38.5 -63.5t-13.5 -82.5t12.5 -82t35.5 -63.5t55.5 -41.5t73.5 -15zM412 734q0 -31 -22.5 -51t-51.5 -20t-51.5 20t-22.5 51q0 32 22.5 51.5t51.5 19.5t51.5 -19.5t22.5 -51.5z" />
    <glyph glyph-name="gdotaccent" unicode="&#x121;" horiz-adv-x="515" 
d="M337 51q-15 -17 -43 -31t-66 -14q-48 0 -86 18t-63.5 49t-39 72t-13.5 86q0 46 13.5 87t39 72t63.5 49t86 18q38 0 66 -14t43 -31v35h124v-398q0 -62 -21 -104.5t-55 -69t-77.5 -38.5t-89.5 -12t-86.5 10.5t-67.5 27.5v122q35 -30 71.5 -42.5t80.5 -12.5q25 0 47 6.5
t38.5 19.5t26 33.5t9.5 47.5v14zM337 307q-11 19 -33 32.5t-50 13.5q-50 0 -77 -34t-27 -88q0 -53 27 -87t77 -34q28 0 50 13t33 33v151zM346 579q0 -32 -22.5 -51.5t-51.5 -19.5t-51.5 19.5t-22.5 51.5q0 31 22.5 51t51.5 20t51.5 -20t22.5 -51z" />
    <glyph glyph-name="Gcommaaccent" unicode="&#x122;" horiz-adv-x="597" 
d="M335 104q30 0 56.5 7.5t46.5 24.5v93h-104v105h220v-257q-45 -46 -103 -66.5t-119 -20.5q-70 0 -126 23t-95.5 65t-60.5 100t-21 128q0 71 23.5 129.5t65.5 100.5t100 65t127 23q53 0 98 -13.5t78 -37.5v-128q-38 30 -80 46t-96 16q-41 0 -75.5 -14.5t-59.5 -40.5
t-38.5 -63.5t-13.5 -82.5t12.5 -82t35.5 -63.5t55.5 -41.5t73.5 -15zM320 -163q-21 4 -35.5 19.5t-14.5 40.5q0 28 20.5 46t50.5 18q28 0 48.5 -18.5t20.5 -50.5q0 -23 -9.5 -41.5t-23.5 -36.5l-27 -39h-76z" />
    <glyph glyph-name="gcommaaccent" unicode="&#x123;" horiz-adv-x="515" 
d="M337 51q-15 -17 -43 -31t-66 -14q-48 0 -86 18t-63.5 49t-39 72t-13.5 86q0 46 13.5 87t39 72t63.5 49t86 18q38 0 66 -14t43 -31v35h124v-398q0 -62 -21 -104.5t-55 -69t-77.5 -38.5t-89.5 -12t-86.5 10.5t-67.5 27.5v122q35 -30 71.5 -42.5t80.5 -12.5q25 0 47 6.5
t38.5 19.5t26 33.5t9.5 47.5v14zM337 307q-11 19 -33 32.5t-50 13.5q-50 0 -77 -34t-27 -88q0 -53 27 -87t77 -34q28 0 50 13t33 33v151zM291 632q22 -5 36.5 -21t14.5 -41q0 -29 -21 -47t-51 -18q-29 0 -50 18.5t-21 51.5q0 23 9.5 42.5t23.5 37.5l30 41h76z" />
    <glyph glyph-name="Hcircumflex" unicode="&#x124;" horiz-adv-x="652" 
d="M593 0h-128v258h-278v-258h-128v614h128v-244h278v244h128v-614zM372 669l-47 54l-47 -54h-105l100 127h104l100 -127h-105z" />
    <glyph glyph-name="hcircumflex" unicode="&#x125;" horiz-adv-x="505" 
d="M178 650v-244q18 21 49.5 36t70.5 15q76 0 117 -45t41 -120v-292h-124v266q0 35 -18 57t-55 22q-29 0 -51 -16.5t-30 -45.5v-283h-124v650h124zM301 686l-47 54l-47 -54h-105l100 127h104l100 -127h-105z" />
    <glyph glyph-name="Hbar" unicode="&#x126;" horiz-adv-x="683" 
d="M74 520v94h128v-94h279v94h128v-94h49v-102h-49v-418h-128v216h-279v-216h-128v418h-49v102h49zM481 418h-279v-100h279v100z" />
    <glyph glyph-name="hbar" unicode="&#x127;" horiz-adv-x="505" 
d="M54 581v69h124v-69h93v-84h-93v-91q18 21 49.5 36t70.5 15q76 0 117 -45t41 -120v-292h-124v266q0 35 -18 57t-55 22q-29 0 -51 -16.5t-30 -45.5v-283h-124v497h-55v84h55z" />
    <glyph glyph-name="Itilde" unicode="&#x128;" horiz-adv-x="245" 
d="M59 0v614h128v-614h-128zM273 802q0 -30 -5 -55t-15 -44t-26.5 -29.5t-38.5 -10.5q-18 0 -33 6.5t-28.5 14.5t-26 14.5t-25.5 6.5q-28 0 -29 -39h-71q0 30 5 55t15 44t26 29.5t39 10.5q18 0 33 -6.5t28.5 -14.5t26 -14.5t25.5 -6.5q27 0 29 39h71z" />
    <glyph glyph-name="itilde" unicode="&#x129;" horiz-adv-x="232" 
d="M240 643q0 -30 -4.5 -55t-13.5 -44t-23.5 -29.5t-33.5 -10.5q-15 0 -26 6.5t-20.5 15t-18 15t-17.5 6.5q-24 0 -25 -39h-67q0 30 4.5 55t13.5 44t23 29.5t33 10.5q15 0 26 -6.5t20.5 -15t18 -15t17.5 -6.5q23 0 25 39h68zM54 0v447h124v-447h-124z" />
    <glyph glyph-name="Imacron" unicode="&#x12a;" horiz-adv-x="245" 
d="M59 0v614h128v-614h-128zM246 760v-91h-243v91h243z" />
    <glyph glyph-name="imacron" unicode="&#x12b;" horiz-adv-x="232" 
d="M220 607v-91h-209v91h209zM54 0v447h124v-447h-124z" />
    <glyph glyph-name="Ibreve" unicode="&#x12c;" horiz-adv-x="245" 
d="M59 0v614h128v-614h-128zM123 663q-60 0 -97 34t-37 100h88q0 -25 13 -36.5t33 -11.5q22 0 34.5 11.5t12.5 36.5h88q0 -66 -37 -100t-98 -34z" />
    <glyph glyph-name="ibreve" unicode="&#x12d;" horiz-adv-x="232" 
d="M116 492q-53 0 -86 36t-33 106h83q0 -26 8 -42t28 -16t28 16t8 42h83q0 -70 -33 -106t-86 -36zM54 0v447h124v-447h-124z" />
    <glyph glyph-name="Iogonek" unicode="&#x12e;" horiz-adv-x="245" 
d="M187 0q-15 -21 -24.5 -34t-15 -22.5t-8 -16.5t-2.5 -15q0 -9 5.5 -15t14.5 -6t16.5 4t19.5 12v-74q-12 -9 -27 -15t-34 -6q-40 0 -61.5 20.5t-21.5 54.5q0 31 16.5 57.5t38.5 55.5h-45v614h128v-614z" />
    <glyph glyph-name="iogonek" unicode="&#x12f;" horiz-adv-x="232" 
d="M178 0q-15 -21 -24.5 -34t-15 -22.5t-8 -16.5t-2.5 -15q0 -9 5.5 -15t14.5 -6t17 4t20 12v-74q-13 -9 -28 -15t-34 -6q-39 0 -60.5 20.5t-21.5 54.5q0 31 16 57.5t38 55.5h-41v447h124v-447zM190 576q0 -32 -22.5 -51.5t-51.5 -19.5t-51.5 19.5t-22.5 51.5q0 31 22.5 51
t51.5 20t51.5 -20t22.5 -51z" />
    <glyph glyph-name="Idotaccent" unicode="&#x130;" horiz-adv-x="245" 
d="M59 0v614h128v-614h-128zM198 734q0 -31 -22.5 -51t-51.5 -20t-51.5 20t-22.5 51q0 32 22.5 51.5t51.5 19.5t51.5 -19.5t22.5 -51.5z" />
    <glyph glyph-name="dotlessi" unicode="&#x131;" horiz-adv-x="232" 
d="M54 0v447h124v-447h-124z" />
    <glyph glyph-name="IJ" unicode="&#x132;" horiz-adv-x="656" 
d="M59 0v614h128v-614h-128zM273 150q29 -20 57 -31.5t63 -11.5q48 0 67 28.5t19 93.5v385h129v-400q0 -117 -53 -170.5t-151 -53.5q-40 0 -75.5 11t-55.5 24v125z" />
    <glyph glyph-name="ij" unicode="&#x133;" horiz-adv-x="462" 
d="M410 -18q0 -75 -39 -116t-117 -41q-12 0 -25.5 1t-22.5 4v99q5 -1 12.5 -2t14.5 -1q27 0 40 13.5t13 43.5v464h124v-465zM422 577q0 -32 -22.5 -51.5t-51.5 -19.5t-51.5 19.5t-22.5 51.5q0 31 22.5 51t51.5 20t51.5 -20t22.5 -51zM54 0v447h124v-447h-124zM190 577
q0 -32 -22.5 -51.5t-51.5 -19.5t-51.5 19.5t-22.5 51.5q0 31 22.5 51t51.5 20t51.5 -20t22.5 -51z" />
    <glyph glyph-name="Jcircumflex" unicode="&#x134;" horiz-adv-x="410" 
d="M27 150q29 -20 57 -31.5t63 -11.5q48 0 67 28.5t19 93.5v385h129v-400q0 -117 -53 -170.5t-151 -53.5q-40 0 -75.5 11t-55.5 24v125zM345 669l-47 54l-47 -54h-105l100 127h104l100 -127h-105z" />
    <glyph glyph-name="jcircumflex" unicode="&#x135;" horiz-adv-x="230" 
d="M150 502l-34 70l-35 -70h-95l78 145h104l77 -145h-95zM178 -18q0 -75 -39 -116t-117 -41q-12 0 -25.5 1t-22.5 4v99q5 -1 12.5 -2t14.5 -1q27 0 40 13.5t13 43.5v464h124v-465z" />
    <glyph glyph-name="Kcommaaccent" unicode="&#x136;" horiz-adv-x="585" 
d="M411 614h154l-255 -294l264 -320h-157l-230 278v-278h-128v614h128v-264zM262 -163q-21 4 -35.5 19.5t-14.5 40.5q0 28 20.5 46t50.5 18q28 0 48.5 -18.5t20.5 -50.5q0 -23 -9.5 -41.5t-23.5 -36.5l-27 -39h-76z" />
    <glyph glyph-name="kcommaaccent" unicode="&#x137;" horiz-adv-x="484" 
d="M339 0l-161 206v-206h-124v650h124v-380l153 177h149l-186 -205l190 -242h-145zM225 -163q-21 4 -35.5 19.5t-14.5 40.5q0 28 20.5 46t50.5 18q28 0 48.5 -18.5t20.5 -50.5q0 -23 -9.5 -41.5t-23.5 -36.5l-27 -39h-76z" />
    <glyph glyph-name="kgreenlandic" unicode="&#x138;" horiz-adv-x="484" 
d="M339 0l-161 206v-206h-124v447h124v-177l153 177h149l-186 -205l190 -242h-145z" />
    <glyph glyph-name="Lacute" unicode="&#x139;" horiz-adv-x="507" 
d="M187 614v-501h286v-113h-414v614h128zM146 791h135l-93 -122h-122z" />
    <glyph glyph-name="lacute" unicode="&#x13a;" horiz-adv-x="232" 
d="M54 0v650h124v-650h-124zM134 816h135l-93 -122h-122z" />
    <glyph glyph-name="Lcommaaccent" unicode="&#x13b;" horiz-adv-x="507" 
d="M254 -163q-21 4 -35.5 19.5t-14.5 40.5q0 28 20.5 46t50.5 18q28 0 48.5 -18.5t20.5 -50.5q0 -23 -9.5 -41.5t-23.5 -36.5l-27 -39h-76zM187 614v-501h286v-113h-414v614h128z" />
    <glyph glyph-name="lcommaaccent" unicode="&#x13c;" horiz-adv-x="232" 
d="M96 -163q-21 4 -35.5 19.5t-14.5 40.5q0 28 20.5 46t50.5 18q28 0 48.5 -18.5t20.5 -50.5q0 -23 -9.5 -41.5t-23.5 -36.5l-27 -39h-76zM54 0v650h124v-650h-124z" />
    <glyph glyph-name="Lcaron" unicode="&#x13d;" horiz-adv-x="507" 
d="M187 614v-501h286v-113h-414v614h128zM301 615h97l-38 -167h-97z" />
    <glyph glyph-name="lcaron" unicode="&#x13e;" horiz-adv-x="232" 
d="M257 650h97l-38 -167h-97zM54 0v650h124v-650h-124z" />
    <glyph glyph-name="Ldot" unicode="&#x13f;" horiz-adv-x="507" 
d="M444 324q0 -32 -22.5 -51.5t-51.5 -19.5t-51.5 19.5t-22.5 51.5q0 31 22.5 51t51.5 20t51.5 -20t22.5 -51zM187 614v-501h286v-113h-414v614h128z" />
    <glyph glyph-name="ldot" unicode="&#x140;" horiz-adv-x="390" 
d="M384 328q0 -32 -22.5 -51.5t-51.5 -19.5t-51.5 19.5t-22.5 51.5q0 31 22.5 51t51.5 20t51.5 -20t22.5 -51zM54 0v650h124v-650h-124z" />
    <glyph glyph-name="Lslash" unicode="&#x141;" horiz-adv-x="528" 
d="M80 333v281h128v-234l138 57v-108l-138 -57v-159h286v-113h-414v225l-58 -24v108z" />
    <glyph glyph-name="lslash" unicode="&#x142;" horiz-adv-x="274" 
d="M253 456v-98l-54 -32v-326h-124v267l-50 -30v99l50 29v285h124v-225z" />
    <glyph glyph-name="Nacute" unicode="&#x143;" horiz-adv-x="632" 
d="M472 0l-290 409v-409h-123v614h120l271 -388v388h123v-614h-101zM329 791h135l-93 -122h-122z" />
    <glyph glyph-name="nacute" unicode="&#x144;" horiz-adv-x="505" 
d="M178 447v-41q18 21 49.5 36t70.5 15q76 0 117 -45t41 -120v-292h-124v266q0 35 -18 57t-55 22q-29 0 -51 -16.5t-30 -45.5v-283h-124v447h124zM279 650h123l-90 -142h-112z" />
    <glyph glyph-name="Ncommaaccent" unicode="&#x145;" horiz-adv-x="632" 
d="M472 0l-290 409v-409h-123v614h120l271 -388v388h123v-614h-101zM295 -163q-21 4 -35.5 19.5t-14.5 40.5q0 28 20.5 46t50.5 18q28 0 48.5 -18.5t20.5 -50.5q0 -23 -9.5 -41.5t-23.5 -36.5l-27 -39h-76z" />
    <glyph glyph-name="ncommaaccent" unicode="&#x146;" horiz-adv-x="505" 
d="M239 -163q-21 4 -35.5 19.5t-14.5 40.5q0 28 20.5 46t50.5 18q28 0 48.5 -18.5t20.5 -50.5q0 -23 -9.5 -41.5t-23.5 -36.5l-27 -39h-76zM178 447v-41q18 21 49.5 36t70.5 15q76 0 117 -45t41 -120v-292h-124v266q0 35 -18 57t-55 22q-29 0 -51 -16.5t-30 -45.5v-283h-124
v447h124z" />
    <glyph glyph-name="Ncaron" unicode="&#x147;" horiz-adv-x="632" 
d="M472 0l-290 409v-409h-123v614h120l271 -388v388h123v-614h-101zM269 795l47 -54l47 54h105l-100 -127h-104l-100 127h105z" />
    <glyph glyph-name="ncaron" unicode="&#x148;" horiz-adv-x="505" 
d="M178 447v-41q18 21 49.5 36t70.5 15q76 0 117 -45t41 -120v-292h-124v266q0 35 -18 57t-55 22q-29 0 -51 -16.5t-30 -45.5v-283h-124v447h124zM209 502l-95 145h98l49 -69l49 69h98l-95 -145h-104z" />
    <glyph glyph-name="Eng" unicode="&#x14a;" horiz-adv-x="632" 
d="M275 -46q20 -11 39.5 -17t43.5 -6q45 0 66 23.5t23 80.5l-265 374v-409h-123v614h120l271 -388v388h123v-573q0 -117 -52.5 -170.5t-148.5 -53.5q-28 0 -52.5 5.5t-44.5 13.5v118z" />
    <glyph glyph-name="eng" unicode="&#x14b;" horiz-adv-x="505" 
d="M332 266q0 35 -18 57t-55 22q-29 0 -51 -16.5t-30 -45.5v-283h-124v447h124v-41q18 21 49.5 36t70.5 15q76 0 117 -45t41 -120v-310q0 -75 -39 -116t-117 -41q-11 0 -24.5 1t-22.5 4v99q5 -1 12 -2t15 -1q26 0 39 13.5t13 43.5v283z" />
    <glyph glyph-name="Omacron" unicode="&#x14c;" horiz-adv-x="640" 
d="M610 307q0 -69 -21.5 -127t-60 -100t-92 -66t-117.5 -24t-117.5 24t-91.5 66t-59.5 100t-21.5 127t21.5 127t59.5 100.5t91.5 66t117.5 23.5t117.5 -23.5t92 -66t60 -100.5t21.5 -127zM481 307q0 45 -11.5 82.5t-32.5 64t-51 41.5t-67 15q-36 0 -65.5 -15t-50.5 -41.5
t-32.5 -64t-11.5 -82.5t11.5 -82.5t32.5 -64t50.5 -41.5t65.5 -15q37 0 67 15t51 41.5t32.5 64t11.5 82.5zM441 760v-91h-243v91h243z" />
    <glyph glyph-name="omacron" unicode="&#x14d;" horiz-adv-x="489" 
d="M464 223q0 -51 -16 -94t-45 -74t-69 -48t-89 -17t-89 17t-69 48t-45 74t-16 94q0 52 16 95t45 74t69 48t89 17t89 -17t69 -48t45 -74t16 -95zM341 223q0 57 -24.5 93t-71.5 36t-71.5 -36t-24.5 -93q0 -56 24.5 -92t71.5 -36t71.5 36t24.5 92zM365 607v-91h-237v91h237z
" />
    <glyph glyph-name="Obreve" unicode="&#x14e;" horiz-adv-x="640" 
d="M610 307q0 -69 -21.5 -127t-60 -100t-92 -66t-117.5 -24t-117.5 24t-91.5 66t-59.5 100t-21.5 127t21.5 127t59.5 100.5t91.5 66t117.5 23.5t117.5 -23.5t92 -66t60 -100.5t21.5 -127zM481 307q0 45 -11.5 82.5t-32.5 64t-51 41.5t-67 15q-36 0 -65.5 -15t-50.5 -41.5
t-32.5 -64t-11.5 -82.5t11.5 -82.5t32.5 -64t50.5 -41.5t65.5 -15q37 0 67 15t51 41.5t32.5 64t11.5 82.5zM319 663q-60 0 -97 34t-37 100h88q0 -25 13 -36.5t33 -11.5q22 0 34.5 11.5t12.5 36.5h88q0 -66 -37 -100t-98 -34z" />
    <glyph glyph-name="obreve" unicode="&#x14f;" horiz-adv-x="489" 
d="M464 223q0 -51 -16 -94t-45 -74t-69 -48t-89 -17t-89 17t-69 48t-45 74t-16 94q0 52 16 95t45 74t69 48t89 17t89 -17t69 -48t45 -74t16 -95zM341 223q0 57 -24.5 93t-71.5 36t-71.5 -36t-24.5 -93q0 -56 24.5 -92t71.5 -36t71.5 36t24.5 92zM246 492q-60 0 -96.5 36
t-36.5 106h88q0 -26 11 -42t34 -16t34 16t11 42h88q0 -70 -36.5 -106t-96.5 -36z" />
    <glyph glyph-name="Ohungarumlaut" unicode="&#x150;" horiz-adv-x="640" 
d="M610 307q0 -69 -21.5 -127t-60 -100t-92 -66t-117.5 -24t-117.5 24t-91.5 66t-59.5 100t-21.5 127t21.5 127t59.5 100.5t91.5 66t117.5 23.5t117.5 -23.5t92 -66t60 -100.5t21.5 -127zM481 307q0 45 -11.5 82.5t-32.5 64t-51 41.5t-67 15q-36 0 -65.5 -15t-50.5 -41.5
t-32.5 -64t-11.5 -82.5t11.5 -82.5t32.5 -64t50.5 -41.5t65.5 -15q37 0 67 15t51 41.5t32.5 64t11.5 82.5zM265 791h105l-69 -122h-102zM413 791h104l-68 -122h-103z" />
    <glyph glyph-name="ohungarumlaut" unicode="&#x151;" horiz-adv-x="489" 
d="M464 223q0 -51 -16 -94t-45 -74t-69 -48t-89 -17t-89 17t-69 48t-45 74t-16 94q0 52 16 95t45 74t69 48t89 17t89 -17t69 -48t45 -74t16 -95zM341 223q0 57 -24.5 93t-71.5 36t-71.5 -36t-24.5 -93q0 -56 24.5 -92t71.5 -36t71.5 36t24.5 92zM188 650h99l-68 -142h-98z
M329 650h99l-68 -142h-98z" />
    <glyph glyph-name="OE" unicode="&#x152;" horiz-adv-x="832" 
d="M520 502v-134h245v-109h-245v-146h272v-113h-460q-70 0 -126 21.5t-95.5 61.5t-60.5 97t-21 127t21 127t60.5 97t95.5 61.5t126 21.5h460v-112h-272zM394 502h-56q-89 0 -135 -52t-46 -143q0 -90 46 -142t135 -52h56v389z" />
    <glyph glyph-name="oe" unicode="&#x153;" horiz-adv-x="769" 
d="M245 457q47 0 85.5 -17t67.5 -47q28 30 65 47t82 17q49 0 85.5 -16t61.5 -45.5t37.5 -70.5t12.5 -90v-40h-288q8 -55 43.5 -79t85.5 -24q37 0 66 9t62 30v-102q-28 -20 -65 -29.5t-82 -9.5q-52 0 -94 17t-71 47q-29 -29 -67.5 -46.5t-86.5 -17.5q-49 0 -89 17t-69 48
t-45 74t-16 94q0 52 16 95t45 74t69 48t89 17zM341 223q0 57 -24.5 93t-71.5 36t-71.5 -36t-24.5 -93q0 -56 24.5 -92t71.5 -36t71.5 36t24.5 92zM548 358q-30 0 -54.5 -20t-34.5 -62h168q-2 36 -22 59t-57 23z" />
    <glyph glyph-name="Racute" unicode="&#x154;" horiz-adv-x="563" 
d="M186 0h-127v614h253q97 0 156 -50t59 -145q0 -74 -37.5 -119.5t-102.5 -61.5l162 -238h-144l-152 229h-67v-229zM304 334q48 0 72.5 23.5t24.5 61.5q0 39 -24.5 62.5t-72.5 23.5h-118v-171h118zM293 791h135l-93 -122h-122z" />
    <glyph glyph-name="racute" unicode="&#x155;" horiz-adv-x="351" 
d="M325 325q-26 15 -62 15q-32 0 -55 -16t-30 -47v-277h-124v447h124v-44q14 24 40.5 39t59.5 15q16 0 29 -2.5t18 -5.5v-124zM209 650h123l-90 -142h-112z" />
    <glyph glyph-name="Rcommaaccent" unicode="&#x156;" horiz-adv-x="563" 
d="M186 0h-127v614h253q97 0 156 -50t59 -145q0 -74 -37.5 -119.5t-102.5 -61.5l162 -238h-144l-152 229h-67v-229zM304 334q48 0 72.5 23.5t24.5 61.5q0 39 -24.5 62.5t-72.5 23.5h-118v-171h118zM259 -163q-21 4 -35.5 19.5t-14.5 40.5q0 28 20.5 46t50.5 18
q28 0 48.5 -18.5t20.5 -50.5q0 -23 -9.5 -41.5t-23.5 -36.5l-27 -39h-76z" />
    <glyph glyph-name="rcommaaccent" unicode="&#x157;" horiz-adv-x="351" 
d="M325 325q-26 15 -62 15q-32 0 -55 -16t-30 -47v-277h-124v447h124v-44q14 24 40.5 39t59.5 15q16 0 29 -2.5t18 -5.5v-124zM94 -163q-21 4 -35.5 19.5t-14.5 40.5q0 28 20.5 46t50.5 18q28 0 48.5 -18.5t20.5 -50.5q0 -23 -9.5 -41.5t-23.5 -36.5l-27 -39h-76z" />
    <glyph glyph-name="Rcaron" unicode="&#x158;" horiz-adv-x="563" 
d="M186 0h-127v614h253q97 0 156 -50t59 -145q0 -74 -37.5 -119.5t-102.5 -61.5l162 -238h-144l-152 229h-67v-229zM304 334q48 0 72.5 23.5t24.5 61.5q0 39 -24.5 62.5t-72.5 23.5h-118v-171h118zM233 795l47 -54l47 54h105l-100 -127h-104l-100 127h105z" />
    <glyph glyph-name="rcaron" unicode="&#x159;" horiz-adv-x="351" 
d="M325 325q-26 15 -62 15q-32 0 -55 -16t-30 -47v-277h-124v447h124v-44q14 24 40.5 39t59.5 15q16 0 29 -2.5t18 -5.5v-124zM140 502l-95 145h98l49 -69l49 69h98l-95 -145h-104z" />
    <glyph glyph-name="Sacute" unicode="&#x15a;" horiz-adv-x="499" 
d="M38 168q42 -31 92 -49.5t104 -18.5q47 0 78 15.5t31 51.5q0 30 -18.5 44.5t-53.5 27.5l-90 30q-34 11 -62 26t-47.5 36.5t-30.5 50t-11 66.5q0 43 17 75.5t47 55t69.5 34t84.5 11.5q57 0 102.5 -12.5t83.5 -35.5v-125q-40 29 -84 46.5t-98 17.5q-42 0 -69.5 -14.5
t-27.5 -46.5q0 -29 18 -42.5t50 -24.5l96 -33q78 -26 114 -69.5t36 -112.5q0 -45 -18 -79.5t-49.5 -57t-74 -34t-91.5 -11.5q-62 0 -113.5 15.5t-84.5 36.5v126zM270 791h135l-93 -122h-122z" />
    <glyph glyph-name="sacute" unicode="&#x15b;" horiz-adv-x="406" 
d="M35 150q32 -29 74.5 -45.5t79.5 -16.5q28 0 47 9t19 29q0 19 -14 27.5t-37 16.5l-43 12q-59 16 -93 46.5t-34 88.5q0 33 13.5 59t36.5 44t55 27.5t70 9.5q43 0 78 -10t65 -30v-113q-30 24 -64.5 39.5t-72.5 15.5q-26 0 -43 -9.5t-17 -28.5q0 -18 12.5 -26t35.5 -16
l50 -15q64 -18 94 -50t30 -86q0 -34 -14 -59.5t-38.5 -43t-58.5 -26.5t-73 -9q-45 0 -87 11.5t-71 33.5v115zM230 650h123l-90 -142h-112z" />
    <glyph glyph-name="Scircumflex" unicode="&#x15c;" horiz-adv-x="499" 
d="M38 168q42 -31 92 -49.5t104 -18.5q47 0 78 15.5t31 51.5q0 30 -18.5 44.5t-53.5 27.5l-90 30q-34 11 -62 26t-47.5 36.5t-30.5 50t-11 66.5q0 43 17 75.5t47 55t69.5 34t84.5 11.5q57 0 102.5 -12.5t83.5 -35.5v-125q-40 29 -84 46.5t-98 17.5q-42 0 -69.5 -14.5
t-27.5 -46.5q0 -29 18 -42.5t50 -24.5l96 -33q78 -26 114 -69.5t36 -112.5q0 -45 -18 -79.5t-49.5 -57t-74 -34t-91.5 -11.5q-62 0 -113.5 15.5t-84.5 36.5v126zM304 669l-47 54l-47 -54h-105l100 127h104l100 -127h-105z" />
    <glyph glyph-name="scircumflex" unicode="&#x15d;" horiz-adv-x="406" 
d="M35 150q32 -29 74.5 -45.5t79.5 -16.5q28 0 47 9t19 29q0 19 -14 27.5t-37 16.5l-43 12q-59 16 -93 46.5t-34 88.5q0 33 13.5 59t36.5 44t55 27.5t70 9.5q43 0 78 -10t65 -30v-113q-30 24 -64.5 39.5t-72.5 15.5q-26 0 -43 -9.5t-17 -28.5q0 -18 12.5 -26t35.5 -16
l50 -15q64 -18 94 -50t30 -86q0 -34 -14 -59.5t-38.5 -43t-58.5 -26.5t-73 -9q-45 0 -87 11.5t-71 33.5v115zM262 502l-49 69l-49 -69h-98l95 145h104l95 -145h-98z" />
    <glyph glyph-name="Scedilla" unicode="&#x15e;" horiz-adv-x="499" 
d="M38 168q42 -31 92 -49.5t104 -18.5q47 0 78 15.5t31 51.5q0 30 -18.5 44.5t-53.5 27.5l-90 30q-34 11 -62 26t-47.5 36.5t-30.5 50t-11 66.5q0 43 17 75.5t47 55t69.5 34t84.5 11.5q57 0 102.5 -12.5t83.5 -35.5v-125q-40 29 -84 46.5t-98 17.5q-42 0 -69.5 -14.5
t-27.5 -46.5q0 -29 18 -42.5t50 -24.5l96 -33q78 -26 114 -69.5t36 -112.5q0 -45 -18 -79.5t-49.5 -57t-74 -34t-91.5 -11.5q-62 0 -113.5 15.5t-84.5 36.5v126zM185 -47h114l-74 -139h-110z" />
    <glyph glyph-name="scedilla" unicode="&#x15f;" horiz-adv-x="406" 
d="M35 150q32 -29 74.5 -45.5t79.5 -16.5q28 0 47 9t19 29q0 19 -14 27.5t-37 16.5l-43 12q-59 16 -93 46.5t-34 88.5q0 33 13.5 59t36.5 44t55 27.5t70 9.5q43 0 78 -10t65 -30v-113q-30 24 -64.5 39.5t-72.5 15.5q-26 0 -43 -9.5t-17 -28.5q0 -18 12.5 -26t35.5 -16
l50 -15q64 -18 94 -50t30 -86q0 -34 -14 -59.5t-38.5 -43t-58.5 -26.5t-73 -9q-45 0 -87 11.5t-71 33.5v115zM140 -47h114l-74 -139h-110z" />
    <glyph glyph-name="Scaron" unicode="&#x160;" horiz-adv-x="499" 
d="M38 168q42 -31 92 -49.5t104 -18.5q47 0 78 15.5t31 51.5q0 30 -18.5 44.5t-53.5 27.5l-90 30q-34 11 -62 26t-47.5 36.5t-30.5 50t-11 66.5q0 43 17 75.5t47 55t69.5 34t84.5 11.5q57 0 102.5 -12.5t83.5 -35.5v-125q-40 29 -84 46.5t-98 17.5q-42 0 -69.5 -14.5
t-27.5 -46.5q0 -29 18 -42.5t50 -24.5l96 -33q78 -26 114 -69.5t36 -112.5q0 -45 -18 -79.5t-49.5 -57t-74 -34t-91.5 -11.5q-62 0 -113.5 15.5t-84.5 36.5v126zM210 795l47 -54l47 54h105l-100 -127h-104l-100 127h105z" />
    <glyph glyph-name="scaron" unicode="&#x161;" horiz-adv-x="406" 
d="M35 150q32 -29 74.5 -45.5t79.5 -16.5q28 0 47 9t19 29q0 19 -14 27.5t-37 16.5l-43 12q-59 16 -93 46.5t-34 88.5q0 33 13.5 59t36.5 44t55 27.5t70 9.5q43 0 78 -10t65 -30v-113q-30 24 -64.5 39.5t-72.5 15.5q-26 0 -43 -9.5t-17 -28.5q0 -18 12.5 -26t35.5 -16
l50 -15q64 -18 94 -50t30 -86q0 -34 -14 -59.5t-38.5 -43t-58.5 -26.5t-73 -9q-45 0 -87 11.5t-71 33.5v115zM161 502l-95 145h98l49 -69l49 69h98l-95 -145h-104z" />
    <glyph glyph-name="Tcedilla" unicode="&#x162;" horiz-adv-x="575" 
d="M550 614v-112h-198v-502h-129v502h-197v112h524zM267 -163q-21 4 -35.5 19.5t-14.5 40.5q0 28 20.5 46t50.5 18q28 0 48.5 -18.5t20.5 -50.5q0 -23 -9.5 -41.5t-23.5 -36.5l-27 -39h-76z" />
    <glyph glyph-name="tcedilla" unicode="&#x163;" horiz-adv-x="346" 
d="M149 -163q-21 4 -35.5 19.5t-14.5 40.5q0 28 20.5 46t50.5 18q28 0 48.5 -18.5t20.5 -50.5q0 -23 -9.5 -41.5t-23.5 -36.5l-27 -39h-76zM106 0v347h-85v100h85v121h124v-121h95v-100h-95v-347h-124z" />
    <glyph glyph-name="Tcaron" unicode="&#x164;" horiz-adv-x="575" 
d="M550 614v-112h-198v-502h-129v502h-197v112h524zM241 795l47 -54l47 54h105l-100 -127h-104l-100 127h105z" />
    <glyph glyph-name="tcaron" unicode="&#x165;" horiz-adv-x="346" 
d="M106 0v347h-85v100h85v121h124v-121h95v-100h-95v-347h-124zM310 657h97l-38 -167h-97z" />
    <glyph glyph-name="Tbar" unicode="&#x166;" horiz-adv-x="575" 
d="M550 614v-112h-198v-140h102v-106h-102v-256h-129v256h-101v106h101v140h-197v112h524z" />
    <glyph glyph-name="tbar" unicode="&#x167;" horiz-adv-x="346" 
d="M299 274v-93h-69v-181h-124v181h-63v93h63v73h-85v100h85v121h124v-121h95v-100h-95v-73h69z" />
    <glyph glyph-name="Utilde" unicode="&#x168;" horiz-adv-x="610" 
d="M305 -10q-57 0 -104 16.5t-80.5 48.5t-52 80.5t-18.5 111.5v367h128v-354q0 -79 33 -117t94 -38t94 38t33 117v354h128v-367q0 -63 -18 -111.5t-51.5 -80.5t-80.5 -48.5t-105 -16.5zM454 802q0 -30 -5 -55t-15 -44t-26.5 -29.5t-38.5 -10.5q-18 0 -33 6.5t-28.5 14.5
t-26 14.5t-25.5 6.5q-28 0 -29 -39h-71q0 30 5 55t15 44t26 29.5t39 10.5q18 0 33 -6.5t28.5 -14.5t26 -14.5t25.5 -6.5q27 0 29 39h71z" />
    <glyph glyph-name="utilde" unicode="&#x169;" horiz-adv-x="503" 
d="M326 0v41q-19 -21 -50 -36t-70 -15q-75 0 -116 45t-41 120v292h124v-267q0 -35 17.5 -57t54.5 -22q29 0 51 16.5t29 45.5v284h125v-447h-124zM395 643q0 -30 -5 -55t-15.5 -44t-27 -29.5t-38.5 -10.5q-17 0 -30 7t-24.5 16t-22.5 16t-22 7q-14 0 -21.5 -11t-8.5 -31h-71
q0 30 5 55t15.5 44t26.5 29.5t39 10.5q16 0 29.5 -7t25.5 -16t22.5 -16t21.5 -7q14 0 21.5 11t8.5 31h71z" />
    <glyph glyph-name="Umacron" unicode="&#x16a;" horiz-adv-x="610" 
d="M305 -10q-57 0 -104 16.5t-80.5 48.5t-52 80.5t-18.5 111.5v367h128v-354q0 -79 33 -117t94 -38t94 38t33 117v354h128v-367q0 -63 -18 -111.5t-51.5 -80.5t-80.5 -48.5t-105 -16.5zM427 760v-91h-243v91h243z" />
    <glyph glyph-name="umacron" unicode="&#x16b;" horiz-adv-x="503" 
d="M326 0v41q-19 -21 -50 -36t-70 -15q-75 0 -116 45t-41 120v292h124v-267q0 -35 17.5 -57t54.5 -22q29 0 51 16.5t29 45.5v284h125v-447h-124zM371 607v-91h-237v91h237z" />
    <glyph glyph-name="Ubreve" unicode="&#x16c;" horiz-adv-x="610" 
d="M305 -10q-57 0 -104 16.5t-80.5 48.5t-52 80.5t-18.5 111.5v367h128v-354q0 -79 33 -117t94 -38t94 38t33 117v354h128v-367q0 -63 -18 -111.5t-51.5 -80.5t-80.5 -48.5t-105 -16.5zM305 663q-60 0 -97 34t-37 100h88q0 -25 13 -36.5t33 -11.5q22 0 34.5 11.5t12.5 36.5
h88q0 -66 -37 -100t-98 -34z" />
    <glyph glyph-name="ubreve" unicode="&#x16d;" horiz-adv-x="503" 
d="M326 0v41q-19 -21 -50 -36t-70 -15q-75 0 -116 45t-41 120v292h124v-267q0 -35 17.5 -57t54.5 -22q29 0 51 16.5t29 45.5v284h125v-447h-124zM252 492q-60 0 -96.5 36t-36.5 106h88q0 -26 11 -42t34 -16t34 16t11 42h88q0 -70 -36.5 -106t-96.5 -36z" />
    <glyph glyph-name="Uring" unicode="&#x16e;" horiz-adv-x="610" 
d="M305 -10q-57 0 -104 16.5t-80.5 48.5t-52 80.5t-18.5 111.5v367h128v-354q0 -79 33 -117t94 -38t94 38t33 117v354h128v-367q0 -63 -18 -111.5t-51.5 -80.5t-80.5 -48.5t-105 -16.5zM404 743q0 -21 -7.5 -38.5t-21 -30.5t-31.5 -20.5t-39 -7.5t-39 7.5t-31.5 20.5
t-21 30.5t-7.5 38.5t7.5 38.5t21 30.5t31.5 20.5t39 7.5t39 -7.5t31.5 -20.5t21 -30.5t7.5 -38.5zM345 743q0 17 -11.5 28.5t-28.5 11.5t-28 -11.5t-11 -28.5t11 -28t28 -11t28.5 11t11.5 28z" />
    <glyph glyph-name="uring" unicode="&#x16f;" horiz-adv-x="503" 
d="M326 0v41q-19 -21 -50 -36t-70 -15q-75 0 -116 45t-41 120v292h124v-267q0 -35 17.5 -57t54.5 -22q29 0 51 16.5t29 45.5v284h125v-447h-124zM351 584q0 -21 -7.5 -38.5t-21 -30.5t-31.5 -20.5t-39 -7.5t-39 7.5t-31.5 20.5t-21 30.5t-7.5 38.5t7.5 38.5t21 30.5
t31.5 20.5t39 7.5t39 -7.5t31.5 -20.5t21 -30.5t7.5 -38.5zM292 584q0 17 -11.5 28.5t-28.5 11.5t-28 -11.5t-11 -28.5t11 -28t28 -11t28.5 11t11.5 28z" />
    <glyph glyph-name="Uhungarumlaut" unicode="&#x170;" horiz-adv-x="610" 
d="M305 -10q-57 0 -104 16.5t-80.5 48.5t-52 80.5t-18.5 111.5v367h128v-354q0 -79 33 -117t94 -38t94 38t33 117v354h128v-367q0 -63 -18 -111.5t-51.5 -80.5t-80.5 -48.5t-105 -16.5zM251 791h105l-69 -122h-102zM399 791h104l-68 -122h-103z" />
    <glyph glyph-name="uhungarumlaut" unicode="&#x171;" horiz-adv-x="503" 
d="M326 0v41q-19 -21 -50 -36t-70 -15q-75 0 -116 45t-41 120v292h124v-267q0 -35 17.5 -57t54.5 -22q29 0 51 16.5t29 45.5v284h125v-447h-124zM195 650h99l-68 -142h-98zM336 650h99l-68 -142h-98z" />
    <glyph glyph-name="Uogonek" unicode="&#x172;" horiz-adv-x="610" 
d="M305 -10q-57 0 -104 16.5t-80.5 48.5t-52 80.5t-18.5 111.5v367h128v-354q0 -79 33 -117t94 -38t94 38t33 117v354h128v-367q0 -82 -28 -134t-83 -90q-53 -36 -72.5 -64t-19.5 -47q0 -9 5.5 -15t15.5 -6q9 0 16.5 4t19.5 12v-74q-13 -9 -27.5 -15t-34.5 -6
q-39 0 -60.5 20.5t-21.5 54.5q0 28 14 53.5t37 49.5h-16z" />
    <glyph glyph-name="uogonek" unicode="&#x173;" horiz-adv-x="503" 
d="M450 0q-15 -21 -24.5 -34t-15.5 -22.5t-8 -16.5t-2 -15q0 -9 5 -15t15 -6q9 0 16.5 4t19.5 12v-74q-13 -9 -27.5 -15t-33.5 -6q-40 0 -61.5 20.5t-21.5 54.5q0 31 16.5 57.5t38.5 55.5h-41v41q-19 -21 -50 -36t-70 -15q-75 0 -116 45t-41 120v292h124v-267
q0 -35 17.5 -57t54.5 -22q29 0 51 16.5t29 45.5v284h125v-447z" />
    <glyph glyph-name="Wcircumflex" unicode="&#x174;" horiz-adv-x="794" 
d="M555 201l101 413h126l-160 -614h-117l-108 405l-108 -405h-117l-160 614h129l100 -413l108 413h100zM444 669l-47 54l-47 -54h-105l100 127h104l100 -127h-105z" />
    <glyph glyph-name="wcircumflex" unicode="&#x175;" horiz-adv-x="672" 
d="M539 447h120l-136 -447h-114l-73 274l-73 -274h-114l-136 447h124l80 -285l73 285h95l74 -285zM385 502l-49 69l-49 -69h-98l95 145h104l95 -145h-98z" />
    <glyph glyph-name="Ycircumflex" unicode="&#x176;" horiz-adv-x="593" 
d="M582 614l-223 -381v-233h-127v233l-221 381h139l149 -260l148 260h135zM343 669l-47 54l-47 -54h-105l100 127h104l100 -127h-105z" />
    <glyph glyph-name="ycircumflex" unicode="&#x177;" horiz-adv-x="487" 
d="M184 -2l-171 449h131l103 -297l102 297h125l-233 -612h-122zM296 502l-49 69l-49 -69h-98l95 145h104l95 -145h-98z" />
    <glyph glyph-name="Ydieresis" unicode="&#x178;" horiz-adv-x="593" 
d="M582 614l-223 -381v-233h-127v233l-221 381h139l149 -260l148 260h135zM147 730q0 29 19 48.5t48 19.5q28 0 47.5 -19.5t19.5 -48.5q0 -27 -19.5 -46.5t-47.5 -19.5q-29 0 -48 19.5t-19 46.5zM312 730q0 29 19.5 48.5t47.5 19.5t48 -19.5t20 -48.5q0 -27 -20 -46.5
t-48 -19.5t-47.5 19.5t-19.5 46.5z" />
    <glyph glyph-name="Zacute" unicode="&#x179;" horiz-adv-x="545" 
d="M27 0v4l290 498h-277v112h475v-4l-288 -497h284v-113h-484zM293 791h135l-93 -122h-122z" />
    <glyph glyph-name="zacute" unicode="&#x17a;" horiz-adv-x="436" 
d="M22 0v4l201 343h-190v100h371v-4l-197 -343h197v-100h-382zM238 650h123l-90 -142h-112z" />
    <glyph glyph-name="Zdotaccent" unicode="&#x17b;" horiz-adv-x="545" 
d="M27 0v4l290 498h-277v112h475v-4l-288 -497h284v-113h-484zM355 734q0 -31 -22.5 -51t-51.5 -20t-51.5 20t-22.5 51q0 32 22.5 51.5t51.5 19.5t51.5 -19.5t22.5 -51.5z" />
    <glyph glyph-name="zdotaccent" unicode="&#x17c;" horiz-adv-x="436" 
d="M22 0v4l201 343h-190v100h371v-4l-197 -343h197v-100h-382zM296 579q0 -32 -22.5 -51.5t-51.5 -19.5t-51.5 19.5t-22.5 51.5q0 31 22.5 51t51.5 20t51.5 -20t22.5 -51z" />
    <glyph glyph-name="Zcaron" unicode="&#x17d;" horiz-adv-x="545" 
d="M27 0v4l290 498h-277v112h475v-4l-288 -497h284v-113h-484zM233 795l47 -54l47 54h105l-100 -127h-104l-100 127h105z" />
    <glyph glyph-name="zcaron" unicode="&#x17e;" horiz-adv-x="436" 
d="M22 0v4l201 343h-190v100h371v-4l-197 -343h197v-100h-382zM170 502l-95 145h98l49 -69l49 69h98l-95 -145h-104z" />
    <glyph glyph-name="florin" unicode="&#x192;" horiz-adv-x="422" 
d="M143 353l20 112q14 78 59 118.5t120 40.5q20 0 37 -3.5t31 -8.5v-105q-23 12 -54 12q-58 0 -70 -62l-19 -104h86v-100h-103l-47 -267q-7 -38 -19 -67.5t-31.5 -49.5t-47.5 -31t-67 -11q-22 0 -38.5 3.5t-30.5 8.5v99q11 -5 27 -8t27 -3q28 0 39.5 15.5t16.5 45.5l46 265
h-65v100h83z" />
    <glyph glyph-name="Aringacute" unicode="&#x1fa;" horiz-adv-x="627" 
d="M410 713q0 -34 -28 -57.5t-70 -23.5t-70.5 23.5t-28.5 57.5t28.5 57.5t70.5 23.5t70 -23.5t28 -57.5zM314 906h135l-71 -94h-121zM351 713q0 14 -11 22.5t-28 8.5t-28.5 -8.5t-11.5 -22.5t11.5 -22.5t28.5 -8.5t28 8.5t11 22.5zM612 0h-130l-55 148h-230l-54 -148h-128
l235 614h127zM387 256l-75 204l-75 -204h150z" />
    <glyph glyph-name="aringacute" unicode="&#x1fb;" horiz-adv-x="468" 
d="M331 556q0 -34 -28.5 -57.5t-70.5 -23.5t-70 23.5t-28 57.5t28 57.5t70 23.5t70.5 -23.5t28.5 -57.5zM272 556q0 14 -11.5 22.5t-28.5 8.5t-28 -8.5t-11 -22.5t11 -22.5t28 -8.5t28.5 8.5t11.5 22.5zM234 749h135l-70 -94h-122zM300 279q0 32 -26 51t-74 19
q-34 0 -65 -9.5t-57 -26.5v107q24 15 64 26t85 11q93 0 142.5 -45t49.5 -127v-285h-119v24q-11 -11 -41 -21.5t-67 -10.5q-34 0 -64 9.5t-52.5 28t-35.5 45.5t-13 62q0 32 13 58.5t36.5 45t55 29t68.5 10.5q29 0 57.5 -8t42.5 -18v25zM300 154q-8 18 -30.5 28.5t-48.5 10.5
q-15 0 -29 -3.5t-25 -10t-18 -17t-7 -24.5q0 -15 7 -25t18 -17t25 -10t29 -3q26 0 48.5 10.5t30.5 28.5v32z" />
    <glyph glyph-name="AEacute" unicode="&#x1fc;" horiz-adv-x="879" 
d="M839 502h-272v-134h245v-109h-245v-146h272v-113h-398v148h-208l-84 -148h-134l350 614h474v-112zM441 256v256l-146 -256h146zM599 791h135l-93 -122h-122z" />
    <glyph glyph-name="aeacute" unicode="&#x1fd;" horiz-adv-x="724" 
d="M519 -10q-106 0 -167 63q-30 -28 -68.5 -45t-90.5 -17q-34 0 -64 9.5t-52.5 27.5t-36 44t-13.5 59q0 34 14 60.5t39 45t57.5 28t70.5 9.5h91v9q-2 31 -28 49t-71 18q-35 0 -65 -10t-57 -27v107q24 15 63.5 26t83.5 11q51 0 86 -15t57 -43q24 26 58.5 42t73.5 16
q48 0 85 -16.5t61.5 -46t37 -71t12.5 -90.5v-40h-287q8 -53 44 -77t84 -24q37 0 66.5 9t62.5 30v-102q-28 -20 -65 -29.5t-82 -9.5zM212 87q32 0 54 13.5t33 37.5v55h-80q-29 0 -53 -11.5t-24 -40.5q0 -28 21.5 -41t48.5 -13zM502 359q-31 0 -56 -20t-35 -65h171
q-2 35 -22.5 60t-57.5 25zM402 650h123l-90 -142h-112z" />
    <glyph glyph-name="Oslashacute" unicode="&#x1fe;" horiz-adv-x="649" 
d="M102 94q-32 42 -50 96t-18 117q0 69 21.5 127t59.5 100.5t91.5 66t117.5 23.5q50 0 93 -14.5t78 -40.5l48 58l58 -44l-54 -65q32 -42 50 -95t18 -116q0 -69 -21.5 -127t-60 -100t-92 -66t-117.5 -24q-49 0 -91.5 13.5t-77.5 39.5l-47 -56l-58 44zM163 307q0 -67 21 -113
l236 284q-19 15 -43 23.5t-53 8.5q-36 0 -66 -15t-51 -41.5t-32.5 -64t-11.5 -82.5zM486 307q0 64 -21 111l-235 -284q39 -30 94 -30q36 0 66 15t51.5 41.5t33 64t11.5 82.5zM337 791h135l-93 -122h-122z" />
    <glyph glyph-name="oslashacute" unicode="&#x1ff;" horiz-adv-x="499" 
d="M81 67q-50 62 -50 156q0 52 16 95t45 74t69 48t89 17q35 0 66 -9t57 -26l41 50l48 -36l-45 -55q25 -30 38.5 -70t13.5 -88q0 -51 -16 -94t-45 -74t-69 -48t-89 -17q-72 0 -124 35l-43 -53l-49 37zM348 223q0 17 -2.5 32t-7.5 29l-142 -174q22 -17 54 -17q47 0 72.5 37
t25.5 93zM152 223q0 -34 9 -59l142 172q-23 17 -53 17q-47 0 -72.5 -36.5t-25.5 -93.5zM267 650h123l-90 -142h-112z" />
    <glyph glyph-name="Scommaaccent" unicode="&#x218;" horiz-adv-x="499" 
d="M38 168q42 -31 92 -49.5t104 -18.5q47 0 78 15.5t31 51.5q0 30 -18.5 44.5t-53.5 27.5l-90 30q-34 11 -62 26t-47.5 36.5t-30.5 50t-11 66.5q0 43 17 75.5t47 55t69.5 34t84.5 11.5q57 0 102.5 -12.5t83.5 -35.5v-125q-40 29 -84 46.5t-98 17.5q-42 0 -69.5 -14.5
t-27.5 -46.5q0 -29 18 -42.5t50 -24.5l96 -33q78 -26 114 -69.5t36 -112.5q0 -45 -18 -79.5t-49.5 -57t-74 -34t-91.5 -11.5q-62 0 -113.5 15.5t-84.5 36.5v126zM231 -163q-21 4 -35.5 19.5t-14.5 40.5q0 28 20.5 46t50.5 18q28 0 48.5 -18.5t20.5 -50.5q0 -23 -9.5 -41.5
t-23.5 -36.5l-27 -39h-76z" />
    <glyph glyph-name="scommaaccent" unicode="&#x219;" horiz-adv-x="406" 
d="M178 -163q-21 4 -35.5 19.5t-14.5 40.5q0 28 20.5 46t50.5 18q28 0 48.5 -18.5t20.5 -50.5q0 -23 -9.5 -41.5t-23.5 -36.5l-27 -39h-76zM35 150q32 -29 74.5 -45.5t79.5 -16.5q28 0 47 9t19 29q0 19 -14 27.5t-37 16.5l-43 12q-59 16 -93 46.5t-34 88.5q0 33 13.5 59
t36.5 44t55 27.5t70 9.5q43 0 78 -10t65 -30v-113q-30 24 -64.5 39.5t-72.5 15.5q-26 0 -43 -9.5t-17 -28.5q0 -18 12.5 -26t35.5 -16l50 -15q64 -18 94 -50t30 -86q0 -34 -14 -59.5t-38.5 -43t-58.5 -26.5t-73 -9q-45 0 -87 11.5t-71 33.5v115z" />
    <glyph glyph-name="uni0237" unicode="&#x237;" horiz-adv-x="230" 
d="M178 -18q0 -75 -39 -116t-117 -41q-12 0 -25.5 1t-22.5 4v99q5 -1 12.5 -2t14.5 -1q27 0 40 13.5t13 43.5v464h124v-465z" />
    <glyph glyph-name="circumflex" unicode="&#x2c6;" 
d="M299 502l-49 69l-49 -69h-98l95 145h104l95 -145h-98z" />
    <glyph glyph-name="caron" unicode="&#x2c7;" 
d="M198 502l-95 145h98l49 -69l49 69h98l-95 -145h-104z" />
    <glyph glyph-name="breve" unicode="&#x2d8;" 
d="M250 492q-60 0 -96.5 36t-36.5 106h88q0 -26 11 -42t34 -16t34 16t11 42h88q0 -70 -36.5 -106t-96.5 -36z" />
    <glyph glyph-name="dotaccent" unicode="&#x2d9;" 
d="M324 579q0 -32 -22.5 -51.5t-51.5 -19.5t-51.5 19.5t-22.5 51.5q0 31 22.5 51t51.5 20t51.5 -20t22.5 -51z" />
    <glyph glyph-name="ring" unicode="&#x2da;" 
d="M349 584q0 -21 -7.5 -38.5t-21 -30.5t-31.5 -20.5t-39 -7.5t-39 7.5t-31.5 20.5t-21 30.5t-7.5 38.5t7.5 38.5t21 30.5t31.5 20.5t39 7.5t39 -7.5t31.5 -20.5t21 -30.5t7.5 -38.5zM290 584q0 17 -11.5 28.5t-28.5 11.5t-28 -11.5t-11 -28.5t11 -28t28 -11t28.5 11
t11.5 28z" />
    <glyph glyph-name="ogonek" unicode="&#x2db;" 
d="M314 6q-15 -21 -25.5 -35.5t-16.5 -25t-9 -18t-3 -15.5q0 -9 5.5 -15t15.5 -6q8 0 16 4t20 12v-74q-13 -9 -27.5 -15t-34.5 -6q-39 0 -60.5 20.5t-21.5 54.5q0 32 18 59.5t42 59.5h81z" />
    <glyph glyph-name="tilde" unicode="&#x2dc;" 
d="M393 643q0 -30 -5 -55t-15.5 -44t-27 -29.5t-38.5 -10.5q-17 0 -30 7t-24.5 16t-22.5 16t-22 7q-14 0 -21.5 -11t-8.5 -31h-71q0 30 5 55t15.5 44t26.5 29.5t39 10.5q16 0 29.5 -7t25.5 -16t22.5 -16t21.5 -7q14 0 21.5 11t8.5 31h71z" />
    <glyph glyph-name="hungarumlaut" unicode="&#x2dd;" 
d="M163 650h99l-68 -142h-98zM304 650h99l-68 -142h-98z" />
    <glyph glyph-name="gravecomb" unicode="&#x300;" 
d="M149 650h123l79 -142h-113z" />
    <glyph glyph-name="acutecomb" unicode="&#x301;" 
d="M228 650h123l-90 -142h-112z" />
    <glyph glyph-name="circumflexcomb" unicode="&#x302;" 
d="M299 502l-49 69l-49 -69h-98l95 145h104l95 -145h-98z" />
    <glyph glyph-name="tildecomb" unicode="&#x303;" 
d="M393 643q0 -30 -5 -55t-15.5 -44t-27 -29.5t-38.5 -10.5q-17 0 -30 7t-24.5 16t-22.5 16t-22 7q-14 0 -21.5 -11t-8.5 -31h-71q0 30 5 55t15.5 44t26.5 29.5t39 10.5q16 0 29.5 -7t25.5 -16t22.5 -16t21.5 -7q14 0 21.5 11t8.5 31h71z" />
    <glyph glyph-name="macroncomb" unicode="&#x304;" 
d="M368 607v-91h-237v91h237z" />
    <glyph glyph-name="brevecomb" unicode="&#x306;" 
d="M250 492q-60 0 -96.5 36t-36.5 106h88q0 -26 11 -42t34 -16t34 16t11 42h88q0 -70 -36.5 -106t-96.5 -36z" />
    <glyph glyph-name="dotaccentcomb" unicode="&#x307;" 
d="M324 579q0 -32 -22.5 -51.5t-51.5 -19.5t-51.5 19.5t-22.5 51.5q0 31 22.5 51t51.5 20t51.5 -20t22.5 -51z" />
    <glyph glyph-name="dieresiscomb" unicode="&#x308;" 
d="M101 570q0 29 19.5 48t47.5 19q27 0 46.5 -19t19.5 -48q0 -27 -19.5 -46.5t-46.5 -19.5q-28 0 -47.5 19.5t-19.5 46.5zM265 570q0 29 19.5 48t46.5 19t47 -19t20 -48q0 -27 -20 -46.5t-47 -19.5t-46.5 19.5t-19.5 46.5z" />
    <glyph glyph-name="ringcomb" unicode="&#x30a;" 
d="M349 584q0 -21 -7.5 -38.5t-21 -30.5t-31.5 -20.5t-39 -7.5t-39 7.5t-31.5 20.5t-21 30.5t-7.5 38.5t7.5 38.5t21 30.5t31.5 20.5t39 7.5t39 -7.5t31.5 -20.5t21 -30.5t7.5 -38.5zM290 584q0 17 -11.5 28.5t-28.5 11.5t-28 -11.5t-11 -28.5t11 -28t28 -11t28.5 11
t11.5 28z" />
    <glyph glyph-name="hungarumlautcomb" unicode="&#x30b;" 
d="M163 650h99l-68 -142h-98zM304 650h99l-68 -142h-98z" />
    <glyph glyph-name="caroncomb" unicode="&#x30c;" 
d="M198 502l-95 145h98l49 -69l49 69h98l-95 -145h-104z" />
    <glyph glyph-name="commaturnedabovecomb" unicode="&#x312;" 
d="M269 632q22 -5 36.5 -21t14.5 -41q0 -29 -21 -47t-51 -18q-29 0 -50 18.5t-21 51.5q0 23 9.5 42.5t23.5 37.5l30 41h76z" />
    <glyph glyph-name="commaaccentcomb" unicode="&#x326;" 
d="M231 -163q-21 4 -35.5 19.5t-14.5 40.5q0 28 20.5 46t50.5 18q28 0 48.5 -18.5t20.5 -50.5q0 -23 -9.5 -41.5t-23.5 -36.5l-27 -39h-76z" />
    <glyph glyph-name="cedillacomb" unicode="&#x327;" 
d="M225 -47h114l-74 -139h-110z" />
    <glyph glyph-name="ogonekcomb" unicode="&#x328;" 
d="M314 6q-15 -21 -25.5 -35.5t-16.5 -25t-9 -18t-3 -15.5q0 -9 5.5 -15t15.5 -6q8 0 16 4t20 12v-74q-13 -9 -27.5 -15t-34.5 -6q-39 0 -60.5 20.5t-21.5 54.5q0 32 18 59.5t42 59.5h81z" />
    <glyph glyph-name="Wgrave" unicode="&#x1e80;" horiz-adv-x="794" 
d="M555 201l101 413h126l-160 -614h-117l-108 405l-108 -405h-117l-160 614h129l100 -413l108 413h100zM245 791h135l80 -122h-122z" />
    <glyph glyph-name="wgrave" unicode="&#x1e81;" horiz-adv-x="672" 
d="M539 447h120l-136 -447h-114l-73 274l-73 -274h-114l-136 447h124l80 -285l73 285h95l74 -285zM195 650h123l79 -142h-113z" />
    <glyph glyph-name="Wacute" unicode="&#x1e82;" horiz-adv-x="794" 
d="M555 201l101 413h126l-160 -614h-117l-108 405l-108 -405h-117l-160 614h129l100 -413l108 413h100zM415 791h135l-93 -122h-122z" />
    <glyph glyph-name="wacute" unicode="&#x1e83;" horiz-adv-x="672" 
d="M539 447h120l-136 -447h-114l-73 274l-73 -274h-114l-136 447h124l80 -285l73 285h95l74 -285zM353 650h123l-90 -142h-112z" />
    <glyph glyph-name="Wdieresis" unicode="&#x1e84;" horiz-adv-x="794" 
d="M555 201l101 413h126l-160 -614h-117l-108 405l-108 -405h-117l-160 614h129l100 -413l108 413h100zM247 730q0 29 19 48.5t48 19.5q28 0 47.5 -19.5t19.5 -48.5q0 -27 -19.5 -46.5t-47.5 -19.5q-29 0 -48 19.5t-19 46.5zM412 730q0 29 19.5 48.5t47.5 19.5t48 -19.5
t20 -48.5q0 -27 -20 -46.5t-48 -19.5t-47.5 19.5t-19.5 46.5z" />
    <glyph glyph-name="wdieresis" unicode="&#x1e85;" horiz-adv-x="672" 
d="M539 447h120l-136 -447h-114l-73 274l-73 -274h-114l-136 447h124l80 -285l73 285h95l74 -285zM188 570q0 29 19.5 48t47.5 19q27 0 46.5 -19t19.5 -48q0 -27 -19.5 -46.5t-46.5 -19.5q-28 0 -47.5 19.5t-19.5 46.5zM352 570q0 29 19.5 48t46.5 19t47 -19t20 -48
q0 -27 -20 -46.5t-47 -19.5t-46.5 19.5t-19.5 46.5z" />
    <glyph glyph-name="Ygrave" unicode="&#x1ef2;" horiz-adv-x="593" 
d="M582 614l-223 -381v-233h-127v233l-221 381h139l149 -260l148 260h135zM147 791h135l80 -122h-122z" />
    <glyph glyph-name="ygrave" unicode="&#x1ef3;" horiz-adv-x="487" 
d="M184 -2l-171 449h131l103 -297l102 297h125l-233 -612h-122zM106 650h123l79 -142h-113z" />
    <glyph glyph-name="endash" unicode="&#x2013;" horiz-adv-x="471" 
d="M433 307v-90h-395v90h395z" />
    <glyph glyph-name="emdash" unicode="&#x2014;" horiz-adv-x="842" 
d="M804 307v-90h-766v90h766z" />
    <glyph glyph-name="quoteleft" unicode="&#x2018;" horiz-adv-x="205" 
d="M117 504q26 -5 43.5 -23.5t17.5 -48.5q0 -33 -22.5 -54.5t-55.5 -21.5q-32 0 -55.5 21.5t-23.5 63.5q0 23 9.5 46.5t23.5 43.5l55 83h79z" />
    <glyph glyph-name="quoteright" unicode="&#x2019;" horiz-adv-x="205" 
d="M88 476q-26 5 -43.5 23.5t-17.5 48.5q0 33 22.5 54.5t55.5 21.5q32 0 55.5 -21.5t23.5 -63.5q0 -23 -9.5 -46.5t-23.5 -43.5l-55 -83h-79z" />
    <glyph glyph-name="quotesinglbase" unicode="&#x201a;" horiz-adv-x="205" 
d="M88 0q-26 5 -43.5 23.5t-17.5 48.5q0 33 22.5 54.5t55.5 21.5q32 0 55.5 -21.5t23.5 -63.5q0 -23 -9.5 -46.5t-23.5 -43.5l-55 -83h-79z" />
    <glyph glyph-name="quotedblleft" unicode="&#x201c;" horiz-adv-x="400" 
d="M117 504q26 -5 43.5 -23.5t17.5 -48.5q0 -33 -22.5 -54.5t-55.5 -21.5q-32 0 -55.5 21.5t-23.5 63.5q0 23 9.5 46.5t23.5 43.5l55 83h79zM312 504q26 -5 43.5 -23.5t17.5 -48.5q0 -33 -22.5 -54.5t-55.5 -21.5q-32 0 -55.5 21.5t-23.5 63.5q0 23 9.5 46.5t23.5 43.5
l55 83h79z" />
    <glyph glyph-name="quotedblright" unicode="&#x201d;" horiz-adv-x="400" 
d="M88 476q-26 5 -43.5 23.5t-17.5 48.5q0 33 22.5 54.5t55.5 21.5q32 0 55.5 -21.5t23.5 -63.5q0 -23 -9.5 -46.5t-23.5 -43.5l-55 -83h-79zM283 476q-26 5 -43.5 23.5t-17.5 48.5q0 33 22.5 54.5t55.5 21.5q32 0 55.5 -21.5t23.5 -63.5q0 -23 -9.5 -46.5t-23.5 -43.5
l-55 -83h-79z" />
    <glyph glyph-name="quotedblbase" unicode="&#x201e;" horiz-adv-x="400" 
d="M88 0q-26 5 -43.5 23.5t-17.5 48.5q0 33 22.5 54.5t55.5 21.5q32 0 55.5 -21.5t23.5 -63.5q0 -23 -9.5 -46.5t-23.5 -43.5l-55 -83h-79zM283 0q-26 5 -43.5 23.5t-17.5 48.5q0 33 22.5 54.5t55.5 21.5q32 0 55.5 -21.5t23.5 -63.5q0 -23 -9.5 -46.5t-23.5 -43.5l-55 -83
h-79z" />
    <glyph glyph-name="dagger" unicode="&#x2020;" horiz-adv-x="337" 
d="M126 558v92h85v-92h99v-83h-99v-199h-85v199h-99v83h99z" />
    <glyph glyph-name="daggerdbl" unicode="&#x2021;" horiz-adv-x="347" 
d="M131 575v75h84v-75h101v-76h-101v-73h101v-75h-101v-75h-84v75h-100v75h100v73h-100v76h100z" />
    <glyph glyph-name="bullet" unicode="&#x2022;" horiz-adv-x="364" 
d="M336 262q0 -34 -12 -62t-33 -48t-49 -31t-60 -11t-60 11t-48.5 31t-32.5 48t-12 62t12 62t32.5 48.5t48.5 31.5t60 11t60 -11t49 -31.5t33 -48.5t12 -62z" />
    <glyph glyph-name="ellipsis" unicode="&#x2026;" horiz-adv-x="670" 
d="M27 73q0 34 22.5 56.5t55.5 22.5t55.5 -22.5t22.5 -56.5t-22.5 -57t-55.5 -23t-55.5 23t-22.5 57zM257 73q0 34 22.5 56.5t55.5 22.5t55.5 -22.5t22.5 -56.5t-22.5 -57t-55.5 -23t-55.5 23t-22.5 57zM487 73q0 34 22.5 56.5t55.5 22.5t55.5 -22.5t22.5 -56.5t-22.5 -57
t-55.5 -23t-55.5 23t-22.5 57z" />
    <glyph glyph-name="perthousand" unicode="&#x2030;" horiz-adv-x="984" 
d="M957 133q0 -30 -11 -56t-30 -45.5t-44.5 -30.5t-55.5 -11t-56 11t-45.5 30.5t-30.5 45.5t-11 56q0 29 11 55t30.5 45t45.5 30t56 11t55.5 -11t44.5 -30t30 -45t11 -55zM874 133q0 24 -17 41t-41 17q-25 0 -42.5 -17t-17.5 -41q0 -25 17.5 -42.5t42.5 -17.5q24 0 41 17.5
t17 42.5zM110 481q0 -24 17 -41t42 -17q24 0 41.5 17t17.5 41q0 25 -17.5 42.5t-41.5 17.5q-25 0 -42 -17.5t-17 -42.5zM567 614l-380 -614h-84l380 614h84zM643 133q0 -30 -11 -56t-30.5 -45.5t-45 -30.5t-55.5 -11t-55.5 11t-45 30.5t-30.5 45.5t-11 56q0 29 11 55
t30.5 45t45 30t55.5 11t55.5 -11t45 -30t30.5 -45t11 -55zM311 481q0 -29 -11 -55t-30.5 -45t-45 -30t-55.5 -11t-55.5 11t-45 30t-30.5 45t-11 55q0 30 11 56t30.5 45.5t45 30.5t55.5 11t55.5 -11t45 -30.5t30.5 -45.5t11 -56zM560 133q0 24 -17 41t-42 17t-42.5 -17
t-17.5 -41q0 -25 17.5 -42.5t42.5 -17.5t42 17.5t17 42.5z" />
    <glyph glyph-name="guilsinglleft" unicode="&#x2039;" horiz-adv-x="254" 
d="M25 222l92 161h112l-92 -161l92 -161h-112z" />
    <glyph glyph-name="guilsinglright" unicode="&#x203a;" horiz-adv-x="254" 
d="M117 222l-92 161h112l92 -161l-92 -161h-112z" />
    <glyph glyph-name="fraction" unicode="&#x2044;" horiz-adv-x="156" 
d="M-183 0l431 614h90l-431 -614h-90z" />
    <glyph glyph-name="zerosuperior" unicode="&#x2070;" horiz-adv-x="326" 
d="M163 267q-64 0 -103 48t-39 128t39 128t103 48t103 -48t39 -128t-39 -128t-103 -48zM163 539q-52 0 -52 -96q0 -95 52 -95q24 0 38 23.5t14 71.5t-14 72t-38 24z" />
    <glyph glyph-name="foursuperior" unicode="&#x2074;" horiz-adv-x="318" 
d="M182 410v57h79v-57h42v-75h-42v-62h-79v62h-167v26l117 253h91l-93 -204h52z" />
    <glyph glyph-name="fivesuperior" unicode="&#x2075;" horiz-adv-x="268" 
d="M130 496q53 0 88 -30t35 -84q0 -53 -37.5 -84t-94.5 -31q-33 0 -57.5 8t-42.5 20v83q17 -16 41.5 -26t50.5 -10q23 0 38.5 9.5t15.5 30.5t-16 31t-42 10q-20 0 -40.5 -3.5t-36.5 -9.5v204h203v-80h-131v-41q10 3 26 3z" />
    <glyph glyph-name="sixsuperior" unicode="&#x2076;" horiz-adv-x="292" 
d="M146 267q-29 0 -53.5 9.5t-41.5 27t-26.5 40.5t-9.5 50q0 22 7.5 43.5t25.5 52.5l72 124h96l-61 -107q2 1 10 1q21 0 41.5 -8t36 -22.5t25 -35.5t9.5 -48t-9.5 -50t-27 -40.5t-41.5 -27t-53 -9.5zM193 394q0 22 -13.5 35t-33.5 13t-33.5 -13t-13.5 -35q0 -23 13.5 -35.5
t33.5 -12.5t33.5 12.5t13.5 35.5z" />
    <glyph glyph-name="sevensuperior" unicode="&#x2077;" horiz-adv-x="273" 
d="M21 273l120 261h-134v80h265v-2l-155 -339h-96z" />
    <glyph glyph-name="eightsuperior" unicode="&#x2078;" horiz-adv-x="303" 
d="M152 338q18 0 29.5 10t11.5 27q0 16 -11.5 25.5t-29.5 9.5t-30 -9.5t-12 -25.5q0 -17 12 -27t30 -10zM152 483q16 0 26 9.5t10 24.5t-10 24.5t-26 9.5t-27 -9.5t-11 -24.5t11 -24.5t27 -9.5zM152 267q-27 0 -51 7t-41.5 19.5t-28 31t-10.5 42.5q0 30 15.5 50t38.5 28
q-20 11 -31.5 30.5t-11.5 43.5t9.5 43t26 31.5t38.5 19t46 6.5t45.5 -6.5t38 -19t26 -31.5t9.5 -43t-11.5 -43.5t-31.5 -30.5q23 -8 38.5 -28t15.5 -50q0 -24 -10 -42.5t-28 -31t-41.5 -19.5t-50.5 -7z" />
    <glyph glyph-name="ninesuperior" unicode="&#x2079;" horiz-adv-x="292" 
d="M146 620q29 0 53 -9.5t41.5 -27t27 -40.5t9.5 -50q0 -22 -7.5 -43.5t-25.5 -52.5l-72 -124h-96l61 107q-2 -1 -10 -1q-21 0 -41.5 8t-36 22.5t-25 35.5t-9.5 48t9.5 50t26.5 40.5t41.5 27t53.5 9.5zM99 493q0 -22 13.5 -35t33.5 -13t33.5 13t13.5 35q0 23 -13.5 35.5
t-33.5 12.5t-33.5 -12.5t-13.5 -35.5z" />
    <glyph glyph-name="zeroinferior" unicode="&#x2080;" horiz-adv-x="326" 
d="M163 -6q-64 0 -103 48t-39 128t39 128t103 48t103 -48t39 -128t-39 -128t-103 -48zM163 266q-52 0 -52 -96q0 -95 52 -95q24 0 38 23.5t14 71.5t-14 72t-38 24z" />
    <glyph glyph-name="oneinferior" unicode="&#x2081;" horiz-adv-x="230" 
d="M101 0v237l-87 -43v92l115 55h63v-341h-91z" />
    <glyph glyph-name="twoinferior" unicode="&#x2082;" horiz-adv-x="281" 
d="M265 0h-254v2l99 132q23 32 36.5 51.5t13.5 39.5q0 17 -11.5 27t-31.5 10q-26 0 -52 -15t-43 -29v89q20 16 51 27.5t69 11.5q51 0 81 -28t30 -74q0 -32 -17 -61t-39 -60l-31 -43h99v-80z" />
    <glyph glyph-name="threeinferior" unicode="&#x2083;" horiz-adv-x="272" 
d="M252 341v-2l-67 -132q32 -14 49 -38.5t17 -57.5q0 -28 -10 -49.5t-27.5 -36.5t-40.5 -23t-49 -8q-36 0 -60.5 8.5t-42.5 20.5v85q20 -18 43.5 -28t48.5 -10q51 0 51 40q0 27 -25 37.5t-58 8.5v2l52 102h-111v81h230z" />
    <glyph glyph-name="fourinferior" unicode="&#x2084;" horiz-adv-x="318" 
d="M182 137v57h79v-57h42v-75h-42v-62h-79v62h-167v26l117 253h91l-93 -204h52z" />
    <glyph glyph-name="fiveinferior" unicode="&#x2085;" horiz-adv-x="268" 
d="M130 223q53 0 88 -30t35 -84q0 -53 -37.5 -84t-94.5 -31q-33 0 -57.5 8t-42.5 20v83q17 -16 41.5 -26t50.5 -10q23 0 38.5 9.5t15.5 30.5t-16 31t-42 10q-20 0 -40.5 -3.5t-36.5 -9.5v204h203v-80h-131v-41q10 3 26 3z" />
    <glyph glyph-name="sixinferior" unicode="&#x2086;" horiz-adv-x="292" 
d="M146 -6q-29 0 -53.5 9.5t-41.5 27t-26.5 40.5t-9.5 50q0 22 7.5 43.5t25.5 52.5l72 124h96l-61 -107q2 1 10 1q21 0 41.5 -8t36 -22.5t25 -35.5t9.5 -48t-9.5 -50t-27 -40.5t-41.5 -27t-53 -9.5zM193 121q0 22 -13.5 35t-33.5 13t-33.5 -13t-13.5 -35q0 -23 13.5 -35.5
t33.5 -12.5t33.5 12.5t13.5 35.5z" />
    <glyph glyph-name="seveninferior" unicode="&#x2087;" horiz-adv-x="273" 
d="M21 0l120 261h-134v80h265v-2l-155 -339h-96z" />
    <glyph glyph-name="eightinferior" unicode="&#x2088;" horiz-adv-x="303" 
d="M152 65q18 0 29.5 10t11.5 27q0 16 -11.5 25.5t-29.5 9.5t-30 -9.5t-12 -25.5q0 -17 12 -27t30 -10zM152 210q16 0 26 9.5t10 24.5t-10 24.5t-26 9.5t-27 -9.5t-11 -24.5t11 -24.5t27 -9.5zM152 -6q-27 0 -51 7t-41.5 19.5t-28 31t-10.5 42.5q0 30 15.5 50t38.5 28
q-20 11 -31.5 30.5t-11.5 43.5t9.5 43t26 31.5t38.5 19t46 6.5t45.5 -6.5t38 -19t26 -31.5t9.5 -43t-11.5 -43.5t-31.5 -30.5q23 -8 38.5 -28t15.5 -50q0 -24 -10 -42.5t-28 -31t-41.5 -19.5t-50.5 -7z" />
    <glyph glyph-name="nineinferior" unicode="&#x2089;" horiz-adv-x="292" 
d="M146 347q29 0 53 -9.5t41.5 -27t27 -40.5t9.5 -50q0 -22 -7.5 -43.5t-25.5 -52.5l-72 -124h-96l61 107q-2 -1 -10 -1q-21 0 -41.5 8t-36 22.5t-25 35.5t-9.5 48t9.5 50t26.5 40.5t41.5 27t53.5 9.5zM99 220q0 -22 13.5 -35t33.5 -13t33.5 13t13.5 35q0 23 -13.5 35.5
t-33.5 12.5t-33.5 -12.5t-13.5 -35.5z" />
    <glyph glyph-name="Euro" unicode="&#x20ac;" 
d="M68 278q-1 7 -1 14v15v13t1 13h-48v77h60q13 49 38.5 88.5t60.5 67.5t78 43t93 15q37 0 67 -7.5t55 -21.5v-121q-55 38 -116 38q-51 0 -89 -27t-58 -75h169l-15 -77h-172q-1 -7 -1 -13v-13v-15t1 -14h163l-15 -77h-129q20 -47 57.5 -73t88.5 -26q61 0 116 38v-121
q-25 -14 -55 -21.5t-67 -7.5q-49 0 -92.5 14.5t-78.5 42t-60.5 66.5t-38.5 88h-60v77h48z" />
    <glyph glyph-name="uni2117" unicode="&#x2117;" horiz-adv-x="704" 
d="M669 307q0 -69 -25 -127t-68 -100.5t-101 -66t-123 -23.5t-123 23.5t-101 66t-68 100.5t-25 127t25 127t68 100.5t101 66t123 23.5t123 -23.5t101 -66t68 -100.5t25 -127zM622 307q0 59 -21.5 108.5t-58 85.5t-86 56.5t-104.5 20.5q-56 0 -105 -20.5t-85.5 -56.5
t-58 -85.5t-21.5 -108.5t21.5 -108.5t58 -85.5t85.5 -56.5t105 -20.5q55 0 104.5 20.5t86 56.5t58 85.5t21.5 108.5zM321 124h-96v369h165q60 0 97.5 -33t37.5 -96t-37.5 -96t-97.5 -33h-69v-111zM430 364q0 20 -11.5 32.5t-37.5 12.5h-60v-90h60q26 0 37.5 12.5t11.5 32.5z
" />
    <glyph glyph-name="trademark" unicode="&#x2122;" horiz-adv-x="590" 
d="M248 614v-64h-77v-190h-74v190h-77v64h228zM353 498v-138h-72v254h68l68 -99l68 99h67v-254h-71v138l-62 -86h-5z" />
    <glyph glyph-name="uni2153" unicode="&#x2153;" horiz-adv-x="688" 
d="M668 341v-2l-67 -132q32 -14 49 -38.5t17 -57.5q0 -28 -10 -49.5t-27.5 -36.5t-40.5 -23t-49 -8q-36 0 -60.5 8.5t-42.5 20.5v85q20 -18 43.5 -28t48.5 -10q51 0 51 40q0 27 -25 37.5t-58 8.5v2l52 102h-111v81h230zM101 273v237l-87 -43v92l115 55h63v-341h-91zM65 0
l431 614h90l-431 -614h-90z" />
    <glyph glyph-name="uni2154" unicode="&#x2154;" horiz-adv-x="743" 
d="M723 341v-2l-67 -132q32 -14 49 -38.5t17 -57.5q0 -28 -10 -49.5t-27.5 -36.5t-40.5 -23t-49 -8q-36 0 -60.5 8.5t-42.5 20.5v85q20 -18 43.5 -28t48.5 -10q51 0 51 40q0 27 -25 37.5t-58 8.5v2l52 102h-111v81h230zM265 273h-254v2l99 132q23 32 36.5 51.5t13.5 39.5
q0 17 -11.5 27t-31.5 10q-26 0 -52 -15t-43 -29v89q20 16 51 27.5t69 11.5q51 0 81 -28t30 -74q0 -32 -17 -61t-39 -60l-31 -43h99v-80zM121 0l431 614h90l-431 -614h-90z" />
    <glyph glyph-name="uni215B" unicode="&#x215b;" horiz-adv-x="687" 
d="M536 65q18 0 29.5 10t11.5 27q0 16 -11.5 25.5t-29.5 9.5t-30 -9.5t-12 -25.5q0 -17 12 -27t30 -10zM536 210q16 0 26 9.5t10 24.5t-10 24.5t-26 9.5t-27 -9.5t-11 -24.5t11 -24.5t27 -9.5zM536 -6q-27 0 -51 7t-41.5 19.5t-28 31t-10.5 42.5q0 30 15.5 50t38.5 28
q-20 11 -31.5 30.5t-11.5 43.5t9.5 43t26 31.5t38.5 19t46 6.5t45.5 -6.5t38 -19t26 -31.5t9.5 -43t-11.5 -43.5t-31.5 -30.5q23 -8 38.5 -28t15.5 -50q0 -24 -10 -42.5t-28 -31t-41.5 -19.5t-50.5 -7zM101 273v237l-87 -43v92l115 55h63v-341h-91zM65 0l431 614h90
l-431 -614h-90z" />
    <glyph glyph-name="uni215C" unicode="&#x215c;" horiz-adv-x="696" 
d="M545 65q18 0 29.5 10t11.5 27q0 16 -11.5 25.5t-29.5 9.5t-30 -9.5t-12 -25.5q0 -17 12 -27t30 -10zM545 210q16 0 26 9.5t10 24.5t-10 24.5t-26 9.5t-27 -9.5t-11 -24.5t11 -24.5t27 -9.5zM545 -6q-27 0 -51 7t-41.5 19.5t-28 31t-10.5 42.5q0 30 15.5 50t38.5 28
q-20 11 -31.5 30.5t-11.5 43.5t9.5 43t26 31.5t38.5 19t46 6.5t45.5 -6.5t38 -19t26 -31.5t9.5 -43t-11.5 -43.5t-31.5 -30.5q23 -8 38.5 -28t15.5 -50q0 -24 -10 -42.5t-28 -31t-41.5 -19.5t-50.5 -7zM252 614v-2l-67 -132q32 -14 49 -38.5t17 -57.5q0 -28 -10 -49.5
t-27.5 -36.5t-40.5 -23t-49 -8q-36 0 -60.5 8.5t-42.5 20.5v85q20 -18 43.5 -28t48.5 -10q51 0 51 40q0 27 -25 37.5t-58 8.5v2l52 102h-111v81h230zM73 0l431 614h90l-431 -614h-90z" />
    <glyph glyph-name="uni215D" unicode="&#x215d;" horiz-adv-x="699" 
d="M548 65q18 0 29.5 10t11.5 27q0 16 -11.5 25.5t-29.5 9.5t-30 -9.5t-12 -25.5q0 -17 12 -27t30 -10zM548 210q16 0 26 9.5t10 24.5t-10 24.5t-26 9.5t-27 -9.5t-11 -24.5t11 -24.5t27 -9.5zM548 -6q-27 0 -51 7t-41.5 19.5t-28 31t-10.5 42.5q0 30 15.5 50t38.5 28
q-20 11 -31.5 30.5t-11.5 43.5t9.5 43t26 31.5t38.5 19t46 6.5t45.5 -6.5t38 -19t26 -31.5t9.5 -43t-11.5 -43.5t-31.5 -30.5q23 -8 38.5 -28t15.5 -50q0 -24 -10 -42.5t-28 -31t-41.5 -19.5t-50.5 -7zM130 496q53 0 88 -30t35 -84q0 -53 -37.5 -84t-94.5 -31q-33 0 -57.5 8
t-42.5 20v83q17 -16 41.5 -26t50.5 -10q23 0 38.5 9.5t15.5 30.5t-16 31t-42 10q-20 0 -40.5 -3.5t-36.5 -9.5v204h203v-80h-131v-41q10 3 26 3zM76 0l431 614h90l-431 -614h-90z" />
    <glyph glyph-name="uni215E" unicode="&#x215e;" horiz-adv-x="651" 
d="M500 65q18 0 29.5 10t11.5 27q0 16 -11.5 25.5t-29.5 9.5t-30 -9.5t-12 -25.5q0 -17 12 -27t30 -10zM500 210q16 0 26 9.5t10 24.5t-10 24.5t-26 9.5t-27 -9.5t-11 -24.5t11 -24.5t27 -9.5zM500 -6q-27 0 -51 7t-41.5 19.5t-28 31t-10.5 42.5q0 30 15.5 50t38.5 28
q-20 11 -31.5 30.5t-11.5 43.5t9.5 43t26 31.5t38.5 19t46 6.5t45.5 -6.5t38 -19t26 -31.5t9.5 -43t-11.5 -43.5t-31.5 -30.5q23 -8 38.5 -28t15.5 -50q0 -24 -10 -42.5t-28 -31t-41.5 -19.5t-50.5 -7zM21 273l120 261h-134v80h265v-2l-155 -339h-96zM29 0l431 614h90
l-431 -614h-90z" />
    <glyph glyph-name="minus" unicode="&#x2212;" horiz-adv-x="560" 
d="M496 347v-96h-432v96h432z" />
    <glyph glyph-name="uni2219" unicode="&#x2219;" horiz-adv-x="214" 
d="M29 263q0 34 22.5 56.5t55.5 22.5t55.5 -22.5t22.5 -56.5t-22.5 -57t-55.5 -23t-55.5 23t-22.5 57z" />
    <glyph glyph-name="approxequal" unicode="&#x2248;" horiz-adv-x="576" 
d="M73 402q31 20 60 29t56 9t51 -6t47 -12.5t47 -12.5t51 -6t56.5 9t62.5 30v-90q-33 -21 -62.5 -30t-56.5 -9t-51 6t-47 13t-47 13t-51 6t-56 -9t-60 -30v90zM73 248q31 21 60 30t56 9t51 -6t47 -13t47 -13t51 -6t56.5 8.5t62.5 30.5v-90q-33 -21 -62.5 -29.5t-56.5 -8.5
t-51 6t-47 12.5t-47 12.5t-51 6t-56 -9t-60 -29v89z" />
    <glyph glyph-name="notequal" unicode="&#x2260;" horiz-adv-x="576" 
d="M330 425l63 94h83l-63 -94h91v-87h-149l-52 -77h201v-86h-258l-63 -94h-82l62 94h-90v86h148l51 77h-199v87h257z" />
    <glyph glyph-name="lessequal" unicode="&#x2264;" horiz-adv-x="448" 
d="M389 545v-103l-234 -80l234 -80v-102l-329 123v117zM389 153v-93h-329v93h329z" />
    <glyph glyph-name="greaterequal" unicode="&#x2265;" horiz-adv-x="448" 
d="M60 180v102l233 80l-233 80v103l329 -125v-117zM60 60v93h329v-93h-329z" />
    <glyph glyph-name="i.dot" horiz-adv-x="232" 
d="M54 0v447h124v-447h-124zM191 579q0 -32 -22.5 -51.5t-51.5 -19.5t-51.5 19.5t-22.5 51.5q0 31 22.5 51t51.5 20t51.5 -20t22.5 -51z" />
    <glyph glyph-name="zero.lt" horiz-adv-x="520" 
d="M260 -10q-54 0 -97.5 23t-74 65t-47 100.5t-16.5 128.5t16.5 128.5t47 100.5t74 65t97.5 23t97.5 -23t74 -65t47 -100.5t16.5 -128.5t-16.5 -128.5t-47 -100.5t-74 -65t-97.5 -23zM260 510q-30 0 -51 -15.5t-34.5 -43t-19.5 -64.5t-6 -80t6 -80t19.5 -64.5t34.5 -43
t51 -15.5t50.5 15.5t34 43t19.5 64.5t6 80t-6 80t-19.5 64.5t-34 43t-50.5 15.5z" />
    <glyph glyph-name="one.lt" horiz-adv-x="520" 
d="M219 111v357l-155 -78v126l198 98h81v-503h138v-111h-419v111h157z" />
    <glyph glyph-name="two.lt" horiz-adv-x="520" 
d="M462 0h-432v4l179 234q22 28 40 51.5t31 46t20 44.5t7 46q0 36 -22 58t-66 22q-26 0 -50 -7t-46 -18.5t-41.5 -26t-35.5 -28.5v125q33 31 84.5 52t111.5 21q89 0 141.5 -49t52.5 -133q0 -30 -9 -59.5t-24.5 -58t-35.5 -57t-42 -58.5l-75 -98h212v-111z" />
    <glyph glyph-name="three.lt" horiz-adv-x="520" 
d="M460 614v-3l-137 -242q64 -18 102 -64t38 -112q0 -48 -18 -85.5t-49 -64t-72 -40.5t-86 -14q-65 0 -108 14.5t-75 37.5v124q36 -32 80 -50t92 -18q52 0 85 23.5t33 71.5q0 28 -14 48t-38.5 33t-56.5 19t-68 5v3l114 202h-222v112h400z" />
    <glyph glyph-name="four.lt" horiz-adv-x="520" 
d="M304 224v131h113v-131h82v-105h-82v-119h-113v119h-287v4l205 491h121l-162 -390h123z" />
    <glyph glyph-name="five.lt" horiz-adv-x="520" 
d="M238 397q48 0 90 -13.5t73 -39.5t49 -63.5t18 -86.5q0 -48 -18 -86t-50.5 -64t-76 -40t-94.5 -14q-56 0 -97.5 13.5t-73.5 36.5v124q33 -31 74.5 -49t87.5 -18q26 0 49.5 6t41 18t28 30.5t10.5 42.5t-10.5 42.5t-28.5 30.5t-42 18.5t-51 6.5q-39 0 -72.5 -6.5
t-65.5 -19.5v348h356v-112h-255v-111q11 3 27 4.5t31 1.5z" />
    <glyph glyph-name="six.lt" horiz-adv-x="520" 
d="M260 -10q-48 0 -88.5 16.5t-70 46t-46 69.5t-16.5 87q0 41 13.5 83.5t47.5 100.5l128 221h134l-114 -199q5 2 14.5 3.5t17.5 1.5q45 -2 82 -18.5t63.5 -45t41 -66.5t14.5 -81q0 -47 -16.5 -87t-45.5 -69.5t-70 -46t-89 -16.5zM366 209q0 22 -8 42t-22 34.5t-33.5 23
t-42.5 8.5t-42 -8.5t-33 -23t-22 -34.5t-8 -42q0 -46 29.5 -77t75.5 -31q47 0 76.5 31t29.5 77z" />
    <glyph glyph-name="seven.lt" horiz-adv-x="520" 
d="M91 0l231 502h-283v112h462v-3l-279 -611h-131z" />
    <glyph glyph-name="eight.lt" horiz-adv-x="520" 
d="M261 91q43 0 72 23t29 64q0 42 -29 64.5t-72 22.5q-42 0 -70.5 -22.5t-28.5 -64.5q0 -41 28.5 -64t70.5 -23zM261 369q35 0 61 20.5t26 56.5q0 38 -26 58.5t-61 20.5q-34 0 -59.5 -20.5t-25.5 -58.5q0 -36 25.5 -56.5t59.5 -20.5zM261 -10q-46 0 -86.5 12t-70.5 35
t-47 56t-17 75q0 59 31.5 97t75.5 50q-38 17 -63 52t-25 84q0 42 16.5 74.5t44.5 54t64.5 33t76.5 11.5q41 0 78 -11.5t65 -33t44.5 -54t16.5 -74.5q0 -49 -25.5 -84t-63.5 -52q22 -6 41.5 -19t34.5 -31.5t23.5 -43t8.5 -53.5q0 -42 -17.5 -75t-47.5 -56t-71 -35t-87 -12z
" />
    <glyph glyph-name="nine.lt" horiz-adv-x="520" 
d="M260 624q48 0 88.5 -16.5t70 -46t46 -69.5t16.5 -87q0 -41 -13.5 -83.5t-47.5 -100.5l-128 -221h-134l113 198q-5 -2 -14 -3t-17 -1q-45 1 -82 18t-63.5 45.5t-41 66t-14.5 81.5q0 47 16.5 87t45.5 69.5t70 46t89 16.5zM154 405q0 -23 8 -42.5t22 -34t33.5 -23t42.5 -8.5
t42 8.5t33 23t22 34t8 42.5q0 46 -29.5 77t-75.5 31q-47 0 -76.5 -31t-29.5 -77z" />
    <glyph glyph-name="backslash.cap" horiz-adv-x="373" 
d="M253 -64l-248 734h115l248 -734h-115z" />
    <glyph glyph-name="periodcentered.cap" horiz-adv-x="214" 
d="M29 300q0 34 22.5 56.5t55.5 22.5t55.5 -22.5t22.5 -56.5t-22.5 -57t-55.5 -23t-55.5 23t-22.5 57z" />
    <glyph glyph-name="bullet.cap" horiz-adv-x="364" 
d="M336 299q0 -33 -12 -61t-33 -48.5t-49 -31.5t-60 -11t-60 11t-48.5 31.5t-32.5 48.5t-12 61q0 34 12 62.5t32.5 48.5t48.5 31.5t60 11.5t60 -11.5t49 -31.5t33 -48.5t12 -62.5z" />
    <glyph glyph-name="exclamdown.cap" horiz-adv-x="217" 
d="M30 544q0 32 22.5 54.5t55.5 22.5t56 -22.5t23 -54.5q0 -33 -23 -55.5t-56 -22.5t-55.5 22.5t-22.5 55.5zM154 416l30 -416h-151l30 416h91z" />
    <glyph glyph-name="questiondown.cap" horiz-adv-x="428" 
d="M223 300q-12 -15 -25 -28t-23.5 -26.5t-17 -28t-6.5 -32.5q0 -74 86 -74q26 0 50.5 7t46 18t40.5 25t34 28v-126q-33 -31 -83 -52t-110 -21q-89 0 -142 48t-53 132q0 28 9 52t23 45t31 40.5t34 37.5q23 24 29.5 40.5t7.5 30.5h122q-1 -18 -4 -32t-9 -27.5t-15.5 -27
t-24.5 -29.5zM297 544q0 -34 -22.5 -56t-55.5 -22q-34 0 -57 22t-23 56q0 32 23 54.5t57 22.5q33 0 55.5 -22.5t22.5 -54.5z" />
    <glyph glyph-name="slash.cap" horiz-adv-x="373" 
d="M368 670l-248 -734h-115l248 734h115z" />
    <glyph glyph-name="asterisk.ss01" horiz-adv-x="346" 
d="M-249 612l65 -38v76h52v-76l65 38l26 -44l-67 -38l67 -38l-26 -44l-65 38v-76h-52v76l-65 -38l-26 44l66 38l-66 38z" />
    <glyph glyph-name="colon.tab" horiz-adv-x="260" 
d="M52 73q0 34 22.5 56.5t55.5 22.5t55.5 -22.5t22.5 -56.5t-22.5 -57t-55.5 -23t-55.5 23t-22.5 57zM52 358q0 34 22.5 56.5t55.5 22.5t55.5 -22.5t22.5 -56.5t-22.5 -57t-55.5 -23t-55.5 23t-22.5 57z" />
    <glyph glyph-name="comma.tab" horiz-adv-x="260" 
d="M112 3q-25 5 -42.5 23t-17.5 49q0 33 22.5 54.5t55.5 21.5q32 0 55 -21.5t23 -63.5q0 -23 -9 -46.5t-23 -43.5l-57 -85h-80z" />
    <glyph glyph-name="period.tab" horiz-adv-x="260" 
d="M52 73q0 34 22.5 56.5t55.5 22.5t55.5 -22.5t22.5 -56.5t-22.5 -57t-55.5 -23t-55.5 23t-22.5 57z" />
    <glyph glyph-name="semicolon.tab" horiz-adv-x="260" 
d="M112 3q-25 5 -42.5 23t-17.5 49q0 33 22.5 54.5t55.5 21.5q32 0 55 -21.5t23 -63.5q0 -23 -9 -46.5t-23 -43.5l-57 -85h-80zM52 358q0 34 22.5 56.5t55.5 22.5t55.5 -22.5t22.5 -56.5t-22.5 -57t-55.5 -23t-55.5 23t-22.5 57z" />
    <glyph glyph-name="braceleft.cap" horiz-adv-x="353" 
d="M213 72q0 -29 29 -29h91v-107h-108q-57 0 -93 36t-36 94v154q0 29 -29 29h-47v108h47q29 0 29 29v154q0 58 36 94t93 36h108v-107h-91q-29 0 -29 -29v-148q0 -32 -13.5 -51.5t-33.5 -31.5q20 -12 33.5 -31.5t13.5 -51.5v-148z" />
    <glyph glyph-name="braceright.cap" horiz-adv-x="353" 
d="M140 220q0 32 13.5 51.5t33.5 31.5q-20 12 -33.5 31.5t-13.5 51.5v148q0 29 -29 29h-91v107h108q57 0 93 -36t36 -94v-154q0 -29 29 -29h47v-108h-47q-29 0 -29 -29v-154q0 -58 -36 -94t-93 -36h-108v107h91q29 0 29 29v148z" />
    <glyph glyph-name="bracketleft.cap" horiz-adv-x="322" 
d="M302 43v-107h-243v734h243v-107h-127v-520h127z" />
    <glyph glyph-name="bracketright.cap" horiz-adv-x="322" 
d="M20 563v107h243v-734h-243v107h127v520h-127z" />
    <glyph glyph-name="parenleft.cap" horiz-adv-x="325" 
d="M30 303q0 70 19 130t55 107.5t87 81t114 48.5v-125q-34 -9 -63 -30t-50 -51.5t-32.5 -71t-11.5 -89.5t11.5 -89.5t32.5 -71.5t50 -51.5t63 -29.5v-125q-63 15 -114 48.5t-87 81t-55 107.5t-19 130z" />
    <glyph glyph-name="parenright.cap" horiz-adv-x="325" 
d="M295 303q0 -70 -19 -130t-55 -107.5t-87 -81t-114 -48.5v125q34 9 63 29.5t50 51.5t32.5 71.5t11.5 89.5t-11.5 89.5t-32.5 71t-50 51.5t-63 30v125q63 -15 114 -48.5t87 -81t55 -107.5t19 -130z" />
    <glyph glyph-name="emdash.cap" horiz-adv-x="842" 
d="M804 345v-90h-766v90h766z" />
    <glyph glyph-name="endash.cap" horiz-adv-x="471" 
d="M433 345v-90h-395v90h395z" />
    <glyph glyph-name="hyphen.cap" horiz-adv-x="317" 
d="M279 354v-108h-241v108h241z" />
    <glyph glyph-name="guillemotleft.cap" horiz-adv-x="420" 
d="M25 302l92 161h106l-92 -161l92 -161h-106zM197 302l92 161h106l-92 -161l92 -161h-106z" />
    <glyph glyph-name="guillemotright.cap" horiz-adv-x="420" 
d="M289 302l-92 161h106l92 -161l-92 -161h-106zM117 302l-92 161h106l92 -161l-92 -161h-106z" />
    <glyph glyph-name="guilsinglleft.cap" horiz-adv-x="254" 
d="M25 302l92 161h112l-92 -161l92 -161h-112z" />
    <glyph glyph-name="guilsinglright.cap" horiz-adv-x="254" 
d="M117 302l-92 161h112l92 -161l-92 -161h-112z" />
    <glyph glyph-name="slash_2" horiz-adv-x="380" 
d="M1317 487l-1471 -413l-18 53l1471 413z" />
    <glyph glyph-name="slash_3" horiz-adv-x="380" 
d="M1817 481l-1957 -410l-12 56l1957 410z" />
    <glyph glyph-name="slash_4" horiz-adv-x="380" 
d="M2366 473l-2497 -394l-10 58l2497 394z" />
    <glyph glyph-name="slash_5" horiz-adv-x="380" 
d="M2878 472l-3002 -393l-9 58l3002 393z" />
    <glyph glyph-name="slash_6" horiz-adv-x="380" 
d="M3413 461l-3533 -373l-8 59l3533 373z" />
    <glyph glyph-name="hyphen_alt1.ss01" horiz-adv-x="317" 
d="M279 346v-108h-241v108h241z" />
    <glyph glyph-name="space.tab" horiz-adv-x="260" 
 />
    <glyph glyph-name="space_dotbelowcomb" 
d="M323 -109q0 -31 -22 -50.5t-51 -19.5t-51 19.5t-22 50.5t22 50.5t51 19.5t51 -19.5t22 -50.5z" />
    <glyph glyph-name="space_uni0326" 
d="M231 -163q-21 4 -35.5 19.5t-14.5 40.5q0 28 20.5 46t50.5 18q28 0 48.5 -18.5t20.5 -50.5q0 -23 -9.5 -41.5t-23.5 -36.5l-27 -39h-76z" />
    <glyph glyph-name="space_uni0326.alt" 
d="M269 632q22 -5 36.5 -21t14.5 -41q0 -29 -21 -47t-51 -18q-29 0 -50 18.5t-21 51.5q0 23 9.5 42.5t23.5 37.5l30 41h76z" />
    <glyph glyph-name="cent.lt" horiz-adv-x="520" 
d="M241 8q-72 19 -118 77t-46 148t46 148.5t118 77.5v93h106v-89q22 -3 42.5 -10.5t37.5 -20.5v-113q-23 20 -50.5 30t-58.5 10q-49 0 -83 -33t-34 -93t34 -93t83 -33q63 0 109 40v-112q-17 -13 -37.5 -20.5t-42.5 -11.5v-90h-106v95z" />
    <glyph glyph-name="dollar.lt" horiz-adv-x="520" 
d="M208 6q-47 5 -85.5 18t-64.5 30v121q39 -29 87.5 -47t99.5 -18q45 0 75 14t30 49q0 29 -18 43t-51 27l-86 28q-33 11 -60 25.5t-45.5 34.5t-29 47t-10.5 63q0 35 12 63t33 49t50 34t63 19v92h107v-92q35 -5 65 -15.5t56 -26.5v-120q-38 28 -80 44.5t-93 16.5
q-40 0 -66 -14t-26 -44q0 -27 16.5 -40t47.5 -24l92 -31q74 -26 108.5 -67.5t34.5 -106.5q0 -71 -43.5 -112.5t-111.5 -55.5v-99h-107v95z" />
    <glyph glyph-name="Euro.lt" horiz-adv-x="520" 
d="M82 278q-1 7 -1 14v15v13t1 13h-48v77h60q13 49 38.5 88.5t60.5 67.5t78 43t93 15q37 0 67 -7.5t55 -21.5v-121q-55 38 -116 38q-51 0 -89 -27t-58 -75h169l-15 -77h-172q-1 -7 -1 -13v-13v-15t1 -14h163l-15 -77h-129q20 -47 57.5 -73t88.5 -26q61 0 116 38v-121
q-25 -14 -55 -21.5t-67 -7.5q-49 0 -92.5 14.5t-78.5 42t-60.5 66.5t-38.5 88h-60v77h48z" />
    <glyph glyph-name="florin.lt" horiz-adv-x="520" 
d="M213 353l20 112q14 78 59 118.5t120 40.5q20 0 37 -3.5t31 -8.5v-105q-23 12 -54 12q-58 0 -70 -62l-19 -104h86v-100h-103l-47 -267q-7 -38 -19 -67.5t-31.5 -49.5t-47.5 -31t-67 -11q-22 0 -38.5 3.5t-30.5 8.5v99q11 -5 27 -8t27 -3q28 0 39.5 15.5t16.5 45.5l46 265
h-65v100h83z" />
    <glyph glyph-name="sterling.lt" horiz-adv-x="520" 
d="M127 352v58q0 49 16 88.5t45 67.5t69 43t89 15q35 0 66.5 -8.5t51.5 -21.5v-111q-21 14 -48.5 22.5t-61.5 8.5q-48 0 -77.5 -30t-29.5 -90v-42h131v-98h-131v-60q0 -26 -5 -51t-16 -40h253v-103h-424v103h52q10 17 15 37.5t5 53.5v60h-72v98h72z" />
    <glyph glyph-name="yen.lt" horiz-adv-x="520" 
d="M153 340l-139 274h134l115 -237l113 237h130l-141 -274h106v-84h-149v-56h149v-84h-149v-116h-126v116h-149v84h149v56h-149v84h106z" />
    <glyph glyph-name="approxequal.lt" horiz-adv-x="520" 
d="M45 402q31 20 60 29t56 9t51 -6t47 -12.5t47 -12.5t51 -6t56.5 9t62.5 30v-90q-33 -21 -62.5 -30t-56.5 -9t-51 6t-47 13t-47 13t-51 6t-56 -9t-60 -30v90zM45 248q31 21 60 30t56 9t51 -6t47 -13t47 -13t51 -6t56.5 8.5t62.5 30.5v-90q-33 -21 -62.5 -29.5t-56.5 -8.5
t-51 6t-47 12.5t-47 12.5t-51 6t-56 -9t-60 -29v89z" />
    <glyph glyph-name="divide.lt" horiz-adv-x="520" 
d="M477 347v-96h-432v96h432zM191 472q0 29 20.5 50t49.5 21t50.5 -21t21.5 -50t-21.5 -49.5t-50.5 -20.5t-49.5 20.5t-20.5 49.5zM191 126q0 29 20.5 49.5t49.5 20.5t50.5 -20.5t21.5 -49.5t-21.5 -50t-50.5 -21t-49.5 21t-20.5 50z" />
    <glyph glyph-name="equal.lt" horiz-adv-x="520" 
d="M476 262v-87h-431v87h431zM476 426v-88h-431v88h431z" />
    <glyph glyph-name="greater.lt" horiz-adv-x="520" 
d="M95 83v109l240 105l-240 106v108l329 -152v-123z" />
    <glyph glyph-name="greaterequal.lt" horiz-adv-x="520" 
d="M95 180v102l233 80l-233 80v103l329 -125v-117zM95 60v93h329v-93h-329z" />
    <glyph glyph-name="less.lt" horiz-adv-x="520" 
d="M424 511v-108l-240 -106l240 -105v-109l-328 153v123z" />
    <glyph glyph-name="lessequal.lt" horiz-adv-x="520" 
d="M424 545v-103l-234 -80l234 -80v-102l-329 123v117zM424 153v-93h-329v93h329z" />
    <glyph glyph-name="minus.lt" horiz-adv-x="520" 
d="M477 347v-96h-432v96h432z" />
    <glyph glyph-name="multiply.lt" horiz-adv-x="520" 
d="M139 484l121 -121l121 121l67 -66l-122 -120l122 -121l-67 -67l-121 121l-121 -121l-66 67l122 121l-122 120z" />
    <glyph glyph-name="notequal.lt" horiz-adv-x="520" 
d="M302 425l63 94h83l-63 -94h91v-87h-149l-52 -77h201v-86h-258l-63 -94h-82l62 94h-90v86h148l51 77h-199v87h257z" />
    <glyph glyph-name="percent.lt" horiz-adv-x="520" 
d="M20 501q0 25 9.5 47.5t26 39.5t38.5 26.5t47 9.5q26 0 48.5 -9.5t39 -26.5t26 -39.5t9.5 -47.5t-9.5 -47t-26 -38.5t-39 -26t-48.5 -9.5q-25 0 -47 9.5t-38.5 26t-26 38.5t-9.5 47zM91 501q0 -21 14.5 -35.5t35.5 -14.5q22 0 37 14.5t15 35.5q0 22 -15 37t-37 15
q-21 0 -35.5 -15t-14.5 -37zM500 113q0 -26 -9.5 -48t-26 -39t-38.5 -26.5t-47 -9.5q-26 0 -48.5 9.5t-39 26.5t-26 39t-9.5 48q0 25 9.5 47t26 38.5t39 26t48.5 9.5q25 0 47 -9.5t38.5 -26t26 -38.5t9.5 -47zM429 113q0 21 -14.5 35.5t-35.5 14.5q-22 0 -37 -14.5
t-15 -35.5q0 -22 15 -37t37 -15q21 0 35.5 15t14.5 37zM489 614l-375 -614h-83l375 614h83z" />
    <glyph glyph-name="perthousand.lt" horiz-adv-x="800" 
d="M29 501q0 25 9.5 47.5t26 39.5t38.5 26.5t48 9.5q25 0 47.5 -9.5t39 -26.5t26 -39.5t9.5 -47.5t-9.5 -47t-26 -38.5t-39 -26t-47.5 -9.5q-26 0 -48 9.5t-38.5 26t-26 38.5t-9.5 47zM100 501q0 -21 14.5 -35.5t36.5 -14.5q21 0 36 14.5t15 35.5q0 22 -15 37t-36 15
q-22 0 -36.5 -15t-14.5 -37zM510 113q0 -26 -9.5 -48t-26 -39t-39 -26.5t-47.5 -9.5q-26 0 -48 9.5t-39 26.5t-26.5 39t-9.5 48q0 25 9.5 47t26.5 38.5t39 26t48 9.5q25 0 47.5 -9.5t39 -26t26 -38.5t9.5 -47zM438 113q0 21 -14.5 35.5t-35.5 14.5q-22 0 -37 -14.5
t-15 -35.5q0 -22 15 -37t37 -15q21 0 35.5 15t14.5 37zM503 614l-385 -614h-83l385 614h83zM776 113q0 -26 -9.5 -48t-26 -39t-39 -26.5t-47.5 -9.5q-26 0 -48 9.5t-39 26.5t-26.5 39t-9.5 48q0 25 9.5 47t26.5 38.5t39 26t48 9.5q25 0 47.5 -9.5t39 -26t26 -38.5t9.5 -47z
M705 113q0 21 -15 35.5t-36 14.5t-36.5 -14.5t-15.5 -35.5q0 -22 15.5 -37t36.5 -15t36 15t15 37z" />
    <glyph glyph-name="plus.lt" horiz-adv-x="520" 
d="M309 347h168v-96h-168v-167h-95v167h-169v96h169v168h95v-168z" />
    <glyph glyph-name="plusminus.lt" horiz-adv-x="520" 
d="M306 418h164v-90h-164v-130h-90v130h-165v90h165v130h90v-130zM470 153v-91h-419v91h419z" />
    <glyph glyph-name="percent.ss01" horiz-adv-x="359" 
d="M51 541q0 -15 9.5 -24t23.5 -9t23.5 9t9.5 24q0 14 -9.5 23.5t-23.5 9.5t-23.5 -9.5t-9.5 -23.5zM314 614l-214 -341h-55l214 341h55zM163 541q0 -33 -22.5 -56t-56.5 -23t-56.5 23t-22.5 56q0 32 22.5 55.5t56.5 23.5t56.5 -23.5t22.5 -55.5zM242 346q0 -15 9.5 -24
t23.5 -9t23.5 9t9.5 24q0 14 -9.5 23.5t-23.5 9.5t-23.5 -9.5t-9.5 -23.5zM354 346q0 -33 -22.5 -56t-56.5 -23t-56.5 23t-22.5 56q0 32 22.5 55.5t56.5 23.5t56.5 -23.5t22.5 -55.5z" />
    <glyph glyph-name="bar.cap" horiz-adv-x="228" 
d="M169 670v-734h-110v734h110z" />
    <glyph glyph-name="at.cap" horiz-adv-x="768" 
d="M533 242q-1 -5 -1 -8.5v-7.5q0 -31 31 -31q46 0 74 45t28 126q0 53 -19.5 94.5t-54 70.5t-82 44t-102.5 15q-67 0 -122.5 -22.5t-95 -63t-61.5 -97.5t-22 -125q0 -79 28 -131t72 -83.5t97.5 -44.5t104.5 -13q70 0 123 13.5t101 34.5v-73q-38 -19 -96.5 -33t-127.5 -14
q-74 0 -143 20t-122.5 62t-86 107t-32.5 155q0 79 27.5 148t78 121t121 82t156.5 30q75 0 136.5 -22.5t106 -62.5t69 -94.5t24.5 -117.5q0 -62 -17 -107.5t-45 -75.5t-64.5 -45t-76.5 -15q-35 0 -65 13.5t-47 39.5q-14 -25 -41.5 -38.5t-55.5 -13.5q-32 0 -57 11.5t-42.5 32
t-27 48t-9.5 59.5q0 42 13.5 80.5t38 67.5t58.5 46.5t75 17.5q29 0 52 -11t33 -26l6 28h103zM448 358q-5 16 -20 26.5t-37 10.5q-20 0 -36 -9t-27 -24.5t-17.5 -36t-6.5 -42.5q0 -29 14.5 -47.5t43.5 -18.5q24 0 40.5 12t27.5 29z" />
    <glyph glyph-name="commaaccentcomb.alt" 
d="M269 632q22 -5 36.5 -21t14.5 -41q0 -29 -21 -47t-51 -18q-29 0 -50 18.5t-21 51.5q0 23 9.5 42.5t23.5 37.5l30 41h76z" />
    <glyph glyph-name="dieresiscomb.cap" 
d="M100 730q0 29 19 48.5t48 19.5q28 0 47.5 -19.5t19.5 -48.5q0 -27 -19.5 -46.5t-47.5 -19.5q-29 0 -48 19.5t-19 46.5zM265 730q0 29 19.5 48.5t47.5 19.5t48 -19.5t20 -48.5q0 -27 -20 -46.5t-48 -19.5t-47.5 19.5t-19.5 46.5z" />
    <glyph glyph-name="dotaccentcomb.cap" 
d="M324 734q0 -31 -22.5 -51t-51.5 -20t-51.5 20t-22.5 51q0 32 22.5 51.5t51.5 19.5t51.5 -19.5t22.5 -51.5z" />
    <glyph glyph-name="gravecomb.cap" 
d="M142 791h135l80 -122h-122z" />
    <glyph glyph-name="acutecomb.cap" 
d="M222 791h135l-93 -122h-122z" />
    <glyph glyph-name="hungarumlautcomb.cap" 
d="M157 791h105l-69 -122h-102zM305 791h104l-68 -122h-103z" />
    <glyph glyph-name="circumflexcomb.cap" 
d="M297 669l-47 54l-47 -54h-105l100 127h104l100 -127h-105z" />
    <glyph glyph-name="caroncomb.cap" 
d="M203 795l47 -54l47 54h105l-100 -127h-104l-100 127h105z" />
    <glyph glyph-name="brevecomb.cap" 
d="M249 663q-60 0 -97 34t-37 100h88q0 -25 13 -36.5t33 -11.5q22 0 34.5 11.5t12.5 36.5h88q0 -66 -37 -100t-98 -34z" />
    <glyph glyph-name="ringcomb.cap" 
d="M349 743q0 -21 -7.5 -38.5t-21 -30.5t-31.5 -20.5t-39 -7.5t-39 7.5t-31.5 20.5t-21 30.5t-7.5 38.5t7.5 38.5t21 30.5t31.5 20.5t39 7.5t39 -7.5t31.5 -20.5t21 -30.5t7.5 -38.5zM290 743q0 17 -11.5 28.5t-28.5 11.5t-28 -11.5t-11 -28.5t11 -28t28 -11t28.5 11
t11.5 28z" />
    <glyph glyph-name="tildecomb.cap" 
d="M399 802q0 -30 -5 -55t-15 -44t-26.5 -29.5t-38.5 -10.5q-18 0 -33 6.5t-28.5 14.5t-26 14.5t-25.5 6.5q-28 0 -29 -39h-71q0 30 5 55t15 44t26 29.5t39 10.5q18 0 33 -6.5t28.5 -14.5t26 -14.5t25.5 -6.5q27 0 29 39h71z" />
    <glyph glyph-name="macroncomb.cap" 
d="M371 760v-91h-243v91h243z" />
    <glyph glyph-name="caron.Slovak" 
d="M213 650h97l-38 -167h-97z" />
    <glyph glyph-name="cedilla.alt" 
d="M225 -47h114l-74 -139h-110z" />
    <glyph glyph-name="acute.cap" 
d="M222 791h135l-93 -122h-122z" />
    <glyph glyph-name="breve.cap" 
d="M249 663q-60 0 -97 34t-37 100h88q0 -25 13 -36.5t33 -11.5q22 0 34.5 11.5t12.5 36.5h88q0 -66 -37 -100t-98 -34z" />
    <glyph glyph-name="caron.cap" 
d="M203 795l47 -54l47 54h105l-100 -127h-104l-100 127h105z" />
    <glyph glyph-name="circumflex.cap" 
d="M297 669l-47 54l-47 -54h-105l100 127h104l100 -127h-105z" />
    <glyph glyph-name="dieresis.cap" 
d="M100 730q0 29 19 48.5t48 19.5q28 0 47.5 -19.5t19.5 -48.5q0 -27 -19.5 -46.5t-47.5 -19.5q-29 0 -48 19.5t-19 46.5zM265 730q0 29 19.5 48.5t47.5 19.5t48 -19.5t20 -48.5q0 -27 -20 -46.5t-48 -19.5t-47.5 19.5t-19.5 46.5z" />
    <glyph glyph-name="dotaccent.cap" 
d="M324 734q0 -31 -22.5 -51t-51.5 -20t-51.5 20t-22.5 51q0 32 22.5 51.5t51.5 19.5t51.5 -19.5t22.5 -51.5z" />
    <glyph glyph-name="grave.cap" 
d="M142 791h135l80 -122h-122z" />
    <glyph glyph-name="hungarumlaut.cap" 
d="M157 791h105l-69 -122h-102zM305 791h104l-68 -122h-103z" />
    <glyph glyph-name="macron.cap" 
d="M371 760v-91h-243v91h243z" />
    <glyph glyph-name="ring.cap" 
d="M349 743q0 -21 -7.5 -38.5t-21 -30.5t-31.5 -20.5t-39 -7.5t-39 7.5t-31.5 20.5t-21 30.5t-7.5 38.5t7.5 38.5t21 30.5t31.5 20.5t39 7.5t39 -7.5t31.5 -20.5t21 -30.5t7.5 -38.5zM290 743q0 17 -11.5 28.5t-28.5 11.5t-28 -11.5t-11 -28.5t11 -28t28 -11t28.5 11
t11.5 28z" />
    <glyph glyph-name="tilde.cap" 
d="M399 802q0 -30 -5 -55t-15 -44t-26.5 -29.5t-38.5 -10.5q-18 0 -33 6.5t-28.5 14.5t-26 14.5t-25.5 6.5q-28 0 -29 -39h-71q0 30 5 55t15 44t26 29.5t39 10.5q18 0 33 -6.5t28.5 -14.5t26 -14.5t25.5 -6.5q27 0 29 39h71z" />
    <glyph glyph-name="firsttonechinesecomb" 
d="M368 607v-91h-237v91h237z" />
    <glyph glyph-name="firsttonechinesecomb.cap" 
d="M368 607v-91h-237v91h237z" />
    </font>
</defs>
</svg>
