<?xml version="1.0" standalone="no"?>
<!DOCTYPE svg PUBLIC "-//W3C//DTD SVG 1.1//EN" "http://www.w3.org/Graphics/SVG/1.1/DTD/svg11.dtd" >
<svg xmlns="http://www.w3.org/2000/svg">
<metadata>Generated by IcoMoon</metadata>
<defs>
<font id="KPN-Service-Icons" horiz-adv-x="1024">
<font-face units-per-em="1024" ascent="960" descent="-64" />
<missing-glyph horiz-adv-x="1024" />
<glyph unicode="&#x20;" horiz-adv-x="512" d="" />
<glyph unicode="&#xe900;" glyph-name="247" d="M437.333 625.387h-8.32c21.333 31.467 41.067 68.267 41.067 111.68 0 81.067-60.587 137.6-147.2 137.6-0.767 0.010-1.674 0.015-2.581 0.015-50.923 0-97.805-17.306-135.084-46.357l0.491 0.369c-9.602-7.884-15.68-19.756-15.68-33.048 0-0.007 0-0.013 0-0.020v0.001-78.933c-0.001-0.114-0.002-0.249-0.002-0.384 0-23.564 19.103-42.667 42.667-42.667 9.937 0 19.082 3.397 26.334 9.094l-0.092-0.070c15.856 13.921 35.337 24.101 56.837 28.955l0.869 0.165c-9.139-17.23-19.41-32.096-31.18-45.623l0.246 0.289-2.88-3.733-94.080-122.773c-5.458-7.095-8.747-16.104-8.747-25.882 0-0.013 0-0.027 0-0.040v0.002-2.027c0-23.564 19.103-42.667 42.667-42.667v0h234.667c23.564 0 42.667 19.103 42.667 42.667v0 70.72c0 23.564-19.103 42.667-42.667 42.667v0zM437.333 512h-234.667v2.027l94.080 123.093c28.693 37.44 44.587 56.96 44.587 83.627 0 21.333-14.613 34.347-40.213 34.347-32.96 0-67.413-22.080-88.32-38.507v78.933c29.491 22.77 66.977 36.496 107.669 36.496 0.848 0 1.694-0.006 2.539-0.018l-0.128 0.001c64 0 104.533-37.973 104.533-94.827 0-40-23.467-74.667-51.2-112.32l-31.36-42.027h92.48zM826.24 680.533v2.133c0 23.564-19.103 42.667-42.667 42.667v0h-38.293l41.28 88.747c2.491 5.255 3.946 11.418 3.946 17.92 0 23.564-19.102 42.666-42.666 42.667h-87.467c-0.014 0-0.031 0-0.049 0-17.021 0-31.713-9.966-38.561-24.381l-0.111-0.259-95.040-204.373c-2.491-5.255-3.946-11.418-3.947-17.92v0-57.387c0-23.564 19.103-42.667 42.667-42.667v0h101.013v-15.68c0-23.564 19.103-42.667 42.667-42.667v0h74.667c23.564 0 42.667 19.103 42.667 42.667v0 16c21.358 2.544 37.761 20.548 37.761 42.384 0 0.099 0 0.199-0.001 0.298v-0.015 67.413c0 0.017 0 0.037 0 0.058 0 21.873-16.459 39.902-37.667 42.377l-0.199 0.019zM821.333 570.347h-37.76v-58.347h-74.667v58.347h-143.573v57.387l95.040 204.267h87.467l-90.133-193.92h51.307v44.587h74.667v-44.48h37.653zM789.333 426.667h-255.040c-0.002 0-0.004 0-0.007 0-23.302 0-42.24-18.679-42.66-41.881l-0.001-0.039-0.96-57.28c-0.004-0.222-0.007-0.484-0.007-0.747 0-23.564 19.103-42.667 42.667-42.667 0.002 0 0.005 0 0.007 0h89.173l-10.667-14.933v-0.64c-44.373-69.013-67.84-137.28-70.613-202.88-0.019-0.477-0.030-1.037-0.030-1.6 0-23.564 19.103-42.667 42.667-42.667 0.011 0 0.021 0 0.032 0h73.705c23.564 0 42.667 19.103 42.667 42.667v0c0.996 21.776 4.824 42.298 11.13 61.701l-0.463-1.648c6.83 25.47 15.169 47.45 25.401 68.335l-0.974-2.202c12.935 25.69 27.121 47.787 43.296 68.238l-0.629-0.825c12.307 16.467 25.143 31.028 39.049 44.492l0.098 0.094c8.851 7.854 14.4 19.259 14.4 31.96 0 0.014 0 0.028 0 0.042v-0.002 49.813c0 0.001 0 0.001 0 0.002 0 23.414-18.86 42.423-42.217 42.664h-0.023zM789.333 334.187c-15.877-15.294-30.425-31.702-43.616-49.191l-0.758-1.049c-17.395-21.754-33.243-46.227-46.543-72.219l-1.137-2.447c-10.412-20.872-19.769-45.403-26.739-70.919l-0.674-2.894c-6.823-21.165-11.233-45.61-12.249-70.928l-0.017-0.538h-73.707q3.2 87.253 64 181.333c19.354 30.788 40.983 57.47 65.405 81.301l0.088 0.086h-180.053l0.96 57.28h255.040zM384 426.667h-34.667c-18.334-0.072-33.935-11.698-39.905-27.971l-0.095-0.296-114.667-320c-1.586-4.286-2.504-9.236-2.504-14.4 0-23.507 19.010-42.574 42.495-42.666h34.676c18.334 0.072 33.935 11.698 39.905 27.971l0.095 0.296 114.667 320c1.586 4.286 2.504 9.236 2.504 14.4 0 23.507-19.010 42.574-42.495 42.666h-0.009zM269.333 64h-34.667l114.667 320h34.667z" />
<glyph unicode="&#xe901;" glyph-name="add" d="M512 917.333c-259.206 0-469.333-210.128-469.333-469.333s210.128-469.333 469.333-469.333c259.206 0 469.333 210.128 469.333 469.333v0c-0.303 259.084-210.25 469.030-469.304 469.333h-0.029zM512 21.333c-235.641 0-426.667 191.025-426.667 426.667s191.025 426.667 426.667 426.667c235.641 0 426.667-191.025 426.667-426.667v0c0-235.641-191.025-426.667-426.667-426.667v0zM714.667 544h-106.667v106.667c0 47.128-38.205 85.333-85.333 85.333v0h-21.333c-47.128 0-85.333-38.205-85.333-85.333v0-106.667h-106.667c-47.128 0-85.333-38.205-85.333-85.333v0-21.333c0-47.128 38.205-85.333 85.333-85.333v0h106.667v-106.667c0-47.128 38.205-85.333 85.333-85.333v0h21.333c47.128 0 85.333 38.205 85.333 85.333v0 106.667h106.667c47.128 0 85.333 38.205 85.333 85.333v0 21.333c0 47.128-38.205 85.333-85.333 85.333v0zM757.333 437.333c0-23.564-19.103-42.667-42.667-42.667v0h-149.333v-149.333c0-23.564-19.103-42.667-42.667-42.667v0h-21.333c-23.564 0-42.667 19.103-42.667 42.667v0 149.333h-149.333c-23.564 0-42.667 19.103-42.667 42.667v0 21.333c0 23.564 19.103 42.667 42.667 42.667v0h149.333v149.333c0 23.564 19.103 42.667 42.667 42.667v0h21.333c23.564 0 42.667-19.103 42.667-42.667v0-149.333h149.333c23.564 0 42.667-19.103 42.667-42.667v0z" />
<glyph unicode="&#xe902;" glyph-name="alles-in-een" d="M789.333 917.333h-554.667c-58.91 0-106.667-47.756-106.667-106.667v0-298.667c0-58.91 47.756-106.667 106.667-106.667v0h205.653l-3.947-17.707c-1.101-4.076-1.733-8.755-1.733-13.582 0-29.868 24.212-54.080 54.080-54.080 0.685 0 1.366 0.013 2.045 0.038l-0.098-0.003h64c0.548-0.020 1.192-0.031 1.839-0.031 29.868 0 54.080 24.212 54.080 54.080 0 4.826-0.632 9.504-1.818 13.956l0.086-0.378-3.84 17.707h184.32c58.91 0 106.667 47.756 106.667 106.667v0 298.667c0 58.91-47.756 106.667-106.667 106.667v0zM234.667 874.667h554.667c35.346 0 64-28.654 64-64v0-256h-682.667v256c0 35.346 28.654 64 64 64v0zM567.253 378.347c0.493-1.241 0.779-2.679 0.779-4.184 0-6.421-5.205-11.627-11.627-11.627-0.614 0-1.216 0.048-1.804 0.139l0.065-0.008h-64c-0.523-0.083-1.125-0.131-1.739-0.131-6.421 0-11.627 5.205-11.627 11.627 0 1.505 0.286 2.943 0.806 4.263l-0.027-0.079 5.973 26.987h77.227zM789.333 448h-554.667c-35.346 0-64 28.654-64 64v0h682.667c0-35.346-28.654-64-64-64v0zM459.84 620.16c5.828-3.182 12.766-5.053 20.142-5.053 8.834 0 17.041 2.685 23.85 7.283l-0.151-0.096 85.333 56.853c11.538 7.759 19.028 20.765 19.028 35.52s-7.49 27.761-18.876 35.423l-0.152 0.097-85.333 56.853c-6.653 4.494-14.854 7.174-23.68 7.174-23.564 0-42.667-19.103-42.667-42.667 0-0.010 0-0.020 0-0.029v0.002-113.707c0-0.015 0-0.032 0-0.050 0-16.182 9.008-30.259 22.283-37.492l0.224-0.112zM480 771.52l85.333-56.853-85.333-56.853zM512 277.333h-320c-35.346 0-64-28.654-64-64v0-170.667c0-35.346 28.654-64 64-64v0h320c35.346 0 64 28.654 64 64v0 170.667c0 35.346-28.654 64-64 64v0zM533.333 42.667c0-11.782-9.551-21.333-21.333-21.333v0h-320c-11.782 0-21.333 9.551-21.333 21.333v0 170.667c0 11.782 9.551 21.333 21.333 21.333v0h320c11.782 0 21.333-9.551 21.333-21.333v0zM236.907 128c0-11.782-9.79-21.333-21.867-21.333s-21.867 9.551-21.867 21.333c0 11.782 9.79 21.333 21.867 21.333s21.867-9.551 21.867-21.333zM853.333 138.667v138.667c-0.025 23.539-12.754 44.099-31.698 55.197l-0.302 0.163v29.973h-42.667v-21.333h-21.333c-35.346 0-64-28.654-64-64v0-138.667c-24.747 0-42.667-26.88-42.667-64v-32c0-35.346 28.654-64 64-64v0h117.333c35.346 0 64 28.654 64 64v0 32c0 37.12-17.92 64-42.667 64zM736 277.333c0 11.782 9.551 21.333 21.333 21.333v0h32c11.782 0 21.333-9.551 21.333-21.333v0-170.667c0-11.782-9.551-21.333-21.333-21.333v0h-32c-11.782 0-21.333 9.551-21.333 21.333v0zM853.333 42.667c0-11.782-9.551-21.333-21.333-21.333v0h-117.333c-11.782 0-21.333 9.551-21.333 21.333v0 32c-0.001 0.113-0.001 0.247-0.001 0.381 0 5.456 0.819 10.72 2.341 15.677l-0.1-0.378c7.461-27.621 32.267-47.621 61.753-47.68h32.007c29.493 0.059 54.299 20.059 61.657 47.232l0.103 0.448c1.422-4.579 2.241-9.843 2.241-15.299 0-0.134 0-0.268-0.001-0.402v0.020z" />
<glyph unicode="&#xe903;" glyph-name="app-netflix" d="M544.747 524.907h32.747c0 8.427 0 21.333 0 29.76h-79.893v-166.72h28.48c0 23.573 0 45.12 0 68.693h39.253c0 8.427 0 21.333 0 29.44h-39.36c0 15.147 0 23.68 0 38.933h18.773zM390.187 525.013h29.867c0-47.573 0-91.093 0-138.667l28.8 0.96c0 47.36 0 90.56 0 137.92h30.080c0 8.427 0 21.333 0 29.44h-88.64c0-8.747 0-21.333-0.107-29.653zM344.107 524.907h27.733c0 8.64 0 21.333 0 29.653h-79.787q0-88.533 0-177.173 40 3.84 80 6.187c0 8.64 0 21.333 0 29.653l-51.2-3.52c0 15.893 0 29.013 0 44.907 12.587 0 26.027 0 38.933 0 0 8.64 0 21.333 0 29.76h-38.933c0 15.893 0 24.533 0 40.427zM235.413 446.187c-12.373 40-24.747 66.453-37.12 108.48h-27.627v-192l28.587 3.947c0 40.107 0 64.747 0 104.96 12.8-39.467 20.693-62.827 33.493-100.373 10.027 1.173 21.333 2.667 31.040 3.733q0 89.813 0 179.627h-28.267c0-40.853-0.107-67.413-0.107-108.373zM697.92 380.48l28.373-2.453q0 88.213 0 176.533h-28.693q0.107-87.040 0.32-174.080zM853.333 554.667h-32c-7.787-19.52-13.12-32-20.587-50.56-6.933 19.307-11.627 32-18.56 50.56h-31.253c11.52-29.333 21.973-58.773 33.707-89.92-12.16-29.973-24.427-59.627-36.587-88.427 10.027-1.067 20.373-2.56 30.4-3.733 7.147 18.453 13.76 32.747 21.333 51.733 7.147-20.267 13.76-35.84 21.333-56.747l32.213-4.907c-12.16 33.92-25.387 69.333-37.547 101.44 12.16 30.080 24.533 58.56 37.547 90.56zM624.853 414.827c0 48.107 0 91.627 0 139.733h-28.693c0-56.107 0-112.213 0-168.32 25.6-0.96 52.373-2.133 77.973-3.947 0 8.64 0 21.333 0 29.653-16.32 0.96-33.173 2.133-49.28 2.88zM789.333 917.333h-554.667c-106.039 0-192-85.961-192-192v0-554.667c0-106.039 85.961-192 192-192v0h554.667c106.039 0 192 85.961 192 192v0 554.667c0 106.039-85.961 192-192 192v0zM938.667 170.667c0-82.475-66.859-149.333-149.333-149.333v0h-554.667c-82.475 0-149.333 66.859-149.333 149.333v0 554.667c0 82.475 66.859 149.333 149.333 149.333v0h554.667c82.475 0 149.333-66.859 149.333-149.333v0z" />
<glyph unicode="&#xe904;" glyph-name="bike" d="M821.333 501.333c-21.861-0.021-42.683-4.45-61.631-12.445l1.045 0.391-99.413 172.053h117.333v42.667h-192v-42.667h25.707l26.987-46.72-110.187-182.080c-8.382 3.086-18.063 4.871-28.16 4.871s-19.778-1.785-28.743-5.057l0.583 0.186-109.333 186.133h41.813v42.667h-170.667v-42.667h79.36l12.16-20.8-62.187-108.8c-18.158 7.764-39.286 12.279-61.469 12.279-88.366 0-160-71.634-160-160s71.634-160 160-160c81.632 0 148.986 61.133 158.776 140.115l0.079 0.779h60.053c12.297-32.992 43.533-56.064 80.157-56.064 47.128 0 85.333 38.205 85.333 85.333 0 22.16-8.447 42.347-22.296 57.517l0.060-0.066 98.987 163.413 60.16-104.427c-37.978-29.545-62.178-75.253-62.178-126.613 0-88.366 71.634-160 160-160s160 71.634 160 160c0 88.366-71.634 160-160 160-0.116 0-0.231 0-0.347 0h0.018zM279.36 429.867c19.078-16.498 32.716-38.823 38.155-64.19l0.138-0.77h-75.413zM202.667 224c-0.127 0-0.278-0.001-0.428-0.001-64.801 0-117.333 52.532-117.333 117.333s52.532 117.333 117.333 117.333c14.472 0 28.332-2.62 41.131-7.412l-0.81 0.266-55.573-97.387c-1.797-3.060-2.858-6.739-2.858-10.667 0-11.782 9.551-21.333 21.333-21.333 0.030 0 0.060 0 0.090 0h112.742c-9.54-55.979-57.658-98.070-115.62-98.133h-0.007zM417.067 364.907h-56.32c-6.453 41.895-28.357 77.753-59.598 102.243l-0.349 0.263 50.347 88 86.187-146.987c-10.413-11.804-17.642-26.648-20.205-43.039l-0.062-0.481zM501.333 309.333c-0.147-0.002-0.321-0.003-0.495-0.003-23.27 0-42.133 18.864-42.133 42.133 0 4.811 0.806 9.433 2.291 13.739l-0.089-0.296c0 0.747 0 1.6 0.747 2.347 5.594 14.229 18.215 24.579 33.473 26.851l0.234 0.029c1.603 0.345 3.445 0.543 5.333 0.543s3.73-0.198 5.506-0.574l-0.173 0.031c20.61-3.258 36.182-20.896 36.182-42.171 0-22.934-18.095-41.642-40.786-42.626l-0.089-0.003zM821.333 224c-64.714 0.116-117.129 52.604-117.129 117.333 0 35.615 15.868 67.524 40.92 89.043l0.156 0.131 45.333-78.507h49.28l-57.493 99.84c11.738 4.324 25.295 6.826 39.435 6.826 64.801 0 117.333-52.532 117.333-117.333s-52.532-117.333-117.333-117.333c-0.176 0-0.353 0-0.529 0.001h0.027zM192 597.333h-149.333v42.667h149.333zM85.333 576h128v-42.667h-128z" />
<glyph unicode="&#xe905;" glyph-name="browser" d="M600 358.613c2.38-0.996 5.145-1.575 8.045-1.575 6.006 0 11.433 2.482 15.31 6.477l10.672 10.672 18.133-54.187h45.12l-25.28 72.533h19.84c0 0 0.001 0 0.001 0 11.782 0 21.333 9.551 21.333 21.333 0 5.307-1.938 10.162-5.145 13.895l-84.136 98.105c-3.923 4.37-9.59 7.106-15.896 7.106-11.655 0-21.127-9.347-21.33-20.954v-133.672c0.019-8.882 5.462-16.487 13.192-19.681l0.142-0.052zM192 682.667c0-11.782-9.551-21.333-21.333-21.333s-21.333 9.551-21.333 21.333c0 11.782 9.551 21.333 21.333 21.333s21.333-9.551 21.333-21.333zM256 682.667c0-11.782-9.551-21.333-21.333-21.333s-21.333 9.551-21.333 21.333c0 11.782 9.551 21.333 21.333 21.333s21.333-9.551 21.333-21.333zM874.667 789.333h-725.333c-58.91 0-106.667-47.756-106.667-106.667v0-469.333c0-58.91 47.756-106.667 106.667-106.667v0h725.333c58.91 0 106.667 47.756 106.667 106.667v0 469.333c0 58.91-47.756 106.667-106.667 106.667v0zM938.667 213.333c0-35.346-28.654-64-64-64v0h-725.333c-35.346 0-64 28.654-64 64v0 362.667h853.333zM938.667 618.667h-853.333v64c0 35.346 28.654 64 64 64v0h725.333c35.346 0 64-28.654 64-64v0zM320 682.667c0-11.782-9.551-21.333-21.333-21.333s-21.333 9.551-21.333 21.333c0 11.782 9.551 21.333 21.333 21.333s21.333-9.551 21.333-21.333z" />
<glyph unicode="&#xe906;" glyph-name="business-serie-l, business-large" d="M746.667 810.667h-469.333c-58.88 0-106.667-43.2-106.667-96v-640c0-53.333 47.893-96.64 106.667-96.64h469.333c58.88 0 106.667 43.413 106.667 96.64v640c0 52.8-47.787 96-106.667 96zM469.333 26.027v165.973c0 11.782 9.551 21.333 21.333 21.333v0h42.667c11.782 0 21.333-9.551 21.333-21.333v0-165.973zM810.667 74.667c0-29.653-28.693-53.333-64-53.333h-149.333v170.667c0 35.346-28.654 64-64 64v0h-42.667c-35.346 0-64-28.654-64-64v0-170.667h-149.333c-35.2 0-64 24.107-64 53.333v640c0 29.653 28.693 53.333 64 53.333h469.333c35.2 0 64-24.107 64-53.333zM341.333 682.667h-42.667c-35.346 0-64-28.654-64-64v0-42.667c0-35.346 28.654-64 64-64v0h42.667c35.346 0 64 28.654 64 64v0 42.667c0 35.346-28.654 64-64 64v0zM362.667 576c0-11.782-9.551-21.333-21.333-21.333v0h-42.667c-11.782 0-21.333 9.551-21.333 21.333v0 42.667c0 11.782 9.551 21.333 21.333 21.333v0h42.667c11.782 0 21.333-9.551 21.333-21.333v0zM725.333 682.667h-42.667c-35.346 0-64-28.654-64-64v0-42.667c0-35.346 28.654-64 64-64v0h42.667c35.346 0 64 28.654 64 64v0 42.667c0 35.346-28.654 64-64 64v0zM746.667 576c0-11.782-9.551-21.333-21.333-21.333v0h-42.667c-11.782 0-21.333 9.551-21.333 21.333v0 42.667c0 11.782 9.551 21.333 21.333 21.333v0h42.667c11.782 0 21.333-9.551 21.333-21.333v0zM533.333 682.667h-42.667c-35.346 0-64-28.654-64-64v0-42.667c0-35.346 28.654-64 64-64v0h42.667c35.346 0 64 28.654 64 64v0 42.667c0 35.346-28.654 64-64 64v0zM554.667 576c0-11.782-9.551-21.333-21.333-21.333v0h-42.667c-11.782 0-21.333 9.551-21.333 21.333v0 42.667c0 11.782 9.551 21.333 21.333 21.333v0h42.667c11.782 0 21.333-9.551 21.333-21.333v0zM341.333 469.333h-42.667c-35.346 0-64-28.654-64-64v0-42.667c0-35.346 28.654-64 64-64v0h42.667c35.346 0 64 28.654 64 64v0 42.667c0 35.346-28.654 64-64 64v0zM362.667 362.667c0-11.782-9.551-21.333-21.333-21.333v0h-42.667c-11.782 0-21.333 9.551-21.333 21.333v0 42.667c0 11.782 9.551 21.333 21.333 21.333v0h42.667c11.782 0 21.333-9.551 21.333-21.333v0zM725.333 469.333h-42.667c-35.346 0-64-28.654-64-64v0-42.667c0-35.346 28.654-64 64-64v0h42.667c35.346 0 64 28.654 64 64v0 42.667c0 35.346-28.654 64-64 64v0zM746.667 362.667c0-11.782-9.551-21.333-21.333-21.333v0h-42.667c-11.782 0-21.333 9.551-21.333 21.333v0 42.667c0 11.782 9.551 21.333 21.333 21.333v0h42.667c11.782 0 21.333-9.551 21.333-21.333v0zM533.333 469.333h-42.667c-35.346 0-64-28.654-64-64v0-42.667c0-35.346 28.654-64 64-64v0h42.667c35.346 0 64 28.654 64 64v0 42.667c0 35.346-28.654 64-64 64v0zM554.667 362.667c0-11.782-9.551-21.333-21.333-21.333v0h-42.667c-11.782 0-21.333 9.551-21.333 21.333v0 42.667c0 11.782 9.551 21.333 21.333 21.333v0h42.667c11.782 0 21.333-9.551 21.333-21.333v0zM341.333 256h-42.667c-35.346 0-64-28.654-64-64v0-42.667c0-35.346 28.654-64 64-64v0h42.667c35.346 0 64 28.654 64 64v0 42.667c0 35.346-28.654 64-64 64v0zM362.667 149.333c0-11.782-9.551-21.333-21.333-21.333v0h-42.667c-11.782 0-21.333 9.551-21.333 21.333v0 42.667c0 11.782 9.551 21.333 21.333 21.333v0h42.667c11.782 0 21.333-9.551 21.333-21.333v0zM725.333 256h-42.667c-35.346 0-64-28.654-64-64v0-42.667c0-35.346 28.654-64 64-64v0h42.667c35.346 0 64 28.654 64 64v0 42.667c0 35.346-28.654 64-64 64v0zM746.667 149.333c0-11.782-9.551-21.333-21.333-21.333v0h-42.667c-11.782 0-21.333 9.551-21.333 21.333v0 42.667c0 11.782 9.551 21.333 21.333 21.333v0h42.667c11.782 0 21.333-9.551 21.333-21.333v0z" />
<glyph unicode="&#xe907;" glyph-name="business-serie-m, business-medium" d="M302.187 362.667c0-11.782-9.551-21.333-21.333-21.333s-21.333 9.551-21.333 21.333c0 11.782 9.551 21.333 21.333 21.333s21.333-9.551 21.333-21.333zM398.187 362.667c0-11.782-9.551-21.333-21.333-21.333s-21.333 9.551-21.333 21.333c0 11.782 9.551 21.333 21.333 21.333s21.333-9.551 21.333-21.333zM664.853 362.667c0-11.782-9.551-21.333-21.333-21.333s-21.333 9.551-21.333 21.333c0 11.782 9.551 21.333 21.333 21.333s21.333-9.551 21.333-21.333zM760.853 362.667c0-11.782-9.551-21.333-21.333-21.333s-21.333 9.551-21.333 21.333c0 11.782 9.551 21.333 21.333 21.333s21.333-9.551 21.333-21.333zM483.52 640c0-11.782-9.551-21.333-21.333-21.333s-21.333 9.551-21.333 21.333c0 11.782 9.551 21.333 21.333 21.333s21.333-9.551 21.333-21.333zM579.52 640c0-11.782-9.551-21.333-21.333-21.333s-21.333 9.551-21.333 21.333c0 11.782 9.551 21.333 21.333 21.333s21.333-9.551 21.333-21.333zM914.133 98.987c-12.249 57.932-61.799 101.182-121.873 103.671l-0.26 0.009h-192c-34.7-0.798-65.79-15.614-87.947-38.984l-0.053-0.056c-22.178 23.474-53.288 38.306-87.867 39.038l-0.133 0.002h-192c-60.293-2.525-109.861-45.508-122.4-102.386l-0.16-0.867-21.333-111.040 41.92-8 21.333 111.040c4.85 21.832 17.363 40.154 34.509 52.407l0.264 0.179 125.547-149.333c3.939-4.657 9.787-7.594 16.32-7.594s12.381 2.937 16.294 7.563l0.026 0.031 125.013 149.333c4.835-3.521 9.090-7.268 12.973-11.371l0.040-0.043c2.23-2.42 4.397-5.027 6.428-7.741l0.185-0.259 3.093-4.48c3.567-7.089 10.785-11.868 19.119-11.868 7.604 0 14.278 3.978 18.056 9.967l0.052 0.088 2.773 4.16 3.093 4.053 3.2 3.84 1.92 2.133c4.28 4.104 8.99 7.831 14.032 11.084l0.368 0.222 125.547-149.333c3.939-4.657 9.787-7.594 16.32-7.594s12.381 2.937 16.294 7.563l0.026 0.031 125.44 149.333c17.33-12.438 29.747-30.772 34.35-52.017l0.103-0.569 21.333-116.373 41.92 7.787zM316.8 136.107v21.333h21.333v-21.333zM231.467 160h42.667c0-0.853 0-1.707 0-2.56v-21.333c0.012-6.014 1.266-11.732 3.52-16.916l-0.107 0.276-4.48-12.8-44.48 53.333zM327.467 41.28l-23.787 28.373 9.6 24.107c1.173 0 2.347 0 3.52 0h21.333c1.173 0 2.347 0 3.52 0l9.6-24.107zM382.933 106.667l-5.013 12.587c2.147 4.908 3.401 10.626 3.413 16.635v21.338c0 0.853 0 1.707 0 2.56h46.080zM685.333 135.68v21.333h21.333v-21.333zM600 159.573h42.667c0-0.853 0-1.707 0-2.56v-21.333c0.012-6.014 1.266-11.732 3.52-16.916l-0.107 0.276-5.013-12.373-44.373 53.333zM696 40.853l-24 28.693 9.6 24.107c1.173 0 2.347 0 3.52 0h21.333c1.173 0 2.347 0 3.52 0l9.6-24.107zM750.933 106.667l-5.013 12.587c2.147 4.908 3.401 10.626 3.413 16.635v21.338c0 0.853 0 1.707 0 2.56h46.080zM330.667 213.333c82.475 0 149.333 66.859 149.333 149.333s-66.859 149.333-149.333 149.333c-82.475 0-149.333-66.859-149.333-149.333v0c0-82.475 66.859-149.333 149.333-149.333v0zM330.667 469.333c58.91 0 106.667-47.756 106.667-106.667s-47.756-106.667-106.667-106.667c-58.91 0-106.667 47.756-106.667 106.667v0c0 58.91 47.756 106.667 106.667 106.667v0zM544 362.667c0-82.475 66.859-149.333 149.333-149.333s149.333 66.859 149.333 149.333c0 82.475-66.859 149.333-149.333 149.333v0c-82.475 0-149.333-66.859-149.333-149.333v0zM693.333 469.333c58.91 0 106.667-47.756 106.667-106.667s-47.756-106.667-106.667-106.667c-58.91 0-106.667 47.756-106.667 106.667v0c0 58.91 47.756 106.667 106.667 106.667v0zM512 490.667c82.475 0 149.333 66.859 149.333 149.333s-66.859 149.333-149.333 149.333c-82.475 0-149.333-66.859-149.333-149.333v0c0-82.475 66.859-149.333 149.333-149.333v0zM512 746.667c58.91 0 106.667-47.756 106.667-106.667s-47.756-106.667-106.667-106.667c-58.91 0-106.667 47.756-106.667 106.667v0c0 58.91 47.756 106.667 106.667 106.667v0z" />
<glyph unicode="&#xe908;" glyph-name="business-serie-s, business-small" d="M610.453 577.493c0-15.022-12.035-27.2-26.88-27.2s-26.88 12.178-26.88 27.2c0 15.022 12.035 27.2 26.88 27.2s26.88-12.178 26.88-27.2zM467.307 577.493c0-15.022-12.035-27.2-26.88-27.2s-26.88 12.178-26.88 27.2c0 15.022 12.035 27.2 26.88 27.2s26.88-12.178 26.88-27.2zM512 378.027c0.761-0.010 1.66-0.016 2.56-0.016 112.696 0 204.053 91.358 204.053 204.053s-91.358 204.053-204.053 204.053c-112.696 0-204.053-91.358-204.053-204.053 0-0.032 0-0.064 0-0.096v0.005c-0.003-0.381-0.004-0.832-0.004-1.283 0-111.519 90.072-202 201.434-202.663h0.063zM512 749.973c0.761 0.012 1.66 0.020 2.56 0.020 92.784 0 168-75.216 168-168s-75.216-168-168-168c-92.777 0-167.989 75.205-168 167.98v0.001c-0.002 0.319-0.003 0.696-0.003 1.073 0 91.671 73.892 166.083 165.363 166.926l0.080 0.001zM165.76 0l32 168.427c10.943 46.93 40.78 85.39 80.863 107.624l0.844 0.429 218.667-263.893c3.33-3.989 8.304-6.508 13.867-6.508s10.537 2.519 13.843 6.479l0.023 0.029 218.347 263.787c40.725-22.694 70.337-61.176 80.75-106.957l0.21-1.097 31.467-168.32h36.693l-32.64 175.040c-16.213 86.72-100.373 157.333-187.52 157.333h-322.24c-87.147 0-171.627-70.507-188.267-157.12l-33.6-175.253zM580.373 296.32h92.693c13.033-0.097 25.575-2.039 37.429-5.576l-0.949 0.243-110.827-133.867-22.72 57.387c4.709 7.807 7.517 17.223 7.573 27.291v36.283c-0.011 6.546-1.183 12.814-3.321 18.615l0.121-0.375zM476.373 278.080c-0.001 0.064-0.001 0.139-0.001 0.215 0 9.881 7.95 17.906 17.803 18.025h35.851c9.864-0.12 17.815-8.144 17.815-18.025 0-0.075 0-0.151-0.001-0.226v0.011-36.267c-0.12-9.827-8.084-17.754-17.914-17.813h-35.846c-9.864 0.12-17.815 8.144-17.815 18.025 0 0.075 0 0.151 0.001 0.226v-0.011zM477.227 190.507c5.043-1.834 10.864-2.923 16.931-2.986h35.869c6.096 0.064 11.917 1.153 17.327 3.102l-0.367-0.116 25.707-65.067-60.693-73.173-60.587 73.173zM350.933 296.32h92.693c-2.050-5.418-3.259-11.681-3.307-18.219v-36.288c0.092-10.095 2.935-19.508 7.815-27.547l-0.135 0.24-22.613-57.28-110.933 133.867c10.914 3.255 23.461 5.16 36.443 5.227h0.037z" />
<glyph unicode="&#xe909;" glyph-name="business-serie-xl, business-extra-large" d="M341.333 832h-42.667c-35.346 0-64-28.654-64-64v0-42.667c0-35.346 28.654-64 64-64v0h42.667c35.346 0 64 28.654 64 64v0 42.667c0 35.346-28.654 64-64 64v0zM362.667 725.333c0-11.782-9.551-21.333-21.333-21.333v0h-42.667c-11.782 0-21.333 9.551-21.333 21.333v0 42.667c0 11.782 9.551 21.333 21.333 21.333v0h42.667c11.782 0 21.333-9.551 21.333-21.333v0zM725.333 832h-42.667c-35.346 0-64-28.654-64-64v0-42.667c0-35.346 28.654-64 64-64v0h42.667c35.346 0 64 28.654 64 64v0 42.667c0 35.346-28.654 64-64 64v0zM746.667 725.333c0-11.782-9.551-21.333-21.333-21.333v0h-42.667c-11.782 0-21.333 9.551-21.333 21.333v0 42.667c0 11.782 9.551 21.333 21.333 21.333v0h42.667c11.782 0 21.333-9.551 21.333-21.333v0zM533.333 832h-42.667c-35.346 0-64-28.654-64-64v0-42.667c0-35.346 28.654-64 64-64v0h42.667c35.346 0 64 28.654 64 64v0 42.667c0 35.346-28.654 64-64 64v0zM554.667 725.333c0-11.782-9.551-21.333-21.333-21.333v0h-42.667c-11.782 0-21.333 9.551-21.333 21.333v0 42.667c0 11.782 9.551 21.333 21.333 21.333v0h42.667c11.782 0 21.333-9.551 21.333-21.333v0zM341.333 640h-42.667c-35.346 0-64-28.654-64-64v0-42.667c0-35.346 28.654-64 64-64v0h42.667c35.346 0 64 28.654 64 64v0 42.667c0 35.346-28.654 64-64 64v0zM362.667 533.333c0-11.782-9.551-21.333-21.333-21.333v0h-42.667c-11.782 0-21.333 9.551-21.333 21.333v0 42.667c0 11.782 9.551 21.333 21.333 21.333v0h42.667c11.782 0 21.333-9.551 21.333-21.333v0zM725.333 640h-42.667c-35.346 0-64-28.654-64-64v0-42.667c0-35.346 28.654-64 64-64v0h42.667c35.346 0 64 28.654 64 64v0 42.667c0 35.346-28.654 64-64 64v0zM746.667 533.333c0-11.782-9.551-21.333-21.333-21.333v0h-42.667c-11.782 0-21.333 9.551-21.333 21.333v0 42.667c0 11.782 9.551 21.333 21.333 21.333v0h42.667c11.782 0 21.333-9.551 21.333-21.333v0zM533.333 640h-42.667c-35.346 0-64-28.654-64-64v0-42.667c0-35.346 28.654-64 64-64v0h42.667c35.346 0 64 28.654 64 64v0 42.667c0 35.346-28.654 64-64 64v0zM554.667 533.333c0-11.782-9.551-21.333-21.333-21.333v0h-42.667c-11.782 0-21.333 9.551-21.333 21.333v0 42.667c0 11.782 9.551 21.333 21.333 21.333v0h42.667c11.782 0 21.333-9.551 21.333-21.333v0zM341.333 448h-42.667c-35.346 0-64-28.654-64-64v0-42.667c0-35.346 28.654-64 64-64v0h42.667c35.346 0 64 28.654 64 64v0 42.667c0 35.346-28.654 64-64 64v0zM362.667 341.333c0-11.782-9.551-21.333-21.333-21.333v0h-42.667c-11.782 0-21.333 9.551-21.333 21.333v0 42.667c0 11.782 9.551 21.333 21.333 21.333v0h42.667c11.782 0 21.333-9.551 21.333-21.333v0zM725.333 448h-42.667c-35.346 0-64-28.654-64-64v0-42.667c0-35.346 28.654-64 64-64v0h42.667c35.346 0 64 28.654 64 64v0 42.667c0 35.346-28.654 64-64 64v0zM746.667 341.333c0-11.782-9.551-21.333-21.333-21.333v0h-42.667c-11.782 0-21.333 9.551-21.333 21.333v0 42.667c0 11.782 9.551 21.333 21.333 21.333v0h42.667c11.782 0 21.333-9.551 21.333-21.333v0zM533.333 448h-42.667c-35.346 0-64-28.654-64-64v0-42.667c0-35.346 28.654-64 64-64v0h42.667c35.346 0 64 28.654 64 64v0 42.667c0 35.346-28.654 64-64 64v0zM554.667 341.333c0-11.782-9.551-21.333-21.333-21.333v0h-42.667c-11.782 0-21.333 9.551-21.333 21.333v0 42.667c0 11.782 9.551 21.333 21.333 21.333v0h42.667c11.782 0 21.333-9.551 21.333-21.333v0zM341.333 256h-42.667c-35.346 0-64-28.654-64-64v0-42.667c0-35.346 28.654-64 64-64v0h42.667c35.346 0 64 28.654 64 64v0 42.667c0 35.346-28.654 64-64 64v0zM362.667 149.333c0-11.782-9.551-21.333-21.333-21.333v0h-42.667c-11.782 0-21.333 9.551-21.333 21.333v0 42.667c0 11.782 9.551 21.333 21.333 21.333v0h42.667c11.782 0 21.333-9.551 21.333-21.333v0zM725.333 256h-42.667c-35.346 0-64-28.654-64-64v0-42.667c0-35.346 28.654-64 64-64v0h42.667c35.346 0 64 28.654 64 64v0 42.667c0 35.346-28.654 64-64 64v0zM746.667 149.333c0-11.782-9.551-21.333-21.333-21.333v0h-42.667c-11.782 0-21.333 9.551-21.333 21.333v0 42.667c0 11.782 9.551 21.333 21.333 21.333v0h42.667c11.782 0 21.333-9.551 21.333-21.333v0zM920.853 448h-67.52v362.667c0 58.91-47.756 106.667-106.667 106.667v0h-469.333c-58.91 0-106.667-47.756-106.667-106.667v0-149.333h-21.333c-58.91 0-106.667-47.756-106.667-106.667v0-469.333c0-58.91 47.756-106.667 106.667-106.667v0h771.093c35.346 0 64 28.654 64 64v0 341.333c0 0 0 0.001 0 0.001 0 35.196-28.411 63.757-63.55 63.998h-0.023zM149.333 21.333c-35.346 0-64 28.654-64 64v0 469.333c0 35.346 28.654 64 64 64v0h21.333v-533.333c0-24.134 8.015-46.395 21.528-64.268l-0.194 0.268zM469.333 26.027v165.973c0 11.782 9.551 21.333 21.333 21.333v0h42.667c11.782 0 21.333-9.551 21.333-21.333v0-165.973zM810.667 85.333c0-0.007 0-0.015 0-0.023 0-34.746-27.689-63.025-62.205-63.975l-0.088-0.002h-151.040v170.667c0 35.346-28.654 64-64 64v0h-42.667c-35.346 0-64-28.654-64-64v0-170.667h-149.333c-35.346 0-64 28.654-64 64v0 725.333c0 35.346 28.654 64 64 64v0h469.333c35.346 0 64-28.654 64-64v0-725.333zM942.187 42.667c0-11.782-9.551-21.333-21.333-21.333v0h-88.853c13.319 17.605 21.333 39.866 21.333 64v0 320h67.52c11.782 0 21.333-9.551 21.333-21.333v0z" />
<glyph unicode="&#xe90a;" glyph-name="businessman" d="M927.36 198.933c-19.307 102.080-119.467 185.067-223.36 185.067h-384c-103.787 0-204.373-82.88-224-184.747l-38.933-199.253h43.52l37.12 191.040c13.24 55.409 48.878 100.681 96.576 126.532l1.024 0.508 260.373-310.507c3.939-4.657 9.787-7.594 16.32-7.594s12.381 2.937 16.294 7.563l260.399 310.431c48.422-26.399 83.754-71.647 96.383-125.63l0.257-1.303 36.267-191.040h43.413zM533.333 341.333c11.782 0 21.333-9.551 21.333-21.333v0-42.667c0-11.782-9.551-21.333-21.333-21.333v0h-42.667c-11.782 0-21.333 9.551-21.333 21.333v0 42.667c0 11.782 9.551 21.333 21.333 21.333v0zM320 341.333h110.4c-2.342-6.347-3.708-13.677-3.733-21.322v-42.678c0.092-11.813 3.37-22.841 9.015-32.292l-0.162 0.292-26.88-67.2-132.053 157.013c12.985 3.831 27.916 6.084 43.357 6.186h0.057zM512 54.507l-72.213 86.080 30.4 76.053c6.059-2.096 13.041-3.307 20.306-3.307 0.061 0 0.122 0 0.183 0h42.657c7.336 0.017 14.375 1.265 20.929 3.55l-0.449-0.136 30.4-76.053zM615.36 177.707l-26.88 67.627c5.484 9.158 8.762 20.187 8.853 31.974v42.693c-0.026 7.657-1.392 14.987-3.876 21.778l0.142-0.445h110.4c15.496-0.096 30.427-2.349 44.56-6.473l-1.147 0.287zM512 437.333c132.548 0 240 107.452 240 240s-107.452 240-240 240c-132.548 0-240-107.452-240-240v0c0.182-132.475 107.525-239.818 239.982-240h0.018zM512 874.667c108.984 0 197.333-88.349 197.333-197.333s-88.349-197.333-197.333-197.333c-108.984 0-197.333 88.349-197.333 197.333v0c0.121 108.935 88.398 197.212 197.321 197.333h0.012zM394.667 672c0 17.673 14.327 32 32 32s32-14.327 32-32c0-17.673-14.327-32-32-32v0c-17.673 0-32 14.327-32 32v0zM565.333 672c0 17.673 14.327 32 32 32s32-14.327 32-32c0-17.673-14.327-32-32-32v0c-17.673 0-32 14.327-32 32v0z" />
<glyph unicode="&#xe90b;" glyph-name="calendar" d="M874.667 789.333h-64v85.333h-42.667v-85.333h-234.667v85.333h-42.667v-85.333h-234.667v85.333h-42.667v-85.333h-64c-58.91 0-106.667-47.756-106.667-106.667v0-469.333c0-58.91 47.756-106.667 106.667-106.667v0h725.333c58.91 0 106.667 47.756 106.667 106.667v0 469.333c0 58.91-47.756 106.667-106.667 106.667v0zM149.333 746.667h725.333c35.346 0 64-28.654 64-64v0-21.333h-853.333v21.333c0 35.346 28.654 64 64 64v0zM874.667 149.333h-725.333c-35.346 0-64 28.654-64 64v0 405.333h853.333v-405.333c0-35.346-28.654-64-64-64v0zM426.667 490.667c0-17.673-14.327-32-32-32s-32 14.327-32 32c0 17.673 14.327 32 32 32v0c17.673 0 32-14.327 32-32v0zM533.333 490.667c0-17.673-14.327-32-32-32s-32 14.327-32 32c0 17.673 14.327 32 32 32v0c17.673 0 32-14.327 32-32v0zM640 490.667c0-17.673-14.327-32-32-32s-32 14.327-32 32c0 17.673 14.327 32 32 32v0c17.673 0 32-14.327 32-32v0zM746.667 490.667c0-17.673-14.327-32-32-32s-32 14.327-32 32c0 17.673 14.327 32 32 32v0c17.673 0 32-14.327 32-32v0zM213.333 384c0-17.673-14.327-32-32-32s-32 14.327-32 32c0 17.673 14.327 32 32 32v0c17.673 0 32-14.327 32-32v0zM320 384c0-17.673-14.327-32-32-32s-32 14.327-32 32c0 17.673 14.327 32 32 32v0c17.673 0 32-14.327 32-32v0zM426.667 384c0-17.673-14.327-32-32-32s-32 14.327-32 32c0 17.673 14.327 32 32 32v0c17.673 0 32-14.327 32-32v0zM533.333 384c0-17.673-14.327-32-32-32s-32 14.327-32 32c0 17.673 14.327 32 32 32v0c17.673 0 32-14.327 32-32v0zM640 384c0-17.673-14.327-32-32-32s-32 14.327-32 32c0 17.673 14.327 32 32 32v0c17.673 0 32-14.327 32-32v0zM746.667 384c0-17.673-14.327-32-32-32s-32 14.327-32 32c0 17.673 14.327 32 32 32v0c17.673 0 32-14.327 32-32v0zM853.333 490.667c0-17.673-14.327-32-32-32s-32 14.327-32 32c0 17.673 14.327 32 32 32v0c17.673 0 32-14.327 32-32v0zM853.333 384c0-17.673-14.327-32-32-32s-32 14.327-32 32c0 17.673 14.327 32 32 32v0c17.673 0 32-14.327 32-32v0zM213.333 277.333c0-17.673-14.327-32-32-32s-32 14.327-32 32c0 17.673 14.327 32 32 32v0c17.673 0 32-14.327 32-32v0zM320 277.333c0-17.673-14.327-32-32-32s-32 14.327-32 32c0 17.673 14.327 32 32 32v0c17.673 0 32-14.327 32-32v0zM426.667 277.333c0-17.673-14.327-32-32-32s-32 14.327-32 32c0 17.673 14.327 32 32 32v0c17.673 0 32-14.327 32-32v0zM533.333 277.333c0-17.673-14.327-32-32-32s-32 14.327-32 32c0 17.673 14.327 32 32 32v0c17.673 0 32-14.327 32-32v0z" />
<glyph unicode="&#xe90c;" glyph-name="callcenter-agent" d="M98.667 144.96l-21.867-123.627h43.307l20.48 116.267c14.507 81.493 96.64 150.4 179.413 150.4h64v42.667h-64c-104 0-203.307-83.307-221.333-185.707zM916.373 145.493c-16.533 88.533-79.573 162.56-148.373 180.8v-44.587c48.853-18.667 93.973-77.013 106.667-144l21.333-116.373h43.733zM458.667 597.333c0-17.673-14.327-32-32-32s-32 14.327-32 32c0 17.673 14.327 32 32 32s32-14.327 32-32zM629.333 597.333c0-17.673-14.327-32-32-32s-32 14.327-32 32c0 17.673 14.327 32 32 32s32-14.327 32-32zM917.333 597.333c-0.035 67.504-44.855 124.531-106.356 142.981l-1.057 0.272c-54.68 111.644-167.473 187.161-297.904 187.161-132.214 0-246.305-77.596-299.215-189.732l-0.855-2.015c-55.503-22.617-93.912-76.157-93.912-138.668 0-82.228 66.46-148.933 148.594-149.332h21.371c0 0 0 0 0 0 8.858 0 16.456 5.399 19.681 13.086l0.052 0.141c28.678-42.668 69.387-75.291 117.251-93.311l1.682-0.555c3.216-44.487 40.098-79.36 85.124-79.36 0.074 0 0.147 0 0.221 0h127.989c58.91 0 106.667 47.756 106.667 106.667v0 53.333h21.333c82.475 0 149.333 66.859 149.333 149.333v0zM874.667 597.333c0-58.91-47.756-106.667-106.667-106.667v0 213.333c58.91 0 106.667-47.756 106.667-106.667v0zM512 885.333c0.189 0 0.412 0.001 0.635 0.001 103.686 0 194.528-54.997 244.944-137.411l0.715-1.257h-11.627c-11.782 0-21.333-9.551-21.333-21.333v0-7.040c-43 74.712-122.393 124.206-213.346 124.206-84.785 0-159.524-43.009-203.592-108.399l-0.555-0.874c-3.225 7.942-10.88 13.44-19.819 13.44-0.007 0-0.015 0-0.022 0h-22.292c50.93 83.655 141.629 138.669 245.177 138.669 0.393 0 0.785-0.001 1.177-0.002h-0.061zM266.667 490.667c-58.91 0-106.667 47.756-106.667 106.667s47.756 106.667 106.667 106.667v0zM309.333 597.333c-0.001 0.26-0.002 0.569-0.002 0.877 0 111.93 90.737 202.667 202.667 202.667s202.667-90.737 202.667-202.667c0-23.219-3.905-45.526-11.093-66.301l0.429 1.424v-0.533c-19.223-56.061-60.72-100.136-113.652-122.382l-1.334-0.498c-14.039 29.012-43.251 48.666-77.054 48.666-23.561 0-44.891-9.548-60.333-24.987v0c-6.689-6.742-12.265-14.602-16.418-23.273l-0.222-0.513c-74.34 30.941-125.654 102.995-125.654 187.035 0 0.171 0 0.341 0.001 0.512v-0.026zM481.813 343.147c-7.731 7.723-12.514 18.396-12.514 30.187s4.782 22.464 12.513 30.186v0c7.725 7.725 18.398 12.504 30.187 12.504 23.577 0 42.69-19.113 42.69-42.69 0-11.789-4.778-22.461-12.504-30.187v0c-7.823-7.507-18.465-12.13-30.187-12.13s-22.363 4.623-30.202 12.144l0.015-0.014zM640 330.667h-54.187c6.309 10.493 10.454 22.958 11.502 36.294l0.018 0.293c43.117 16.329 79.161 43.035 106.282 77.152l0.384 0.501v-50.24c0-35.346-28.654-64-64-64v0z" />
<glyph unicode="&#xe90d;" glyph-name="chat" d="M947.307 204.053c21.458 43.256 34.013 94.197 34.013 148.071 0 22.593-2.208 44.671-6.421 66.028l0.354-2.153c-28.114 140.447-138.842 248.696-278.383 272.775l-2.044 0.292-7.573 0.96c-58.828 107.725-171.309 179.578-300.572 179.578-188.513 0-341.333-152.82-341.333-341.333 0-51.834 11.554-100.97 32.227-144.972l-0.881 2.087-23.36-115.627c-0.733-3.425-1.153-7.36-1.153-11.393 0-31.399 25.454-56.853 56.853-56.853 4.033 0 7.968 0.42 11.764 1.219l-0.371-0.065 115.627 23.147c29.228-14.467 63.153-25.162 98.876-30.293l1.817-0.214c48.476-91.523 134.532-157.638 237.054-178.192l2.199-0.368c19.217-3.815 41.333-6.026 63.956-6.080h0.044c0.064 0 0.14 0 0.216 0 53.759 0 104.585 12.562 149.701 34.91l-1.971-0.883 115.627-23.36c3.425-0.733 7.36-1.153 11.393-1.153 31.399 0 56.853 25.454 56.853 56.853 0 4.033-0.42 7.968-1.219 11.764l0.065-0.371zM248.64 267.307c-2.82 1.469-6.158 2.331-9.697 2.331-1.475 0-2.916-0.15-4.307-0.435l0.138 0.024-122.667-24.533c-0.87-0.197-1.869-0.31-2.894-0.31-3.897 0-7.412 1.633-9.9 4.251l-0.006 0.006c-2.614 2.525-4.237 6.062-4.237 9.978 0 0.999 0.106 1.974 0.307 2.913l-0.016-0.091 24.533 122.56c0.262 1.253 0.411 2.694 0.411 4.169 0 3.539-0.862 6.878-2.387 9.816l0.056-0.119c-20.039 39.044-31.784 85.187-31.784 134.073 0 164.949 133.718 298.667 298.667 298.667 105 0 197.345-54.184 250.599-136.115l0.705-1.157c-186.935-2.065-337.679-154.085-337.679-341.314 0-19.406 1.619-38.433 4.73-56.955l-0.278 2.002c3.382-20.75 8.13-39.060 14.354-56.674l-0.7 2.274c-25.773 6.007-48.431 14.474-69.602 25.418l1.655-0.778zM904.107 203.307l24.533-122.667c0.165-0.816 0.26-1.753 0.26-2.713 0-7.894-6.399-14.293-14.293-14.293-0.96 0-1.897 0.095-2.804 0.275l0.091-0.015-122.56 24c-1.253 0.262-2.694 0.411-4.169 0.411-3.539 0-6.878-0.862-9.816-2.387l0.119 0.056c-39.477-20.572-86.211-32.64-135.763-32.64-164.949 0-298.667 133.718-298.667 298.667s133.718 298.667 298.667 298.667c0.104 0 0.208 0 0.312 0h-0.016c17.082-0.034 33.819-1.39 50.149-3.972l-1.829 0.238c142.819-24.106 250.252-146.865 250.252-294.716 0-49.479-12.032-96.148-33.329-137.24l0.784 1.663c-1.479-2.827-2.347-6.176-2.347-9.727 0-1.503 0.155-2.969 0.451-4.385l-0.024 0.139zM448 384h384v-42.667h-384zM768 426.667h-256v42.667h256zM512 298.667h256v-42.667h-256z" />
<glyph unicode="&#xe90e;" glyph-name="checkbox, check" d="M406.827 58.133h-0.747c-42.667 0-74.667 39.573-94.293 69.12v0l-172.373 247.36c-1.248 1.743-2.265 3.762-2.946 5.929l-0.041 0.151-65.6 94.72c-7.216 10.218-11.535 22.931-11.535 36.652 0 21.659 10.759 40.805 27.224 52.386l0.204 0.136 36.8 25.707c10.203 7.186 22.89 11.484 36.58 11.484 21.638 0 40.767-10.738 52.351-27.175l0.135-0.202 195.733-282.133 402.347 584.427c15.626 22.175 41.126 36.483 69.967 36.483 18.154 0 34.984-5.669 48.816-15.333l-0.276 0.183 1.813-1.28c22.162-15.784 36.443-41.388 36.443-70.327 0-18.205-5.652-35.091-15.296-48.997l0.187 0.285-120.32-173.76c-0.621-1.671-1.376-3.114-2.285-4.443l0.045 0.070c-2.56-3.733-258.773-378.24-325.013-471.893-32.64-46.827-64.747-69.547-97.92-69.547zM331.2 174.827v-0.747l15.253-22.507c23.040-33.92 42.667-50.56 59.52-50.667s39.787 17.6 64 51.52c62.293 88.213 293.76 426.667 321.813 467.307 0.646 1.711 1.436 3.189 2.389 4.544l-0.043-0.064 123.2 177.813c4.758 6.853 7.601 15.347 7.601 24.506 0 14.53-7.156 27.389-18.136 35.245l-0.131 0.089-1.813 1.28c-6.725 4.634-15.048 7.402-24.018 7.402-14.346 0-27.039-7.081-34.774-17.938l-0.088-0.131-419.947-609.92c-3.876-5.606-10.256-9.242-17.487-9.28h-0.006c-7.22 0.012-13.597 3.609-17.448 9.105l-0.046 0.069-213.333 307.627c-3.913 5.481-10.252 9.012-17.415 9.012-4.537 0-8.743-1.416-12.201-3.831l0.069 0.046-36.8-25.707c-5.609-3.9-9.234-10.311-9.234-17.57 0-4.608 1.461-8.874 3.945-12.362l-0.044 0.065 69.547-100.16c1.211-1.745 2.193-3.765 2.841-5.929l0.039-0.151 147.947-212.16 0.747-0.853z" />
<glyph unicode="&#xe90f;" glyph-name="cloud" d="M832 469.333h-0.853q0.853 10.667 0.853 21.333c0 0.008 0 0.018 0 0.028 0 153.167-124.166 277.333-277.333 277.333-82.694 0-156.934-36.192-207.745-93.601l-0.255-0.293c-9.569-11.053-17.656-23.755-23.729-37.545l-0.378-0.962c-13.558 2.781-29.14 4.373-45.093 4.373-129.603 0-234.667-105.064-234.667-234.667 0-129.556 104.988-234.591 234.526-234.667h554.674c82.475 0 149.333 66.859 149.333 149.333s-66.859 149.333-149.333 149.333v0zM832 213.333h-554.667c-0.090 0-0.197 0-0.305 0-106.039 0-192 85.961-192 192s85.961 192 192 192c54.633 0 103.937-22.819 138.9-59.445l0.071-0.075v56.64c-15.025 11.166-32.178 20.876-50.485 28.341l-1.568 0.566c4.181 8.585 9.089 15.983 14.832 22.64l-0.112-0.133c43.129 47.771 105.278 77.664 174.409 77.664 129.603 0 234.667-105.064 234.667-234.667 0-42.471-11.282-82.306-31.014-116.673l0.605 1.143h48c7.358 15.175 13.76 32.948 18.28 51.459l0.387 1.875c2.453 0 5.013 0 7.467 0 58.91 0 106.667-47.756 106.667-106.667s-47.756-106.667-106.667-106.667v0z" />
<glyph unicode="&#xe910;" glyph-name="device-locked, mobile-locked" d="M682.667 917.333h-341.333c-58.91 0-106.667-47.756-106.667-106.667v0-725.333c0-58.91 47.756-106.667 106.667-106.667v0h341.333c58.91 0 106.667 47.756 106.667 106.667v0 725.333c0 58.91-47.756 106.667-106.667 106.667v0zM341.333 874.667h341.333c35.346 0 64-28.654 64-64v0-597.333h-469.333v597.333c0 35.346 28.654 64 64 64v0zM682.667 21.333h-341.333c-35.346 0-64 28.654-64 64v0 85.333h469.333v-85.333c0-35.346-28.654-64-64-64v0zM544 96c0-17.673-14.327-32-32-32s-32 14.327-32 32c0 17.673 14.327 32 32 32s32-14.327 32-32zM405.333 373.333h212.053c23.564 0 42.667 19.103 42.667 42.667v0 139.307c0 23.564-19.103 42.667-42.667 42.667v0h-11.947v33.28c0 51.988-42.145 94.133-94.133 94.133s-94.133-42.145-94.133-94.133v0-33.28h-11.84c-23.564 0-42.667-19.103-42.667-42.667v0-139.307c0-23.564 19.103-42.667 42.667-42.667v0zM459.947 631.253c0 28.424 23.042 51.467 51.467 51.467s51.467-23.042 51.467-51.467v0-33.28h-102.933zM405.333 555.307h212.053v-139.307h-212.053z" />
<glyph unicode="&#xe911;" glyph-name="devolo" d="M640 917.333h-256c-58.91 0-106.667-47.756-106.667-106.667v0-490.667c0-58.91 47.756-106.667 106.667-106.667v0h42.667v-16c1.553-32.752 28.485-58.718 61.482-58.718 0.886 0 1.767 0.019 2.644 0.056l-0.125-0.004c0-0.96 1.173-96 106.667-96 60.267 0 64-53.333 64-64h42.667c0 36.907-22.293 106.667-106.667 106.667-59.733 0-64 44.053-64 53.333 0.751-0.033 1.633-0.052 2.518-0.052 32.996 0 59.928 25.966 61.476 58.579l0.005 0.139v16h42.667c58.91 0 106.667 47.756 106.667 106.667v0 490.667c0 58.91-47.756 106.667-106.667 106.667v0zM554.667 197.333c0-8.533-9.92-16-21.333-16h-42.667c-11.413 0-21.333 7.467-21.333 16v16h85.333zM704 320c0-35.346-28.654-64-64-64v0h-256c-35.346 0-64 28.654-64 64v0 490.667c0 35.346 28.654 64 64 64v0h256c35.346 0 64-28.654 64-64v0zM512 832c-82.475 0-149.333-66.859-149.333-149.333s66.859-149.333 149.333-149.333c82.475 0 149.333 66.859 149.333 149.333v0c0 82.475-66.859 149.333-149.333 149.333v0zM512 576c-58.91 0-106.667 47.756-106.667 106.667s47.756 106.667 106.667 106.667c58.91 0 106.667-47.756 106.667-106.667v0c0-58.91-47.756-106.667-106.667-106.667v0zM490.667 682.667c0-11.782-9.551-21.333-21.333-21.333s-21.333 9.551-21.333 21.333c0 11.782 9.551 21.333 21.333 21.333v0c11.782 0 21.333-9.551 21.333-21.333v0zM576 682.667c0-11.782-9.551-21.333-21.333-21.333s-21.333 9.551-21.333 21.333c0 11.782 9.551 21.333 21.333 21.333v0c11.782 0 21.333-9.551 21.333-21.333v0zM426.667 341.333c0-11.782-9.551-21.333-21.333-21.333s-21.333 9.551-21.333 21.333c0 11.782 9.551 21.333 21.333 21.333v0c11.782 0 21.333-9.551 21.333-21.333v0z" />
<glyph unicode="&#xe912;" glyph-name="digitenne" d="M170.667 576h64v-42.667h-64v-64h-42.667v64c0 23.564 19.103 42.667 42.667 42.667v0zM746.667 832v-42.667c106.039 0 192-85.961 192-192v0h42.667c0 129.603-105.064 234.667-234.667 234.667v0zM746.667 746.667v-42.667c58.91 0 106.667-47.756 106.667-106.667v0h42.667c0 82.475-66.859 149.333-149.333 149.333v0zM768 554.667v-85.333h42.667v85.333c0 58.91-47.756 106.667-106.667 106.667v0h-554.667c-58.91 0-106.667-47.756-106.667-106.667v0-234.667c0-58.91 47.756-106.667 106.667-106.667v0h256v-32h-192v-42.667h426.667v42.667h-192v32h234.667v42.667h-533.333c-35.346 0-64 28.654-64 64v0 234.667c0 35.346 28.654 64 64 64v0h554.667c35.346 0 64-28.654 64-64v0zM885.333 373.333v-181.333c-0.017-22.179-11.313-41.716-28.461-53.187l-0.232-0.146h18.027v-42.667h-149.333v42.667h18.027c-17.381 11.617-28.677 31.154-28.693 53.331v181.336c0 35.346 28.654 64 64 64v0h42.667c35.346 0 64-28.654 64-64v0zM757.333 192c0-11.782 9.551-21.333 21.333-21.333v0h42.667c11.782 0 21.333 9.551 21.333 21.333v0 181.333c0 11.782-9.551 21.333-21.333 21.333v0h-42.667c-11.782 0-21.333-9.551-21.333-21.333v0z" />
<glyph unicode="&#xe913;" glyph-name="document" d="M746.667 917.333h-469.333c-58.91 0-106.667-47.756-106.667-106.667v0-725.333c0-58.91 47.756-106.667 106.667-106.667v0h469.333c58.91 0 106.667 47.756 106.667 106.667v0 725.333c0 58.91-47.756 106.667-106.667 106.667v0zM810.667 85.333c0-35.346-28.654-64-64-64v0h-469.333c-35.346 0-64 28.654-64 64v0 725.333c0 35.346 28.654 64 64 64v0h469.333c35.346 0 64-28.654 64-64v0zM341.333 554.667h106.667c35.346 0 64 28.654 64 64v0 106.667c0 35.346-28.654 64-64 64v0h-106.667c-35.346 0-64-28.654-64-64v0-106.667c0-35.346 28.654-64 64-64v0zM320 725.333c0 11.782 9.551 21.333 21.333 21.333v0h106.667c11.782 0 21.333-9.551 21.333-21.333v0-106.667c0-11.782-9.551-21.333-21.333-21.333v0h-106.667c-11.782 0-21.333 9.551-21.333 21.333v0zM554.667 789.333h192v-42.667h-192zM554.667 693.333h192v-42.667h-192zM554.667 597.333h192v-42.667h-192zM288 501.333h458.667v-42.667h-458.667zM288 405.333h458.667v-42.667h-458.667zM288 309.333h266.667v-42.667h-266.667z" />
<glyph unicode="&#xe914;" glyph-name="dustbin, delete" d="M917.333 704h-64v21.333c0 58.91-47.756 106.667-106.667 106.667v0h-85.333v21.333c0 35.346-28.654 64-64 64v0h-170.667c-35.346 0-64-28.654-64-64v0-21.333h-85.333c-58.91 0-106.667-47.756-106.667-106.667v0-21.333h-64v-42.667h64v-490.667c0-106.039 85.961-192 192-192v0h298.667c106.039 0 192 85.961 192 192v0 490.667h64zM405.333 853.333c0 11.782 9.551 21.333 21.333 21.333v0h170.667c11.782 0 21.333-9.551 21.333-21.333v0-21.333h-213.333zM213.333 725.333c0 35.346 28.654 64 64 64v0h469.333c35.346 0 64-28.654 64-64v0-21.333h-597.333zM810.667 170.667c0-82.475-66.859-149.333-149.333-149.333v0h-298.667c-82.475 0-149.333 66.859-149.333 149.333v0 490.667h597.333zM341.333 533.333h42.667v-320h-42.667v320zM490.667 533.333h42.667v-320h-42.667v320zM640 533.333h42.667v-320h-42.667v320z" />
<glyph unicode="&#xe915;" glyph-name="edit" d="M889.387 857.493c-19.302 19.296-45.964 31.231-75.413 31.231s-56.112-11.935-75.414-31.231l-593.386-593.386c-36.053-36.053-64-169.173-69.867-195.52-0.264-1.259-0.415-2.706-0.415-4.188 0-5.908 2.401-11.254 6.281-15.118l0.001-0.001c2.956-3.578 7.395-5.841 12.361-5.841 0.568 0 1.129 0.030 1.681 0.087l-0.069-0.006c11.627 0 34.56 4.907 86.827 19.733 89.28 25.28 107.947 43.84 114.027 50.027l518.4 518.4c7.147-15.787 9.92-38.4-13.547-61.867l-185.707-185.813h60.373l155.52 155.627c19.015 17.155 30.915 41.883 30.915 69.39 0 10.549-1.75 20.69-4.976 30.147l0.195-0.657c-3.208 9.337-7.138 17.409-11.906 24.895l0.279-0.469 43.733 43.733c19.328 19.307 31.284 45.991 31.284 75.467 0 29.423-11.913 56.064-31.179 75.361l0.001-0.001zM215.147 273.707l481.813 481.813 90.56-90.56-481.813-481.813zM124.267 92.373c13.547 57.067 34.56 125.12 51.093 141.76l9.6 9.6 90.56-90.56-9.6-9.6c-17.92-18.027-93.867-40-141.653-51.413zM859.2 736.96l-41.6-41.6-90.56 90.56 41.6 41.6c11.588 11.588 27.597 18.756 45.28 18.756 35.366 0 64.036-28.67 64.036-64.036 0-17.683-7.167-33.692-18.756-45.28v0zM320 74.667h490.667v-42.667h-490.667z" />
<glyph unicode="&#xe916;" glyph-name="education, graduation-cap" d="M965.867 671.147l-448 128c-1.758 0.522-3.777 0.823-5.867 0.823s-4.109-0.3-6.017-0.86l0.151 0.038-448-128c-9.044-2.609-15.546-10.812-15.546-20.533s6.502-17.924 15.395-20.496l0.151-0.037 112.533-32v-278.080c0-58.91 47.756-106.667 106.667-106.667v0h469.333c58.91 0 106.667 47.756 106.667 106.667v0 277.973l64 18.24v-189.547h42.667v201.813l5.867 1.707c9.044 2.609 15.546 10.812 15.546 20.533s-6.502 17.924-15.395 20.496l-0.151 0.037zM810.667 320c0-35.346-28.654-64-64-64v0h-469.333c-35.346 0-64 28.654-64 64v0 265.813l292.8-83.627c1.758-0.522 3.777-0.823 5.867-0.823s4.109 0.3 6.017 0.86l-0.151-0.038 292.8 83.627zM512 544.853l-370.347 105.813 370.347 105.813 370.347-105.813z" />
<glyph unicode="&#xe917;" glyph-name="email, mail" d="M845.013 796.16c-83.093 78.507-199.467 121.173-327.68 121.173-256.26 0-464-207.74-464-464s207.74-464 464-464v0 0c69.616 2.079 135.305 16.422 195.79 40.931l-3.79-1.357v46.4c-56.442-24.95-122.051-40.621-190.997-43.276l-1.003-0.031c-232.696 0-421.333 188.637-421.333 421.333s188.637 421.333 421.333 421.333v0c252.053 0 421.333-169.28 421.333-421.333 0-38.72-10.667-69.333-32-90.667-36.48-36.053-93.013-35.733-93.76-35.84-23.471 1.112-45.323 6.976-64.966 16.643l0.966-0.429c-41.173 20.587-61.973 57.6-61.973 110.080v144.213h-42.667v-32c-31.083 35.018-76.212 56.974-126.469 56.974-93.255 0-168.853-75.598-168.853-168.853s75.598-168.853 168.853-168.853c61.926 0 116.066 33.336 145.453 83.041l0.429 0.785c15.127-27.492 37.813-49.216 65.259-62.757l0.875-0.39c24.177-12.076 52.526-19.595 82.516-20.683l0.364-0.010c2.987 0 74.667-0.747 123.84 47.893 29.547 29.44 44.8 70.187 44.8 120.853 0 140.373-47.147 258.987-136.32 342.827zM517.333 326.827c-69.691 0-126.186 56.496-126.186 126.187s56.496 126.187 126.187 126.187c69.578 0 126.004-56.313 126.186-125.849v-0.017c-0.121-69.642-56.545-126.065-126.175-126.187h-0.012z" />
<glyph unicode="&#xe918;" glyph-name="envelop" d="M874.667 789.333h-725.333c-58.91 0-106.667-47.756-106.667-106.667v0-469.333c0-58.91 47.756-106.667 106.667-106.667v0h725.333c58.91 0 106.667 47.756 106.667 106.667v0 469.333c0 58.91-47.756 106.667-106.667 106.667v0zM874.667 746.667c12.628-0.040 24.386-3.732 34.282-10.073l-0.256 0.153-291.093-290.987c-27.025-27.027-64.36-43.744-105.6-43.744s-78.575 16.717-105.6 43.744l-291.093 290.987c9.641 6.188 21.399 9.879 34.016 9.92h0.011zM938.667 213.333c0-35.346-28.654-64-64-64v0h-725.333c-35.346 0-64 28.654-64 64v0 469.333c0.029 7.302 1.277 14.302 3.55 20.822l-0.136-0.449 288-288c34.747-34.758 82.756-56.258 135.787-56.258s101.039 21.499 135.786 56.257l288.001 288.001c1.533-5.219 2.415-11.214 2.415-17.415 0-1.040-0.025-2.075-0.074-3.103l0.006 0.145z" />
<glyph unicode="&#xe919;" glyph-name="error" d="M512 917.333c-259.206 0-469.333-210.128-469.333-469.333s210.128-469.333 469.333-469.333c259.206 0 469.333 210.128 469.333 469.333v0c0 259.206-210.128 469.333-469.333 469.333v0zM512 21.333c-235.641 0-426.667 191.025-426.667 426.667s191.025 426.667 426.667 426.667c235.641 0 426.667-191.025 426.667-426.667v0c0-235.641-191.025-426.667-426.667-426.667v0zM512 341.333c-47.128 0-85.333-38.205-85.333-85.333s38.205-85.333 85.333-85.333c47.128 0 85.333 38.205 85.333 85.333v0c0 47.128-38.205 85.333-85.333 85.333v0zM512 213.333c-23.564 0-42.667 19.103-42.667 42.667s19.103 42.667 42.667 42.667c23.564 0 42.667-19.103 42.667-42.667v0c0-23.564-19.103-42.667-42.667-42.667v0zM533.333 725.333h-42.667c-35.346 0-64-28.654-64-64v0-234.667c0-35.346 28.654-64 64-64v0h42.667c35.346 0 64 28.654 64 64v0 234.667c0 35.346-28.654 64-64 64v0zM554.667 426.667c0-11.782-9.551-21.333-21.333-21.333v0h-42.667c-11.782 0-21.333 9.551-21.333 21.333v0 234.667c0 11.782 9.551 21.333 21.333 21.333v0h42.667c11.782 0 21.333-9.551 21.333-21.333v0z" />
<glyph unicode="&#xe91a;" glyph-name="ethernet, cable" d="M960 544h-131.093c-9.486 31.099-37.924 53.333-71.554 53.333-0.007 0-0.013 0-0.020 0h-225.172c-56.32 0-233.493-46.827-233.493-128v-32h-21.333c-3.52 0-85.333 0.96-85.333 85.333 0 101.227-83.733 128-128 128h-21.333v-42.667h21.333c3.52 0 85.333-0.96 85.333-85.333 0-101.227 83.733-128 128-128h21.333v-32c0-81.173 177.173-128 233.493-128h225.173c33.509 0.139 61.797 22.33 71.114 52.804l0.139 0.529h131.413c11.782 0 21.333 9.551 21.333 21.333v0 213.333c0 11.782-9.551 21.333-21.333 21.333v0zM757.333 277.333h-138.667v85.333h-42.667v-85.333h-42.667v85.333h-42.667v-80.213c-17.331 3.67-31.632 7.606-45.604 12.262l2.937-0.848v68.8h-42.667v-52.48c-36.053 16.107-64 35.627-64 52.48v106.667c0 16.96 27.947 36.48 64 52.48v-52.48h42.667v68.8c11.034 3.808 25.335 7.743 39.922 10.913l2.745 0.5v-80.213h42.667v85.333h42.667v-85.333h42.667v85.333h138.667c17.673 0 32-14.327 32-32v0-20.16c-41.255-7.764-72.048-43.513-72.048-86.453s30.793-78.689 71.502-86.368l0.546-0.086v-20.267c0-17.673-14.327-32-32-32v0zM789.333 458.667v-85.333c-17.866 6.277-30.445 23.003-30.445 42.667s12.579 36.389 30.129 42.57l0.316 0.097zM938.667 330.667h-106.667v170.667h106.667z" />
<glyph unicode="&#xe91b;" glyph-name="euro" d="M824.747 170.667c-27.84 20.8-66.027 17.173-84.16 11.733-23.578-7.245-50.68-11.418-78.757-11.418-73.101 0-139.596 28.282-189.139 74.502l0.163-0.151h167.147c47.128 0 85.333 38.205 85.333 85.333s-38.205 85.333-85.333 85.333v0h-253.44c-1.207 9.591-1.904 20.706-1.92 31.98v0.020c0 3.52 0 7.040 0 10.667h255.36c0.709-0.022 1.544-0.034 2.381-0.034 45.832 0 82.987 37.154 82.987 82.987 0 0.837-0.012 1.672-0.037 2.503l0.003-0.122c0.022 0.709 0.034 1.544 0.034 2.381 0 45.832-37.154 82.987-82.987 82.987-0.837 0-1.672-0.012-2.503-0.037l0.122 0.003h-187.627c51.136 58.862 126.107 95.864 209.72 95.864 27.902 0 54.842-4.12 80.244-11.786l-1.964 0.509c18.133-5.44 56.32-8.96 84.16 11.733 17.682 13.789 28.945 35.094 28.945 59.031 0 1.636-0.053 3.259-0.156 4.869l0.011-0.22c0 78.080-74.667 92.267-98.56 96.96l-3.84 0.747c-26.732 5.668-57.447 8.913-88.92 8.913-181.766 0-338.249-108.249-408.5-263.797l-1.14-2.823h-81.707c-0.709 0.022-1.544 0.034-2.381 0.034-45.832 0-82.987-37.154-82.987-82.987 0-0.837 0.012-1.672 0.037-2.503l-0.003 0.122c-0.022-0.709-0.034-1.544-0.034-2.381 0-45.832 37.154-82.987 82.987-82.987 0.837 0 1.672 0.012 2.503 0.037l-0.122-0.003h43.413c0-3.627 0-7.147 0-10.667 0-10.667 0-21.333 1.173-32h-44.587c-47.128 0-85.333-38.205-85.333-85.333s38.205-85.333 85.333-85.333v0h91.84c75.598-146.755 226.062-245.382 399.562-245.382 31.453 0 62.149 3.241 91.772 9.408l-2.908-0.506 3.84 0.747c23.893 4.8 98.56 18.987 98.56 97.067 0.112 1.529 0.175 3.313 0.175 5.111 0 23.855-11.187 45.097-28.6 58.766l-0.162 0.122zM746.667 51.52l-4.267-0.853c-24.15-5.112-51.898-8.040-80.33-8.040-161.317 0-300.623 94.237-365.872 230.664l-1.052 2.442c-3.489 7.307-10.819 12.265-19.306 12.267h-105.174c-23.564 0-42.667 19.103-42.667 42.667s19.103 42.667 42.667 42.667v0h68.053c0.050 0 0.109-0.001 0.167-0.001 11.782 0 21.333 9.551 21.333 21.333 0 0.94-0.061 1.866-0.179 2.774l0.011-0.107c-2.096 15.151-3.334 32.725-3.413 50.572v0.094c0 9.173 0 18.773 1.28 30.4 0.038 0.479 0.060 1.037 0.060 1.6 0 11.782-9.551 21.333-21.333 21.333-0.021 0-0.042 0-0.063 0h-65.917c-0.757-0.051-1.642-0.080-2.533-0.080-22.209 0-40.213 18.004-40.213 40.213 0 0.891 0.029 1.776 0.086 2.653l-0.006-0.119c-0.051 0.757-0.080 1.642-0.080 2.533 0 22.209 18.004 40.213 40.213 40.213 0.891 0 1.776-0.029 2.653-0.086l-0.119 0.006h96c8.882 0.019 16.487 5.462 19.681 13.192l0.052 0.142c61.768 149.832 206.677 253.374 375.771 253.374 28.434 0 56.184-2.928 82.966-8.498l-2.63 0.457 4.267-0.853c38.4-7.36 64-19.627 64-55.147 0-21.333-8.64-27.307-11.413-29.44-8.428-4.814-18.523-7.653-29.281-7.653-6.144 0-12.071 0.926-17.65 2.646l0.424-0.112c-27.171 8.339-58.404 13.14-90.758 13.14-113.049 0-212.406-58.622-269.331-147.125l-0.764-1.269c-2.118-3.257-3.378-7.241-3.378-11.52 0-11.77 9.531-21.313 21.296-21.333h230.082c0.757 0.051 1.642 0.080 2.533 0.080 22.209 0 40.213-18.004 40.213-40.213 0-0.891-0.029-1.776-0.086-2.653l0.006 0.119c0.051-0.757 0.080-1.642 0.080-2.533 0-22.209-18.004-40.213-40.213-40.213-0.891 0-1.776 0.029-2.653 0.086l0.119-0.006h-274.987c-0.035 0-0.076 0-0.118 0-10.993 0-20.044-8.315-21.207-18.999l-0.008-0.095c-1.192-10.316-1.873-22.27-1.873-34.382 0-20.162 1.885-39.884 5.488-58.998l-0.308 1.968c1.881-10.018 10.56-17.496 20.985-17.496 0.122 0 0.244 0.001 0.366 0.003h271.662c23.564 0 42.667-19.103 42.667-42.667s-19.103-42.667-42.667-42.667v0h-215.147c-0.016 0-0.036 0-0.055 0-11.782 0-21.333-9.551-21.333-21.333 0-4.921 1.666-9.453 4.465-13.062l-0.036 0.049c59.064-76.702 150.923-125.639 254.212-125.639 32.311 0 63.504 4.789 92.907 13.696l-2.266-0.59c5.155 1.607 11.083 2.533 17.226 2.533 10.758 0 20.852-2.839 29.575-7.808l-0.295 0.155c2.773-2.133 11.413-8.533 11.413-29.44 0-35.413-25.6-47.573-64-55.040z" />
<glyph unicode="&#xe91c;" glyph-name="experiabox" d="M874.667 789.333h-725.333c-58.91 0-106.667-47.756-106.667-106.667v0-469.333c0-58.91 47.756-106.667 106.667-106.667v0h192v-42.667h341.333v42.667h192c58.91 0 106.667 47.756 106.667 106.667v0 469.333c0 58.91-47.756 106.667-106.667 106.667v0zM938.667 213.333c0-35.346-28.654-64-64-64v0h-725.333c-35.346 0-64 28.654-64 64v0 469.333c0 35.346 28.654 64 64 64v0h725.333c35.346 0 64-28.654 64-64v0zM192 362.667c0-11.782-9.551-21.333-21.333-21.333s-21.333 9.551-21.333 21.333c0 11.782 9.551 21.333 21.333 21.333v0c11.782 0 21.333-9.551 21.333-21.333v0zM874.667 661.333c0-11.782-9.551-21.333-21.333-21.333s-21.333 9.551-21.333 21.333c0 11.782 9.551 21.333 21.333 21.333v0c11.782 0 21.333-9.551 21.333-21.333v0zM192 298.667c0-11.782-9.551-21.333-21.333-21.333s-21.333 9.551-21.333 21.333c0 11.782 9.551 21.333 21.333 21.333v0c11.782 0 21.333-9.551 21.333-21.333v0zM192 234.667c0-11.782-9.551-21.333-21.333-21.333s-21.333 9.551-21.333 21.333c0 11.782 9.551 21.333 21.333 21.333v0c11.782 0 21.333-9.551 21.333-21.333v0z" />
<glyph unicode="&#xe91d;" glyph-name="fixed-phone, phone" d="M713.707 362.667h-9.707v384c0 58.91-47.756 106.667-106.667 106.667v0 64h-42.667v-64h-128c-58.91 0-106.667-47.756-106.667-106.667v0-384h-10.667c-0.003 0-0.006 0-0.010 0-70.13 0-127.087-56.399-127.989-126.315l-0.001-0.085v-131.2c0.901-70.003 57.859-126.404 127.99-126.404 0.341 0 0.682 0.001 1.022 0.004h403.361c0.288-0.002 0.629-0.004 0.97-0.004 70.131 0 127.089 56.401 127.989 126.319l0.001 0.085v131.2c-0.901 70.003-57.859 126.404-127.99 126.404-0.341 0-0.682-0.001-1.022-0.004h0.052zM362.667 746.667c0 35.346 28.654 64 64 64v0h170.667c35.346 0 64-28.654 64-64v0-554.667c0-35.346-28.654-64-64-64v0h-170.667c-35.346 0-64 28.654-64 64v0zM800 105.067c-0.895-46.437-38.751-83.739-85.318-83.739-0.343 0-0.685 0.002-1.027 0.006h-403.361c-0.29-0.004-0.632-0.006-0.975-0.006-46.568 0-84.423 37.302-85.317 83.655l-0.001 0.084v131.2c0.895 46.437 38.751 83.739 85.318 83.739 0.343 0 0.685-0.002 1.027-0.006h9.655v-128c0-58.91 47.756-106.667 106.667-106.667v0h170.667c58.91 0 106.667 47.756 106.667 106.667v0 128h9.707c0.29 0.004 0.632 0.006 0.975 0.006 46.568 0 84.423-37.302 85.317-83.655l0.001-0.084zM469.333 533.333h85.333c35.346 0 64 28.654 64 64v0 85.333c0 35.346-28.654 64-64 64v0h-85.333c-35.346 0-64-28.654-64-64v0-85.333c0-35.346 28.654-64 64-64v0zM448 682.667c0 11.782 9.551 21.333 21.333 21.333v0h85.333c11.782 0 21.333-9.551 21.333-21.333v0-85.333c0-11.782-9.551-21.333-21.333-21.333v0h-85.333c-11.782 0-21.333 9.551-21.333 21.333v0zM458.56 462.72c0-14.787-11.987-26.773-26.773-26.773s-26.773 11.987-26.773 26.773c0 14.787 11.987 26.773 26.773 26.773s26.773-11.987 26.773-26.773zM538.773 462.72c0-14.787-11.987-26.773-26.773-26.773s-26.773 11.987-26.773 26.773c0 14.787 11.987 26.773 26.773 26.773s26.773-11.987 26.773-26.773zM618.987 462.72c0-14.787-11.987-26.773-26.773-26.773s-26.773 11.987-26.773 26.773c0 14.787 11.987 26.773 26.773 26.773s26.773-11.987 26.773-26.773zM458.56 382.507c0-14.787-11.987-26.773-26.773-26.773s-26.773 11.987-26.773 26.773c0 14.787 11.987 26.773 26.773 26.773s26.773-11.987 26.773-26.773zM538.773 382.507c0-14.787-11.987-26.773-26.773-26.773s-26.773 11.987-26.773 26.773c0 14.787 11.987 26.773 26.773 26.773s26.773-11.987 26.773-26.773zM618.987 382.507c0-14.787-11.987-26.773-26.773-26.773s-26.773 11.987-26.773 26.773c0 14.787 11.987 26.773 26.773 26.773s26.773-11.987 26.773-26.773zM458.56 302.293c0-14.787-11.987-26.773-26.773-26.773s-26.773 11.987-26.773 26.773c0 14.787 11.987 26.773 26.773 26.773s26.773-11.987 26.773-26.773zM538.773 302.293c0-14.787-11.987-26.773-26.773-26.773s-26.773 11.987-26.773 26.773c0 14.787 11.987 26.773 26.773 26.773s26.773-11.987 26.773-26.773zM618.987 302.293c0-14.787-11.987-26.773-26.773-26.773s-26.773 11.987-26.773 26.773c0 14.787 11.987 26.773 26.773 26.773s26.773-11.987 26.773-26.773z" />
<glyph unicode="&#xe91e;" glyph-name="food" d="M512 725.333c-153.167 0-277.333-124.166-277.333-277.333s124.166-277.333 277.333-277.333c153.167 0 277.333 124.166 277.333 277.333v0c0 153.167-124.166 277.333-277.333 277.333v0zM512 213.333c-129.603 0-234.667 105.064-234.667 234.667s105.064 234.667 234.667 234.667c129.603 0 234.667-105.064 234.667-234.667v0c0-129.603-105.064-234.667-234.667-234.667v0zM938.667 725.333c-1.067 0-106.667-1.493-106.667-128v-192c0-11.782 9.551-21.333 21.333-21.333v0h64v-213.333h42.667v533.333c0 11.782-9.551 21.333-21.333 21.333v0zM917.333 426.667h-42.667v170.667c0 52.693 23.893 72.853 42.667 80.64zM170.667 514.24v-343.573h-42.667v343.573c-37.005 9.107-64.021 42.005-64.021 81.212 0 0.662 0.008 1.321 0.023 1.979l-0.002-0.098v128h42.667v-128c-0.011-0.365-0.018-0.795-0.018-1.226 0-15.717 8.498-29.448 21.149-36.852l0.202-0.109v166.187h42.667v-166.187c12.853 7.512 21.351 21.244 21.351 36.961 0 0.431-0.006 0.861-0.019 1.289l0.001-0.063v128h42.667v-128c0.014-0.56 0.021-1.22 0.021-1.881 0-39.207-27.016-72.105-63.448-81.092l-0.573-0.12z" />
<glyph unicode="&#xe91f;" glyph-name="forum" d="M947.307 204.053c21.341 43.303 33.825 94.266 33.825 148.145 0 169.080-122.937 309.447-284.301 336.59l-2.004 0.279c-4.16 0.64-8.427 1.067-12.587 1.6l3.733 2.027c-58.912 107.427-171.234 179.043-300.284 179.043-188.513 0-341.333-152.82-341.333-341.333 0-52.661 11.925-102.537 33.223-147.074l-0.886 2.057-23.36-115.627c-0.733-3.425-1.153-7.36-1.153-11.393 0-31.399 25.454-56.853 56.853-56.853 4.033 0 7.968 0.42 11.764 1.219l-0.371-0.065 115.52 23.147c29.253-14.549 63.209-25.316 98.972-30.502l1.828-0.218c48.557-91.407 134.588-157.427 237.053-177.978l2.201-0.368c19.214-3.809 41.329-6.019 63.951-6.080h0.049c53.833 0.005 104.731 12.565 149.927 34.912l-1.98-0.885 115.52-23.36c3.465-0.751 7.446-1.181 11.528-1.181 31.399 0 56.853 25.454 56.853 56.853 0 4.081-0.43 8.062-1.247 11.9l0.066-0.372zM248.64 267.307c-2.82 1.469-6.158 2.331-9.697 2.331-1.475 0-2.916-0.15-4.307-0.435l0.138 0.024-122.667-24.533c-0.856-0.184-1.84-0.289-2.849-0.289-7.835 0-14.187 6.352-14.187 14.187 0 1.009 0.105 1.993 0.305 2.942l-0.016-0.093 24.533 122.56c0.262 1.253 0.411 2.694 0.411 4.169 0 3.539-0.862 6.878-2.387 9.816l0.056-0.119c-20.286 39.246-32.18 85.663-32.18 134.858 0 164.949 133.718 298.667 298.667 298.667 105.328 0 197.921-54.522 251.097-136.884l0.71-1.174c-186.981-2.005-337.786-154.049-337.786-341.315 0-19.405 1.619-38.432 4.73-56.953l-0.278 2.001c3.361-20.814 8.11-39.199 14.351-56.881l-0.698 2.268c-25.791 6.117-48.44 14.651-69.611 25.639l1.664-0.786zM904 203.307l24.533-122.667c0.184-0.856 0.289-1.84 0.289-2.849 0-7.835-6.352-14.187-14.187-14.187-1.009 0-1.993 0.105-2.942 0.305l0.093-0.016-122.453 24c-1.253 0.262-2.694 0.411-4.169 0.411-3.539 0-6.878-0.862-9.816-2.387l0.119 0.056c-39.477-20.572-86.211-32.64-135.763-32.64-164.949 0-298.667 133.718-298.667 298.667s133.718 298.667 298.667 298.667c0.104 0 0.208 0 0.312 0h-0.016c0.047 0 0.102 0 0.157 0 17.002 0 33.686-1.358 49.951-3.97l-1.788 0.237c142.819-24.106 250.252-146.865 250.252-294.716 0-49.479-12.032-96.148-33.329-137.24l0.784 1.663c-1.479-2.827-2.347-6.176-2.347-9.727 0-1.503 0.155-2.969 0.451-4.385l-0.024 0.139zM457.173 373.333h365.76v-42.667h-365.76v42.667zM518.080 464.747h243.84v-42.667h-243.84v42.667zM518.080 281.92h243.84v-42.667h-243.84v42.667z" />
<glyph unicode="&#xe920;" glyph-name="gaming, game" d="M789.333 288c0-17.673-14.327-32-32-32s-32 14.327-32 32c0 17.673 14.327 32 32 32s32-14.327 32-32zM789.333 458.667c0-17.673-14.327-32-32-32s-32 14.327-32 32c0 17.673 14.327 32 32 32s32-14.327 32-32zM874.667 373.333c0-17.673-14.327-32-32-32s-32 14.327-32 32c0 17.673 14.327 32 32 32s32-14.327 32-32zM704 373.333c0-17.673-14.327-32-32-32s-32 14.327-32 32c0 17.673 14.327 32 32 32s32-14.327 32-32zM277.333 480h-42.667v-85.333h-85.333v-42.667h85.333v-85.333h42.667v85.333h85.333v42.667h-85.333v85.333zM874.667 618.667h-277.333v16c-1.553 32.752-28.485 58.718-61.482 58.718-0.886 0-1.767-0.019-2.644-0.056l0.125 0.004c0 5.44 1.813 53.333 64 53.333 84.373 0 106.667 69.76 106.667 106.667h-42.667c0-10.667-3.733-64-64-64-105.493 0-106.667-95.040-106.667-96-0.751 0.033-1.633 0.052-2.518 0.052-32.996 0-59.928-25.966-61.476-58.579l-0.005-0.139v-16h-277.333c-84.373 0-106.667-69.76-106.667-106.667v-170.667c0-0.008 0-0.017 0-0.027 0-117.821 95.513-213.333 213.333-213.333 110.317 0 201.077 83.734 212.19 191.112l0.077 0.915h87.467c11.19-108.293 101.95-192.027 212.267-192.027 117.821 0 213.333 95.513 213.333 213.333 0 0.009 0 0.019 0 0.028v-0.002 170.667c0 36.907-22.293 106.667-106.667 106.667zM469.333 634.667c0 8.533 9.92 16 21.333 16h42.667c11.413 0 21.333-7.467 21.333-16v-16h-85.333zM938.667 341.333c0-94.257-76.41-170.667-170.667-170.667s-170.667 76.41-170.667 170.667v0c0 11.782-9.551 21.333-21.333 21.333v0h-128c-11.782 0-21.333-9.551-21.333-21.333v0c0-94.257-76.41-170.667-170.667-170.667s-170.667 76.41-170.667 170.667v0 170.667c0 6.507 1.813 64 64 64h725.333c60.267 0 64-53.333 64-64z" />
<glyph unicode="&#xe921;" glyph-name="giftbox, gift" d="M789.333 597.333h-45.013c28.343 27.222 45.953 65.436 45.953 107.763 0 82.475-66.859 149.333-149.333 149.333-47.994 0-90.7-22.641-118.020-57.825l-0.253-0.339c-25.387 71.511-92.462 121.8-171.282 121.8-100.148 0-181.333-81.186-181.333-181.333 0-55.907 25.3-105.904 65.076-139.168l0.286-0.233h-0.747c-58.91 0-106.667-47.756-106.667-106.667v0-42.667c-0.041-0.834-0.065-1.811-0.065-2.793 0-27.009 17.798-49.86 42.305-57.466l0.426-0.114v-302.293c0-58.91 47.756-106.667 106.667-106.667v0h469.333c58.91 0 106.667 47.756 106.667 106.667v0 302.293c24.934 7.72 42.732 30.572 42.732 57.58 0 0.982-0.024 1.959-0.070 2.93l0.005-0.137v42.667c0 58.91-47.756 106.667-106.667 106.667v0zM640 810.667c58.91 0 106.667-47.756 106.667-106.667s-47.756-106.667-106.667-106.667v0h-48.64c-7.472 12.771-21.083 21.236-36.679 21.333h-21.347v85.333c0 58.91 47.756 106.667 106.667 106.667v0zM213.333 736c0 76.583 62.083 138.667 138.667 138.667s138.667-62.083 138.667-138.667v0-117.333h-21.333c-15.61-0.097-29.222-8.562-36.584-21.132l-0.109-0.201h-80.64c-76.583 0-138.667 62.083-138.667 138.667v0zM170.667 490.667c0 35.346 28.654 64 64 64v0h192v-128h-234.667c-0.536-0.052-1.159-0.082-1.788-0.082-10.84 0-19.627 8.787-19.627 19.627 0 0.63 0.030 1.252 0.088 1.867l-0.006-0.079v42.667zM277.333 21.333c-35.346 0-64 28.654-64 64v0 298.667h213.333v-362.667zM469.333 21.333v554.667h85.333v-554.667zM746.667 21.333h-149.333v362.667h213.333v-298.667c0-35.346-28.654-64-64-64v0zM853.333 448c0.059-0.572 0.093-1.235 0.093-1.907 0-10.781-8.739-19.52-19.52-19.52-0.671 0-1.335 0.034-1.989 0.1l0.082-0.007h-234.667v128h192c35.346 0 64-28.654 64-64v0-42.667z" />
<glyph unicode="&#xe922;" glyph-name="glass, drink" d="M682.667 810.667h-341.333c-35.346 0-64-28.654-64-64v0-170.667c0-0.003 0-0.008 0-0.012 0-122.092 93.239-222.406 212.396-233.624l0.937-0.071v-192.96h-106.667v-42.667h256v42.667h-106.667v192.96c120.094 11.289 213.333 111.603 213.333 233.695 0 0.004 0 0.008 0 0.013v-0.001 170.667c0 35.346-28.654 64-64 64v0zM512 384c-106.039 0-192 85.961-192 192v0 42.667h298.667v42.667h-298.667v85.333c0 11.782 9.551 21.333 21.333 21.333v0h341.333c11.782 0 21.333-9.551 21.333-21.333v0-85.333h-42.667v-42.667h42.667v-42.667c0-106.039-85.961-192-192-192v0z" />
<glyph unicode="&#xe923;" glyph-name="globe" d="M204.373 701.76c-0.837-1.938-1.407-4.184-1.595-6.538l-0.005-0.075c-2.773-7.36-5.227-14.933-7.467-22.507-2.056-3.204-3.286-7.11-3.307-11.301v-0.006c-6.863-25.57-10.806-54.927-10.806-85.205 0-178.65 137.247-325.245 312.054-340.095l1.258-0.086c2.024-0.76 4.363-1.225 6.802-1.28h0.024c0.511-0.044 1.106-0.068 1.707-0.068s1.196 0.025 1.784 0.074l-0.077-0.005q8.96 0 17.92 0c188.464 0.065 341.219 152.86 341.219 341.333 0 61.413-16.219 119.039-44.607 168.826l0.882-1.679c-0.9 2.416-2.127 4.501-3.654 6.327l0.027-0.034c-55.651 93.077-152.094 156.798-263.999 166.524l-1.281 0.090c-2.178 0.856-4.701 1.353-7.339 1.353-0.608 0-1.21-0.026-1.805-0.078l0.077 0.005h-2.027q-8.64 0-17.493 0c-138.459-0.056-257.639-82.544-311.131-201.049l-0.869-2.151c-2.057-3.401-4.161-7.463-6.013-11.662l-0.28-0.711zM786.88 714.667c21.69-40.303 34.435-88.196 34.435-139.066 0-99.132-48.401-186.96-122.86-241.141l-0.855-0.593c10.667 37.653 13.44 65.387-4.907 140.267-9.493 38.507-38.293 155.627 6.187 209.067 17.813 21.653 47.787 32.213 88 31.467zM522.667 874.667v0c-0.65-13.895-2.789-26.998-6.269-39.543l0.296 1.25c-9.92-35.52-29.76-54.507-60.48-57.92-22.933-2.56-46.933-3.2-70.293-3.84-0.247 0-0.54 0.001-0.833 0.001-32.531 0-64.391-2.872-95.341-8.376l3.267 0.482c55.134 66.107 137.509 107.886 229.643 107.947h0.010zM248 693.333c20.373 32.853 67.2 36.693 139.2 38.72 24.107 0.64 49.067 1.387 73.813 4.053 78.293 8.747 101.76 82.027 104.533 135.36 79.95-11.919 148.319-54.039 194.353-114.164l0.527-0.716c-37.673-2.095-70.956-19.305-94.166-45.613l-0.127-0.147c-52.16-62.72-33.493-170.667-14.827-246.507s13.867-91.733-0.64-137.813c-2.24-7.040-4.693-14.827-7.253-23.467-35.508-16.228-77.020-25.693-120.742-25.707h-0.005c-5.867 0-11.733 0-17.6 0.533-24 12.053-74.027 42.667-84.693 76.16-1.169 3.36-1.845 7.233-1.845 11.264 0 6.933 1.998 13.399 5.451 18.854l-0.086-0.145c12.699 20.594 25.606 38.355 39.704 55.079l-0.558-0.679c40.533 51.093 86.507 108.907 34.453 181.867-45.867 64-112.96 34.88-157.333 15.36-19.2-8.427-38.933-17.067-52.053-17.067-28.587 0-45.333 29.013-51.52 42.667 3.81 13.020 7.694 23.679 12.151 34.032l-0.737-1.925zM225.28 603.2c15.776-16.673 38.021-27.084 62.699-27.2h0.021c21.973 0 44.907 10.027 69.12 20.693 54.187 23.787 82.24 31.36 105.493-1.067 32-44.587 9.387-77.013-33.067-130.56-14.804-17.63-28.879-37.171-41.463-57.725l-1.204-2.115c-6.832-11.386-10.873-25.123-10.873-39.803 0-8.649 1.402-16.97 3.992-24.749l-0.16 0.553c5.167-14.692 12.675-27.355 22.193-38.212l-0.113 0.132c-105.579 47.513-177.787 151.734-177.92 272.836v0.018c0 9.173 0 18.24 1.28 27.2zM842.667 234.667h-67.307c-69.361-50.802-156.379-81.29-250.519-81.29-235.641 0-426.667 191.025-426.667 426.667 0 74.767 19.231 145.043 53.018 206.15l-1.112-2.193c19.566 34.532 42.138 64.307 68.112 90.727l-0.059-0.060 2.88 2.987-0.853 0.853-3.733-3.84h-56.427c-16.189-19.888-31.303-42.113-44.443-65.592l-1.21-2.354q-4.693-8.533-9.067-17.28c-32.494-62.168-51.558-135.789-51.558-213.862 0-252.204 198.929-457.945 448.438-468.877l0.986-0.034v-85.333h-163.093v-42.667h368.853v42.667h-163.093v85.867c116.347 5.628 220.619 53.138 298.969 127.652l-0.196-0.185c3.307 3.093 6.72 6.187 9.92 9.493l-1.173 1.173q-5.333-5.547-10.667-10.667z" />
<glyph unicode="&#xe924;" glyph-name="graph, graph-up" d="M85.333 213.333v661.333h-42.667v-661.333c0-106.039 85.961-192 192-192v0h746.667v42.667h-746.667c-82.475 0-149.333 66.859-149.333 149.333v0zM234.667 213.333c46.843 0.375 84.671 38.435 84.671 85.331 0 21.33-7.826 40.831-20.762 55.791l0.092-0.108 115.413 114.987c11.813-6.576 25.911-10.447 40.913-10.447 24.742 0 47.024 10.53 62.61 27.352l0.051 0.055 72.853-32c0-1.92 0-3.84 0-5.76 0-0.057 0-0.125 0-0.193 0-47.128 38.205-85.333 85.333-85.333s85.333 38.205 85.333 85.333c0 16.928-4.929 32.705-13.431 45.974l0.204-0.341 111.787 111.573c10.642-5.127 23.14-8.123 36.337-8.123 47.128 0 85.333 38.205 85.333 85.333s-38.205 85.333-85.333 85.333c-47.128 0-85.333-38.205-85.333-85.333 0-18.695 6.012-35.985 16.207-50.044l-0.171 0.247-110.187-110.293c-11.827 6.595-25.945 10.479-40.97 10.479-29.846 0-56.113-15.322-71.364-38.529l-0.199-0.323-66.133 29.333c1.582 6.144 2.49 13.198 2.49 20.464 0 47.128-38.205 85.333-85.333 85.333s-85.333-38.205-85.333-85.333c0-16.974 4.956-32.791 13.5-46.082l-0.204 0.339-119.68-119.467c-8.659 3.242-18.666 5.119-29.111 5.119-47.128 0-85.333-38.205-85.333-85.333s38.205-85.333 85.333-85.333c0.147 0 0.293 0 0.44 0.001h-0.023zM896 725.333c23.564 0 42.667-19.103 42.667-42.667s-19.103-42.667-42.667-42.667c-23.564 0-42.667 19.103-42.667 42.667v0c0 23.564 19.103 42.667 42.667 42.667v0zM675.52 490.667c23.564 0 42.667-19.103 42.667-42.667s-19.103-42.667-42.667-42.667c-23.564 0-42.667 19.103-42.667 42.667v0c0 23.564 19.103 42.667 42.667 42.667v0zM455.147 586.667c23.564 0 42.667-19.103 42.667-42.667s-19.103-42.667-42.667-42.667c-23.564 0-42.667 19.103-42.667 42.667v0c0 23.564 19.103 42.667 42.667 42.667v0zM234.667 341.333c23.564 0 42.667-19.103 42.667-42.667s-19.103-42.667-42.667-42.667c-23.564 0-42.667 19.103-42.667 42.667v0c0 23.564 19.103 42.667 42.667 42.667v0z" />
<glyph unicode="&#xe925;" glyph-name="hd-quality, hd" d="M405.333 725.333c-0.709 0.022-1.544 0.034-2.381 0.034-45.832 0-82.987-37.154-82.987-82.987 0-0.837 0.012-1.672 0.037-2.503l-0.003 0.122v-117.333h-106.667v117.333c0.022 0.709 0.034 1.544 0.034 2.381 0 45.832-37.154 82.987-82.987 82.987-0.837 0-1.672-0.012-2.503-0.037l0.122 0.003c-0.709 0.022-1.544 0.034-2.381 0.034-45.832 0-82.987-37.154-82.987-82.987 0-0.837 0.012-1.672 0.037-2.503l-0.003 0.122v-384c-0.022-0.709-0.034-1.544-0.034-2.381 0-45.832 37.154-82.987 82.987-82.987 0.837 0 1.672 0.012 2.503 0.037l-0.122-0.003c0.709-0.022 1.544-0.034 2.381-0.034 45.832 0 82.987 37.154 82.987 82.987 0 0.837-0.012 1.672-0.037 2.503l0.003-0.122v128h106.667v-128c-0.022-0.709-0.034-1.544-0.034-2.381 0-45.832 37.154-82.987 82.987-82.987 0.837 0 1.672 0.012 2.503 0.037l-0.122-0.003c0.709-0.022 1.544-0.034 2.381-0.034 45.832 0 82.987 37.154 82.987 82.987 0 0.837-0.012 1.672-0.037 2.503l0.003-0.122v384c0.022 0.709 0.034 1.544 0.034 2.381 0 45.832-37.154 82.987-82.987 82.987-0.837 0-1.672-0.012-2.503-0.037l0.122 0.003zM448 256c0.051-0.757 0.080-1.642 0.080-2.533 0-22.209-18.004-40.213-40.213-40.213-0.891 0-1.776 0.029-2.653 0.086l0.119-0.006c-0.757-0.051-1.642-0.080-2.533-0.080-22.209 0-40.213 18.004-40.213 40.213 0 0.891 0.029 1.776 0.086 2.653l-0.006-0.119v149.333c0 11.782-9.551 21.333-21.333 21.333v0h-149.333c-11.782 0-21.333-9.551-21.333-21.333v0-149.333c0.051-0.757 0.080-1.642 0.080-2.533 0-22.209-18.004-40.213-40.213-40.213-0.891 0-1.776 0.029-2.653 0.086l0.119-0.006c-0.757-0.051-1.642-0.080-2.533-0.080-22.209 0-40.213 18.004-40.213 40.213 0 0.891 0.029 1.776 0.086 2.653l-0.006-0.119v384c-0.051 0.757-0.080 1.642-0.080 2.533 0 22.209 18.004 40.213 40.213 40.213 0.891 0 1.776-0.029 2.653-0.086l-0.119 0.006c0.757 0.051 1.642 0.080 2.533 0.080 22.209 0 40.213-18.004 40.213-40.213 0-0.891-0.029-1.776-0.086-2.653l0.006 0.119v-138.667c0-11.782 9.551-21.333 21.333-21.333v0h149.333c11.782 0 21.333 9.551 21.333 21.333v0 138.667c-0.051 0.757-0.080 1.642-0.080 2.533 0 22.209 18.004 40.213 40.213 40.213 0.891 0 1.776-0.029 2.653-0.086l-0.119 0.006c0.757 0.051 1.642 0.080 2.533 0.080 22.209 0 40.213-18.004 40.213-40.213 0-0.891-0.029-1.776-0.086-2.653l0.006 0.119zM746.667 725.333h-128c-0.709 0.022-1.544 0.034-2.381 0.034-45.832 0-82.987-37.154-82.987-82.987 0-0.837 0.012-1.672 0.037-2.503l-0.003 0.122v-384c-0.022-0.709-0.034-1.544-0.034-2.381 0-45.832 37.154-82.987 82.987-82.987 0.837 0 1.672 0.012 2.503 0.037l-0.122-0.003h128c2.347 0 234.667 2.667 234.667 234.667v85.333c0 2.347-2.667 234.667-234.667 234.667zM938.667 405.333c0-189.013-184.213-192-192-192h-128c-0.757-0.051-1.642-0.080-2.533-0.080-22.209 0-40.213 18.004-40.213 40.213 0 0.891 0.029 1.776 0.086 2.653l-0.006-0.119v384c-0.051 0.757-0.080 1.642-0.080 2.533 0 22.209 18.004 40.213 40.213 40.213 0.891 0 1.776-0.029 2.653-0.086l-0.119 0.006h128c189.013 0 192-184.213 192-192zM725.333 597.333h-42.667c-11.782 0-21.333-9.551-21.333-21.333v0-245.333c0-11.782 9.551-21.333 21.333-21.333v0h42.667c126.507 0 128 105.6 128 106.667v74.667c0 1.067-1.493 106.667-128 106.667zM810.667 416c0-2.667-0.96-64-85.333-64h-21.333v202.667h21.333c81.813 0 85.333-57.6 85.333-64z" />
<glyph unicode="&#xe926;" glyph-name="health" d="M909.44 760.107c-44.535 44.661-106.045 72.375-174.029 72.64h-1.864c-0.389 0.002-0.85 0.004-1.311 0.004-66.939 0-127.537-27.151-171.381-71.042l-48.855-48.855-48.96 48.96c-43.896 43.902-104.541 71.057-171.529 71.057-1.009 0-2.018-0.006-3.024-0.018l0.153 0.001c-68.035-0.265-129.545-27.979-174.074-72.634l-0.006-0.006c-44.406-44.398-71.873-105.738-71.873-173.493s27.467-129.095 71.873-173.493l314.667-314.88c21.214-21.118 50.469-34.173 82.773-34.173s61.56 13.055 82.778 34.177l314.663 314.876c44.406 44.398 71.873 105.738 71.873 173.493s-27.467 129.095-71.873 173.493v0zM879.253 443.307l-314.667-315.307c-13.496-13.418-32.099-21.713-52.64-21.713s-39.144 8.294-52.644 21.716l0.004-0.004-297.92 298.667h147.947c0.006 0 0.013 0 0.019 0 9.378 0 17.343 6.052 20.203 14.463l0.044 0.15 37.973 113.387 48.427-259.947c1.762-9.344 9.423-16.462 18.9-17.38l0.087-0.007h2.347c0.008 0 0.018 0 0.028 0 8.736 0 16.246 5.251 19.545 12.77l0.054 0.137 58.453 136.427h145.92v42.667h-160c-0.008 0-0.018 0-0.028 0-8.736 0-16.246-5.251-19.545-12.77l-0.054-0.137-36.373-85.333-50.667 272.853c-1.956 9.928-10.591 17.312-20.951 17.312-9.351 0-17.296-6.016-20.178-14.389l-0.045-0.15-59.52-177.387h-170.667c-23.568 32.692-37.694 73.556-37.694 117.719 0 55.799 22.55 106.332 59.035 142.981l-0.007-0.007c36.9 36.987 87.855 59.939 144.171 60.16h1.535c0.34 0.002 0.742 0.003 1.145 0.003 55.207 0 105.187-22.38 141.361-58.563l64-64c3.861-3.866 9.198-6.257 15.093-6.257s11.232 2.391 15.093 6.257v0l64 64c36.175 36.183 86.155 58.563 141.362 58.563 0.403 0 0.805-0.001 1.207-0.004h1.431c56.358-0.221 107.314-23.173 144.209-60.156l0.004-0.004c36.675-36.675 59.359-87.342 59.359-143.307s-22.684-106.631-59.359-143.307v0z" />
<glyph unicode="&#xe927;" glyph-name="heart" d="M909.44 760.107c-44.71 45.029-106.647 72.902-175.095 72.902-67.651 0-128.943-27.228-173.514-71.324l-48.831-48.831-48.96 48.96c-44.199 42.388-104.308 68.486-170.512 68.486-136.142 0-246.507-110.365-246.507-246.507 0-66.23 26.119-126.36 68.619-170.651l-0.081 0.085 314.667-314.88c21.219-21.149 50.496-34.226 82.827-34.226s61.608 13.076 82.83 34.229l314.664 314.877c44.343 44.388 71.766 105.685 71.766 173.387 0 67.755-27.467 129.095-71.873 173.493v0zM879.253 443.307l-314.667-315.307c-13.496-13.418-32.099-21.713-52.64-21.713s-39.144 8.294-52.644 21.716l0.004-0.004-314.667 315.307c-36.675 36.675-59.359 87.342-59.359 143.307s22.684 106.631 59.359 143.307v0c37.208 37.361 88.692 60.48 145.575 60.48 0.009 0 0.017 0 0.026 0h-0.001c0.191 0.001 0.417 0.001 0.643 0.001 55.437 0 105.629-22.459 141.972-58.776l63.999-63.999c3.861-3.866 9.198-6.257 15.093-6.257s11.232 2.391 15.093 6.257v0l64 64c36.144 33.21 84.557 53.565 137.725 53.565 112.578 0 203.84-91.262 203.84-203.84 0-53.168-20.356-101.581-53.699-137.872l0.133 0.147z" />
<glyph unicode="&#xe928;" glyph-name="history" d="M202.667 597.333h608c11.772 0.013 21.311 9.559 21.311 21.333 0 8.314-4.756 15.517-11.696 19.037l-0.122 0.056-298.667 149.333c-2.74 1.373-5.969 2.176-9.387 2.176s-6.647-0.804-9.51-2.232l0.124 0.056-309.333-149.333c-7.063-3.576-11.82-10.78-11.82-19.095 0-11.7 9.419-21.2 21.087-21.332h0.012zM512 744.213l208.32-104.213h-424.427zM320 554.667v-277.333h-42.667v277.333zM213.333 234.667h597.333v-42.667h-597.333zM533.333 554.667v-277.333h-42.667v277.333zM874.667 149.333v-42.667h-725.333v42.667zM746.667 554.667v-277.333h-42.667v277.333z" />
<glyph unicode="&#xe929;" glyph-name="home" d="M429.333 856.96l-344-337.067v-59.733l85.333 83.84v-416c0-58.91 47.756-106.667 106.667-106.667v0h469.333c58.91 0 106.667 47.756 106.667 106.667v0 416l85.333-83.627v59.733l-343.893 336.747c-21.214 21.118-50.469 34.173-82.774 34.173-32.251 0-61.464-13.012-82.673-34.073l0.007 0.007zM597.333 64h-170.667v245.333c0 11.782 9.551 21.333 21.333 21.333v0h128c11.782 0 21.333-9.551 21.333-21.333v0zM810.667 128c0-35.346-28.654-64-64-64v0h-106.667v245.333c0 35.346-28.654 64-64 64v0h-128c-35.346 0-64-28.654-64-64v0-245.333h-106.667c-35.346 0-64 28.654-64 64v0 457.6l246.080 241.067c13.502 13.45 32.126 21.766 52.693 21.766s39.192-8.316 52.696-21.768l-0.002 0.002 245.867-241.067z" />
<glyph unicode="&#xe92a;" glyph-name="info" d="M512 917.333c-259.206 0-469.333-210.128-469.333-469.333s210.128-469.333 469.333-469.333c259.206 0 469.333 210.128 469.333 469.333v0c0 259.206-210.128 469.333-469.333 469.333v0zM512 21.333c-235.641 0-426.667 191.025-426.667 426.667s191.025 426.667 426.667 426.667c235.641 0 426.667-191.025 426.667-426.667v0c0-235.641-191.025-426.667-426.667-426.667v0zM512 725.333c-47.128 0-85.333-38.205-85.333-85.333s38.205-85.333 85.333-85.333c47.128 0 85.333 38.205 85.333 85.333v0c0 47.128-38.205 85.333-85.333 85.333v0zM512 597.333c-23.564 0-42.667 19.103-42.667 42.667s19.103 42.667 42.667 42.667c23.564 0 42.667-19.103 42.667-42.667v0c0-23.564-19.103-42.667-42.667-42.667v0zM533.333 533.333h-42.667c-35.346 0-64-28.654-64-64v0-234.667c0-35.346 28.654-64 64-64v0h42.667c35.346 0 64 28.654 64 64v0 234.667c0 35.346-28.654 64-64 64v0zM554.667 234.667c0-11.782-9.551-21.333-21.333-21.333v0h-42.667c-11.782 0-21.333 9.551-21.333 21.333v0 234.667c0 11.782 9.551 21.333 21.333 21.333v0h42.667c11.782 0 21.333-9.551 21.333-21.333v0z" />
<glyph unicode="&#xe92b;" glyph-name="internet" d="M512 917.333c-259.206 0-469.333-210.128-469.333-469.333s210.128-469.333 469.333-469.333c259.206 0 469.333 210.128 469.333 469.333v0c0 259.206-210.128 469.333-469.333 469.333v0zM938.133 469.333h-170.133c-3.84 166.507-53.333 307.84-125.973 385.067 166.615-54.754 286.558-204.731 296.062-384.003l0.045-1.064zM490.667 872.427v-403.093h-192c5.653 207.573 89.387 381.653 192 403.093zM490.667 426.667v-403.093c-102.613 21.333-186.347 195.52-192 403.093zM533.333 23.573v403.093h192c-5.653-207.573-89.387-381.653-192-403.093zM533.333 469.333v403.093c102.613-21.333 186.347-195.52 192-403.093zM382.293 854.4c-72.96-77.227-122.133-218.56-126.293-385.067h-170.667c9.68 180.535 129.989 330.592 293.937 384.211l3.023 0.856zM85.867 426.667h170.133c3.84-166.507 53.333-307.84 125.973-385.067-166.615 54.754-286.558 204.731-296.062 384.003l-0.045 1.064zM641.707 41.6c72.96 77.227 122.133 218.56 126.293 385.067h170.667c-9.68-180.535-129.989-330.592-293.937-384.211l-3.023-0.856z" />
<glyph unicode="&#xe92c;" glyph-name="key" d="M192 533.333c-47.128 0-85.333-38.205-85.333-85.333s38.205-85.333 85.333-85.333c47.128 0 85.333 38.205 85.333 85.333v0c0 47.128-38.205 85.333-85.333 85.333v0zM192 405.333c-23.564 0-42.667 19.103-42.667 42.667s19.103 42.667 42.667 42.667c23.564 0 42.667-19.103 42.667-42.667v0c0-23.564-19.103-42.667-42.667-42.667v0zM1007.68 441.067l-117.333 128c-3.901 4.253-9.478 6.915-15.677 6.933h-421.976c-42.504 64.607-114.682 106.667-196.684 106.667-129.603 0-234.667-105.064-234.667-234.667 0-129.599 105.058-234.661 234.656-234.667h0.001c0.228-0.001 0.497-0.001 0.767-0.001 62.171 0 118.649 24.377 160.397 64.093l-0.097-0.092h30.933c5.881 0.026 11.196 2.427 15.039 6.292l0.001 0.001 48.96 48.853 48.96-48.96c3.861-3.866 9.198-6.257 15.093-6.257s11.232 2.391 15.093 6.257l48.854 48.96 48.96-48.96c3.861-3.866 9.198-6.257 15.093-6.257s11.232 2.391 15.093 6.257l48.854 48.96 48.96-48.96c3.854-3.824 9.163-6.187 15.023-6.187 0.006 0 0.012 0 0.018 0h42.666c6.202 0.018 11.779 2.68 15.666 6.918l0.014 0.016 117.333 128c3.468 3.781 5.593 8.842 5.593 14.4s-2.125 10.619-5.607 14.416l0.014-0.016zM865.28 320h-24.427l-57.707 57.707c-3.861 3.866-9.198 6.257-15.093 6.257s-11.232-2.391-15.093-6.257v0l-48.96-48.853-48.96 48.96c-3.861 3.866-9.198 6.257-15.093 6.257s-11.232-2.391-15.093-6.257l-48.854-48.96-48.96 48.96c-3.927 3.718-9.243 6.004-15.093 6.004s-11.166-2.286-15.103-6.014l0.010 0.010-57.707-57.813h-30.827c-0.005 0-0.012 0-0.018 0-5.966 0-11.36-2.449-15.232-6.397l-0.003-0.003c-34.874-35.559-83.421-57.6-137.115-57.6-106.039 0-192 85.961-192 192s85.961 192 192 192c0.017 0 0.034 0 0.051 0h-0.002c70.656-0.157 132.367-38.307 165.802-95.098l0.491-0.902c3.754-6.415 10.607-10.658 18.452-10.667h424.535l39.147-42.667h-392.427v-42.667h431.467l19.52-21.333z" />
<glyph unicode="&#xe92d;" glyph-name="laptop" d="M533.333 682.667c0-11.782-9.551-21.333-21.333-21.333s-21.333 9.551-21.333 21.333c0 11.782 9.551 21.333 21.333 21.333s21.333-9.551 21.333-21.333zM917.333 277.333v384c0 58.91-47.756 106.667-106.667 106.667v0h-597.333c-58.91 0-106.667-47.756-106.667-106.667v0-384c-35.346 0-64-28.654-64-64v0c0-58.91 47.756-106.667 106.667-106.667v0h725.333c58.91 0 106.667 47.756 106.667 106.667v0c0 35.346-28.654 64-64 64v0zM149.333 661.333c0 35.346 28.654 64 64 64v0h597.333c35.346 0 64-28.654 64-64v0-384h-256c-11.782 0-21.333-9.551-21.333-21.333v0h-149.333c0 11.782-9.551 21.333-21.333 21.333v0h-277.333zM874.667 149.333h-725.333c-35.346 0-64 28.654-64 64v0c0 11.782 9.551 21.333 21.333 21.333v0h298.667c0-11.782 9.551-21.333 21.333-21.333v0h192c11.782 0 21.333 9.551 21.333 21.333v0h277.333c11.782 0 21.333-9.551 21.333-21.333v0c0-35.346-28.654-64-64-64v0z" />
<glyph unicode="&#xe92e;" glyph-name="lightbulb, bulb" d="M512 853.333c-153.103-0.085-277.185-124.219-277.185-277.333 0-97.66 50.479-183.531 126.769-232.943l1.083-0.657v-65.067c0-35.346 28.654-64 64-64v0h170.667c35.346 0 64 28.654 64 64v0 65.067c77.373 50.069 127.852 135.94 127.852 233.6 0 153.115-124.082 277.249-277.177 277.333h-0.008zM629.333 372.8c-6.415-3.754-10.658-10.607-10.667-18.452v-77.014c0-11.782-9.551-21.333-21.333-21.333v0h-170.667c-11.782 0-21.333 9.551-21.333 21.333v0 77.013c-0.008 7.846-4.251 14.7-10.566 18.399l-0.101 0.054c-70.638 41.33-117.333 116.825-117.333 203.227 0 129.603 105.064 234.667 234.667 234.667s234.667-105.064 234.667-234.667c0-86.402-46.695-161.898-116.226-202.628l-1.107-0.6zM426.667 85.333h170.667v-42.667h-170.667zM384 170.667h256v-42.667h-256z" />
<glyph unicode="&#xe92f;" glyph-name="location, marker" d="M783.573 804.907c-69.502 69.502-165.517 112.489-271.573 112.489-212.112 0-384.063-171.951-384.063-384.063 0-106.056 42.988-202.072 112.489-271.573l256-256c3.861-3.866 9.198-6.257 15.093-6.257s11.232 2.391 15.093 6.257v0l256.853 256c69.549 69.5 112.569 165.539 112.569 271.627 0 106.034-42.977 202.031-112.462 271.52v0zM753.387 291.947l-241.387-240.96-241.387 240.96c-61.785 61.772-100 147.116-100 241.385 0 188.513 152.82 341.333 341.333 341.333s341.333-152.82 341.333-341.333c0-94.269-38.215-179.613-99.999-241.384l-0.001-0.001zM512 704c-82.475 0-149.333-66.859-149.333-149.333s66.859-149.333 149.333-149.333c82.475 0 149.333 66.859 149.333 149.333v0c0 82.475-66.859 149.333-149.333 149.333v0zM512 448c-58.91 0-106.667 47.756-106.667 106.667s47.756 106.667 106.667 106.667c58.91 0 106.667-47.756 106.667-106.667v0c0-58.91-47.756-106.667-106.667-106.667v0z" />
<glyph unicode="&#xe930;" glyph-name="locked, lock" d="M746.667 576v42.667c0 129.603-105.064 234.667-234.667 234.667s-234.667-105.064-234.667-234.667v0-42.667c-58.91 0-106.667-47.756-106.667-106.667v0-341.333c0-58.91 47.756-106.667 106.667-106.667v0h469.333c58.91 0 106.667 47.756 106.667 106.667v0 341.333c0 58.91-47.756 106.667-106.667 106.667v0zM320 618.667c0 106.039 85.961 192 192 192s192-85.961 192-192v0-42.667h-384zM810.667 128c0-35.346-28.654-64-64-64v0h-469.333c-35.346 0-64 28.654-64 64v0 341.333c0 35.346 28.654 64 64 64v0h469.333c35.346 0 64-28.654 64-64v0zM582.507 282.667c22.221 19.643 36.16 48.214 36.16 80.041 0 58.91-47.756 106.667-106.667 106.667s-106.667-47.756-106.667-106.667c0-31.827 13.939-60.399 36.046-79.942l0.114-0.099-47.573-82.88c-3.733-5.167-5.97-11.629-5.97-18.613 0-17.673 14.327-32 32-32 1.126 0 2.238 0.058 3.334 0.172l-0.137-0.012h177.707c0.959-0.102 2.071-0.16 3.197-0.16 17.673 0 32 14.327 32 32 0 6.984-2.238 13.446-6.035 18.708l0.065-0.094zM438.613 192l49.387 86.080c1.762 3.036 2.801 6.68 2.801 10.568 0 7.909-4.304 14.813-10.698 18.497l-0.103 0.055c-19.265 11.272-32 31.861-32 55.426 0 35.346 28.654 64 64 64s64-28.654 64-64c0-23.564-12.735-44.154-31.698-55.262l-0.302-0.164c-6.452-3.75-10.721-10.63-10.721-18.506 0-3.906 1.050-7.566 2.882-10.715l-0.055 0.102 49.28-86.080z" />
<glyph unicode="&#xe931;" glyph-name="lost, question" d="M602.667 336h-128v64c0 76.907 55.68 114.027 92.48 138.667 33.067 21.973 35.52 26.987 35.52 32 0 35.346-28.654 64-64 64s-64-28.654-64-64v0-64h-128v64c0 106.039 85.961 192 192 192s192-85.961 192-192v0c0-76.907-55.68-114.027-92.48-138.667-33.067-22.080-35.52-26.987-35.52-32zM517.333 378.667h42.667v21.333c0 29.76 20.693 45.12 54.507 67.627s73.493 49.067 73.493 103.040c0 82.475-66.859 149.333-149.333 149.333s-149.333-66.859-149.333-149.333v0-21.333h42.667v21.333c0 58.91 47.756 106.667 106.667 106.667s106.667-47.756 106.667-106.667v0c0-29.76-20.693-45.12-54.507-67.627s-73.493-49.067-73.493-103.040zM538.667 186.667c-17.667 0.016-33.655 7.188-45.226 18.773l-0.001 0.001c-11.485 11.714-18.621 27.729-18.773 45.411v0.029c0 35.346 28.654 64 64 64s64-28.654 64-64c0-35.346-28.654-64-64-64v0zM538.667 272c-0.070 0.001-0.152 0.001-0.234 0.001-5.754 0-10.975-2.278-14.812-5.981l0.006 0.006c-3.826-3.91-6.213-9.242-6.293-15.131v-0.016c-0.001-0.070-0.001-0.153-0.001-0.237 0-11.782 9.551-21.333 21.333-21.333 6.030 0 11.475 2.502 15.355 6.524l0.006 0.006c3.898 3.867 6.31 9.225 6.31 15.147s-2.413 11.28-6.309 15.145l-0.001 0.001c-3.819 3.638-9 5.877-14.704 5.877-0.231 0-0.461-0.004-0.689-0.011l0.033 0.001zM176 16c-47.128 0-85.333 38.205-85.333 85.333s38.205 85.333 85.333 85.333c47.128 0 85.333-38.205 85.333-85.333v0c0-47.128-38.205-85.333-85.333-85.333v0zM176 144c-23.564 0-42.667-19.103-42.667-42.667s19.103-42.667 42.667-42.667c23.564 0 42.667 19.103 42.667 42.667v0c0 23.564-19.103 42.667-42.667 42.667v0zM560 58.667c-107.087 0.043-197.4 71.808-225.514 169.864l-0.406 1.656c-6.613-0.64-13.12-0.853-19.413-0.853-129.562 0.055-234.571 105.098-234.571 234.667 0 60.427 22.839 115.519 60.356 157.115l-0.185-0.208c-4.283 16.768-6.741 36.017-6.741 55.84 0 129.603 105.064 234.667 234.667 234.667 54.424 0 104.52-18.527 144.326-49.617l-0.519 0.39c32.354 17.905 70.937 28.442 111.982 28.442 127.339 0 230.989-101.426 234.571-227.898l0.007-0.33c76.383-39.753 127.649-118.312 127.649-208.843 0-118.495-87.826-216.477-201.934-232.402l-1.235-0.141c-31.441-94.947-119.368-162.253-223.029-162.347h-0.011zM350.507 275.2c0.109 0.002 0.238 0.003 0.368 0.003 10.388 0 19.041-7.424 20.944-17.256l0.022-0.134c17.654-89.292 95.34-155.691 188.535-155.691 88.927 0 163.733 60.456 185.561 142.51l0.303 1.341c2.31 8.822 9.911 15.34 19.132 15.996l0.068 0.004c99.845 7.515 178.010 90.374 178.010 191.49 0 78.17-46.715 145.43-113.751 175.384l-1.219 0.487c-7.604 3.374-12.812 10.858-12.812 19.557 0 0.249 0.004 0.498 0.013 0.745l-0.001-0.036c0 1.28 0 2.56 0 3.84s0 1.707 0 2.56c-0.236 105.86-86.107 191.586-192 191.586-37.886 0-73.21-10.973-102.965-29.915l0.778 0.463c-3.241-2.090-7.199-3.332-11.448-3.332-5.491 0-10.497 2.074-14.278 5.482l0.019-0.017c-33.771 30.188-78.589 48.639-127.717 48.639-106.039 0-192-85.961-192-192 0-19.862 3.016-39.019 8.615-57.039l-0.364 1.36c0.591-1.865 0.931-4.009 0.931-6.233 0-5.899-2.394-11.238-6.264-15.1v0c-34.822-34.758-56.364-82.81-56.364-135.893 0-106.039 85.961-192 192-192 0.016 0 0.031 0 0.047 0h-0.003c11.363 0.080 22.424 1.125 33.178 3.055l-1.178-0.175c1.073 0.205 2.307 0.322 3.569 0.322 0.095 0 0.191-0.001 0.286-0.002h-0.014z" />
<glyph unicode="&#xe932;" glyph-name="low-battery, battery" d="M661.333 832h-64v21.333c0 35.346-28.654 64-64 64v0h-42.667c-35.346 0-64-28.654-64-64v0-21.333h-64c-58.91 0-106.667-47.756-106.667-106.667v0-640c0-58.91 47.756-106.667 106.667-106.667v0h298.667c58.91 0 106.667 47.756 106.667 106.667v0 640c0 58.91-47.756 106.667-106.667 106.667v0zM469.333 853.333c0 11.782 9.551 21.333 21.333 21.333v0h42.667c11.782 0 21.333-9.551 21.333-21.333v0-21.333h-85.333zM725.333 85.333c0-35.346-28.654-64-64-64v0h-298.667c-35.346 0-64 28.654-64 64v0 640c0 35.346 28.654 64 64 64v0h298.667c35.346 0 64-28.654 64-64v0zM618.667 501.333h-42.667v128c0 0.018 0 0.040 0 0.061 0 23.564-19.103 42.667-42.667 42.667-16.628 0-31.034-9.512-38.075-23.391l-0.112-0.243-128-256c-2.844-5.562-4.511-12.133-4.511-19.093 0-23.564 19.103-42.667 42.667-42.667 0.011 0 0.022 0 0.032 0h42.665v-117.333c0.020-23.549 19.115-42.632 42.667-42.632 16.38 0 30.604 9.23 37.755 22.773l0.112 0.233 128 245.333c3.013 5.699 4.782 12.456 4.782 19.627 0 23.558-19.092 42.656-42.648 42.667h-0.001zM490.667 213.333v160h-85.333l128 256v-170.667h85.333z" />
<glyph unicode="&#xe933;" glyph-name="manual" d="M725.333 853.333h-426.667c-58.91 0-106.667-47.756-106.667-106.667v0-597.333c0-58.91 47.756-106.667 106.667-106.667v0h469.333c11.782 0 21.333 9.551 21.333 21.333v0 168.533c12.465 9.175 22.462 20.981 29.295 34.645l0.251 0.555c7.681 15.236 12.452 33.119 13.114 52.047l0.006 0.219v426.667c0 58.91-47.756 106.667-106.667 106.667v0zM746.667 85.333h-448c-35.346 0-64 28.654-64 64s28.654 64 64 64v0h426.667c0.147-0.001 0.321-0.001 0.495-0.001 7.359 0 14.574 0.621 21.593 1.814l-0.755-0.106zM789.333 320c0-6.613-2.24-64-64-64h-426.667c-24.134 0-46.395-8.015-64.268-21.528l0.268 0.194v512c0 35.346 28.654 64 64 64v0h426.667c35.346 0 64-28.654 64-64v0zM682.667 725.333h-341.333c-11.782 0-21.333-9.551-21.333-21.333v0-85.333c0-11.782 9.551-21.333 21.333-21.333v0h341.333c11.782 0 21.333 9.551 21.333 21.333v0 85.333c0 11.782-9.551 21.333-21.333 21.333v0zM661.333 640h-298.667v42.667h298.667zM320 426.667h256v-42.667h-256zM320 362.667h164.16v-42.667h-164.16z" />
<glyph unicode="&#xe934;" glyph-name="mapview" d="M903.68 88.32c-17.674-30.673-50.281-50.989-87.633-50.989-0.242 0-0.483 0.001-0.724 0.003h-606.683c-0.099 0-0.216-0.001-0.333-0.001-56.024 0-101.44 45.416-101.44 101.44 0 18.653 5.035 36.13 13.819 51.147l-0.259-0.48 82.24 141.227c1.173 2.027 31.040 53.333 80 53.333h37.333v-42.667h-37.547c-23.68 0-42.667-32-42.667-32l-82.453-141.227c-4.985-8.368-7.932-18.453-7.932-29.227s2.947-20.858 8.078-29.493l-0.147 0.266c10.304-17.78 29.243-29.549 50.931-29.549 0.17 0 0.339 0.001 0.509 0.002h606.587c0.143-0.001 0.313-0.002 0.483-0.002 21.688 0 40.627 11.768 50.78 29.268l0.151 0.281c4.985 8.368 7.932 18.453 7.932 29.227s-2.947 20.858-8.078 29.493l0.147-0.266-82.133 141.227c-5.227 8.96-23.040 32-42.667 32h-37.973v42.667h37.547c48.96 0 78.827-51.2 80.107-53.333l81.92-141.12c8.672-14.512 13.799-32.009 13.799-50.704 0-18.621-5.087-36.054-13.947-50.985l0.254 0.462zM277.333 613.333c0 129.603 105.064 234.667 234.667 234.667s234.667-105.064 234.667-234.667v0c0-130.667-139.307-275.627-199.253-331.947-9.232-8.685-21.699-14.021-35.413-14.021s-26.182 5.336-35.44 14.046l0.027-0.025c-59.947 56.533-199.253 201.92-199.253 331.947zM320 613.333c0-116.587 142.293-259.733 185.813-300.8 1.594-1.559 3.778-2.52 6.187-2.52s4.592 0.962 6.188 2.522l-0.002-0.002c43.627 40.96 185.813 183.573 185.813 300.8 0 106.039-85.961 192-192 192s-192-85.961-192-192v0zM512 549.333c-35.346 0-64 28.654-64 64s28.654 64 64 64c35.346 0 64-28.654 64-64v0c0-35.346-28.654-64-64-64v0zM512 592c11.782 0 21.333 9.551 21.333 21.333s-9.551 21.333-21.333 21.333c-11.782 0-21.333-9.551-21.333-21.333v0c0-11.782 9.551-21.333 21.333-21.333v0z" />
<glyph unicode="&#xe935;" glyph-name="mechanic" d="M932.053 221.867c-22.187 101.12-124.48 183.467-228.053 183.467h-384c-103.467 0-206.187-82.133-228.907-183.147l-45.227-200.853h43.733l42.667 192c18.667 80.747 104.427 149.333 187.733 149.333h384c83.2 0 168.533-68.693 186.453-149.973l42.027-191.36h43.733zM551.147 321.6c-6.356-3.718-10.578-10.476-10.667-18.227v-85.346c-0.060-16.588-13.492-30.020-30.074-30.080h-0.006c-16.529 0.060-29.913 13.444-29.973 29.968v88.859c0.001 0.058 0.001 0.127 0.001 0.195 0 10.767-7.976 19.671-18.342 21.125l-0.113 0.013c-27.413 3.627-48.32-18.027-64-33.813l-5.973-6.187c-29.616-29.66-47.931-70.611-47.931-115.84s18.315-86.18 47.933-115.842l-0.002 0.002c3.093-3.093 6.4-5.973 9.707-8.747v-69.973h42.667v43.627h0.96c18.406-7.829 39.815-12.38 62.287-12.38 19.544 0 38.284 3.442 55.647 9.753l-1.133-0.36v-39.68h42.667v62.187c41.191 29.889 67.669 77.875 67.669 132.045 0 44.958-18.239 85.657-47.721 115.1l-0.002 0.002c-19.2 19.733-48.747 48.853-73.6 33.6zM600.747 93.973c-2.027-2.347-4.053-4.693-6.187-6.933-22.278-24.983-54.556-40.64-90.491-40.64-66.863 0-121.067 54.203-121.067 121.067 0 35.802 15.541 67.975 40.245 90.14l0.113 0.1 6.613 6.72c2.24 2.347 5.12 5.333 8.107 8.32v-55.467c0-0.063 0-0.138 0-0.213 0-20.018 8.157-38.131 21.329-51.195l0.005-0.005c3.185-3.076 6.671-5.884 10.396-8.364l0.271-0.17c11.4-7.945 25.541-12.694 40.793-12.694 0.059 0 0.118 0 0.177 0h-0.009c40.082 0.181 72.519 32.656 72.64 72.735v51.211c3.2-2.987 6.933-6.507 10.667-10.667 21.791-21.905 35.261-52.105 35.261-85.452 0-30.022-10.918-57.494-29-78.662l0.139 0.167zM458.667 629.333c0-17.673-14.327-32-32-32s-32 14.327-32 32c0 17.673 14.327 32 32 32s32-14.327 32-32zM629.333 629.333c0-17.673-14.327-32-32-32s-32 14.327-32 32c0 17.673 14.327 32 32 32s32-14.327 32-32zM512 448c129.603 0 234.667 105.064 234.667 234.667v0c0 3.627 0 7.147 0 10.667v0c0.709-0.022 1.544-0.034 2.381-0.034 45.832 0 82.987 37.154 82.987 82.987 0 0.837-0.012 1.672-0.037 2.503l0.003-0.122c0 20.8-15.36 74.667-85.333 74.667h-73.813c-41.927 39.634-98.65 64-161.063 64-129.603 0-234.667-105.064-234.667-234.667s105.064-234.667 234.667-234.667c0.074 0 0.147 0 0.221 0h-0.011zM708.48 810.667h38.187c38.72 0 42.667-24.747 42.667-32 0.051-0.757 0.080-1.642 0.080-2.533 0-22.209-18.004-40.213-40.213-40.213-0.891 0-1.776 0.029-2.653 0.086l0.119-0.006h-249.92c9.491 11.354 15.255 26.109 15.255 42.211 0 0.16-0.001 0.32-0.002 0.48v-0.025c-0.052 0.663-0.082 1.436-0.082 2.216 0 16.495 13.372 29.867 29.867 29.867 0.78 0 1.552-0.030 2.317-0.089l-0.102 0.006h164.48zM512 874.667c31.994-0.009 62.144-7.898 88.616-21.833l-1.042 0.5h-55.573c-0.645 0.021-1.404 0.032-2.166 0.032-40.059 0-72.533-32.474-72.533-72.533 0-0.762 0.012-1.52 0.035-2.276l-0.003 0.111c0-30.507-57.173-41.28-65.6-42.667h-76.053c23.885 80.713 97.333 138.609 184.313 138.667h0.007zM320.533 693.333h382.933c0-3.52 0.533-7.040 0.533-10.667 0-106.039-85.961-192-192-192s-192 85.961-192 192v0c0 3.627 0 7.147 0.533 10.667z" />
<glyph unicode="&#xe936;" glyph-name="mobiel, mobile" d="M682.667 917.333h-341.333c-58.91 0-106.667-47.756-106.667-106.667v0-725.333c0-58.91 47.756-106.667 106.667-106.667v0h341.333c58.91 0 106.667 47.756 106.667 106.667v0 725.333c0 58.91-47.756 106.667-106.667 106.667v0zM341.333 874.667h341.333c35.346 0 64-28.654 64-64v0-597.333h-469.333v597.333c0 35.346 28.654 64 64 64v0zM682.667 21.333h-341.333c-35.346 0-64 28.654-64 64v0 85.333h469.333v-85.333c0-35.346-28.654-64-64-64v0zM544 96c0-17.673-14.327-32-32-32s-32 14.327-32 32c0 17.673 14.327 32 32 32s32-14.327 32-32z" />
<glyph unicode="&#xe937;" glyph-name="mobile-deviceset, deviceset-mobile" d="M586.667 682.667h-149.333c-35.346 0-64-28.654-64-64v0-341.333c0-35.346 28.654-64 64-64v0h149.333c35.346 0 64 28.654 64 64v0 341.333c0 35.346-28.654 64-64 64v0zM437.333 640h149.333c11.782 0 21.333-9.551 21.333-21.333v0-234.667h-192v234.667c0 11.782 9.551 21.333 21.333 21.333v0zM586.667 256h-149.333c-11.782 0-21.333 9.551-21.333 21.333v0 64h192v-64c0-11.782-9.551-21.333-21.333-21.333v0zM533.333 298.667c0-11.782-9.551-21.333-21.333-21.333s-21.333 9.551-21.333 21.333c0 11.782 9.551 21.333 21.333 21.333s21.333-9.551 21.333-21.333z" />
<glyph unicode="&#xe938;" glyph-name="mobile-incomming-call" d="M416 96c0-17.673-14.327-32-32-32s-32 14.327-32 32c0 17.673 14.327 32 32 32s32-14.327 32-32zM917.333 469.333h-148.693l78.507 85.333h-57.813l-85.333-92.267c-3.49-3.786-5.63-8.863-5.63-14.44 0-5.902 2.397-11.244 6.27-15.106l91.84-91.52h60.373l-85.333 85.333h145.813zM554.667 917.333h-341.333c-58.91 0-106.667-47.756-106.667-106.667v0-725.333c0-58.91 47.756-106.667 106.667-106.667v0h341.333c58.91 0 106.667 47.756 106.667 106.667v0 725.333c0 58.91-47.756 106.667-106.667 106.667v0zM618.667 85.333c0-35.346-28.654-64-64-64v0h-341.333c-35.346 0-64 28.654-64 64v0 85.333h469.333zM618.667 213.333h-469.333v597.333c0 35.346 28.654 64 64 64v0h341.333c35.346 0 64-28.654 64-64v0z" />
<glyph unicode="&#xe939;" glyph-name="mobile-multiple" d="M309.333 96c0 17.673 14.327 32 32 32s32-14.327 32-32c0-17.673-14.327-32-32-32v0c-17.673 0-32 14.327-32 32v0zM618.667 810.667v-725.333c0-58.91-47.756-106.667-106.667-106.667v0h-341.333c-58.91 0-106.667 47.756-106.667 106.667v0 725.333c0 58.91 47.756 106.667 106.667 106.667v0h341.333c58.91 0 106.667-47.756 106.667-106.667v0zM576 170.667h-469.333v-85.333c0-35.346 28.654-64 64-64v0h341.333c35.346 0 64 28.654 64 64v0zM576 810.667c0 35.346-28.654 64-64 64v0h-341.333c-35.346 0-64-28.654-64-64v0-597.333h469.333zM682.667 874.667h-21.333v-42.667h21.333c35.346 0 64-28.654 64-64v0-640c0-35.346-28.654-64-64-64v0h-21.333v-42.667h21.333c58.91 0 106.667 47.756 106.667 106.667v0 640c0 58.91-47.756 106.667-106.667 106.667v0zM853.333 832h-21.333v-42.667h21.333c35.346 0 64-28.654 64-64v0-554.667c0-35.346-28.654-64-64-64v0h-21.333v-42.667h21.333c58.91 0 106.667 47.756 106.667 106.667v0 554.667c0 58.91-47.756 106.667-106.667 106.667v0z" />
<glyph unicode="&#xe93a;" glyph-name="mobile-switch-off" d="M682.667 917.333h-341.333c-58.91 0-106.667-47.756-106.667-106.667v0-725.333c0-58.91 47.756-106.667 106.667-106.667v0h341.333c58.91 0 106.667 47.756 106.667 106.667v0 725.333c0 58.91-47.756 106.667-106.667 106.667v0zM341.333 874.667h341.333c35.346 0 64-28.654 64-64v0-597.333h-469.333v597.333c0 35.346 28.654 64 64 64v0zM682.667 21.333h-341.333c-35.346 0-64 28.654-64 64v0 85.333h469.333v-85.333c0-35.346-28.654-64-64-64v0zM544 96c0-17.673-14.327-32-32-32s-32 14.327-32 32c0 17.673 14.327 32 32 32s32-14.327 32-32zM512 394.667c82.376 0.13 149.105 66.939 149.105 149.333 0 67.178-44.357 123.995-105.381 142.76l-1.058 0.28v-45.333c37.988-16.883 64-54.285 64-97.762 0-58.91-47.756-106.667-106.667-106.667s-106.667 47.756-106.667 106.667c0 43.477 26.012 80.879 63.321 97.492l0.679 0.27v45.333c-62.081-19.046-106.439-75.863-106.439-143.040 0-82.394 66.729-149.203 149.093-149.333h0.012zM533.333 618.667v117.333h-42.667v-128h42.667v10.667z" />
</font>
</defs>
</svg>
