<?xml version="1.0" standalone="no"?>
<!DOCTYPE svg PUBLIC "-//W3C//DTD SVG 1.1//EN" "http://www.w3.org/Graphics/SVG/1.1/DTD/svg11.dtd" >
<svg xmlns="http://www.w3.org/2000/svg" xmlns:xlink="http://www.w3.org/1999/xlink" version="1.1">
<metadata>
Created by FontForge 20170731 at Mon May 16 19:16:14 2016
 By Aleksey,,,
Copyright (c) 2011 Klim Type Foundry. All rights reserved.
</metadata>
<defs>
<font id="KPNMetricApp-Light" horiz-adv-x="500" >
  <font-face 
    font-family="KPN Metric App Light"
    font-weight="300"
    font-variant="small-caps"
    font-stretch="normal"
    units-per-em="1000"
    panose-1="2 11 4 4 2 1 1 1 1 2"
    ascent="750"
    descent="-250"
    x-height="444"
    cap-height="614"
    bbox="-261 -183 3344 893"
    underline-thickness="50"
    underline-position="-150"
    unicode-range="U+0020-FB02"
  />
<missing-glyph horiz-adv-x="205" 
d="M126 650v-734h-47v734h47z" />
    <glyph glyph-name="fi" unicode="fi" horiz-adv-x="450" 
d="M269 604q-20 11 -45 11q-35 0 -58 -24.5t-23 -71.5v-75h104v-43h-104v-401h-49v401h-72v43h72v80q0 61 35.5 98t89.5 37q27 0 50 -9v-46zM329 0v444h50v-444h-50zM388 579q0 -14 -10 -24t-24 -10t-24 10t-10 24t10 24t24 10t24 -10t10 -24z" />
    <glyph glyph-name="fl" unicode="fl" horiz-adv-x="450" 
d="M269 604q-20 11 -45 11q-35 0 -58 -24.5t-23 -71.5v-75h104v-43h-104v-401h-49v401h-72v43h72v80q0 61 35.5 98t89.5 37q27 0 50 -9v-46zM329 0v650h50v-650h-50z" />
    <glyph glyph-name="f_f" unicode="ff" horiz-adv-x="494" 
d="M505 604q-22 11 -46 11q-35 0 -58 -24.5t-23 -71.5v-75h105v-43h-105v-401h-48v401h-187v-401h-49v401h-72v43h72v74q0 61 35.5 98t89.5 37q27 0 50 -9v-46q-20 11 -45 11q-35 0 -58 -24.5t-23 -71.5v-69h187v80q0 61 35.5 98t89.5 37q27 0 50 -9v-46z" />
    <glyph glyph-name=".notdef" horiz-adv-x="205" 
d="M126 650v-734h-47v734h47z" />
    <glyph glyph-name=".null" horiz-adv-x="0" 
 />
    <glyph glyph-name="nonmarkingreturn" horiz-adv-x="221" 
 />
    <glyph glyph-name="space" unicode=" " horiz-adv-x="221" 
 />
    <glyph glyph-name="exclam" unicode="!" horiz-adv-x="206" 
d="M65 35q0 17 11 28t27 11q15 0 26 -11t11 -28q0 -16 -11 -27t-26 -11q-16 0 -27 11t-11 27zM131 614l-10 -422h-36l-10 422h56z" />
    <glyph glyph-name="quotedbl" unicode="&#x22;" horiz-adv-x="221" 
d="M85 614v-196h-45v196h45zM181 614v-196h-45v196h45z" />
    <glyph glyph-name="numbersign" unicode="#" horiz-adv-x="549" 
d="M369 191l-45 -191h-45l45 191h-156l-46 -191h-43l45 191h-97l9 40h98l36 152h-103l8 40h104l46 191h44l-46 -191h157l46 191h44l-46 -191h98l-9 -40h-98l-36 -152h102l-7 -40h-105zM334 231l36 152h-156l-37 -152h157z" />
    <glyph glyph-name="dollar" unicode="$" horiz-adv-x="445" 
d="M198 13q-48 4 -88 18.5t-66 37.5v57q41 -37 85.5 -52t92.5 -15q61 0 97 27.5t36 77.5q0 21 -6 37t-18.5 28.5t-32 23t-45.5 22.5l-84 35q-23 9 -45 20.5t-40 29t-29 41t-11 56.5t12 58.5t33 43.5t49 28t60 13v90h45v-90q38 -3 73 -15t62 -32v-55q-32 28 -71 42.5
t-88 14.5q-27 0 -50 -6t-40 -18t-26.5 -30.5t-9.5 -43.5q0 -42 26.5 -63.5t71.5 -40.5l90 -37q63 -27 92.5 -61.5t29.5 -90.5q0 -32 -12 -58.5t-33 -46t-50.5 -31t-64.5 -14.5v-99h-45v98z" />
    <glyph glyph-name="percent" unicode="%" horiz-adv-x="621" 
d="M78 495q0 -35 25 -60t61 -25t61 25t25 60q0 36 -25 61.5t-61 25.5t-61 -25.5t-25 -61.5zM531 614l-398 -614h-43l398 614h43zM583 119q0 -27 -10 -50t-27 -40.5t-40 -27.5t-49 -10t-49.5 10t-40.5 27.5t-27 40.5t-10 50q0 26 10 49t27 40t40.5 27t49.5 10t49 -10t40 -27
t27 -40t10 -49zM291 495q0 -26 -10 -49t-27.5 -40t-40.5 -27t-49 -10q-27 0 -50 10t-40 27t-27 40t-10 49q0 27 10 50t27 40.5t40 27.5t50 10q26 0 49 -10t40.5 -27.5t27.5 -40.5t10 -50zM542 119q0 35 -25 60t-60 25q-36 0 -61 -25t-25 -60q0 -36 25 -61.5t61 -25.5
q18 0 33.5 7t27 18.5t18 27.5t6.5 34z" />
    <glyph glyph-name="ampersand" unicode="&#x26;" horiz-adv-x="569" 
d="M263 579q-48 0 -79.5 -27.5t-31.5 -79.5q0 -38 22 -67t52 -61l189 -201q20 33 30 74t12 86h47q-2 -53 -16.5 -102t-41.5 -91l104 -110h-64l-69 73q-35 -38 -81.5 -60t-104.5 -22q-42 0 -77.5 14t-61 39t-40 59.5t-14.5 74.5q0 58 33.5 104t85.5 67q-24 29 -38.5 57
t-14.5 66q0 34 12 62t33.5 48t50.5 30.5t63 10.5q36 0 70 -10t61 -30v-54q-28 22 -58.5 36t-72.5 14zM231 35q50 0 89 18.5t68 50.5l-201 213q-44 -14 -72.5 -52.5t-28.5 -86.5q0 -31 11 -57t30 -45t45.5 -30t58.5 -11z" />
    <glyph glyph-name="quotesingle" unicode="'" horiz-adv-x="126" 
d="M86 614v-196h-46v196h46z" />
    <glyph glyph-name="parenleft" unicode="(" horiz-adv-x="325" 
d="M30 283q0 69 19 128.5t53.5 107.5t84 81.5t111.5 49.5v-50q-44 -11 -84 -38t-70 -67.5t-47.5 -94t-17.5 -117.5t17.5 -117.5t47.5 -94t70 -67.5t84 -38v-50q-62 16 -111.5 49.5t-84 81.5t-53.5 107.5t-19 128.5z" />
    <glyph glyph-name="parenright" unicode=")" horiz-adv-x="325" 
d="M295 283q0 -69 -19 -128.5t-53.5 -107.5t-84.5 -81.5t-111 -49.5v50q44 11 84 38t70 67.5t47.5 94t17.5 117.5t-17.5 117.5t-47.5 94t-70 67.5t-84 38v50q61 -16 111 -49.5t84.5 -81.5t53.5 -107.5t19 -128.5z" />
    <glyph glyph-name="asterisk" unicode="*" horiz-adv-x="315" 
d="M48 595l93 -54v108h33v-108l93 54l16 -28l-94 -54l94 -54l-16 -28l-93 54v-107h-33v107l-93 -54l-17 28l94 54l-94 54z" />
    <glyph glyph-name="plus" unicode="+" horiz-adv-x="514" 
d="M278 316h165v-43h-165v-164h-43v164h-164v43h164v164h43v-164z" />
    <glyph glyph-name="comma" unicode="," horiz-adv-x="141" 
d="M63 -1q-12 2 -21 11t-9 25q0 17 10.5 27.5t26.5 10.5q17 0 27.5 -11t10.5 -29q0 -12 -4.5 -22.5t-10.5 -21.5l-48 -90h-36z" />
    <glyph glyph-name="hyphen" unicode="-" horiz-adv-x="321" 
d="M281 283v-46h-241v46h241z" />
    <glyph glyph-name="period" unicode="." horiz-adv-x="141" 
d="M33 35q0 17 11 28t26 11q16 0 27 -11t11 -28q0 -16 -11 -27t-27 -11q-15 0 -26 11t-11 27z" />
    <glyph glyph-name="slash" unicode="/" horiz-adv-x="306" 
d="M301 650l-248 -734h-48l248 734h48z" />
    <glyph glyph-name="zero" unicode="0" horiz-adv-x="531" 
d="M266 -9q-51 0 -92.5 23t-71.5 65t-46 100t-16 128t16 128t46 100t71.5 65t92.5 23t92.5 -23t71 -65t45.5 -100t16 -128t-16 -128t-45.5 -100t-71 -65t-92.5 -23zM266 576q-41 0 -73.5 -20t-55 -55.5t-34.5 -85t-12 -108.5t12 -108.5t34.5 -85t55 -55.5t73.5 -20t73.5 20
t55 55.5t34.5 85t12 108.5t-12 108.5t-34.5 85t-55 55.5t-73.5 20z" />
    <glyph glyph-name="one" unicode="1" horiz-adv-x="317" 
d="M185 0v554l-161 -83v53l180 91h31v-615h-50z" />
    <glyph glyph-name="two" unicode="2" horiz-adv-x="429" 
d="M400 0h-385v4l198 233q25 29 46.5 55t38 52t26 53t9.5 58q0 54 -32.5 87.5t-97.5 33.5q-53 0 -97.5 -25.5t-76.5 -59.5v55q31 32 76.5 54.5t100.5 22.5q85 0 131 -45.5t46 -121.5q0 -35 -10.5 -66t-28.5 -60t-42.5 -58.5t-51.5 -60.5l-142 -164h292v-47z" />
    <glyph glyph-name="three" unicode="3" horiz-adv-x="428" 
d="M390 614v-4l-178 -241q37 -3 70.5 -16.5t58 -37.5t39 -57.5t14.5 -74.5q0 -44 -16 -79t-44 -60.5t-65 -39t-79 -13.5q-57 0 -96 14t-68 37v59q33 -33 74.5 -48.5t87.5 -15.5q33 0 62 10.5t50.5 29.5t33.5 46t12 60q0 38 -16 67.5t-43.5 49t-65.5 28t-82 4.5v4l168 231
h-279v47h362z" />
    <glyph glyph-name="four" unicode="4" horiz-adv-x="489" 
d="M305 196v152h49v-152h113v-46h-113v-150h-49v150h-275v36l198 428h51l-193 -418h219z" />
    <glyph glyph-name="five" unicode="5" horiz-adv-x="428" 
d="M188 377q43 0 81.5 -13.5t66.5 -38.5t44.5 -60.5t16.5 -79.5q0 -45 -16.5 -80.5t-45 -61t-66.5 -39t-82 -13.5q-54 0 -93 13.5t-68 36.5v60q33 -33 73.5 -48.5t85.5 -15.5q34 0 63.5 10.5t51.5 30t35 46.5t13 61q0 33 -13 60.5t-35 46.5t-51.5 29.5t-63.5 10.5
q-46 0 -73.5 -9t-55.5 -21v312h308v-47h-264v-205q16 6 38.5 10.5t49.5 4.5z" />
    <glyph glyph-name="six" unicode="6" horiz-adv-x="473" 
d="M236 -9q-43 0 -80 16t-64.5 43.5t-43 65.5t-15.5 82q0 33 9.5 66.5t35.5 79.5l154 270h53l-138 -240q17 13 41 21t50 8q43 0 80 -15.5t64 -43.5t42.5 -65.5t15.5 -80.5q0 -44 -15.5 -82t-43 -65.5t-65 -43.5t-80.5 -16zM393 198q0 34 -12 63t-33.5 51t-50 34.5
t-61.5 12.5t-61.5 -12.5t-49.5 -34.5t-33 -51t-12 -63t12 -63.5t33 -51t49.5 -34t61.5 -12.5t61.5 12.5t50 34t33.5 51t12 63.5z" />
    <glyph glyph-name="seven" unicode="7" horiz-adv-x="422" 
d="M83 0l261 567h-334v47h403v-4l-278 -610h-52z" />
    <glyph glyph-name="eight" unicode="8" horiz-adv-x="483" 
d="M241 35q34 0 63 10.5t50 28.5t33 42.5t12 53.5q0 28 -12 53t-33 43t-50 28.5t-63 10.5q-35 0 -63.5 -10.5t-49.5 -28.5t-32.5 -43t-11.5 -53q0 -29 11.5 -53.5t32.5 -42.5t49.5 -28.5t63.5 -10.5zM241 349q30 0 54.5 9t42 24.5t27 36.5t9.5 45t-9.5 45t-27 36.5t-42 24.5
t-54.5 9q-59 0 -95.5 -33t-36.5 -82q0 -24 9.5 -45t27 -36.5t42 -24.5t53.5 -9zM241 -9q-45 0 -82.5 13.5t-65 37t-43 56t-15.5 70.5q0 58 35 101t92 58q-47 17 -74.5 53.5t-27.5 84.5q0 34 13.5 63t37.5 50t57.5 33t72.5 12q40 0 73.5 -12t57.5 -33t37.5 -50t13.5 -63
q0 -48 -28 -84.5t-74 -53.5q57 -15 92 -58t35 -101q0 -38 -15.5 -70.5t-43 -56t-65.5 -37t-83 -13.5z" />
    <glyph glyph-name="nine" unicode="9" horiz-adv-x="473" 
d="M237 623q43 0 80 -16t64.5 -43.5t43 -65.5t15.5 -82q0 -33 -9.5 -66.5t-35.5 -79.5l-154 -270h-53l138 240q-17 -13 -41 -21t-50 -8q-43 0 -80 15.5t-64 43.5t-42.5 65t-15.5 81t15.5 82t43 65.5t65 43.5t80.5 16zM80 416q0 -34 12 -63.5t33.5 -51t50 -34t61.5 -12.5
t61.5 12.5t49.5 34t33 51t12 63.5t-12 63.5t-33 51t-49.5 34t-61.5 12.5t-61.5 -12.5t-50 -34t-33.5 -51t-12 -63.5z" />
    <glyph glyph-name="colon" unicode=":" horiz-adv-x="141" 
d="M33 35q0 17 11 28t26 11q16 0 27 -11t11 -28q0 -16 -11 -27t-27 -11q-15 0 -26 11t-11 27zM33 364q0 17 11 28t26 11q16 0 27 -11t11 -28q0 -16 -11 -27t-27 -11q-15 0 -26 11t-11 27z" />
    <glyph glyph-name="semicolon" unicode=";" horiz-adv-x="141" 
d="M63 -1q-12 2 -21 11t-9 25q0 17 10.5 27.5t26.5 10.5q17 0 27.5 -11t10.5 -29q0 -12 -4.5 -22.5t-10.5 -21.5l-48 -90h-36zM33 364q0 17 11 28t26 11q16 0 27 -11t11 -28q0 -16 -11 -27t-27 -11q-15 0 -26 11t-11 27z" />
    <glyph glyph-name="less" unicode="&#x3c;" horiz-adv-x="397" 
d="M332 466v-48l-232 -125l232 -125v-49l-274 150v47z" />
    <glyph glyph-name="equal" unicode="=" horiz-adv-x="521" 
d="M447 252v-42h-372v42h372zM447 380v-42h-372v42h372z" />
    <glyph glyph-name="greater" unicode="&#x3e;" horiz-adv-x="397" 
d="M65 119v49l232 125l-232 125v48l275 -150v-47z" />
    <glyph glyph-name="question" unicode="?" horiz-adv-x="414" 
d="M235 304q14 16 30 32.5t30 35.5t23 40t9 45q0 54 -33 86t-96 32q-54 0 -98.5 -27.5t-76.5 -63.5v56q29 33 75.5 58t101.5 25q85 0 131 -45t46 -121q0 -27 -9.5 -51.5t-24.5 -46t-33.5 -42t-36.5 -39.5q-24 -26 -33 -45t-10 -40h-48q2 34 14.5 58t38.5 53zM167 35
q0 17 11 28t26 11q16 0 27 -11t11 -28q0 -16 -11 -27t-27 -11q-15 0 -26 11t-11 27z" />
    <glyph glyph-name="at" unicode="@" horiz-adv-x="774" 
d="M503 125q-1 -5 -1.5 -9.5t-0.5 -8.5q0 -25 14 -33.5t36 -8.5q30 0 56 13.5t45.5 39t31 63.5t11.5 87q0 55 -21 101.5t-58.5 80.5t-90 52.5t-115.5 18.5q-74 0 -135 -26t-104.5 -71.5t-67 -106.5t-23.5 -131q0 -81 28.5 -138t75.5 -93t106 -53t121 -17q65 0 118.5 13.5
t91.5 31.5v-41q-38 -17 -92 -30t-118 -13q-72 0 -139 19.5t-119.5 61t-84 106t-31.5 153.5q0 78 27 146.5t76 119.5t117.5 80.5t152.5 29.5q73 0 133.5 -22.5t103.5 -62t66.5 -93t23.5 -116.5q0 -61 -16 -106.5t-42.5 -75.5t-61 -45t-71.5 -15q-35 0 -60 16.5t-30 45.5
q-17 -23 -46.5 -41t-62.5 -18q-32 0 -56 11.5t-40.5 31t-25 46t-8.5 57.5q0 40 13 78.5t36.5 68.5t57 48t74.5 18q37 0 61.5 -18t35.5 -39l9 49h44zM485 279q-11 29 -32.5 48t-52.5 19q-32 0 -57 -15t-43 -39t-27.5 -54.5t-9.5 -61.5q0 -49 24 -77.5t66 -28.5
q35 0 61.5 20.5t46.5 49.5z" />
    <glyph glyph-name="A" unicode="A" horiz-adv-x="579" 
d="M556 0h-51l-80 202h-272l-79 -202h-51l243 614h47zM407 248l-118 300l-118 -300h236z" />
    <glyph glyph-name="B" unicode="B" horiz-adv-x="523" 
d="M362 318q57 -10 90.5 -51.5t33.5 -97.5q0 -81 -53 -125t-147 -44h-207v614h188q95 0 145.5 -41t50.5 -118q0 -30 -8.5 -53t-22.5 -39.5t-32 -27.5t-38 -17zM267 338q71 0 108.5 28.5t37.5 86.5t-37.5 86.5t-108.5 28.5h-138v-230h138zM289 46q72 0 109 33.5t37 90.5
t-37 90.5t-109 33.5h-160v-248h160z" />
    <glyph glyph-name="C" unicode="C" horiz-adv-x="535" 
d="M39 307q0 73 21.5 131.5t59 99.5t88.5 63t109 22q56 0 96.5 -14t71.5 -39v-56q-38 33 -78.5 47t-88.5 14q-49 0 -90.5 -18.5t-72 -53t-47.5 -84.5t-17 -112t17 -112t47.5 -84.5t72 -53t90.5 -18.5q48 0 88.5 14.5t78.5 47.5v-57q-31 -25 -71.5 -39t-96.5 -14
q-58 0 -109 22t-88.5 63t-59 99.5t-21.5 131.5z" />
    <glyph glyph-name="D" unicode="D" horiz-adv-x="602" 
d="M266 47q57 0 102.5 18.5t77.5 52.5t49 82t17 107t-17 107t-49 82t-77.5 52.5t-102.5 18.5h-136v-520h136zM266 614q67 0 122 -21.5t94 -61.5t60.5 -97t21.5 -127t-21.5 -127t-60.5 -97t-94 -61.5t-122 -21.5h-187v614h187z" />
    <glyph glyph-name="E" unicode="E" horiz-adv-x="515" 
d="M460 567h-331v-227h300v-47h-300v-246h331v-47h-381v614h381v-47z" />
    <glyph glyph-name="F" unicode="F" horiz-adv-x="473" 
d="M79 614h356v-47h-305v-234h289v-46h-289v-287h-51v614z" />
    <glyph glyph-name="G" unicode="G" horiz-adv-x="587" 
d="M319 38q51 0 89.5 12.5t73.5 42.5v175h-155v43h202v-234q-21 -25 -46.5 -41.5t-52.5 -26.5t-55.5 -14t-56.5 -4q-60 0 -111 22t-88.5 63t-58.5 99.5t-21 131.5t21.5 131.5t60 99.5t90.5 63t113 22q54 0 100.5 -16t79.5 -43v-57q-39 36 -85 52t-95 16q-51 0 -94 -18.5
t-74 -53t-48 -84.5t-17 -112t17 -112t47 -85t72 -53.5t92 -18.5z" />
    <glyph glyph-name="H" unicode="H" horiz-adv-x="649" 
d="M570 0h-51v293h-389v-293h-51v614h51v-274h389v274h51v-614z" />
    <glyph glyph-name="I" unicode="I" horiz-adv-x="209" 
d="M79 0v614h51v-614h-51z" />
    <glyph glyph-name="J" unicode="J" horiz-adv-x="377" 
d="M27 83q29 -23 56.5 -33.5t59.5 -10.5q60 0 88 36.5t28 121.5v417h51v-419q0 -106 -43 -155t-124 -49q-38 0 -67.5 12t-48.5 26v54z" />
    <glyph glyph-name="K" unicode="K" horiz-adv-x="534" 
d="M440 614h67l-328 -295l336 -319h-67l-318 298v-298h-51v614h51v-280z" />
    <glyph glyph-name="L" unicode="L" horiz-adv-x="503" 
d="M130 614v-567h333v-47h-384v614h51z" />
    <glyph glyph-name="M" unicode="M" horiz-adv-x="724" 
d="M129 517v-517h-50v614h45l239 -390l240 390h42v-614h-50v517l-231 -376h-3z" />
    <glyph glyph-name="N" unicode="N" horiz-adv-x="616" 
d="M503 0l-375 533v-533h-49v614h49l360 -512v512h49v-614h-34z" />
    <glyph glyph-name="O" unicode="O" horiz-adv-x="620" 
d="M582 307q0 -71 -20.5 -129t-56.5 -99.5t-86 -64.5t-109 -23t-108.5 23t-85.5 64.5t-56.5 99.5t-20.5 129q0 70 20.5 128.5t56.5 100t85.5 64.5t108.5 23t109 -23t86 -64.5t56.5 -100t20.5 -128.5zM530 307q0 59 -16 108.5t-45 85t-69.5 55t-89.5 19.5t-89 -19.5t-69 -55
t-45 -85t-16 -108.5t16 -108.5t45 -85t69 -55t89 -19.5t89.5 19.5t69.5 55t45 85t16 108.5z" />
    <glyph glyph-name="P" unicode="P" horiz-adv-x="529" 
d="M130 0h-51v614h217q90 0 144.5 -44.5t54.5 -129.5q0 -86 -54.5 -130.5t-144.5 -44.5h-166v-265zM444 440q0 60 -39 94t-111 34h-164v-256h164q72 0 111 33.5t39 94.5z" />
    <glyph glyph-name="Q" unicode="Q" horiz-adv-x="620" 
d="M453 33q-62 -42 -143 -42q-59 0 -108.5 23t-85.5 64.5t-56.5 99.5t-20.5 129q0 70 20.5 128.5t56.5 100t85.5 64.5t108.5 23t109 -23t86 -64.5t56.5 -100t20.5 -128.5q0 -79 -25 -141.5t-69 -104.5l50 -65l-34 -28zM530 307q0 59 -16 108.5t-45 85t-69.5 55t-89.5 19.5
t-89 -19.5t-69 -55t-45 -85t-16 -108.5t16 -108.5t45 -85t69 -55t89 -19.5q64 0 114 32l-52 67l35 27l51 -66q35 35 53.5 87.5t18.5 120.5z" />
    <glyph glyph-name="R" unicode="R" horiz-adv-x="549" 
d="M130 0h-51v614h212q90 0 144 -44t54 -128q0 -75 -42.5 -117t-114.5 -52l186 -273h-59l-183 271h-146v-271zM289 316q71 0 110.5 33t39.5 93q0 61 -39.5 93.5t-110.5 32.5h-159v-252h159z" />
    <glyph glyph-name="S" unicode="S" horiz-adv-x="466" 
d="M39 111q45 -40 90.5 -56.5t99.5 -16.5q66 0 105 30.5t39 84.5q0 23 -6.5 40t-20 30.5t-34.5 25t-49 23.5l-90 38q-24 10 -48 23t-42.5 31t-30.5 43t-12 60q0 39 15 68t40.5 48.5t59.5 29.5t71 10q48 0 93 -13.5t79 -38.5v-57q-36 30 -77.5 46t-93.5 16q-29 0 -53.5 -7
t-43.5 -20.5t-29.5 -33.5t-10.5 -47q0 -45 29 -69t78 -43l95 -40q67 -29 99 -66t32 -96q0 -37 -14.5 -67t-40.5 -51.5t-61.5 -33t-77.5 -11.5q-62 0 -111 17.5t-79 43.5v59z" />
    <glyph glyph-name="T" unicode="T" horiz-adv-x="562" 
d="M531 614v-47h-225v-567h-51v567h-224v47h500z" />
    <glyph glyph-name="U" unicode="U" horiz-adv-x="605" 
d="M302 -9q-50 0 -92.5 15.5t-74.5 46.5t-50 78.5t-18 110.5v372h51v-365q0 -54 14 -93.5t38.5 -66t58 -39t73.5 -12.5t73.5 12.5t58.5 39t39 66t14 93.5v365h51v-372q0 -63 -18.5 -110.5t-50 -78.5t-75 -46.5t-92.5 -15.5z" />
    <glyph glyph-name="V" unicode="V" horiz-adv-x="577" 
d="M23 614h53l212 -544l214 544h52l-243 -614h-46z" />
    <glyph glyph-name="W" unicode="W" horiz-adv-x="759" 
d="M545 86l142 528h50l-167 -614h-46l-145 523l-144 -523h-45l-168 614h51l142 -528l144 528h42z" />
    <glyph glyph-name="X" unicode="X" horiz-adv-x="540" 
d="M517 0h-58l-190 271l-189 -271h-56l217 311l-211 303h58l182 -262l183 262h56l-210 -302z" />
    <glyph glyph-name="Y" unicode="Y" horiz-adv-x="535" 
d="M517 614l-224 -352v-262h-51v262l-223 352h56l194 -305l193 305h55z" />
    <glyph glyph-name="Z" unicode="Z" horiz-adv-x="517" 
d="M28 0v4l375 563h-359v47h442v-4l-374 -563h371v-47h-455z" />
    <glyph glyph-name="bracketleft" unicode="[" horiz-adv-x="311" 
d="M284 -39v-45h-205v734h205v-45h-158v-644h158z" />
    <glyph glyph-name="backslash" unicode="\" horiz-adv-x="306" 
d="M253 -84l-248 734h48l248 -734h-48z" />
    <glyph glyph-name="bracketright" unicode="]" horiz-adv-x="311" 
d="M27 605v45h205v-734h-205v45h158v644h-158z" />
    <glyph glyph-name="asciicircum" unicode="^" horiz-adv-x="321" 
d="M296 433h-53l-83 129l-82 -129h-53l114 181h43z" />
    <glyph glyph-name="underscore" unicode="_" horiz-adv-x="352" 
d="M332 -42v-46h-312v46h312z" />
    <glyph glyph-name="grave" unicode="`" 
d="M182 650h53l83 -130h-49z" />
    <glyph glyph-name="a" unicode="a" horiz-adv-x="435" 
d="M321 308q0 45 -29.5 72t-80.5 27q-38 0 -70 -10.5t-59 -28.5v48q23 15 57.5 26t76.5 11q71 0 112 -38t41 -104v-311h-48v42q-14 -17 -48 -33t-75 -16q-34 0 -63.5 9.5t-52 27t-35.5 43t-13 57.5q0 31 13 56t35.5 43t52.5 27.5t65 9.5q40 0 73 -15t48 -32v89zM321 158
q-11 29 -44 47.5t-74 18.5q-24 0 -45.5 -6t-38.5 -17.5t-27 -29t-10 -41.5t10 -41.5t27 -29.5t38.5 -18t45.5 -6q41 0 74 18.5t44 47.5v57z" />
    <glyph glyph-name="b" unicode="b" horiz-adv-x="492" 
d="M72 0v650h49v-272q19 29 55.5 52t82.5 23q49 0 85.5 -19t60.5 -50.5t36 -73.5t12 -88t-12 -88t-36 -73.5t-60.5 -50.5t-85.5 -19q-46 0 -82.5 23t-55.5 52v-66h-49zM121 125q23 -43 58 -65.5t76 -22.5q35 0 62.5 14t46.5 38.5t29 58.5t10 74t-10 74t-29 58.5t-46.5 38.5
t-62.5 14q-41 0 -76 -22.5t-58 -65.5v-194z" />
    <glyph glyph-name="c" unicode="c" horiz-adv-x="402" 
d="M39 222q0 52 15.5 95t43.5 73t65.5 46.5t82.5 16.5q32 0 63.5 -9.5t54.5 -29.5v-51q-26 24 -54.5 34.5t-61.5 10.5t-62 -12.5t-50.5 -36.5t-34 -58.5t-12.5 -78.5t12.5 -78.5t34 -58.5t50.5 -36.5t62 -12.5t61.5 10.5t54.5 34.5v-51q-23 -20 -54.5 -29.5t-63.5 -9.5
q-45 0 -82.5 16.5t-65.5 46.5t-43.5 72.5t-15.5 95.5z" />
    <glyph glyph-name="d" unicode="d" horiz-adv-x="492" 
d="M371 66q-19 -29 -55.5 -52t-82.5 -23q-49 0 -85.5 19t-60.5 50.5t-36 73.5t-12 88t12 88t36 73.5t60.5 50.5t85.5 19q46 0 82.5 -23t55.5 -52v272h49v-650h-49v66zM371 319q-23 43 -58 65.5t-76 22.5q-35 0 -62.5 -14t-46.5 -38.5t-29 -58.5t-10 -74t10 -74t29 -58.5
t46.5 -38.5t62.5 -14q41 0 76 22.5t58 65.5v194z" />
    <glyph glyph-name="e" unicode="e" horiz-adv-x="444" 
d="M88 218q0 -45 12.5 -79t34 -57.5t51 -35t64.5 -11.5q38 0 67 10t58 34v-49q-25 -20 -57.5 -29.5t-71.5 -9.5q-47 0 -85 16t-65 45.5t-42 71.5t-15 94q0 51 13.5 94.5t38.5 74.5t60.5 48.5t79.5 17.5q43 0 76 -16t55.5 -44.5t33.5 -68.5t11 -88v-18h-319zM231 409
q-55 0 -93.5 -39t-47.5 -111h269q-1 29 -9 56t-23.5 48t-39 33.5t-56.5 12.5z" />
    <glyph glyph-name="f" unicode="f" horiz-adv-x="258" 
d="M269 604q-20 11 -45 11q-35 0 -58 -24.5t-23 -71.5v-75h104v-43h-104v-401h-49v401h-72v43h72v80q0 61 35.5 98t89.5 37q27 0 50 -9v-46z" />
    <glyph glyph-name="g" unicode="g" horiz-adv-x="488" 
d="M367 74q-19 -28 -55 -50.5t-82 -22.5q-48 0 -84 18.5t-60 50t-35.5 72t-11.5 85.5t11.5 85.5t35.5 72t60 50t84 18.5q46 0 82 -22.5t55 -51.5v65h49v-412q0 -55 -17 -95t-45.5 -65.5t-65 -38t-76.5 -12.5q-42 0 -78 11.5t-61 30.5v57q33 -30 68 -42t71 -12q33 0 61 10
t49 30t33 50.5t12 72.5v45zM367 321q-22 42 -57 64t-75 22q-35 0 -62 -13.5t-45.5 -37.5t-28.5 -57t-10 -72q0 -40 10 -73t28.5 -57t45.5 -37.5t62 -13.5q40 0 75 22.5t57 63.5v189z" />
    <glyph glyph-name="h" unicode="h" horiz-adv-x="483" 
d="M121 650v-277q20 32 57 56t85 24q76 0 115 -44t39 -115v-294h-49v287q0 52 -27 86t-87 34q-46 0 -81 -28t-52 -68v-311h-50v650h50z" />
    <glyph glyph-name="i" unicode="i" horiz-adv-x="192" 
d="M71 0v444h50v-444h-50zM131 579q0 -14 -10 -24t-24 -10t-24 10t-10 24t10 24t24 10t24 -10t10 -24z" />
    <glyph glyph-name="j" unicode="j" horiz-adv-x="192" 
d="M121 -64q0 -57 -30 -86t-82 -29q-6 0 -12.5 0.5t-10.5 2.5v44q7 -3 20 -3q31 0 48 15.5t17 60.5v503h50v-508zM131 579q0 -14 -10 -24t-24 -10t-24 10t-10 24t10 24t24 10t24 -10t10 -24z" />
    <glyph glyph-name="k" unicode="k" horiz-adv-x="425" 
d="M352 0l-231 228v-228h-50v650h50v-400l224 194h65l-237 -203l241 -241h-62z" />
    <glyph glyph-name="l" unicode="l" horiz-adv-x="192" 
d="M71 0v650h50v-650h-50z" />
    <glyph glyph-name="m" unicode="m" horiz-adv-x="713" 
d="M373 368q19 33 54.5 59t83.5 26q68 0 101.5 -43t33.5 -110v-300h-49v293q0 51 -23 82.5t-72 31.5q-42 0 -73 -26.5t-45 -66.5v-314h-50v293q0 51 -23 82.5t-72 31.5q-42 0 -73 -26.5t-45 -66.5v-314h-50v444h50v-68q17 32 50 54.5t78 22.5q48 0 79 -23.5t45 -61.5z" />
    <glyph glyph-name="n" unicode="n" horiz-adv-x="483" 
d="M121 444v-71q20 32 57 56t85 24q76 0 115 -44t39 -115v-294h-49v287q0 52 -27 86t-87 34q-46 0 -81 -28t-52 -68v-311h-50v444h50z" />
    <glyph glyph-name="o" unicode="o" horiz-adv-x="471" 
d="M432 222q0 -51 -14 -93.5t-40 -73t-62.5 -47.5t-80.5 -17t-80 17t-62 47.5t-40 73t-14 93.5t14 93.5t40 73t62 47.5t80 17t80.5 -17t62.5 -47.5t40 -73t14 -93.5zM382 222q0 42 -10.5 76.5t-29.5 59t-46.5 38t-60.5 13.5t-60 -13.5t-46 -38t-29.5 -59t-10.5 -76.5
t10.5 -76.5t29.5 -59t46 -38t60 -13.5t60.5 13.5t46.5 38t29.5 59t10.5 76.5z" />
    <glyph glyph-name="p" unicode="p" horiz-adv-x="492" 
d="M71 -170v614h50v-66q19 29 55.5 52t82.5 23q49 0 85.5 -19t60.5 -51t36 -73.5t12 -87.5t-12 -87.5t-36 -73.5t-60.5 -51t-85.5 -19q-46 0 -82.5 23t-55.5 52v-236h-50zM121 125q23 -43 57.5 -65.5t75.5 -22.5q35 0 63 14t47 38.5t29 58.5t10 74t-10 74t-29 58.5t-47 38.5
t-63 14q-41 0 -75.5 -22.5t-57.5 -65.5v-194z" />
    <glyph glyph-name="q" unicode="q" horiz-adv-x="492" 
d="M371 66q-19 -29 -55.5 -52t-82.5 -23q-49 0 -85.5 19t-60.5 51t-36 73.5t-12 87.5t12 87.5t36 73.5t60.5 51t85.5 19q46 0 82.5 -23t55.5 -52v66h50v-614h-50v236zM371 319q-23 43 -57.5 65.5t-75.5 22.5q-35 0 -63 -14t-47 -38.5t-29 -58.5t-10 -74t10 -74t29 -58.5
t47 -38.5t63 -14q41 0 75.5 22.5t57.5 65.5v194z" />
    <glyph glyph-name="r" unicode="r" horiz-adv-x="301" 
d="M280 398q-19 8 -41 8q-41 0 -71.5 -26.5t-46.5 -69.5v-310h-50v444h50v-71q15 33 46.5 56.5t73.5 23.5q13 0 22 -2t17 -4v-49z" />
    <glyph glyph-name="s" unicode="s" horiz-adv-x="381" 
d="M41 89q29 -26 63.5 -40t78.5 -14q21 0 40 4.5t33.5 14t23.5 24.5t9 36q0 29 -18 47t-52 30l-74 27q-23 8 -41.5 18t-32.5 23.5t-21.5 32t-7.5 44.5q0 28 11.5 50t31.5 37t47 22.5t57 7.5q35 0 69 -10t61 -30v-54q-28 22 -58 36t-72 14q-40 0 -69 -18.5t-29 -53.5
q0 -32 20 -47t56 -29l77 -29q94 -32 94 -116q0 -30 -12.5 -53.5t-33.5 -39t-49.5 -24t-60.5 -8.5q-45 0 -82 13t-59 31v54z" />
    <glyph glyph-name="t" unicode="t" horiz-adv-x="292" 
d="M116 0v401h-95v43h95v114h50v-114h105v-43h-105v-401h-50z" />
    <glyph glyph-name="u" unicode="u" horiz-adv-x="481" 
d="M361 0v71q-20 -32 -56.5 -56t-84.5 -24q-76 0 -115 44t-39 115v294h49v-287q0 -52 27 -86t87 -34q46 0 80.5 28t51.5 68v311h49v-444h-49z" />
    <glyph glyph-name="v" unicode="v" horiz-adv-x="432" 
d="M18 444h53l146 -375l146 375h51l-176 -444h-43z" />
    <glyph glyph-name="w" unicode="w" horiz-adv-x="604" 
d="M538 444h48l-134 -444h-43l-107 367l-107 -367h-43l-134 444h49l109 -366l106 366h41l106 -366z" />
    <glyph glyph-name="x" unicode="x" horiz-adv-x="431" 
d="M407 0h-55l-137 190l-138 -190h-53l164 226l-157 218h55l130 -181l131 181h53l-157 -216z" />
    <glyph glyph-name="y" unicode="y" horiz-adv-x="432" 
d="M192 6l-174 438h53l146 -376l146 376h51l-244 -614h-50z" />
    <glyph glyph-name="z" unicode="z" horiz-adv-x="416" 
d="M35 0v4l265 397h-253v43h331v-4l-264 -397h263v-43h-342z" />
    <glyph glyph-name="braceleft" unicode="{" horiz-adv-x="334" 
d="M152 6q0 -45 42 -45h113v-45h-112q-40 0 -65.5 25.5t-25.5 67.5v206q0 45 -42 45h-42v46h42q42 0 42 45v206q0 42 25.5 67.5t65.5 25.5h112v-45h-113q-42 0 -42 -45v-207q0 -25 -11.5 -42t-28.5 -28q17 -11 28.5 -28.5t11.5 -41.5v-207z" />
    <glyph glyph-name="bar" unicode="|" horiz-adv-x="205" 
d="M126 650v-734h-47v734h47z" />
    <glyph glyph-name="braceright" unicode="}" horiz-adv-x="334" 
d="M182 213q0 24 11.5 41.5t28.5 28.5q-17 11 -28.5 28t-11.5 42v207q0 45 -42 45h-113v45h112q40 0 65.5 -25.5t25.5 -67.5v-206q0 -45 42 -45h42v-46h-42q-42 0 -42 -45v-206q0 -42 -25.5 -67.5t-65.5 -25.5h-112v45h113q42 0 42 45v207z" />
    <glyph glyph-name="asciitilde" unicode="~" horiz-adv-x="406" 
d="M366 329q0 -53 -23.5 -83.5t-65.5 -30.5q-24 0 -43 11t-35 24.5t-31.5 25t-32.5 11.5q-24 0 -37 -18.5t-13 -49.5h-45q0 52 23.5 82.5t66.5 30.5q24 0 42.5 -11t34.5 -24.5t31.5 -24.5t33.5 -11q24 0 36.5 18t12.5 50h45z" />
    <glyph glyph-name="uni00A0" unicode="&#xa0;" horiz-adv-x="221" 
 />
    <glyph glyph-name="exclamdown" unicode="&#xa1;" horiz-adv-x="209" 
d="M65 483q0 16 11 27t27 11q15 0 26 -11t11 -27q0 -17 -11 -28t-26 -11q-16 0 -27 11t-11 28zM121 326l10 -422h-56l10 422h36z" />
    <glyph glyph-name="cent" unicode="&#xa2;" horiz-adv-x="402" 
d="M216 3q-39 5 -71.5 23.5t-56 48t-36.5 69.5t-13 88t13 88t36.5 69.5t56 48t71.5 23.5v87h45v-86q29 -2 55.5 -11t47.5 -27v-51q-26 24 -54.5 34.5t-61.5 10.5t-62 -12.5t-50.5 -36.5t-34 -58.5t-12.5 -78.5t12.5 -78.5t34 -58.5t50.5 -36.5t62 -12.5t61.5 10.5t54.5 34.5
v-51q-21 -18 -47.5 -27.5t-55.5 -11.5v-85h-45v87z" />
    <glyph glyph-name="sterling" unicode="&#xa3;" horiz-adv-x="467" 
d="M121 323v86q0 98 49.5 156t143.5 58q32 0 61 -8t48 -21v-48q-21 14 -47.5 22.5t-61.5 8.5q-73 0 -109 -46t-36 -124v-84h169v-42h-169v-145q0 -26 -6.5 -51t-17.5 -40h293v-45h-407v45h65q11 17 18 37.5t7 53.5v145h-90v42h90z" />
    <glyph glyph-name="yen" unicode="&#xa5;" horiz-adv-x="516" 
d="M220 303l-191 311h56l174 -288l174 288h54l-191 -311h144v-41h-157v-77h157v-41h-157v-144h-50v144h-157v41h157v77h-157v41h144z" />
    <glyph glyph-name="section" unicode="&#xa7;" horiz-adv-x="448" 
d="M132 399q-24 -8 -40.5 -28t-16.5 -49t20 -47.5t49 -38.5l173 -118q24 8 40.5 27.5t16.5 48.5t-20.5 48t-48.5 39zM101 432q-11 15 -16.5 32t-5.5 40q0 28 11.5 50t31 37.5t46.5 23.5t57 8q36 0 70 -10t61 -30v-54q-28 22 -58.5 36t-72.5 14q-39 0 -68 -18.5t-29 -56.5
q0 -29 16.5 -48.5t48.5 -41.5l137 -93q39 -26 65 -54.5t26 -71.5q0 -38 -19.5 -67t-54.5 -43q11 -15 16.5 -32.5t5.5 -40.5q0 -28 -11.5 -50t-31 -37t-46.5 -23t-57 -8q-35 0 -69.5 10t-61.5 30v54q28 -23 58.5 -37t72.5 -14q40 0 68.5 19t28.5 56q0 30 -16.5 49.5
t-48.5 41.5l-137 93q-20 13 -36.5 26t-28.5 28t-19 32.5t-7 39.5q0 38 20 67t54 43z" />
    <glyph glyph-name="dieresis" unicode="&#xa8;" 
d="M155 571q0 14 9.5 23t23.5 9t23 -9t9 -23t-9 -23.5t-23 -9.5t-23.5 9.5t-9.5 23.5zM280 571q0 14 9 23t23 9t23.5 -9t9.5 -23t-9.5 -23.5t-23.5 -9.5t-23 9.5t-9 23.5z" />
    <glyph glyph-name="copyright" unicode="&#xa9;" horiz-adv-x="708" 
d="M670 307q0 -69 -25 -127t-68 -100t-100.5 -65.5t-122.5 -23.5t-122.5 23.5t-100 65.5t-67.5 100t-25 127t25 127t67.5 100t100 65.5t122.5 23.5t122.5 -23.5t100.5 -65.5t68 -100t25 -127zM638 307q0 62 -22.5 114t-61 90t-90.5 59t-110 21q-59 0 -110.5 -21t-90 -59
t-61 -90t-22.5 -114t22.5 -114t61 -90t90 -59t110.5 -21q58 0 110 21t90.5 59t61 90t22.5 114zM179 309q0 46 14 82.5t38 62.5t57 40t72 14q35 0 59.5 -8.5t44.5 -22.5v-51q-23 20 -47.5 28.5t-53.5 8.5q-59 0 -97 -41t-38 -113q0 -71 38 -112.5t97 -41.5q29 0 53.5 8.5
t47.5 28.5v-51q-20 -14 -44.5 -22.5t-59.5 -8.5q-39 0 -72 14t-57 40t-38 62.5t-14 82.5z" />
    <glyph glyph-name="ordfeminine" unicode="&#xaa;" horiz-adv-x="282" 
d="M203 521q0 28 -19 44.5t-53 16.5q-24 0 -45 -7t-39 -19v42q15 11 39.5 17.5t52.5 6.5q51 0 79.5 -25.5t28.5 -72.5v-203h-44v25q-9 -10 -30.5 -20t-48.5 -10q-45 0 -77 24.5t-32 67.5q0 42 32 67t79 25q25 0 46 -9.5t31 -19.5v50zM203 425q-6 17 -26.5 28t-44.5 11
q-29 0 -51.5 -13.5t-22.5 -41.5q0 -29 22.5 -43t51.5 -14q24 0 44.5 11t26.5 28v34z" />
    <glyph glyph-name="guillemotleft" unicode="&#xab;" horiz-adv-x="314" 
d="M25 222l92 136h49l-92 -136l92 -136h-49zM148 222l92 136h49l-92 -136l92 -136h-49z" />
    <glyph glyph-name="uni00AD" unicode="&#xad;" horiz-adv-x="321" 
d="M281 283v-46h-241v46h241z" />
    <glyph glyph-name="registered" unicode="&#xae;" horiz-adv-x="418" 
d="M390 440q0 -40 -14.5 -73.5t-39 -58t-57.5 -38t-70 -13.5t-70 13.5t-57.5 38t-39 58t-14.5 73.5t14.5 73.5t39 58t57.5 38t70 13.5t70 -13.5t57.5 -38t39 -58t14.5 -73.5zM362 440q0 34 -12 62.5t-33 49t-49 32t-59 11.5q-32 0 -59.5 -11.5t-48.5 -32t-33 -49t-12 -62.5
t12 -62.5t33 -49.5t48.5 -32.5t59.5 -11.5q31 0 59 11.5t49 32.5t33 49.5t12 62.5zM175 346h-33v192h78q30 0 48.5 -15.5t18.5 -43.5q0 -23 -13 -37.5t-33 -19.5l53 -76h-39l-50 74h-30v-74zM254 479q0 12 -8.5 20.5t-24.5 8.5h-46v-58h46q16 0 24.5 8.5t8.5 20.5z" />
    <glyph glyph-name="macron" unicode="&#xaf;" 
d="M350 578v-41h-201v41h201z" />
    <glyph glyph-name="degree" unicode="&#xb0;" horiz-adv-x="316" 
d="M85 508q0 -31 21.5 -52.5t51.5 -21.5q31 0 52.5 21.5t21.5 52.5q0 32 -21.5 53.5t-52.5 21.5q-30 0 -51.5 -21.5t-21.5 -53.5zM271 508q0 -24 -9 -44.5t-24 -36t-35.5 -24.5t-44.5 -9t-44.5 9t-35.5 24.5t-24 36t-9 44.5t9 45t24 36.5t35.5 24.5t44.5 9t44.5 -9
t35.5 -24.5t24 -36.5t9 -45z" />
    <glyph glyph-name="plusminus" unicode="&#xb1;" horiz-adv-x="516" 
d="M279 369h164v-42h-164v-126h-42v126h-164v42h164v126h42v-126zM443 147v-43h-370v43h370z" />
    <glyph glyph-name="twosuperior" unicode="&#xb2;" horiz-adv-x="263" 
d="M236 285h-215v2l103 126q25 31 42.5 55.5t17.5 54.5q0 26 -16 41.5t-46 15.5q-27 0 -51.5 -14.5t-41.5 -31.5v45q17 17 42.5 29t56.5 12q47 0 73 -25.5t26 -67.5q0 -35 -20 -65t-47 -64l-63 -74h139v-39z" />
    <glyph glyph-name="threesuperior" unicode="&#xb3;" horiz-adv-x="255" 
d="M227 615v-2l-85 -130q38 -5 63 -30.5t25 -66.5q0 -24 -9 -44t-24.5 -33.5t-36 -21t-43.5 -7.5q-32 0 -53 7.5t-38 19.5v46q38 -35 88 -35q32 0 53 17.5t21 49.5q0 37 -29.5 55.5t-72.5 15.5v2l78 117h-137v40h200z" />
    <glyph glyph-name="acute" unicode="&#xb4;" 
d="M265 650h53l-87 -130h-49z" />
    <glyph glyph-name="paragraph" unicode="&#xb6;" horiz-adv-x="446" 
d="M367 614v-704h-43v704h43zM213 339q-35 0 -70 8t-62.5 24.5t-45 43t-17.5 62.5t17.5 62t45 42.5t62.5 24.5t70 8h44v-704h-44v429z" />
    <glyph glyph-name="periodcentered" unicode="&#xb7;" horiz-adv-x="151" 
d="M38 261q0 17 11 28t26 11q16 0 27 -11t11 -28q0 -16 -11 -27t-27 -11q-15 0 -26 11t-11 27z" />
    <glyph glyph-name="cedilla" unicode="&#xb8;" 
d="M254 -48h48l-61 -127h-46z" />
    <glyph glyph-name="onesuperior" unicode="&#xb9;" horiz-adv-x="217" 
d="M115 285v279l-86 -44v45l102 50h28v-330h-44z" />
    <glyph glyph-name="ordmasculine" unicode="&#xba;" horiz-adv-x="304" 
d="M286 469q0 -69 -36.5 -111.5t-97.5 -42.5q-30 0 -55 11.5t-43 31.5t-27.5 48.5t-9.5 62.5q0 69 37 111t98 42t97.5 -42t36.5 -111zM241 469q0 51 -24 82.5t-65 31.5t-65 -31.5t-24 -82.5t24 -82.5t65 -31.5t65 31.5t24 82.5z" />
    <glyph glyph-name="guillemotright" unicode="&#xbb;" horiz-adv-x="314" 
d="M240 222l-92 136h49l92 -136l-92 -136h-49zM117 222l-92 136h49l92 -136l-92 -136h-49z" />
    <glyph glyph-name="onequarter" unicode="&#xbc;" horiz-adv-x="585" 
d="M479 112v76h40v-76h55v-37h-55v-75h-40v75h-158v3l117 252h43l-100 -218h98zM115 285v279l-86 -44v45l102 50h28v-330h-44zM64 0l417 614h45l-417 -614h-45z" />
    <glyph glyph-name="onehalf" unicode="&#xbd;" horiz-adv-x="608" 
d="M581 0h-215v2l103 126q25 31 42.5 55.5t17.5 54.5q0 26 -16 41.5t-46 15.5q-27 0 -51.5 -14.5t-41.5 -31.5v45q17 17 42.5 29t56.5 12q47 0 73 -25.5t26 -67.5q0 -35 -20 -65t-47 -64l-63 -74h139v-39zM115 285v279l-86 -44v45l102 50h28v-330h-44zM64 0l417 614h45
l-417 -614h-45z" />
    <glyph glyph-name="threequarters" unicode="&#xbe;" horiz-adv-x="604" 
d="M498 112v76h40v-76h55v-37h-55v-75h-40v75h-158v3l117 252h43l-100 -218h98zM227 615v-2l-85 -130q38 -5 63 -30.5t25 -66.5q0 -24 -9 -44t-24.5 -33.5t-36 -21t-43.5 -7.5q-32 0 -53 7.5t-38 19.5v46q38 -35 88 -35q32 0 53 17.5t21 49.5q0 37 -29.5 55.5t-72.5 15.5v2
l78 117h-137v40h200zM83 0l417 614h45l-417 -614h-45z" />
    <glyph glyph-name="questiondown" unicode="&#xbf;" horiz-adv-x="414" 
d="M179 214q-14 -16 -30 -32.5t-30 -35.5t-23 -40t-9 -45q0 -54 33 -86t96 -32q54 0 98.5 27.5t76.5 63.5v-56q-29 -33 -75.5 -58t-101.5 -25q-85 0 -131 45t-46 121q0 27 9.5 51.5t24.5 46t33.5 41.5t36.5 40q24 26 33 45t10 40h48q-1 -17 -4.5 -31t-10 -27t-16 -25.5
t-22.5 -27.5zM247 483q0 -17 -11 -28t-26 -11q-16 0 -27 11t-11 28q0 16 11 27t27 11q15 0 26 -11t11 -27z" />
    <glyph glyph-name="Agrave" unicode="&#xc0;" horiz-adv-x="579" 
d="M556 0h-51l-80 202h-272l-79 -202h-51l243 614h47zM407 248l-118 300l-118 -300h236zM176 782h55l83 -117h-51z" />
    <glyph glyph-name="Aacute" unicode="&#xc1;" horiz-adv-x="579" 
d="M556 0h-51l-80 202h-272l-79 -202h-51l243 614h47zM407 248l-118 300l-118 -300h236zM347 782h56l-88 -117h-50z" />
    <glyph glyph-name="Acircumflex" unicode="&#xc2;" horiz-adv-x="579" 
d="M556 0h-51l-80 202h-272l-79 -202h-51l243 614h47zM407 248l-118 300l-118 -300h236zM356 667l-67 84l-67 -84h-47l92 119h44l92 -119h-47z" />
    <glyph glyph-name="Atilde" unicode="&#xc3;" horiz-adv-x="579" 
d="M556 0h-51l-80 202h-272l-79 -202h-51l243 614h47zM407 248l-118 300l-118 -300h236zM415 769q0 -48 -17.5 -76t-51.5 -28q-19 0 -33.5 10t-27 22t-24 22t-25.5 10q-18 0 -27 -16.5t-9 -44.5h-36q0 47 17.5 75.5t51.5 28.5q19 0 33.5 -10t27 -22t24 -22t25.5 -10
q18 0 27 16.5t10 44.5h35z" />
    <glyph glyph-name="Adieresis" unicode="&#xc4;" horiz-adv-x="579" 
d="M556 0h-51l-80 202h-272l-79 -202h-51l243 614h47zM407 248l-118 300l-118 -300h236zM195 715q0 14 9.5 23.5t23.5 9.5t23 -9.5t9 -23.5t-9 -23.5t-23 -9.5t-23.5 9.5t-9.5 23.5zM320 715q0 14 9 23.5t23 9.5t23.5 -9.5t9.5 -23.5t-9.5 -23.5t-23.5 -9.5t-23 9.5t-9 23.5
z" />
    <glyph glyph-name="Aring" unicode="&#xc5;" horiz-adv-x="579" 
d="M556 0h-51l-80 202h-272l-79 -202h-51l243 614h47zM407 248l-118 300l-118 -300h236zM370 728q0 -34 -23.5 -57t-57.5 -23t-57.5 23t-23.5 57q0 35 23.5 58t57.5 23t57.5 -23t23.5 -58zM338 728q0 21 -14.5 35.5t-34.5 14.5t-34.5 -14.5t-14.5 -35.5q0 -20 14.5 -34.5
t34.5 -14.5t34.5 14.5t14.5 34.5z" />
    <glyph glyph-name="AE" unicode="&#xc6;" horiz-adv-x="858" 
d="M802 567h-318v-227h287v-47h-287v-246h318v-47h-368v202h-231l-126 -202h-54l382 614h397v-47zM434 248v321l-202 -321h202z" />
    <glyph glyph-name="Ccedilla" unicode="&#xc7;" horiz-adv-x="535" 
d="M39 307q0 73 21.5 131.5t59 99.5t88.5 63t109 22q56 0 96.5 -14t71.5 -39v-56q-38 33 -78.5 47t-88.5 14q-49 0 -90.5 -18.5t-72 -53t-47.5 -84.5t-17 -112t17 -112t47.5 -84.5t72 -53t90.5 -18.5q48 0 88.5 14.5t78.5 47.5v-57q-31 -25 -71.5 -39t-96.5 -14
q-58 0 -109 22t-88.5 63t-59 99.5t-21.5 131.5zM293 -48h48l-61 -127h-46z" />
    <glyph glyph-name="Egrave" unicode="&#xc8;" horiz-adv-x="515" 
d="M460 567h-331v-227h300v-47h-300v-246h331v-47h-381v614h381v-47zM164 782h55l83 -117h-51z" />
    <glyph glyph-name="Eacute" unicode="&#xc9;" horiz-adv-x="515" 
d="M460 567h-331v-227h300v-47h-300v-246h331v-47h-381v614h381v-47zM326 782h56l-88 -117h-50z" />
    <glyph glyph-name="Ecircumflex" unicode="&#xca;" horiz-adv-x="515" 
d="M460 567h-331v-227h300v-47h-300v-246h331v-47h-381v614h381v-47zM341 667l-67 84l-67 -84h-47l92 119h44l92 -119h-47z" />
    <glyph glyph-name="Edieresis" unicode="&#xcb;" horiz-adv-x="515" 
d="M460 567h-331v-227h300v-47h-300v-246h331v-47h-381v614h381v-47zM179 715q0 14 9.5 23.5t23.5 9.5t23 -9.5t9 -23.5t-9 -23.5t-23 -9.5t-23.5 9.5t-9.5 23.5zM304 715q0 14 9 23.5t23 9.5t23.5 -9.5t9.5 -23.5t-9.5 -23.5t-23.5 -9.5t-23 9.5t-9 23.5z" />
    <glyph glyph-name="Igrave" unicode="&#xcc;" horiz-adv-x="209" 
d="M79 0v614h51v-614h-51zM-6 782h55l83 -117h-51z" />
    <glyph glyph-name="Iacute" unicode="&#xcd;" horiz-adv-x="209" 
d="M79 0v614h51v-614h-51zM157 782h56l-88 -117h-50z" />
    <glyph glyph-name="Icircumflex" unicode="&#xce;" horiz-adv-x="209" 
d="M79 0v614h51v-614h-51zM172 667l-67 84l-67 -84h-47l92 119h44l92 -119h-47z" />
    <glyph glyph-name="Idieresis" unicode="&#xcf;" horiz-adv-x="209" 
d="M79 0v614h51v-614h-51zM10 715q0 14 9.5 23.5t23.5 9.5t23 -9.5t9 -23.5t-9 -23.5t-23 -9.5t-23.5 9.5t-9.5 23.5zM135 715q0 14 9 23.5t23 9.5t23.5 -9.5t9.5 -23.5t-9.5 -23.5t-23.5 -9.5t-23 9.5t-9 23.5z" />
    <glyph glyph-name="Eth" unicode="&#xd0;" horiz-adv-x="616" 
d="M92 340v274h187q67 0 122 -21.5t94 -61.5t60.5 -97t21.5 -127t-21.5 -127t-60.5 -97t-94 -61.5t-122 -21.5h-187v295h-58v45h58zM279 47q57 0 102.5 18.5t77.5 52.5t49 82t17 107t-17 107t-49 82t-77.5 52.5t-102.5 18.5h-136v-227h130v-45h-130v-248h136z" />
    <glyph glyph-name="Ntilde" unicode="&#xd1;" horiz-adv-x="616" 
d="M503 0l-375 533v-533h-49v614h49l360 -512v512h49v-614h-34zM433 769q0 -48 -17.5 -76t-51.5 -28q-19 0 -33.5 10t-27 22t-24 22t-25.5 10q-18 0 -27 -16.5t-9 -44.5h-36q0 47 17.5 75.5t51.5 28.5q19 0 33.5 -10t27 -22t24 -22t25.5 -10q18 0 27 16.5t10 44.5h35z" />
    <glyph glyph-name="Ograve" unicode="&#xd2;" horiz-adv-x="620" 
d="M582 307q0 -71 -20.5 -129t-56.5 -99.5t-86 -64.5t-109 -23t-108.5 23t-85.5 64.5t-56.5 99.5t-20.5 129q0 70 20.5 128.5t56.5 100t85.5 64.5t108.5 23t109 -23t86 -64.5t56.5 -100t20.5 -128.5zM530 307q0 59 -16 108.5t-45 85t-69.5 55t-89.5 19.5t-89 -19.5t-69 -55
t-45 -85t-16 -108.5t16 -108.5t45 -85t69 -55t89 -19.5t89.5 19.5t69.5 55t45 85t16 108.5zM199 782h55l83 -117h-51z" />
    <glyph glyph-name="Oacute" unicode="&#xd3;" horiz-adv-x="620" 
d="M582 307q0 -71 -20.5 -129t-56.5 -99.5t-86 -64.5t-109 -23t-108.5 23t-85.5 64.5t-56.5 99.5t-20.5 129q0 70 20.5 128.5t56.5 100t85.5 64.5t108.5 23t109 -23t86 -64.5t56.5 -100t20.5 -128.5zM530 307q0 59 -16 108.5t-45 85t-69.5 55t-89.5 19.5t-89 -19.5t-69 -55
t-45 -85t-16 -108.5t16 -108.5t45 -85t69 -55t89 -19.5t89.5 19.5t69.5 55t45 85t16 108.5zM362 782h56l-88 -117h-50z" />
    <glyph glyph-name="Ocircumflex" unicode="&#xd4;" horiz-adv-x="620" 
d="M582 307q0 -71 -20.5 -129t-56.5 -99.5t-86 -64.5t-109 -23t-108.5 23t-85.5 64.5t-56.5 99.5t-20.5 129q0 70 20.5 128.5t56.5 100t85.5 64.5t108.5 23t109 -23t86 -64.5t56.5 -100t20.5 -128.5zM530 307q0 59 -16 108.5t-45 85t-69.5 55t-89.5 19.5t-89 -19.5t-69 -55
t-45 -85t-16 -108.5t16 -108.5t45 -85t69 -55t89 -19.5t89.5 19.5t69.5 55t45 85t16 108.5zM377 667l-67 84l-67 -84h-47l92 119h44l92 -119h-47z" />
    <glyph glyph-name="Otilde" unicode="&#xd5;" horiz-adv-x="620" 
d="M582 307q0 -71 -20.5 -129t-56.5 -99.5t-86 -64.5t-109 -23t-108.5 23t-85.5 64.5t-56.5 99.5t-20.5 129q0 70 20.5 128.5t56.5 100t85.5 64.5t108.5 23t109 -23t86 -64.5t56.5 -100t20.5 -128.5zM530 307q0 59 -16 108.5t-45 85t-69.5 55t-89.5 19.5t-89 -19.5t-69 -55
t-45 -85t-16 -108.5t16 -108.5t45 -85t69 -55t89 -19.5t89.5 19.5t69.5 55t45 85t16 108.5zM436 769q0 -48 -17.5 -76t-51.5 -28q-19 0 -33.5 10t-27 22t-24 22t-25.5 10q-18 0 -27 -16.5t-9 -44.5h-36q0 47 17.5 75.5t51.5 28.5q19 0 33.5 -10t27 -22t24 -22t25.5 -10
q18 0 27 16.5t10 44.5h35z" />
    <glyph glyph-name="Odieresis" unicode="&#xd6;" horiz-adv-x="620" 
d="M582 307q0 -71 -20.5 -129t-56.5 -99.5t-86 -64.5t-109 -23t-108.5 23t-85.5 64.5t-56.5 99.5t-20.5 129q0 70 20.5 128.5t56.5 100t85.5 64.5t108.5 23t109 -23t86 -64.5t56.5 -100t20.5 -128.5zM530 307q0 59 -16 108.5t-45 85t-69.5 55t-89.5 19.5t-89 -19.5t-69 -55
t-45 -85t-16 -108.5t16 -108.5t45 -85t69 -55t89 -19.5t89.5 19.5t69.5 55t45 85t16 108.5zM215 715q0 14 9.5 23.5t23.5 9.5t23 -9.5t9 -23.5t-9 -23.5t-23 -9.5t-23.5 9.5t-9.5 23.5zM340 715q0 14 9 23.5t23 9.5t23.5 -9.5t9.5 -23.5t-9.5 -23.5t-23.5 -9.5t-23 9.5
t-9 23.5z" />
    <glyph glyph-name="multiply" unicode="&#xd7;" horiz-adv-x="442" 
d="M101 443l120 -122l120 122l30 -29l-120 -122l120 -122l-30 -29l-120 121l-120 -121l-30 29l122 122l-122 122z" />
    <glyph glyph-name="Oslash" unicode="&#xd8;" horiz-adv-x="630" 
d="M114 86q-33 42 -51.5 97.5t-18.5 123.5q0 70 20.5 128.5t56.5 100t85.5 64.5t108.5 23q52 0 97 -18t80 -51l52 64l32 -24l-57 -70q32 -42 50 -96.5t18 -120.5q0 -71 -20.5 -129t-56.5 -99.5t-86 -64.5t-109 -23q-51 0 -94.5 17t-78.5 49l-60 -74l-32 24zM96 307
q0 -55 13 -100.5t37 -80.5l315 390q-28 28 -64.5 43.5t-81.5 15.5q-49 0 -89 -19.5t-69 -55t-45 -85t-16 -108.5zM535 307q0 106 -48 177l-315 -389q28 -27 63.5 -41.5t79.5 -14.5q49 0 89.5 19.5t69.5 55t45 85t16 108.5z" />
    <glyph glyph-name="Ugrave" unicode="&#xd9;" horiz-adv-x="605" 
d="M302 -9q-50 0 -92.5 15.5t-74.5 46.5t-50 78.5t-18 110.5v372h51v-365q0 -54 14 -93.5t38.5 -66t58 -39t73.5 -12.5t73.5 12.5t58.5 39t39 66t14 93.5v365h51v-372q0 -63 -18.5 -110.5t-50 -78.5t-75 -46.5t-92.5 -15.5zM191 782h55l83 -117h-51z" />
    <glyph glyph-name="Uacute" unicode="&#xda;" horiz-adv-x="605" 
d="M302 -9q-50 0 -92.5 15.5t-74.5 46.5t-50 78.5t-18 110.5v372h51v-365q0 -54 14 -93.5t38.5 -66t58 -39t73.5 -12.5t73.5 12.5t58.5 39t39 66t14 93.5v365h51v-372q0 -63 -18.5 -110.5t-50 -78.5t-75 -46.5t-92.5 -15.5zM354 782h56l-88 -117h-50z" />
    <glyph glyph-name="Ucircumflex" unicode="&#xdb;" horiz-adv-x="605" 
d="M302 -9q-50 0 -92.5 15.5t-74.5 46.5t-50 78.5t-18 110.5v372h51v-365q0 -54 14 -93.5t38.5 -66t58 -39t73.5 -12.5t73.5 12.5t58.5 39t39 66t14 93.5v365h51v-372q0 -63 -18.5 -110.5t-50 -78.5t-75 -46.5t-92.5 -15.5zM370 667l-67 84l-67 -84h-47l92 119h44l92 -119
h-47z" />
    <glyph glyph-name="Udieresis" unicode="&#xdc;" horiz-adv-x="605" 
d="M302 -9q-50 0 -92.5 15.5t-74.5 46.5t-50 78.5t-18 110.5v372h51v-365q0 -54 14 -93.5t38.5 -66t58 -39t73.5 -12.5t73.5 12.5t58.5 39t39 66t14 93.5v365h51v-372q0 -63 -18.5 -110.5t-50 -78.5t-75 -46.5t-92.5 -15.5zM208 715q0 14 9.5 23.5t23.5 9.5t23 -9.5t9 -23.5
t-9 -23.5t-23 -9.5t-23.5 9.5t-9.5 23.5zM333 715q0 14 9 23.5t23 9.5t23.5 -9.5t9.5 -23.5t-9.5 -23.5t-23.5 -9.5t-23 9.5t-9 23.5z" />
    <glyph glyph-name="Yacute" unicode="&#xdd;" horiz-adv-x="535" 
d="M517 614l-224 -352v-262h-51v262l-223 352h56l194 -305l193 305h55zM319 782h56l-88 -117h-50z" />
    <glyph glyph-name="Thorn" unicode="&#xde;" horiz-adv-x="529" 
d="M130 0h-51v614h51v-125h171q91 0 142.5 -44t51.5 -130q0 -87 -51.5 -131t-142.5 -44h-171v-140zM444 315q0 61 -36.5 94.5t-108.5 33.5h-169v-256h169q72 0 108.5 33.5t36.5 94.5z" />
    <glyph glyph-name="germandbls" unicode="&#xdf;" horiz-adv-x="484" 
d="M71 524q0 61 35.5 98t89.5 37q27 0 50 -9v-46q-20 11 -45 11q-35 0 -58 -24.5t-23 -71.5v-75h334v-4l-158 -210q31 -13 59 -31.5t48.5 -42.5t32.5 -54t12 -66q0 -49 -18 -89t-52.5 -68t-85 -43t-114.5 -15v44q108 -1 164.5 44.5t56.5 126.5q0 65 -45.5 106t-118.5 67v4
l141 188h-256v-401h-49v524z" />
    <glyph glyph-name="agrave" unicode="&#xe0;" horiz-adv-x="435" 
d="M321 308q0 45 -29.5 72t-80.5 27q-38 0 -70 -10.5t-59 -28.5v48q23 15 57.5 26t76.5 11q71 0 112 -38t41 -104v-311h-48v42q-14 -17 -48 -33t-75 -16q-34 0 -63.5 9.5t-52 27t-35.5 43t-13 57.5q0 31 13 56t35.5 43t52.5 27.5t65 9.5q40 0 73 -15t48 -32v89zM321 158
q-11 29 -44 47.5t-74 18.5q-24 0 -45.5 -6t-38.5 -17.5t-27 -29t-10 -41.5t10 -41.5t27 -29.5t38.5 -18t45.5 -6q41 0 74 18.5t44 47.5v57zM114 650h53l83 -130h-49z" />
    <glyph glyph-name="aacute" unicode="&#xe1;" horiz-adv-x="435" 
d="M321 308q0 45 -29.5 72t-80.5 27q-38 0 -70 -10.5t-59 -28.5v48q23 15 57.5 26t76.5 11q71 0 112 -38t41 -104v-311h-48v42q-14 -17 -48 -33t-75 -16q-34 0 -63.5 9.5t-52 27t-35.5 43t-13 57.5q0 31 13 56t35.5 43t52.5 27.5t65 9.5q40 0 73 -15t48 -32v89zM321 158
q-11 29 -44 47.5t-74 18.5q-24 0 -45.5 -6t-38.5 -17.5t-27 -29t-10 -41.5t10 -41.5t27 -29.5t38.5 -18t45.5 -6q41 0 74 18.5t44 47.5v57zM276 650h53l-87 -130h-49z" />
    <glyph glyph-name="acircumflex" unicode="&#xe2;" horiz-adv-x="435" 
d="M321 308q0 45 -29.5 72t-80.5 27q-38 0 -70 -10.5t-59 -28.5v48q23 15 57.5 26t76.5 11q71 0 112 -38t41 -104v-311h-48v42q-14 -17 -48 -33t-75 -16q-34 0 -63.5 9.5t-52 27t-35.5 43t-13 57.5q0 31 13 56t35.5 43t52.5 27.5t65 9.5q40 0 73 -15t48 -32v89zM321 158
q-11 29 -44 47.5t-74 18.5q-24 0 -45.5 -6t-38.5 -17.5t-27 -29t-10 -41.5t10 -41.5t27 -29.5t38.5 -18t45.5 -6q41 0 74 18.5t44 47.5v57zM291 513l-68 97l-68 -97h-46l92 131h44l92 -131h-46z" />
    <glyph glyph-name="atilde" unicode="&#xe3;" horiz-adv-x="435" 
d="M321 308q0 45 -29.5 72t-80.5 27q-38 0 -70 -10.5t-59 -28.5v48q23 15 57.5 26t76.5 11q71 0 112 -38t41 -104v-311h-48v42q-14 -17 -48 -33t-75 -16q-34 0 -63.5 9.5t-52 27t-35.5 43t-13 57.5q0 31 13 56t35.5 43t52.5 27.5t65 9.5q40 0 73 -15t48 -32v89zM321 158
q-11 29 -44 47.5t-74 18.5q-24 0 -45.5 -6t-38.5 -17.5t-27 -29t-10 -41.5t10 -41.5t27 -29.5t38.5 -18t45.5 -6q41 0 74 18.5t44 47.5v57zM347 625q0 -48 -17 -76.5t-51 -28.5q-19 0 -33 10t-26.5 22.5t-24 22.5t-24.5 10q-17 0 -26.5 -16.5t-9.5 -45.5h-35q0 48 17 76.5
t51 28.5q19 0 33.5 -10t26.5 -22.5t23.5 -22.5t24.5 -10q17 0 26.5 17t9.5 45h35z" />
    <glyph glyph-name="adieresis" unicode="&#xe4;" horiz-adv-x="435" 
d="M321 308q0 45 -29.5 72t-80.5 27q-38 0 -70 -10.5t-59 -28.5v48q23 15 57.5 26t76.5 11q71 0 112 -38t41 -104v-311h-48v42q-14 -17 -48 -33t-75 -16q-34 0 -63.5 9.5t-52 27t-35.5 43t-13 57.5q0 31 13 56t35.5 43t52.5 27.5t65 9.5q40 0 73 -15t48 -32v89zM321 158
q-11 29 -44 47.5t-74 18.5q-24 0 -45.5 -6t-38.5 -17.5t-27 -29t-10 -41.5t10 -41.5t27 -29.5t38.5 -18t45.5 -6q41 0 74 18.5t44 47.5v57zM128 571q0 14 9.5 23t23.5 9t23 -9t9 -23t-9 -23.5t-23 -9.5t-23.5 9.5t-9.5 23.5zM253 571q0 14 9 23t23 9t23.5 -9t9.5 -23
t-9.5 -23.5t-23.5 -9.5t-23 9.5t-9 23.5z" />
    <glyph glyph-name="aring" unicode="&#xe5;" horiz-adv-x="435" 
d="M321 308q0 45 -29.5 72t-80.5 27q-38 0 -70 -10.5t-59 -28.5v48q23 15 57.5 26t76.5 11q71 0 112 -38t41 -104v-311h-48v42q-14 -17 -48 -33t-75 -16q-34 0 -63.5 9.5t-52 27t-35.5 43t-13 57.5q0 31 13 56t35.5 43t52.5 27.5t65 9.5q40 0 73 -15t48 -32v89zM321 158
q-11 29 -44 47.5t-74 18.5q-24 0 -45.5 -6t-38.5 -17.5t-27 -29t-10 -41.5t10 -41.5t27 -29.5t38.5 -18t45.5 -6q41 0 74 18.5t44 47.5v57zM304 580q0 -34 -23.5 -57.5t-57.5 -23.5t-57.5 23.5t-23.5 57.5t23.5 57.5t57.5 23.5t57.5 -23.5t23.5 -57.5zM272 580
q0 21 -14.5 35t-34.5 14t-34.5 -14t-14.5 -35t14.5 -35t34.5 -14t34.5 14t14.5 35z" />
    <glyph glyph-name="ae" unicode="&#xe6;" horiz-adv-x="723" 
d="M524 -9q-62 0 -106.5 28t-68.5 78q-11 -20 -26 -38.5t-35 -33t-45.5 -23.5t-56.5 -9q-33 0 -60.5 9t-48 26.5t-32 41.5t-11.5 54q0 31 13 56t36 42t53 26.5t65 9.5h121v38q0 52 -30 81.5t-81 29.5q-38 0 -70 -10.5t-59 -28.5v48q23 15 57.5 26t76.5 11q57 0 93 -28.5
t47 -70.5q23 45 61 72t92 27q44 0 77 -16t55.5 -44.5t33.5 -69t11 -88.5v-18h-319q2 -93 47.5 -137.5t113.5 -44.5q38 0 67.5 10t58.5 34v-49q-26 -20 -58.5 -29.5t-71.5 -9.5zM188 35q53 0 86.5 30.5t47.5 72.5v79h-119q-24 0 -45.5 -5.5t-38.5 -17t-27 -28.5t-10 -40
q0 -46 31 -68.5t75 -22.5zM509 409q-56 0 -94 -40t-46 -111h268q-1 29 -8.5 56.5t-23 48.5t-39.5 33.5t-57 12.5z" />
    <glyph glyph-name="ccedilla" unicode="&#xe7;" horiz-adv-x="402" 
d="M39 222q0 52 15.5 95t43.5 73t65.5 46.5t82.5 16.5q32 0 63.5 -9.5t54.5 -29.5v-51q-26 24 -54.5 34.5t-61.5 10.5t-62 -12.5t-50.5 -36.5t-34 -58.5t-12.5 -78.5t12.5 -78.5t34 -58.5t50.5 -36.5t62 -12.5t61.5 10.5t54.5 34.5v-51q-23 -20 -54.5 -29.5t-63.5 -9.5
q-45 0 -82.5 16.5t-65.5 46.5t-43.5 72.5t-15.5 95.5zM223 -48h48l-61 -127h-46z" />
    <glyph glyph-name="egrave" unicode="&#xe8;" horiz-adv-x="444" 
d="M88 218q0 -45 12.5 -79t34 -57.5t51 -35t64.5 -11.5q38 0 67 10t58 34v-49q-25 -20 -57.5 -29.5t-71.5 -9.5q-47 0 -85 16t-65 45.5t-42 71.5t-15 94q0 51 13.5 94.5t38.5 74.5t60.5 48.5t79.5 17.5q43 0 76 -16t55.5 -44.5t33.5 -68.5t11 -88v-18h-319zM231 409
q-55 0 -93.5 -39t-47.5 -111h269q-1 29 -9 56t-23.5 48t-39 33.5t-56.5 12.5zM126 650h53l83 -130h-49z" />
    <glyph glyph-name="eacute" unicode="&#xe9;" horiz-adv-x="444" 
d="M88 218q0 -45 12.5 -79t34 -57.5t51 -35t64.5 -11.5q38 0 67 10t58 34v-49q-25 -20 -57.5 -29.5t-71.5 -9.5q-47 0 -85 16t-65 45.5t-42 71.5t-15 94q0 51 13.5 94.5t38.5 74.5t60.5 48.5t79.5 17.5q43 0 76 -16t55.5 -44.5t33.5 -68.5t11 -88v-18h-319zM231 409
q-55 0 -93.5 -39t-47.5 -111h269q-1 29 -9 56t-23.5 48t-39 33.5t-56.5 12.5zM288 650h53l-87 -130h-49z" />
    <glyph glyph-name="ecircumflex" unicode="&#xea;" horiz-adv-x="444" 
d="M88 218q0 -45 12.5 -79t34 -57.5t51 -35t64.5 -11.5q38 0 67 10t58 34v-49q-25 -20 -57.5 -29.5t-71.5 -9.5q-47 0 -85 16t-65 45.5t-42 71.5t-15 94q0 51 13.5 94.5t38.5 74.5t60.5 48.5t79.5 17.5q43 0 76 -16t55.5 -44.5t33.5 -68.5t11 -88v-18h-319zM231 409
q-55 0 -93.5 -39t-47.5 -111h269q-1 29 -9 56t-23.5 48t-39 33.5t-56.5 12.5zM303 513l-68 97l-68 -97h-46l92 131h44l92 -131h-46z" />
    <glyph glyph-name="edieresis" unicode="&#xeb;" horiz-adv-x="444" 
d="M88 218q0 -45 12.5 -79t34 -57.5t51 -35t64.5 -11.5q38 0 67 10t58 34v-49q-25 -20 -57.5 -29.5t-71.5 -9.5q-47 0 -85 16t-65 45.5t-42 71.5t-15 94q0 51 13.5 94.5t38.5 74.5t60.5 48.5t79.5 17.5q43 0 76 -16t55.5 -44.5t33.5 -68.5t11 -88v-18h-319zM231 409
q-55 0 -93.5 -39t-47.5 -111h269q-1 29 -9 56t-23.5 48t-39 33.5t-56.5 12.5zM140 571q0 14 9.5 23t23.5 9t23 -9t9 -23t-9 -23.5t-23 -9.5t-23.5 9.5t-9.5 23.5zM265 571q0 14 9 23t23 9t23.5 -9t9.5 -23t-9.5 -23.5t-23.5 -9.5t-23 9.5t-9 23.5z" />
    <glyph glyph-name="igrave" unicode="&#xec;" horiz-adv-x="192" 
d="M71 0v444h50v-444h-50zM-12 650h53l83 -130h-49z" />
    <glyph glyph-name="iacute" unicode="&#xed;" horiz-adv-x="192" 
d="M71 0v444h50v-444h-50zM151 650h53l-87 -130h-49z" />
    <glyph glyph-name="icircumflex" unicode="&#xee;" horiz-adv-x="192" 
d="M146 513l-50 94l-50 -94h-44l72 131h44l72 -131h-44zM71 0v444h50v-444h-50z" />
    <glyph glyph-name="idieresis" unicode="&#xef;" horiz-adv-x="192" 
d="M10 571q0 14 9.5 23t23.5 9t23.5 -9t9.5 -23t-9.5 -23.5t-23.5 -9.5t-23.5 9.5t-9.5 23.5zM117 571q0 14 9 23t23 9t23.5 -9t9.5 -23t-9.5 -23.5t-23.5 -9.5t-23 9.5t-9 23.5zM71 0v444h50v-444h-50z" />
    <glyph glyph-name="eth" unicode="&#xf0;" horiz-adv-x="471" 
d="M223 567q-22 20 -46.5 40t-51.5 39v4h63q45 -31 82 -68l81 27l12 -33l-65 -22q61 -68 97.5 -152t36.5 -178q0 -52 -14 -95t-40 -73.5t-62.5 -47.5t-80.5 -17t-80 17t-62 47t-40 72.5t-14 93.5t14 93.5t39.5 73t61 47t78.5 16.5q40 0 69.5 -16t50.5 -42h2q-14 31 -39 69
t-63 77l-114 -38l-13 34zM382 221q0 42 -10.5 76.5t-29.5 58.5t-46.5 37.5t-60.5 13.5t-60 -13.5t-46 -37.5t-29.5 -58.5t-10.5 -76.5t10.5 -76t29.5 -58.5t46 -38t60 -13.5t60.5 13.5t46.5 38t29.5 58.5t10.5 76z" />
    <glyph glyph-name="ntilde" unicode="&#xf1;" horiz-adv-x="483" 
d="M121 444v-71q20 32 57 56t85 24q76 0 115 -44t39 -115v-294h-49v287q0 52 -27 86t-87 34q-46 0 -81 -28t-52 -68v-311h-50v444h50zM369 625q0 -48 -17 -76.5t-51 -28.5q-19 0 -33 10t-26.5 22.5t-24 22.5t-24.5 10q-17 0 -26.5 -16.5t-9.5 -45.5h-35q0 48 17 76.5
t51 28.5q19 0 33.5 -10t26.5 -22.5t23.5 -22.5t24.5 -10q17 0 26.5 17t9.5 45h35z" />
    <glyph glyph-name="ograve" unicode="&#xf2;" horiz-adv-x="471" 
d="M432 222q0 -51 -14 -93.5t-40 -73t-62.5 -47.5t-80.5 -17t-80 17t-62 47.5t-40 73t-14 93.5t14 93.5t40 73t62 47.5t80 17t80.5 -17t62.5 -47.5t40 -73t14 -93.5zM382 222q0 42 -10.5 76.5t-29.5 59t-46.5 38t-60.5 13.5t-60 -13.5t-46 -38t-29.5 -59t-10.5 -76.5
t10.5 -76.5t29.5 -59t46 -38t60 -13.5t60.5 13.5t46.5 38t29.5 59t10.5 76.5zM127 650h53l83 -130h-49z" />
    <glyph glyph-name="oacute" unicode="&#xf3;" horiz-adv-x="471" 
d="M432 222q0 -51 -14 -93.5t-40 -73t-62.5 -47.5t-80.5 -17t-80 17t-62 47.5t-40 73t-14 93.5t14 93.5t40 73t62 47.5t80 17t80.5 -17t62.5 -47.5t40 -73t14 -93.5zM382 222q0 42 -10.5 76.5t-29.5 59t-46.5 38t-60.5 13.5t-60 -13.5t-46 -38t-29.5 -59t-10.5 -76.5
t10.5 -76.5t29.5 -59t46 -38t60 -13.5t60.5 13.5t46.5 38t29.5 59t10.5 76.5zM289 650h53l-87 -130h-49z" />
    <glyph glyph-name="ocircumflex" unicode="&#xf4;" horiz-adv-x="471" 
d="M432 222q0 -51 -14 -93.5t-40 -73t-62.5 -47.5t-80.5 -17t-80 17t-62 47.5t-40 73t-14 93.5t14 93.5t40 73t62 47.5t80 17t80.5 -17t62.5 -47.5t40 -73t14 -93.5zM382 222q0 42 -10.5 76.5t-29.5 59t-46.5 38t-60.5 13.5t-60 -13.5t-46 -38t-29.5 -59t-10.5 -76.5
t10.5 -76.5t29.5 -59t46 -38t60 -13.5t60.5 13.5t46.5 38t29.5 59t10.5 76.5zM304 513l-68 97l-68 -97h-46l92 131h44l92 -131h-46z" />
    <glyph glyph-name="otilde" unicode="&#xf5;" horiz-adv-x="471" 
d="M432 222q0 -51 -14 -93.5t-40 -73t-62.5 -47.5t-80.5 -17t-80 17t-62 47.5t-40 73t-14 93.5t14 93.5t40 73t62 47.5t80 17t80.5 -17t62.5 -47.5t40 -73t14 -93.5zM382 222q0 42 -10.5 76.5t-29.5 59t-46.5 38t-60.5 13.5t-60 -13.5t-46 -38t-29.5 -59t-10.5 -76.5
t10.5 -76.5t29.5 -59t46 -38t60 -13.5t60.5 13.5t46.5 38t29.5 59t10.5 76.5zM360 625q0 -48 -17 -76.5t-51 -28.5q-19 0 -33 10t-26.5 22.5t-24 22.5t-24.5 10q-17 0 -26.5 -16.5t-9.5 -45.5h-35q0 48 17 76.5t51 28.5q19 0 33.5 -10t26.5 -22.5t23.5 -22.5t24.5 -10
q17 0 26.5 17t9.5 45h35z" />
    <glyph glyph-name="odieresis" unicode="&#xf6;" horiz-adv-x="471" 
d="M432 222q0 -51 -14 -93.5t-40 -73t-62.5 -47.5t-80.5 -17t-80 17t-62 47.5t-40 73t-14 93.5t14 93.5t40 73t62 47.5t80 17t80.5 -17t62.5 -47.5t40 -73t14 -93.5zM382 222q0 42 -10.5 76.5t-29.5 59t-46.5 38t-60.5 13.5t-60 -13.5t-46 -38t-29.5 -59t-10.5 -76.5
t10.5 -76.5t29.5 -59t46 -38t60 -13.5t60.5 13.5t46.5 38t29.5 59t10.5 76.5zM142 571q0 14 9.5 23t23.5 9t23 -9t9 -23t-9 -23.5t-23 -9.5t-23.5 9.5t-9.5 23.5zM267 571q0 14 9 23t23 9t23.5 -9t9.5 -23t-9.5 -23.5t-23.5 -9.5t-23 9.5t-9 23.5z" />
    <glyph glyph-name="divide" unicode="&#xf7;" horiz-adv-x="514" 
d="M443 316v-43h-372v43h372zM220 447q0 16 11 27t26 11q14 0 25 -11t11 -27q0 -15 -11 -25.5t-25 -10.5q-15 0 -26 10.5t-11 25.5zM220 142q0 15 11 26t26 11q14 0 25 -11t11 -26q0 -16 -11 -26.5t-25 -10.5q-15 0 -26 10.5t-11 26.5z" />
    <glyph glyph-name="oslash" unicode="&#xf8;" horiz-adv-x="481" 
d="M93 61q-49 61 -49 161q0 51 14 93.5t40 73t62 47.5t80 17q72 0 123 -45l42 54l29 -21l-46 -59q23 -30 36 -70.5t13 -89.5q0 -51 -14 -93.5t-40 -73t-62.5 -47.5t-80.5 -17q-37 0 -67.5 11.5t-55.5 32.5l-44 -57l-29 21zM93 222q0 -76 30 -122l212 272q-39 37 -95 37
q-33 0 -60 -13.5t-46.5 -38t-30 -59t-10.5 -76.5zM388 222q0 36 -8 67t-22 54l-212 -271q37 -37 94 -37q33 0 60.5 13.5t47 38t30 59t10.5 76.5z" />
    <glyph glyph-name="ugrave" unicode="&#xf9;" horiz-adv-x="481" 
d="M361 0v71q-20 -32 -56.5 -56t-84.5 -24q-76 0 -115 44t-39 115v294h49v-287q0 -52 27 -86t87 -34q46 0 80.5 28t51.5 68v311h49v-444h-49zM131 650h53l83 -130h-49z" />
    <glyph glyph-name="uacute" unicode="&#xfa;" horiz-adv-x="481" 
d="M361 0v71q-20 -32 -56.5 -56t-84.5 -24q-76 0 -115 44t-39 115v294h49v-287q0 -52 27 -86t87 -34q46 0 80.5 28t51.5 68v311h49v-444h-49zM293 650h53l-87 -130h-49z" />
    <glyph glyph-name="ucircumflex" unicode="&#xfb;" horiz-adv-x="481" 
d="M361 0v71q-20 -32 -56.5 -56t-84.5 -24q-76 0 -115 44t-39 115v294h49v-287q0 -52 27 -86t87 -34q46 0 80.5 28t51.5 68v311h49v-444h-49zM308 513l-68 97l-68 -97h-46l92 131h44l92 -131h-46z" />
    <glyph glyph-name="udieresis" unicode="&#xfc;" horiz-adv-x="481" 
d="M361 0v71q-20 -32 -56.5 -56t-84.5 -24q-76 0 -115 44t-39 115v294h49v-287q0 -52 27 -86t87 -34q46 0 80.5 28t51.5 68v311h49v-444h-49zM145 571q0 14 9.5 23t23.5 9t23 -9t9 -23t-9 -23.5t-23 -9.5t-23.5 9.5t-9.5 23.5zM270 571q0 14 9 23t23 9t23.5 -9t9.5 -23
t-9.5 -23.5t-23.5 -9.5t-23 9.5t-9 23.5z" />
    <glyph glyph-name="yacute" unicode="&#xfd;" horiz-adv-x="432" 
d="M192 6l-174 438h53l146 -376l146 376h51l-244 -614h-50zM270 650h53l-87 -130h-49z" />
    <glyph glyph-name="thorn" unicode="&#xfe;" horiz-adv-x="492" 
d="M71 -170v820h50v-272q19 29 55.5 52t82.5 23q49 0 85.5 -19t60.5 -51t36 -73.5t12 -87.5t-12 -87.5t-36 -73.5t-60.5 -51t-85.5 -19q-46 0 -82.5 23t-55.5 52v-236h-50zM121 125q23 -43 57.5 -65.5t75.5 -22.5q35 0 63 14t47 38.5t29 58.5t10 74t-10 74t-29 58.5
t-47 38.5t-63 14q-41 0 -75.5 -22.5t-57.5 -65.5v-194z" />
    <glyph glyph-name="ydieresis" unicode="&#xff;" horiz-adv-x="432" 
d="M192 6l-174 438h53l146 -376l146 376h51l-244 -614h-50zM123 571q0 14 9.5 23t23.5 9t23 -9t9 -23t-9 -23.5t-23 -9.5t-23.5 9.5t-9.5 23.5zM248 571q0 14 9 23t23 9t23.5 -9t9.5 -23t-9.5 -23.5t-23.5 -9.5t-23 9.5t-9 23.5z" />
    <glyph glyph-name="Amacron" unicode="&#x100;" horiz-adv-x="579" 
d="M556 0h-51l-80 202h-272l-79 -202h-51l243 614h47zM407 248l-118 300l-118 -300h236zM390 712v-42h-201v42h201z" />
    <glyph glyph-name="amacron" unicode="&#x101;" horiz-adv-x="435" 
d="M321 308q0 45 -29.5 72t-80.5 27q-38 0 -70 -10.5t-59 -28.5v48q23 15 57.5 26t76.5 11q71 0 112 -38t41 -104v-311h-48v42q-14 -17 -48 -33t-75 -16q-34 0 -63.5 9.5t-52 27t-35.5 43t-13 57.5q0 31 13 56t35.5 43t52.5 27.5t65 9.5q40 0 73 -15t48 -32v89zM321 158
q-11 29 -44 47.5t-74 18.5q-24 0 -45.5 -6t-38.5 -17.5t-27 -29t-10 -41.5t10 -41.5t27 -29.5t38.5 -18t45.5 -6q41 0 74 18.5t44 47.5v57zM324 578v-41h-201v41h201z" />
    <glyph glyph-name="Abreve" unicode="&#x102;" horiz-adv-x="579" 
d="M556 0h-51l-80 202h-272l-79 -202h-51l243 614h47zM407 248l-118 300l-118 -300h236zM290 664q-45 0 -74 30t-29 87h40q0 -38 17.5 -58.5t45.5 -20.5q27 0 45 20.5t18 58.5h39q0 -57 -28.5 -87t-73.5 -30z" />
    <glyph glyph-name="abreve" unicode="&#x103;" horiz-adv-x="435" 
d="M321 308q0 45 -29.5 72t-80.5 27q-38 0 -70 -10.5t-59 -28.5v48q23 15 57.5 26t76.5 11q71 0 112 -38t41 -104v-311h-48v42q-14 -17 -48 -33t-75 -16q-34 0 -63.5 9.5t-52 27t-35.5 43t-13 57.5q0 31 13 56t35.5 43t52.5 27.5t65 9.5q40 0 73 -15t48 -32v89zM321 158
q-11 29 -44 47.5t-74 18.5q-24 0 -45.5 -6t-38.5 -17.5t-27 -29t-10 -41.5t10 -41.5t27 -29.5t38.5 -18t45.5 -6q41 0 74 18.5t44 47.5v57zM223 506q-45 0 -73.5 30.5t-28.5 89.5h40q0 -39 17 -61t45 -22t45 22t17 61h40q0 -59 -28.5 -89.5t-73.5 -30.5z" />
    <glyph glyph-name="Aogonek" unicode="&#x104;" horiz-adv-x="579" 
d="M556 0q-16 -27 -25.5 -45t-15 -31t-7.5 -22t-2 -19q0 -28 25 -28q11 0 19 3.5t18 10.5v-36q-10 -7 -20.5 -11t-24.5 -4q-26 0 -41.5 15t-15.5 45q0 12 3 24t9 26t15.5 31.5t23.5 40.5h-12l-80 202h-272l-79 -202h-51l243 614h47zM407 248l-118 300l-118 -300h236z" />
    <glyph glyph-name="aogonek" unicode="&#x105;" horiz-adv-x="435" 
d="M321 158q-11 29 -44 47.5t-74 18.5q-24 0 -45.5 -6t-38.5 -17.5t-27 -29t-10 -41.5t10 -41.5t27 -29.5t38.5 -18t45.5 -6q41 0 74 18.5t44 47.5v57zM321 42q-14 -17 -48 -33t-75 -16q-34 0 -63.5 9.5t-52 27t-35.5 43t-13 57.5q0 31 13 56t35.5 43t52.5 27.5t65 9.5
q40 0 73 -15t48 -32v89q0 45 -29.5 72t-80.5 27q-38 0 -70 -10.5t-59 -28.5v48q23 15 57.5 26t76.5 11q71 0 112 -38t41 -104v-311q-15 -26 -25 -44t-15.5 -31t-7.5 -22.5t-2 -19.5q0 -14 7 -21t18 -7t19 3.5t18 10.5v-36q-10 -7 -20.5 -11t-23.5 -4q-26 0 -42 15t-16 45
q0 24 12 51t38 71h-8v42z" />
    <glyph glyph-name="Cacute" unicode="&#x106;" horiz-adv-x="535" 
d="M39 307q0 73 21.5 131.5t59 99.5t88.5 63t109 22q56 0 96.5 -14t71.5 -39v-56q-38 33 -78.5 47t-88.5 14q-49 0 -90.5 -18.5t-72 -53t-47.5 -84.5t-17 -112t17 -112t47.5 -84.5t72 -53t90.5 -18.5q48 0 88.5 14.5t78.5 47.5v-57q-31 -25 -71.5 -39t-96.5 -14
q-58 0 -109 22t-88.5 63t-59 99.5t-21.5 131.5zM373 782h56l-88 -117h-50z" />
    <glyph glyph-name="cacute" unicode="&#x107;" horiz-adv-x="402" 
d="M39 222q0 52 15.5 95t43.5 73t65.5 46.5t82.5 16.5q32 0 63.5 -9.5t54.5 -29.5v-51q-26 24 -54.5 34.5t-61.5 10.5t-62 -12.5t-50.5 -36.5t-34 -58.5t-12.5 -78.5t12.5 -78.5t34 -58.5t50.5 -36.5t62 -12.5t61.5 10.5t54.5 34.5v-51q-23 -20 -54.5 -29.5t-63.5 -9.5
q-45 0 -82.5 16.5t-65.5 46.5t-43.5 72.5t-15.5 95.5zM298 650h53l-87 -130h-49z" />
    <glyph glyph-name="Ccircumflex" unicode="&#x108;" horiz-adv-x="535" 
d="M39 307q0 73 21.5 131.5t59 99.5t88.5 63t109 22q56 0 96.5 -14t71.5 -39v-56q-38 33 -78.5 47t-88.5 14q-49 0 -90.5 -18.5t-72 -53t-47.5 -84.5t-17 -112t17 -112t47.5 -84.5t72 -53t90.5 -18.5q48 0 88.5 14.5t78.5 47.5v-57q-31 -25 -71.5 -39t-96.5 -14
q-58 0 -109 22t-88.5 63t-59 99.5t-21.5 131.5zM389 667l-67 84l-67 -84h-47l92 119h44l92 -119h-47z" />
    <glyph glyph-name="ccircumflex" unicode="&#x109;" horiz-adv-x="402" 
d="M39 222q0 52 15.5 95t43.5 73t65.5 46.5t82.5 16.5q32 0 63.5 -9.5t54.5 -29.5v-51q-26 24 -54.5 34.5t-61.5 10.5t-62 -12.5t-50.5 -36.5t-34 -58.5t-12.5 -78.5t12.5 -78.5t34 -58.5t50.5 -36.5t62 -12.5t61.5 10.5t54.5 34.5v-51q-23 -20 -54.5 -29.5t-63.5 -9.5
q-45 0 -82.5 16.5t-65.5 46.5t-43.5 72.5t-15.5 95.5zM309 513l-68 97l-68 -97h-46l92 131h44l92 -131h-46z" />
    <glyph glyph-name="Cdotaccent" unicode="&#x10a;" horiz-adv-x="535" 
d="M39 307q0 73 21.5 131.5t59 99.5t88.5 63t109 22q56 0 96.5 -14t71.5 -39v-56q-38 33 -78.5 47t-88.5 14q-49 0 -90.5 -18.5t-72 -53t-47.5 -84.5t-17 -112t17 -112t47.5 -84.5t72 -53t90.5 -18.5q48 0 88.5 14.5t78.5 47.5v-57q-31 -25 -71.5 -39t-96.5 -14
q-58 0 -109 22t-88.5 63t-59 99.5t-21.5 131.5zM354 714q0 -14 -10 -24t-24 -10t-24 10t-10 24t10 24t24 10t24 -10t10 -24z" />
    <glyph glyph-name="cdotaccent" unicode="&#x10b;" horiz-adv-x="402" 
d="M39 222q0 52 15.5 95t43.5 73t65.5 46.5t82.5 16.5q32 0 63.5 -9.5t54.5 -29.5v-51q-26 24 -54.5 34.5t-61.5 10.5t-62 -12.5t-50.5 -36.5t-34 -58.5t-12.5 -78.5t12.5 -78.5t34 -58.5t50.5 -36.5t62 -12.5t61.5 10.5t54.5 34.5v-51q-23 -20 -54.5 -29.5t-63.5 -9.5
q-45 0 -82.5 16.5t-65.5 46.5t-43.5 72.5t-15.5 95.5zM277 579q0 -14 -10 -24t-24 -10t-24 10t-10 24t10 24t24 10t24 -10t10 -24z" />
    <glyph glyph-name="Ccaron" unicode="&#x10c;" horiz-adv-x="535" 
d="M39 307q0 73 21.5 131.5t59 99.5t88.5 63t109 22q56 0 96.5 -14t71.5 -39v-56q-38 33 -78.5 47t-88.5 14q-49 0 -90.5 -18.5t-72 -53t-47.5 -84.5t-17 -112t17 -112t47.5 -84.5t72 -53t90.5 -18.5q48 0 88.5 14.5t78.5 47.5v-57q-31 -25 -71.5 -39t-96.5 -14
q-58 0 -109 22t-88.5 63t-59 99.5t-21.5 131.5zM255 779l67 -83l67 83h47l-92 -119h-44l-92 119h47z" />
    <glyph glyph-name="ccaron" unicode="&#x10d;" horiz-adv-x="402" 
d="M39 222q0 52 15.5 95t43.5 73t65.5 46.5t82.5 16.5q32 0 63.5 -9.5t54.5 -29.5v-51q-26 24 -54.5 34.5t-61.5 10.5t-62 -12.5t-50.5 -36.5t-34 -58.5t-12.5 -78.5t12.5 -78.5t34 -58.5t50.5 -36.5t62 -12.5t61.5 10.5t54.5 34.5v-51q-23 -20 -54.5 -29.5t-63.5 -9.5
q-45 0 -82.5 16.5t-65.5 46.5t-43.5 72.5t-15.5 95.5zM221 515l-92 130h46l68 -95l68 95h46l-92 -130h-44z" />
    <glyph glyph-name="Dcaron" unicode="&#x10e;" horiz-adv-x="602" 
d="M266 47q57 0 102.5 18.5t77.5 52.5t49 82t17 107t-17 107t-49 82t-77.5 52.5t-102.5 18.5h-136v-520h136zM266 614q67 0 122 -21.5t94 -61.5t60.5 -97t21.5 -127t-21.5 -127t-60.5 -97t-94 -61.5t-122 -21.5h-187v614h187zM210 779l67 -83l67 83h47l-92 -119h-44l-92 119
h47z" />
    <glyph glyph-name="dcaron" unicode="&#x10f;" horiz-adv-x="492" 
d="M371 66q-19 -29 -55.5 -52t-82.5 -23q-49 0 -85.5 19t-60.5 50.5t-36 73.5t-12 88t12 88t36 73.5t60.5 50.5t85.5 19q46 0 82.5 -23t55.5 -52v272h49v-650h-49v66zM371 319q-23 43 -58 65.5t-76 22.5q-35 0 -62.5 -14t-46.5 -38.5t-29 -58.5t-10 -74t10 -74t29 -58.5
t46.5 -38.5t62.5 -14q41 0 76 22.5t58 65.5v194zM510 650h40l-32 -160h-41z" />
    <glyph glyph-name="Dcroat" unicode="&#x110;" horiz-adv-x="616" 
d="M92 340v274h187q67 0 122 -21.5t94 -61.5t60.5 -97t21.5 -127t-21.5 -127t-60.5 -97t-94 -61.5t-122 -21.5h-187v295h-58v45h58zM279 47q57 0 102.5 18.5t77.5 52.5t49 82t17 107t-17 107t-49 82t-77.5 52.5t-102.5 18.5h-136v-227h130v-45h-130v-248h136z" />
    <glyph glyph-name="dcroat" unicode="&#x111;" horiz-adv-x="492" 
d="M371 557v93h49v-93h53v-37h-53v-520h-49v66q-19 -29 -55.5 -52t-82.5 -23q-49 0 -85.5 19t-60.5 50.5t-36 73.5t-12 88t12 88t36 73.5t60.5 50.5t85.5 19q46 0 82.5 -23t55.5 -52v142h-115v37h115zM371 319q-23 43 -58 65.5t-76 22.5q-35 0 -62.5 -14t-46.5 -38.5
t-29 -58.5t-10 -74t10 -74t29 -58.5t46.5 -38.5t62.5 -14q41 0 76 22.5t58 65.5v194z" />
    <glyph glyph-name="Emacron" unicode="&#x112;" horiz-adv-x="515" 
d="M460 567h-331v-227h300v-47h-300v-246h331v-47h-381v614h381v-47zM375 712v-42h-201v42h201z" />
    <glyph glyph-name="emacron" unicode="&#x113;" horiz-adv-x="444" 
d="M88 218q0 -45 12.5 -79t34 -57.5t51 -35t64.5 -11.5q38 0 67 10t58 34v-49q-25 -20 -57.5 -29.5t-71.5 -9.5q-47 0 -85 16t-65 45.5t-42 71.5t-15 94q0 51 13.5 94.5t38.5 74.5t60.5 48.5t79.5 17.5q43 0 76 -16t55.5 -44.5t33.5 -68.5t11 -88v-18h-319zM231 409
q-55 0 -93.5 -39t-47.5 -111h269q-1 29 -9 56t-23.5 48t-39 33.5t-56.5 12.5zM336 578v-41h-201v41h201z" />
    <glyph glyph-name="Ebreve" unicode="&#x114;" horiz-adv-x="515" 
d="M460 567h-331v-227h300v-47h-300v-246h331v-47h-381v614h381v-47zM274 664q-45 0 -74 30t-29 87h40q0 -38 17.5 -58.5t45.5 -20.5q27 0 45 20.5t18 58.5h39q0 -57 -28.5 -87t-73.5 -30z" />
    <glyph glyph-name="ebreve" unicode="&#x115;" horiz-adv-x="444" 
d="M88 218q0 -45 12.5 -79t34 -57.5t51 -35t64.5 -11.5q38 0 67 10t58 34v-49q-25 -20 -57.5 -29.5t-71.5 -9.5q-47 0 -85 16t-65 45.5t-42 71.5t-15 94q0 51 13.5 94.5t38.5 74.5t60.5 48.5t79.5 17.5q43 0 76 -16t55.5 -44.5t33.5 -68.5t11 -88v-18h-319zM231 409
q-55 0 -93.5 -39t-47.5 -111h269q-1 29 -9 56t-23.5 48t-39 33.5t-56.5 12.5zM235 506q-45 0 -73.5 30.5t-28.5 89.5h40q0 -39 17 -61t45 -22t45 22t17 61h40q0 -59 -28.5 -89.5t-73.5 -30.5z" />
    <glyph glyph-name="Edotaccent" unicode="&#x116;" horiz-adv-x="515" 
d="M460 567h-331v-227h300v-47h-300v-246h331v-47h-381v614h381v-47zM308 714q0 -14 -10 -24t-24 -10t-24 10t-10 24t10 24t24 10t24 -10t10 -24z" />
    <glyph glyph-name="edotaccent" unicode="&#x117;" horiz-adv-x="444" 
d="M88 218q0 -45 12.5 -79t34 -57.5t51 -35t64.5 -11.5q38 0 67 10t58 34v-49q-25 -20 -57.5 -29.5t-71.5 -9.5q-47 0 -85 16t-65 45.5t-42 71.5t-15 94q0 51 13.5 94.5t38.5 74.5t60.5 48.5t79.5 17.5q43 0 76 -16t55.5 -44.5t33.5 -68.5t11 -88v-18h-319zM231 409
q-55 0 -93.5 -39t-47.5 -111h269q-1 29 -9 56t-23.5 48t-39 33.5t-56.5 12.5zM269 579q0 -14 -10 -24t-24 -10t-24 10t-10 24t10 24t24 10t24 -10t10 -24z" />
    <glyph glyph-name="Eogonek" unicode="&#x118;" horiz-adv-x="515" 
d="M460 567h-331v-227h300v-47h-300v-246h331v-47h-35q-15 -26 -24.5 -44t-15 -31t-7.5 -22.5t-2 -19.5q0 -28 25 -28q11 0 19 3.5t18 10.5v-36q-10 -7 -20.5 -11t-24.5 -4q-26 0 -41.5 15t-15.5 45q0 24 12 50.5t37 71.5h-306v614h381v-47z" />
    <glyph glyph-name="eogonek" unicode="&#x119;" horiz-adv-x="444" 
d="M222 -122q0 32 16.5 61t45.5 58q-8 -2 -18.5 -4t-19.5 -2q-47 0 -85 16t-65 45.5t-42 71.5t-15 94q0 51 13.5 94.5t38.5 74.5t60.5 48.5t79.5 17.5q43 0 76 -16t55.5 -44.5t33.5 -68.5t11 -88v-18h-319q0 -46 12.5 -80t34.5 -57t51.5 -34.5t63.5 -11.5q38 0 67 10t58 34
v-49q-9 -6 -19 -12t-24 -16q-27 -21 -48 -53.5t-21 -63.5q0 -16 6.5 -23t17.5 -7t19 3.5t18 10.5v-36q-10 -7 -20.5 -11t-23.5 -4q-25 0 -41.5 15t-16.5 45zM231 409q-56 0 -93.5 -39t-47.5 -111h269q-1 29 -9 56t-23.5 48t-39 33.5t-56.5 12.5z" />
    <glyph glyph-name="Ecaron" unicode="&#x11a;" horiz-adv-x="515" 
d="M460 567h-331v-227h300v-47h-300v-246h331v-47h-381v614h381v-47zM207 779l67 -83l67 83h47l-92 -119h-44l-92 119h47z" />
    <glyph glyph-name="ecaron" unicode="&#x11b;" horiz-adv-x="444" 
d="M88 218q0 -45 12.5 -79t34 -57.5t51 -35t64.5 -11.5q38 0 67 10t58 34v-49q-25 -20 -57.5 -29.5t-71.5 -9.5q-47 0 -85 16t-65 45.5t-42 71.5t-15 94q0 51 13.5 94.5t38.5 74.5t60.5 48.5t79.5 17.5q43 0 76 -16t55.5 -44.5t33.5 -68.5t11 -88v-18h-319zM231 409
q-55 0 -93.5 -39t-47.5 -111h269q-1 29 -9 56t-23.5 48t-39 33.5t-56.5 12.5zM213 515l-92 130h46l68 -95l68 95h46l-92 -130h-44z" />
    <glyph glyph-name="Gcircumflex" unicode="&#x11c;" horiz-adv-x="587" 
d="M319 38q51 0 89.5 12.5t73.5 42.5v175h-155v43h202v-234q-21 -25 -46.5 -41.5t-52.5 -26.5t-55.5 -14t-56.5 -4q-60 0 -111 22t-88.5 63t-58.5 99.5t-21 131.5t21.5 131.5t60 99.5t90.5 63t113 22q54 0 100.5 -16t79.5 -43v-57q-39 36 -85 52t-95 16q-51 0 -94 -18.5
t-74 -53t-48 -84.5t-17 -112t17 -112t47 -85t72 -53.5t92 -18.5zM391 667l-67 84l-67 -84h-47l92 119h44l92 -119h-47z" />
    <glyph glyph-name="gcircumflex" unicode="&#x11d;" horiz-adv-x="488" 
d="M367 74q-19 -28 -55 -50.5t-82 -22.5q-48 0 -84 18.5t-60 50t-35.5 72t-11.5 85.5t11.5 85.5t35.5 72t60 50t84 18.5q46 0 82 -22.5t55 -51.5v65h49v-412q0 -55 -17 -95t-45.5 -65.5t-65 -38t-76.5 -12.5q-42 0 -78 11.5t-61 30.5v57q33 -30 68 -42t71 -12q33 0 61 10
t49 30t33 50.5t12 72.5v45zM367 321q-22 42 -57 64t-75 22q-35 0 -62 -13.5t-45.5 -37.5t-28.5 -57t-10 -72q0 -40 10 -73t28.5 -57t45.5 -37.5t62 -13.5q40 0 75 22.5t57 63.5v189zM318 513l-68 97l-68 -97h-46l92 131h44l92 -131h-46z" />
    <glyph glyph-name="Gbreve" unicode="&#x11e;" horiz-adv-x="587" 
d="M319 38q51 0 89.5 12.5t73.5 42.5v175h-155v43h202v-234q-21 -25 -46.5 -41.5t-52.5 -26.5t-55.5 -14t-56.5 -4q-60 0 -111 22t-88.5 63t-58.5 99.5t-21 131.5t21.5 131.5t60 99.5t90.5 63t113 22q54 0 100.5 -16t79.5 -43v-57q-39 36 -85 52t-95 16q-51 0 -94 -18.5
t-74 -53t-48 -84.5t-17 -112t17 -112t47 -85t72 -53.5t92 -18.5zM324 664q-45 0 -74 30t-29 87h40q0 -38 17.5 -58.5t45.5 -20.5q27 0 45 20.5t18 58.5h39q0 -57 -28.5 -87t-73.5 -30z" />
    <glyph glyph-name="gbreve" unicode="&#x11f;" horiz-adv-x="488" 
d="M367 74q-19 -28 -55 -50.5t-82 -22.5q-48 0 -84 18.5t-60 50t-35.5 72t-11.5 85.5t11.5 85.5t35.5 72t60 50t84 18.5q46 0 82 -22.5t55 -51.5v65h49v-412q0 -55 -17 -95t-45.5 -65.5t-65 -38t-76.5 -12.5q-42 0 -78 11.5t-61 30.5v57q33 -30 68 -42t71 -12q33 0 61 10
t49 30t33 50.5t12 72.5v45zM367 321q-22 42 -57 64t-75 22q-35 0 -62 -13.5t-45.5 -37.5t-28.5 -57t-10 -72q0 -40 10 -73t28.5 -57t45.5 -37.5t62 -13.5q40 0 75 22.5t57 63.5v189zM250 506q-45 0 -73.5 30.5t-28.5 89.5h40q0 -39 17 -61t45 -22t45 22t17 61h40
q0 -59 -28.5 -89.5t-73.5 -30.5z" />
    <glyph glyph-name="Gdotaccent" unicode="&#x120;" horiz-adv-x="587" 
d="M319 38q51 0 89.5 12.5t73.5 42.5v175h-155v43h202v-234q-21 -25 -46.5 -41.5t-52.5 -26.5t-55.5 -14t-56.5 -4q-60 0 -111 22t-88.5 63t-58.5 99.5t-21 131.5t21.5 131.5t60 99.5t90.5 63t113 22q54 0 100.5 -16t79.5 -43v-57q-39 36 -85 52t-95 16q-51 0 -94 -18.5
t-74 -53t-48 -84.5t-17 -112t17 -112t47 -85t72 -53.5t92 -18.5zM357 714q0 -14 -10 -24t-24 -10t-24 10t-10 24t10 24t24 10t24 -10t10 -24z" />
    <glyph glyph-name="gdotaccent" unicode="&#x121;" horiz-adv-x="488" 
d="M367 74q-19 -28 -55 -50.5t-82 -22.5q-48 0 -84 18.5t-60 50t-35.5 72t-11.5 85.5t11.5 85.5t35.5 72t60 50t84 18.5q46 0 82 -22.5t55 -51.5v65h49v-412q0 -55 -17 -95t-45.5 -65.5t-65 -38t-76.5 -12.5q-42 0 -78 11.5t-61 30.5v57q33 -30 68 -42t71 -12q33 0 61 10
t49 30t33 50.5t12 72.5v45zM367 321q-22 42 -57 64t-75 22q-35 0 -62 -13.5t-45.5 -37.5t-28.5 -57t-10 -72q0 -40 10 -73t28.5 -57t45.5 -37.5t62 -13.5q40 0 75 22.5t57 63.5v189zM284 579q0 -14 -10 -24t-24 -10t-24 10t-10 24t10 24t24 10t24 -10t10 -24z" />
    <glyph glyph-name="Gcommaaccent" unicode="&#x122;" horiz-adv-x="587" 
d="M319 38q51 0 89.5 12.5t73.5 42.5v175h-155v43h202v-234q-21 -25 -46.5 -41.5t-52.5 -26.5t-55.5 -14t-56.5 -4q-60 0 -111 22t-88.5 63t-58.5 99.5t-21 131.5t21.5 131.5t60 99.5t90.5 63t113 22q54 0 100.5 -16t79.5 -43v-57q-39 36 -85 52t-95 16q-51 0 -94 -18.5
t-74 -53t-48 -84.5t-17 -112t17 -112t47 -85t72 -53.5t92 -18.5zM323 -116q-12 2 -21 10.5t-9 23.5t10.5 25t26.5 10q15 0 25 -10t10 -27q0 -12 -4.5 -21.5t-9.5 -19.5l-31 -58h-33z" />
    <glyph glyph-name="gcommaaccent" unicode="&#x123;" horiz-adv-x="488" 
d="M367 74q-19 -28 -55 -50.5t-82 -22.5q-48 0 -84 18.5t-60 50t-35.5 72t-11.5 85.5t11.5 85.5t35.5 72t60 50t84 18.5q46 0 82 -22.5t55 -51.5v65h49v-412q0 -55 -17 -95t-45.5 -65.5t-65 -38t-76.5 -12.5q-42 0 -78 11.5t-61 30.5v57q33 -30 68 -42t71 -12q33 0 61 10
t49 30t33 50.5t12 72.5v45zM367 321q-22 42 -57 64t-75 22q-35 0 -62 -13.5t-45.5 -37.5t-28.5 -57t-10 -72q0 -40 10 -73t28.5 -57t45.5 -37.5t62 -13.5q40 0 75 22.5t57 63.5v189zM252 595q12 -2 20.5 -11t8.5 -23q0 -15 -10.5 -25.5t-25.5 -10.5q-16 0 -26.5 10.5
t-10.5 26.5q0 13 4.5 22.5t10.5 19.5l31 59h34z" />
    <glyph glyph-name="Hcircumflex" unicode="&#x124;" horiz-adv-x="649" 
d="M570 0h-51v293h-389v-293h-51v614h51v-274h389v274h51v-614zM392 667l-67 84l-67 -84h-47l92 119h44l92 -119h-47z" />
    <glyph glyph-name="hcircumflex" unicode="&#x125;" horiz-adv-x="483" 
d="M121 650v-277q20 32 57 56t85 24q76 0 115 -44t39 -115v-294h-49v287q0 52 -27 86t-87 34q-46 0 -81 -28t-52 -68v-311h-50v650h50zM312 672l-67 84l-67 -84h-47l92 119h44l92 -119h-47z" />
    <glyph glyph-name="Hbar" unicode="&#x126;" horiz-adv-x="675" 
d="M92 482v132h51v-132h389v132h51v-132h58v-44h-58v-438h-51v260h-389v-260h-51v438h-58v44h58zM532 438h-389v-134h389v134z" />
    <glyph glyph-name="hbar" unicode="&#x127;" horiz-adv-x="483" 
d="M71 557v93h50v-93h115v-37h-115v-147q20 32 57 56t85 24q76 0 115 -44t39 -115v-294h-49v287q0 52 -27 86t-87 34q-46 0 -81 -28t-52 -68v-311h-50v520h-52v37h52z" />
    <glyph glyph-name="Itilde" unicode="&#x128;" horiz-adv-x="209" 
d="M79 0v614h51v-614h-51zM231 769q0 -48 -17.5 -76t-51.5 -28q-19 0 -33.5 10t-27 22t-24 22t-25.5 10q-18 0 -27 -16.5t-9 -44.5h-36q0 47 17.5 75.5t51.5 28.5q19 0 33.5 -10t27 -22t24 -22t25.5 -10q18 0 27 16.5t10 44.5h35z" />
    <glyph glyph-name="itilde" unicode="&#x129;" horiz-adv-x="192" 
d="M194 625q0 -48 -14 -76.5t-40 -28.5q-15 0 -26.5 10t-21.5 22t-18.5 22t-18.5 10q-14 0 -19.5 -16t-5.5 -45h-33q0 48 14 76.5t40 28.5q15 0 27 -10t21.5 -22t18.5 -22t18 -10q14 0 19.5 16.5t6.5 44.5h32zM71 0v444h50v-444h-50z" />
    <glyph glyph-name="Imacron" unicode="&#x12a;" horiz-adv-x="209" 
d="M79 0v614h51v-614h-51zM206 712v-42h-201v42h201z" />
    <glyph glyph-name="imacron" unicode="&#x12b;" horiz-adv-x="192" 
d="M176 578v-41h-157v41h157zM71 0v444h50v-444h-50z" />
    <glyph glyph-name="Ibreve" unicode="&#x12c;" horiz-adv-x="209" 
d="M79 0v614h51v-614h-51zM105 664q-45 0 -74 30t-29 87h40q0 -38 17.5 -58.5t45.5 -20.5q27 0 45 20.5t18 58.5h39q0 -57 -28.5 -87t-73.5 -30z" />
    <glyph glyph-name="ibreve" unicode="&#x12d;" horiz-adv-x="192" 
d="M97 506q-40 0 -65 30.5t-25 89.5h38q0 -39 13.5 -61t38.5 -22q24 0 38 22t14 61h38q0 -59 -25.5 -89.5t-64.5 -30.5zM71 0v444h50v-444h-50z" />
    <glyph glyph-name="Iogonek" unicode="&#x12e;" horiz-adv-x="209" 
d="M130 0q-15 -26 -25 -44t-15.5 -31t-7.5 -22.5t-2 -19.5q0 -28 25 -28q11 0 19 3.5t18 10.5v-36q-10 -7 -20.5 -11t-24.5 -4q-26 0 -41.5 15t-15.5 45q0 24 12 51t38 71h-11v614h51v-614z" />
    <glyph glyph-name="iogonek" unicode="&#x12f;" horiz-adv-x="192" 
d="M121 0q-15 -26 -25 -44t-15.5 -31t-7.5 -22.5t-2 -19.5q0 -28 25 -28q11 0 18.5 3.5t18.5 10.5v-36q-11 -7 -21 -11t-24 -4q-26 0 -42 15t-16 45q0 24 12.5 51t38.5 71h-10v444h50v-444zM130 579q0 -14 -10 -24t-24 -10t-24 10t-10 24t10 24t24 10t24 -10t10 -24z" />
    <glyph glyph-name="Idotaccent" unicode="&#x130;" horiz-adv-x="209" 
d="M79 0v614h51v-614h-51zM139 714q0 -14 -10 -24t-24 -10t-24 10t-10 24t10 24t24 10t24 -10t10 -24z" />
    <glyph glyph-name="dotlessi" unicode="&#x131;" horiz-adv-x="192" 
d="M71 0v444h50v-444h-50z" />
    <glyph glyph-name="IJ" unicode="&#x132;" horiz-adv-x="586" 
d="M79 0v614h51v-614h-51zM236 83q29 -23 56.5 -33.5t59.5 -10.5q60 0 88 36.5t28 121.5v417h51v-419q0 -106 -43 -155t-124 -49q-38 0 -67.5 12t-48.5 26v54z" />
    <glyph glyph-name="ij" unicode="&#x133;" horiz-adv-x="384" 
d="M313 -64q0 -57 -30 -86t-82 -29q-6 0 -12.5 0.5t-10.5 2.5v44q7 -3 20 -3q31 0 48 15.5t17 60.5v503h50v-508zM322 579q0 -14 -10 -24t-24 -10t-24 10t-10 24t10 24t24 10t24 -10t10 -24zM71 0v444h50v-444h-50zM131 579q0 -14 -10 -24t-24 -10t-24 10t-10 24t10 24
t24 10t24 -10t10 -24z" />
    <glyph glyph-name="Jcircumflex" unicode="&#x134;" horiz-adv-x="377" 
d="M27 83q29 -23 56.5 -33.5t59.5 -10.5q60 0 88 36.5t28 121.5v417h51v-419q0 -106 -43 -155t-124 -49q-38 0 -67.5 12t-48.5 26v54zM352 667l-67 84l-67 -84h-47l92 119h44l92 -119h-47z" />
    <glyph glyph-name="jcircumflex" unicode="&#x135;" horiz-adv-x="192" 
d="M146 513l-50 94l-50 -94h-44l72 131h44l72 -131h-44zM121 -64q0 -57 -30 -86t-82 -29q-6 0 -12.5 0.5t-10.5 2.5v44q7 -3 20 -3q31 0 48 15.5t17 60.5v503h50v-508z" />
    <glyph glyph-name="Kcommaaccent" unicode="&#x136;" horiz-adv-x="534" 
d="M440 614h67l-328 -295l336 -319h-67l-318 298v-298h-51v614h51v-280zM250 -116q-12 2 -21 10.5t-9 23.5t10.5 25t26.5 10q15 0 25 -10t10 -27q0 -12 -4.5 -21.5t-9.5 -19.5l-31 -58h-33z" />
    <glyph glyph-name="kcommaaccent" unicode="&#x137;" horiz-adv-x="425" 
d="M352 0l-231 228v-228h-50v650h50v-400l224 194h65l-237 -203l241 -241h-62zM211 -116q-12 2 -21 10.5t-9 23.5t10.5 25t26.5 10q15 0 25 -10t10 -27q0 -12 -4.5 -21.5t-9.5 -19.5l-31 -58h-33z" />
    <glyph glyph-name="kgreenlandic" unicode="&#x138;" horiz-adv-x="425" 
d="M352 0l-231 228v-228h-50v444h50v-194l224 194h65l-237 -203l241 -241h-62z" />
    <glyph glyph-name="Lacute" unicode="&#x139;" horiz-adv-x="503" 
d="M130 614v-567h333v-47h-384v614h51zM169 782h56l-88 -117h-50z" />
    <glyph glyph-name="lacute" unicode="&#x13a;" horiz-adv-x="192" 
d="M71 0v650h50v-650h-50zM155 805h56l-88 -117h-50z" />
    <glyph glyph-name="Lcommaaccent" unicode="&#x13b;" horiz-adv-x="503" 
d="M273 -116q-12 2 -21 10.5t-9 23.5t10.5 25t26.5 10q15 0 25 -10t10 -27q0 -12 -4.5 -21.5t-9.5 -19.5l-31 -58h-33zM130 614v-567h333v-47h-384v614h51z" />
    <glyph glyph-name="lcommaaccent" unicode="&#x13c;" horiz-adv-x="192" 
d="M91 -116q-12 2 -21 10.5t-9 23.5t10.5 25t26.5 10q15 0 25 -10t10 -27q0 -12 -4.5 -21.5t-9.5 -19.5l-31 -58h-33zM71 0v650h50v-650h-50z" />
    <glyph glyph-name="Lcaron" unicode="&#x13d;" horiz-adv-x="503" 
d="M130 614v-567h333v-47h-384v614h51zM294 615h40l-32 -160h-41z" />
    <glyph glyph-name="lcaron" unicode="&#x13e;" horiz-adv-x="192" 
d="M212 650h40l-32 -160h-41zM71 0v650h50v-650h-50z" />
    <glyph glyph-name="Ldot" unicode="&#x13f;" horiz-adv-x="503" 
d="M394 307q0 -14 -10 -24t-24 -10t-24 10t-10 24t10 24t24 10t24 -10t10 -24zM130 614v-567h333v-47h-384v614h51z" />
    <glyph glyph-name="ldot" unicode="&#x140;" horiz-adv-x="297" 
d="M278 325q0 -14 -10 -24t-24 -10t-24 10t-10 24t10 24t24 10t24 -10t10 -24zM71 0v650h50v-650h-50z" />
    <glyph glyph-name="Lslash" unicode="&#x141;" horiz-adv-x="515" 
d="M91 319v295h51v-276l157 64v-49l-157 -63v-243h333v-47h-384v271l-61 -25v49z" />
    <glyph glyph-name="lslash" unicode="&#x142;" horiz-adv-x="231" 
d="M206 453v-49l-66 -46v-358h-50v330l-60 -41v49l60 41v271h50v-243z" />
    <glyph glyph-name="Nacute" unicode="&#x143;" horiz-adv-x="616" 
d="M503 0l-375 533v-533h-49v614h49l360 -512v512h49v-614h-34zM360 782h56l-88 -117h-50z" />
    <glyph glyph-name="nacute" unicode="&#x144;" horiz-adv-x="483" 
d="M121 444v-71q20 32 57 56t85 24q76 0 115 -44t39 -115v-294h-49v287q0 52 -27 86t-87 34q-46 0 -81 -28t-52 -68v-311h-50v444h50zM299 650h53l-87 -130h-49z" />
    <glyph glyph-name="Ncommaaccent" unicode="&#x145;" horiz-adv-x="616" 
d="M503 0l-375 533v-533h-49v614h49l360 -512v512h49v-614h-34zM306 -116q-12 2 -21 10.5t-9 23.5t10.5 25t26.5 10q15 0 25 -10t10 -27q0 -12 -4.5 -21.5t-9.5 -19.5l-31 -58h-33z" />
    <glyph glyph-name="ncommaaccent" unicode="&#x146;" horiz-adv-x="483" 
d="M246 -116q-12 2 -21 10.5t-9 23.5t10.5 25t26.5 10q15 0 25 -10t10 -27q0 -12 -4.5 -21.5t-9.5 -19.5l-31 -58h-33zM121 444v-71q20 32 57 56t85 24q76 0 115 -44t39 -115v-294h-49v287q0 52 -27 86t-87 34q-46 0 -81 -28t-52 -68v-311h-50v444h50z" />
    <glyph glyph-name="Ncaron" unicode="&#x147;" horiz-adv-x="616" 
d="M503 0l-375 533v-533h-49v614h49l360 -512v512h49v-614h-34zM241 779l67 -83l67 83h47l-92 -119h-44l-92 119h47z" />
    <glyph glyph-name="ncaron" unicode="&#x148;" horiz-adv-x="483" 
d="M121 444v-71q20 32 57 56t85 24q76 0 115 -44t39 -115v-294h-49v287q0 52 -27 86t-87 34q-46 0 -81 -28t-52 -68v-311h-50v444h50zM225 515l-92 130h46l68 -95l68 95h46l-92 -130h-44z" />
    <glyph glyph-name="Eng" unicode="&#x14a;" horiz-adv-x="616" 
d="M262 -96q27 -21 52.5 -30t55.5 -9q59 0 88.5 36t29.5 120l-360 512v-533h-49v614h49l360 -512v512h49v-593q0 -106 -43 -155t-123 -49q-35 0 -63 10.5t-46 23.5v53z" />
    <glyph glyph-name="eng" unicode="&#x14b;" horiz-adv-x="483" 
d="M368 287q0 52 -27 86t-87 34q-46 0 -81 -28t-52 -68v-311h-50v444h50v-71q20 32 57 56t85 24q76 0 115 -44t39 -115v-358q0 -57 -29.5 -86t-81.5 -29q-6 0 -12.5 0.5t-11.5 2.5v44q7 -3 21 -3q31 0 48 15.5t17 60.5v346z" />
    <glyph glyph-name="Omacron" unicode="&#x14c;" horiz-adv-x="620" 
d="M582 307q0 -71 -20.5 -129t-56.5 -99.5t-86 -64.5t-109 -23t-108.5 23t-85.5 64.5t-56.5 99.5t-20.5 129q0 70 20.5 128.5t56.5 100t85.5 64.5t108.5 23t109 -23t86 -64.5t56.5 -100t20.5 -128.5zM530 307q0 59 -16 108.5t-45 85t-69.5 55t-89.5 19.5t-89 -19.5t-69 -55
t-45 -85t-16 -108.5t16 -108.5t45 -85t69 -55t89 -19.5t89.5 19.5t69.5 55t45 85t16 108.5zM411 712v-42h-201v42h201z" />
    <glyph glyph-name="omacron" unicode="&#x14d;" horiz-adv-x="471" 
d="M432 222q0 -51 -14 -93.5t-40 -73t-62.5 -47.5t-80.5 -17t-80 17t-62 47.5t-40 73t-14 93.5t14 93.5t40 73t62 47.5t80 17t80.5 -17t62.5 -47.5t40 -73t14 -93.5zM382 222q0 42 -10.5 76.5t-29.5 59t-46.5 38t-60.5 13.5t-60 -13.5t-46 -38t-29.5 -59t-10.5 -76.5
t10.5 -76.5t29.5 -59t46 -38t60 -13.5t60.5 13.5t46.5 38t29.5 59t10.5 76.5zM337 578v-41h-201v41h201z" />
    <glyph glyph-name="Obreve" unicode="&#x14e;" horiz-adv-x="620" 
d="M582 307q0 -71 -20.5 -129t-56.5 -99.5t-86 -64.5t-109 -23t-108.5 23t-85.5 64.5t-56.5 99.5t-20.5 129q0 70 20.5 128.5t56.5 100t85.5 64.5t108.5 23t109 -23t86 -64.5t56.5 -100t20.5 -128.5zM530 307q0 59 -16 108.5t-45 85t-69.5 55t-89.5 19.5t-89 -19.5t-69 -55
t-45 -85t-16 -108.5t16 -108.5t45 -85t69 -55t89 -19.5t89.5 19.5t69.5 55t45 85t16 108.5zM310 664q-45 0 -74 30t-29 87h40q0 -38 17.5 -58.5t45.5 -20.5q27 0 45 20.5t18 58.5h39q0 -57 -28.5 -87t-73.5 -30z" />
    <glyph glyph-name="obreve" unicode="&#x14f;" horiz-adv-x="471" 
d="M432 222q0 -51 -14 -93.5t-40 -73t-62.5 -47.5t-80.5 -17t-80 17t-62 47.5t-40 73t-14 93.5t14 93.5t40 73t62 47.5t80 17t80.5 -17t62.5 -47.5t40 -73t14 -93.5zM382 222q0 42 -10.5 76.5t-29.5 59t-46.5 38t-60.5 13.5t-60 -13.5t-46 -38t-29.5 -59t-10.5 -76.5
t10.5 -76.5t29.5 -59t46 -38t60 -13.5t60.5 13.5t46.5 38t29.5 59t10.5 76.5zM236 506q-45 0 -73.5 30.5t-28.5 89.5h40q0 -39 17 -61t45 -22t45 22t17 61h40q0 -59 -28.5 -89.5t-73.5 -30.5z" />
    <glyph glyph-name="Ohungarumlaut" unicode="&#x150;" horiz-adv-x="620" 
d="M582 307q0 -71 -20.5 -129t-56.5 -99.5t-86 -64.5t-109 -23t-108.5 23t-85.5 64.5t-56.5 99.5t-20.5 129q0 70 20.5 128.5t56.5 100t85.5 64.5t108.5 23t109 -23t86 -64.5t56.5 -100t20.5 -128.5zM530 307q0 59 -16 108.5t-45 85t-69.5 55t-89.5 19.5t-89 -19.5t-69 -55
t-45 -85t-16 -108.5t16 -108.5t45 -85t69 -55t89 -19.5t89.5 19.5t69.5 55t45 85t16 108.5zM308 782h46l-75 -117h-45zM419 782h46l-74 -117h-46z" />
    <glyph glyph-name="ohungarumlaut" unicode="&#x151;" horiz-adv-x="471" 
d="M432 222q0 -51 -14 -93.5t-40 -73t-62.5 -47.5t-80.5 -17t-80 17t-62 47.5t-40 73t-14 93.5t14 93.5t40 73t62 47.5t80 17t80.5 -17t62.5 -47.5t40 -73t14 -93.5zM382 222q0 42 -10.5 76.5t-29.5 59t-46.5 38t-60.5 13.5t-60 -13.5t-46 -38t-29.5 -59t-10.5 -76.5
t10.5 -76.5t29.5 -59t46 -38t60 -13.5t60.5 13.5t46.5 38t29.5 59t10.5 76.5zM230 650h45l-74 -130h-45zM340 650h45l-74 -130h-45z" />
    <glyph glyph-name="OE" unicode="&#x152;" horiz-adv-x="840" 
d="M467 567v-227h286v-47h-286v-246h317v-47h-447q-67 0 -122 21.5t-94 61.5t-60.5 97t-21.5 127t21.5 127t60.5 97t94 61.5t122 21.5h447v-47h-317zM416 567h-80q-56 0 -101.5 -18.5t-77.5 -52.5t-49.5 -82t-17.5 -107t17.5 -107t49.5 -82t77.5 -52.5t101.5 -18.5h80v520z
" />
    <glyph glyph-name="oe" unicode="&#x153;" horiz-adv-x="784" 
d="M235 453q60 0 104 -31.5t67 -83.5q23 52 64.5 83.5t99.5 31.5q44 0 77 -16t55.5 -44.5t33.5 -68.5t11 -88v-18h-319q0 -45 12.5 -79t34 -57.5t51 -35t64.5 -11.5q38 0 67 10t58 34v-49q-26 -20 -58.5 -29.5t-70.5 -9.5q-63 0 -110 29.5t-71 81.5q-24 -51 -68 -81
t-102 -30q-44 0 -80 17t-62 47.5t-40 73t-14 93.5t14 93.5t40 73t62 47.5t80 17zM382 222q0 42 -10.5 76.5t-29.5 59t-46.5 38t-60.5 13.5t-60 -13.5t-46 -38t-29.5 -59t-10.5 -76.5t10.5 -76.5t29.5 -59t46 -38t60 -13.5t60.5 13.5t46.5 38t29.5 59t10.5 76.5zM571 409
q-55 0 -93.5 -39t-47.5 -111h269q-1 29 -9 56t-23.5 48t-39 33.5t-56.5 12.5z" />
    <glyph glyph-name="Racute" unicode="&#x154;" horiz-adv-x="549" 
d="M130 0h-51v614h212q90 0 144 -44t54 -128q0 -75 -42.5 -117t-114.5 -52l186 -273h-59l-183 271h-146v-271zM289 316q71 0 110.5 33t39.5 93q0 61 -39.5 93.5t-110.5 32.5h-159v-252h159zM316 782h56l-88 -117h-50z" />
    <glyph glyph-name="racute" unicode="&#x155;" horiz-adv-x="301" 
d="M280 398q-19 8 -41 8q-41 0 -71.5 -26.5t-46.5 -69.5v-310h-50v444h50v-71q15 33 46.5 56.5t73.5 23.5q13 0 22 -2t17 -4v-49zM230 650h53l-87 -130h-49z" />
    <glyph glyph-name="Rcommaaccent" unicode="&#x156;" horiz-adv-x="549" 
d="M130 0h-51v614h212q90 0 144 -44t54 -128q0 -75 -42.5 -117t-114.5 -52l186 -273h-59l-183 271h-146v-271zM289 316q71 0 110.5 33t39.5 93q0 61 -39.5 93.5t-110.5 32.5h-159v-252h159zM263 -116q-12 2 -21 10.5t-9 23.5t10.5 25t26.5 10q15 0 25 -10t10 -27
q0 -12 -4.5 -21.5t-9.5 -19.5l-31 -58h-33z" />
    <glyph glyph-name="rcommaaccent" unicode="&#x157;" horiz-adv-x="301" 
d="M280 398q-19 8 -41 8q-41 0 -71.5 -26.5t-46.5 -69.5v-310h-50v444h50v-71q15 33 46.5 56.5t73.5 23.5q13 0 22 -2t17 -4v-49zM89 -116q-12 2 -21 10.5t-9 23.5t10.5 25t26.5 10q15 0 25 -10t10 -27q0 -12 -4.5 -21.5t-9.5 -19.5l-31 -58h-33z" />
    <glyph glyph-name="Rcaron" unicode="&#x158;" horiz-adv-x="549" 
d="M130 0h-51v614h212q90 0 144 -44t54 -128q0 -75 -42.5 -117t-114.5 -52l186 -273h-59l-183 271h-146v-271zM289 316q71 0 110.5 33t39.5 93q0 61 -39.5 93.5t-110.5 32.5h-159v-252h159zM197 779l67 -83l67 83h47l-92 -119h-44l-92 119h47z" />
    <glyph glyph-name="rcaron" unicode="&#x159;" horiz-adv-x="301" 
d="M280 398q-19 8 -41 8q-41 0 -71.5 -26.5t-46.5 -69.5v-310h-50v444h50v-71q15 33 46.5 56.5t73.5 23.5q13 0 22 -2t17 -4v-49zM154 515l-92 130h46l68 -95l68 95h46l-92 -130h-44z" />
    <glyph glyph-name="Sacute" unicode="&#x15a;" horiz-adv-x="466" 
d="M39 111q45 -40 90.5 -56.5t99.5 -16.5q66 0 105 30.5t39 84.5q0 23 -6.5 40t-20 30.5t-34.5 25t-49 23.5l-90 38q-24 10 -48 23t-42.5 31t-30.5 43t-12 60q0 39 15 68t40.5 48.5t59.5 29.5t71 10q48 0 93 -13.5t79 -38.5v-57q-36 30 -77.5 46t-93.5 16q-29 0 -53.5 -7
t-43.5 -20.5t-29.5 -33.5t-10.5 -47q0 -45 29 -69t78 -43l95 -40q67 -29 99 -66t32 -96q0 -37 -14.5 -67t-40.5 -51.5t-61.5 -33t-77.5 -11.5q-62 0 -111 17.5t-79 43.5v59zM288 782h56l-88 -117h-50z" />
    <glyph glyph-name="sacute" unicode="&#x15b;" horiz-adv-x="381" 
d="M41 89q29 -26 63.5 -40t78.5 -14q21 0 40 4.5t33.5 14t23.5 24.5t9 36q0 29 -18 47t-52 30l-74 27q-23 8 -41.5 18t-32.5 23.5t-21.5 32t-7.5 44.5q0 28 11.5 50t31.5 37t47 22.5t57 7.5q35 0 69 -10t61 -30v-54q-28 22 -58 36t-72 14q-40 0 -69 -18.5t-29 -53.5
q0 -32 20 -47t56 -29l77 -29q94 -32 94 -116q0 -30 -12.5 -53.5t-33.5 -39t-49.5 -24t-60.5 -8.5q-45 0 -82 13t-59 31v54zM249 650h53l-87 -130h-49z" />
    <glyph glyph-name="Scircumflex" unicode="&#x15c;" horiz-adv-x="466" 
d="M39 111q45 -40 90.5 -56.5t99.5 -16.5q66 0 105 30.5t39 84.5q0 23 -6.5 40t-20 30.5t-34.5 25t-49 23.5l-90 38q-24 10 -48 23t-42.5 31t-30.5 43t-12 60q0 39 15 68t40.5 48.5t59.5 29.5t71 10q48 0 93 -13.5t79 -38.5v-57q-36 30 -77.5 46t-93.5 16q-29 0 -53.5 -7
t-43.5 -20.5t-29.5 -33.5t-10.5 -47q0 -45 29 -69t78 -43l95 -40q67 -29 99 -66t32 -96q0 -37 -14.5 -67t-40.5 -51.5t-61.5 -33t-77.5 -11.5q-62 0 -111 17.5t-79 43.5v59zM304 667l-67 84l-67 -84h-47l92 119h44l92 -119h-47z" />
    <glyph glyph-name="scircumflex" unicode="&#x15d;" horiz-adv-x="381" 
d="M41 89q29 -26 63.5 -40t78.5 -14q21 0 40 4.5t33.5 14t23.5 24.5t9 36q0 29 -18 47t-52 30l-74 27q-23 8 -41.5 18t-32.5 23.5t-21.5 32t-7.5 44.5q0 28 11.5 50t31.5 37t47 22.5t57 7.5q35 0 69 -10t61 -30v-54q-28 22 -58 36t-72 14q-40 0 -69 -18.5t-29 -53.5
q0 -32 20 -47t56 -29l77 -29q94 -32 94 -116q0 -30 -12.5 -53.5t-33.5 -39t-49.5 -24t-60.5 -8.5q-45 0 -82 13t-59 31v54zM264 513l-68 97l-68 -97h-46l92 131h44l92 -131h-46z" />
    <glyph glyph-name="Scedilla" unicode="&#x15e;" horiz-adv-x="466" 
d="M39 111q45 -40 90.5 -56.5t99.5 -16.5q66 0 105 30.5t39 84.5q0 23 -6.5 40t-20 30.5t-34.5 25t-49 23.5l-90 38q-24 10 -48 23t-42.5 31t-30.5 43t-12 60q0 39 15 68t40.5 48.5t59.5 29.5t71 10q48 0 93 -13.5t79 -38.5v-57q-36 30 -77.5 46t-93.5 16q-29 0 -53.5 -7
t-43.5 -20.5t-29.5 -33.5t-10.5 -47q0 -45 29 -69t78 -43l95 -40q67 -29 99 -66t32 -96q0 -37 -14.5 -67t-40.5 -51.5t-61.5 -33t-77.5 -11.5q-62 0 -111 17.5t-79 43.5v59zM211 -48h48l-61 -127h-46z" />
    <glyph glyph-name="scedilla" unicode="&#x15f;" horiz-adv-x="381" 
d="M41 89q29 -26 63.5 -40t78.5 -14q21 0 40 4.5t33.5 14t23.5 24.5t9 36q0 29 -18 47t-52 30l-74 27q-23 8 -41.5 18t-32.5 23.5t-21.5 32t-7.5 44.5q0 28 11.5 50t31.5 37t47 22.5t57 7.5q35 0 69 -10t61 -30v-54q-28 22 -58 36t-72 14q-40 0 -69 -18.5t-29 -53.5
q0 -32 20 -47t56 -29l77 -29q94 -32 94 -116q0 -30 -12.5 -53.5t-33.5 -39t-49.5 -24t-60.5 -8.5q-45 0 -82 13t-59 31v54zM167 -48h48l-61 -127h-46z" />
    <glyph glyph-name="Scaron" unicode="&#x160;" horiz-adv-x="466" 
d="M39 111q45 -40 90.5 -56.5t99.5 -16.5q66 0 105 30.5t39 84.5q0 23 -6.5 40t-20 30.5t-34.5 25t-49 23.5l-90 38q-24 10 -48 23t-42.5 31t-30.5 43t-12 60q0 39 15 68t40.5 48.5t59.5 29.5t71 10q48 0 93 -13.5t79 -38.5v-57q-36 30 -77.5 46t-93.5 16q-29 0 -53.5 -7
t-43.5 -20.5t-29.5 -33.5t-10.5 -47q0 -45 29 -69t78 -43l95 -40q67 -29 99 -66t32 -96q0 -37 -14.5 -67t-40.5 -51.5t-61.5 -33t-77.5 -11.5q-62 0 -111 17.5t-79 43.5v59zM170 779l67 -83l67 83h47l-92 -119h-44l-92 119h47z" />
    <glyph glyph-name="scaron" unicode="&#x161;" horiz-adv-x="381" 
d="M41 89q29 -26 63.5 -40t78.5 -14q21 0 40 4.5t33.5 14t23.5 24.5t9 36q0 29 -18 47t-52 30l-74 27q-23 8 -41.5 18t-32.5 23.5t-21.5 32t-7.5 44.5q0 28 11.5 50t31.5 37t47 22.5t57 7.5q35 0 69 -10t61 -30v-54q-28 22 -58 36t-72 14q-40 0 -69 -18.5t-29 -53.5
q0 -32 20 -47t56 -29l77 -29q94 -32 94 -116q0 -30 -12.5 -53.5t-33.5 -39t-49.5 -24t-60.5 -8.5q-45 0 -82 13t-59 31v54zM174 515l-92 130h46l68 -95l68 95h46l-92 -130h-44z" />
    <glyph glyph-name="Tcedilla" unicode="&#x162;" horiz-adv-x="562" 
d="M531 614v-47h-225v-567h-51v567h-224v47h500zM280 -116q-12 2 -21 10.5t-9 23.5t10.5 25t26.5 10q15 0 25 -10t10 -27q0 -12 -4.5 -21.5t-9.5 -19.5l-31 -58h-33z" />
    <glyph glyph-name="tcedilla" unicode="&#x163;" horiz-adv-x="292" 
d="M134 -116q-12 2 -21 10.5t-9 23.5t10.5 25t26.5 10q15 0 25 -10t10 -27q0 -12 -4.5 -21.5t-9.5 -19.5l-31 -58h-33zM116 0v401h-95v43h95v114h50v-114h105v-43h-105v-401h-50z" />
    <glyph glyph-name="Tcaron" unicode="&#x164;" horiz-adv-x="562" 
d="M531 614v-47h-225v-567h-51v567h-224v47h500zM214 779l67 -83l67 83h47l-92 -119h-44l-92 119h47z" />
    <glyph glyph-name="tcaron" unicode="&#x165;" horiz-adv-x="292" 
d="M116 0v401h-95v43h95v114h50v-114h105v-43h-105v-401h-50zM253 660h40l-32 -160h-41z" />
    <glyph glyph-name="Tbar" unicode="&#x166;" horiz-adv-x="562" 
d="M531 614v-47h-225v-227h117v-45h-117v-295h-51v295h-117v45h117v227h-224v47h500z" />
    <glyph glyph-name="tbar" unicode="&#x167;" horiz-adv-x="292" 
d="M248 282v-41h-82v-241h-50v241h-76v41h76v119h-95v43h95v114h50v-114h105v-43h-105v-119h82z" />
    <glyph glyph-name="Utilde" unicode="&#x168;" horiz-adv-x="605" 
d="M302 -9q-50 0 -92.5 15.5t-74.5 46.5t-50 78.5t-18 110.5v372h51v-365q0 -54 14 -93.5t38.5 -66t58 -39t73.5 -12.5t73.5 12.5t58.5 39t39 66t14 93.5v365h51v-372q0 -63 -18.5 -110.5t-50 -78.5t-75 -46.5t-92.5 -15.5zM428 769q0 -48 -17.5 -76t-51.5 -28
q-19 0 -33.5 10t-27 22t-24 22t-25.5 10q-18 0 -27 -16.5t-9 -44.5h-36q0 47 17.5 75.5t51.5 28.5q19 0 33.5 -10t27 -22t24 -22t25.5 -10q18 0 27 16.5t10 44.5h35z" />
    <glyph glyph-name="utilde" unicode="&#x169;" horiz-adv-x="481" 
d="M361 0v71q-20 -32 -56.5 -56t-84.5 -24q-76 0 -115 44t-39 115v294h49v-287q0 -52 27 -86t87 -34q46 0 80.5 28t51.5 68v311h49v-444h-49zM364 625q0 -48 -17 -76.5t-51 -28.5q-19 0 -33 10t-26.5 22.5t-24 22.5t-24.5 10q-17 0 -26.5 -16.5t-9.5 -45.5h-35q0 48 17 76.5
t51 28.5q19 0 33.5 -10t26.5 -22.5t23.5 -22.5t24.5 -10q17 0 26.5 17t9.5 45h35z" />
    <glyph glyph-name="Umacron" unicode="&#x16a;" horiz-adv-x="605" 
d="M302 -9q-50 0 -92.5 15.5t-74.5 46.5t-50 78.5t-18 110.5v372h51v-365q0 -54 14 -93.5t38.5 -66t58 -39t73.5 -12.5t73.5 12.5t58.5 39t39 66t14 93.5v365h51v-372q0 -63 -18.5 -110.5t-50 -78.5t-75 -46.5t-92.5 -15.5zM404 712v-42h-201v42h201z" />
    <glyph glyph-name="umacron" unicode="&#x16b;" horiz-adv-x="481" 
d="M361 0v71q-20 -32 -56.5 -56t-84.5 -24q-76 0 -115 44t-39 115v294h49v-287q0 -52 27 -86t87 -34q46 0 80.5 28t51.5 68v311h49v-444h-49zM341 578v-41h-201v41h201z" />
    <glyph glyph-name="Ubreve" unicode="&#x16c;" horiz-adv-x="605" 
d="M302 -9q-50 0 -92.5 15.5t-74.5 46.5t-50 78.5t-18 110.5v372h51v-365q0 -54 14 -93.5t38.5 -66t58 -39t73.5 -12.5t73.5 12.5t58.5 39t39 66t14 93.5v365h51v-372q0 -63 -18.5 -110.5t-50 -78.5t-75 -46.5t-92.5 -15.5zM303 664q-45 0 -74 30t-29 87h40
q0 -38 17.5 -58.5t45.5 -20.5q27 0 45 20.5t18 58.5h39q0 -57 -28.5 -87t-73.5 -30z" />
    <glyph glyph-name="ubreve" unicode="&#x16d;" horiz-adv-x="481" 
d="M361 0v71q-20 -32 -56.5 -56t-84.5 -24q-76 0 -115 44t-39 115v294h49v-287q0 -52 27 -86t87 -34q46 0 80.5 28t51.5 68v311h49v-444h-49zM240 506q-45 0 -73.5 30.5t-28.5 89.5h40q0 -39 17 -61t45 -22t45 22t17 61h40q0 -59 -28.5 -89.5t-73.5 -30.5z" />
    <glyph glyph-name="Uring" unicode="&#x16e;" horiz-adv-x="605" 
d="M302 -9q-50 0 -92.5 15.5t-74.5 46.5t-50 78.5t-18 110.5v372h51v-365q0 -54 14 -93.5t38.5 -66t58 -39t73.5 -12.5t73.5 12.5t58.5 39t39 66t14 93.5v365h51v-372q0 -63 -18.5 -110.5t-50 -78.5t-75 -46.5t-92.5 -15.5zM384 728q0 -34 -23.5 -57t-57.5 -23t-57.5 23
t-23.5 57q0 35 23.5 58t57.5 23t57.5 -23t23.5 -58zM352 728q0 21 -14.5 35.5t-34.5 14.5t-34.5 -14.5t-14.5 -35.5q0 -20 14.5 -34.5t34.5 -14.5t34.5 14.5t14.5 34.5z" />
    <glyph glyph-name="uring" unicode="&#x16f;" horiz-adv-x="481" 
d="M361 0v71q-20 -32 -56.5 -56t-84.5 -24q-76 0 -115 44t-39 115v294h49v-287q0 -52 27 -86t87 -34q46 0 80.5 28t51.5 68v311h49v-444h-49zM321 580q0 -34 -23.5 -57.5t-57.5 -23.5t-57.5 23.5t-23.5 57.5t23.5 57.5t57.5 23.5t57.5 -23.5t23.5 -57.5zM289 580
q0 21 -14.5 35t-34.5 14t-34.5 -14t-14.5 -35t14.5 -35t34.5 -14t34.5 14t14.5 35z" />
    <glyph glyph-name="Uhungarumlaut" unicode="&#x170;" horiz-adv-x="605" 
d="M302 -9q-50 0 -92.5 15.5t-74.5 46.5t-50 78.5t-18 110.5v372h51v-365q0 -54 14 -93.5t38.5 -66t58 -39t73.5 -12.5t73.5 12.5t58.5 39t39 66t14 93.5v365h51v-372q0 -63 -18.5 -110.5t-50 -78.5t-75 -46.5t-92.5 -15.5zM301 782h46l-75 -117h-45zM412 782h46l-74 -117
h-46z" />
    <glyph glyph-name="uhungarumlaut" unicode="&#x171;" horiz-adv-x="481" 
d="M361 0v71q-20 -32 -56.5 -56t-84.5 -24q-76 0 -115 44t-39 115v294h49v-287q0 -52 27 -86t87 -34q46 0 80.5 28t51.5 68v311h49v-444h-49zM233 650h45l-74 -130h-45zM343 650h45l-74 -130h-45z" />
    <glyph glyph-name="Uogonek" unicode="&#x172;" horiz-adv-x="605" 
d="M302 -9q-50 0 -92.5 15.5t-74.5 46.5t-50 78.5t-18 110.5v372h51v-365q0 -54 14 -93.5t38.5 -66t58 -39t73.5 -12.5t73.5 12.5t58.5 39t39 66t14 93.5v365h51v-372q0 -84 -30.5 -135t-79.5 -86q-52 -38 -71 -72.5t-19 -63.5q0 -14 6.5 -22t17.5 -8t19 3.5t18 10.5v-36
q-10 -7 -20.5 -11t-23.5 -4q-26 0 -42 16t-16 45q0 28 14.5 59t46.5 60q-12 -3 -27.5 -5t-28.5 -2z" />
    <glyph glyph-name="uogonek" unicode="&#x173;" horiz-adv-x="481" 
d="M410 0q-15 -26 -25 -44t-15.5 -31t-7.5 -22.5t-2 -19.5q0 -28 25 -28q11 0 19 3.5t18 10.5v-36q-10 -7 -20.5 -11t-24.5 -4q-25 0 -41 15t-16 45q0 24 12 51t38 71h-9v71q-20 -32 -56.5 -56t-84.5 -24q-76 0 -115 44t-39 115v294h49v-287q0 -52 27 -86t87 -34
q46 0 80.5 28t51.5 68v311h49v-444z" />
    <glyph glyph-name="Wcircumflex" unicode="&#x174;" horiz-adv-x="759" 
d="M545 86l142 528h50l-167 -614h-46l-145 523l-144 -523h-45l-168 614h51l142 -528l144 528h42zM446 667l-67 84l-67 -84h-47l92 119h44l92 -119h-47z" />
    <glyph glyph-name="wcircumflex" unicode="&#x175;" horiz-adv-x="604" 
d="M538 444h48l-134 -444h-43l-107 367l-107 -367h-43l-134 444h49l109 -366l106 366h41l106 -366zM370 513l-68 97l-68 -97h-46l92 131h44l92 -131h-46z" />
    <glyph glyph-name="Ycircumflex" unicode="&#x176;" horiz-adv-x="535" 
d="M517 614l-224 -352v-262h-51v262l-223 352h56l194 -305l193 305h55zM334 667l-67 84l-67 -84h-47l92 119h44l92 -119h-47z" />
    <glyph glyph-name="ycircumflex" unicode="&#x177;" horiz-adv-x="432" 
d="M192 6l-174 438h53l146 -376l146 376h51l-244 -614h-50zM285 513l-68 97l-68 -97h-46l92 131h44l92 -131h-46z" />
    <glyph glyph-name="Ydieresis" unicode="&#x178;" horiz-adv-x="535" 
d="M517 614l-224 -352v-262h-51v262l-223 352h56l194 -305l193 305h55zM173 715q0 14 9.5 23.5t23.5 9.5t23 -9.5t9 -23.5t-9 -23.5t-23 -9.5t-23.5 9.5t-9.5 23.5zM298 715q0 14 9 23.5t23 9.5t23.5 -9.5t9.5 -23.5t-9.5 -23.5t-23.5 -9.5t-23 9.5t-9 23.5z" />
    <glyph glyph-name="Zacute" unicode="&#x179;" horiz-adv-x="517" 
d="M28 0v4l375 563h-359v47h442v-4l-374 -563h371v-47h-455zM320 782h56l-88 -117h-50z" />
    <glyph glyph-name="zacute" unicode="&#x17a;" horiz-adv-x="416" 
d="M35 0v4l265 397h-253v43h331v-4l-264 -397h263v-43h-342zM263 650h53l-87 -130h-49z" />
    <glyph glyph-name="Zdotaccent" unicode="&#x17b;" horiz-adv-x="517" 
d="M28 0v4l375 563h-359v47h442v-4l-374 -563h371v-47h-455zM302 714q0 -14 -10 -24t-24 -10t-24 10t-10 24t10 24t24 10t24 -10t10 -24z" />
    <glyph glyph-name="zdotaccent" unicode="&#x17c;" horiz-adv-x="416" 
d="M35 0v4l265 397h-253v43h331v-4l-264 -397h263v-43h-342zM244 579q0 -14 -10 -24t-24 -10t-24 10t-10 24t10 24t24 10t24 -10t10 -24z" />
    <glyph glyph-name="Zcaron" unicode="&#x17d;" horiz-adv-x="517" 
d="M28 0v4l375 563h-359v47h442v-4l-374 -563h371v-47h-455zM201 779l67 -83l67 83h47l-92 -119h-44l-92 119h47z" />
    <glyph glyph-name="zcaron" unicode="&#x17e;" horiz-adv-x="416" 
d="M35 0v4l265 397h-253v43h331v-4l-264 -397h263v-43h-342zM188 515l-92 130h46l68 -95l68 95h46l-92 -130h-44z" />
    <glyph glyph-name="florin" unicode="&#x192;" horiz-adv-x="384" 
d="M145 337l27 151q11 60 45 97.5t91 37.5q16 0 31 -3.5t28 -8.5v-46q-14 7 -28 10.5t-31 3.5q-35 0 -57 -25.5t-30 -70.5l-26 -146h103v-42h-111l-60 -340q-10 -56 -37.5 -92t-84.5 -36q-33 0 -58 12v46q28 -14 57 -14q36 0 51.5 24.5t23.5 64.5l59 335h-72v42h79z" />
    <glyph glyph-name="Aringacute" unicode="&#x1fa;" horiz-adv-x="579" 
d="M373 711q0 -29 -24.5 -49.5t-59.5 -20.5t-59.5 20.5t-24.5 49.5q0 31 24.5 51.5t59.5 20.5t59.5 -20.5t24.5 -51.5zM340 711q0 19 -14.5 30.5t-36.5 11.5q-21 0 -36 -11.5t-15 -30.5q0 -17 15 -28.5t36 -11.5q22 0 36.5 11.5t14.5 28.5zM325 893h53l-63 -83h-48zM556 0
h-51l-80 202h-272l-79 -202h-51l243 614h47zM407 248l-118 300l-118 -300h236z" />
    <glyph glyph-name="aringacute" unicode="&#x1fb;" horiz-adv-x="435" 
d="M305 550q0 -29 -24.5 -49.5t-59.5 -20.5t-59.5 20.5t-24.5 49.5q0 30 24.5 50.5t59.5 20.5t59.5 -20.5t24.5 -50.5zM272 550q0 18 -14.5 29.5t-36.5 11.5q-21 0 -36 -11.5t-15 -29.5t15 -29.5t36 -11.5q22 0 36.5 11.5t14.5 29.5zM257 732h53l-63 -84h-48zM321 308
q0 45 -29.5 72t-80.5 27q-38 0 -70 -10.5t-59 -28.5v48q23 15 57.5 26t76.5 11q71 0 112 -38t41 -104v-311h-48v42q-14 -17 -48 -33t-75 -16q-34 0 -63.5 9.5t-52 27t-35.5 43t-13 57.5q0 31 13 56t35.5 43t52.5 27.5t65 9.5q40 0 73 -15t48 -32v89zM321 158
q-11 29 -44 47.5t-74 18.5q-24 0 -45.5 -6t-38.5 -17.5t-27 -29t-10 -41.5t10 -41.5t27 -29.5t38.5 -18t45.5 -6q41 0 74 18.5t44 47.5v57z" />
    <glyph glyph-name="AEacute" unicode="&#x1fc;" horiz-adv-x="858" 
d="M802 567h-318v-227h287v-47h-287v-246h318v-47h-368v202h-231l-126 -202h-54l382 614h397v-47zM434 248v321l-202 -321h202zM651 782h56l-88 -117h-50z" />
    <glyph glyph-name="aeacute" unicode="&#x1fd;" horiz-adv-x="723" 
d="M524 -9q-62 0 -106.5 28t-68.5 78q-11 -20 -26 -38.5t-35 -33t-45.5 -23.5t-56.5 -9q-33 0 -60.5 9t-48 26.5t-32 41.5t-11.5 54q0 31 13 56t36 42t53 26.5t65 9.5h121v38q0 52 -30 81.5t-81 29.5q-38 0 -70 -10.5t-59 -28.5v48q23 15 57.5 26t76.5 11q57 0 93 -28.5
t47 -70.5q23 45 61 72t92 27q44 0 77 -16t55.5 -44.5t33.5 -69t11 -88.5v-18h-319q2 -93 47.5 -137.5t113.5 -44.5q38 0 67.5 10t58.5 34v-49q-26 -20 -58.5 -29.5t-71.5 -9.5zM188 35q53 0 86.5 30.5t47.5 72.5v79h-119q-24 0 -45.5 -5.5t-38.5 -17t-27 -28.5t-10 -40
q0 -46 31 -68.5t75 -22.5zM509 409q-56 0 -94 -40t-46 -111h268q-1 29 -8.5 56.5t-23 48.5t-39.5 33.5t-57 12.5zM419 650h53l-87 -130h-49z" />
    <glyph glyph-name="Oslashacute" unicode="&#x1fe;" horiz-adv-x="630" 
d="M114 86q-33 42 -51.5 97.5t-18.5 123.5q0 70 20.5 128.5t56.5 100t85.5 64.5t108.5 23q52 0 97 -18t80 -51l52 64l32 -24l-57 -70q32 -42 50 -96.5t18 -120.5q0 -71 -20.5 -129t-56.5 -99.5t-86 -64.5t-109 -23q-51 0 -94.5 17t-78.5 49l-60 -74l-32 24zM96 307
q0 -55 13 -100.5t37 -80.5l315 390q-28 28 -64.5 43.5t-81.5 15.5q-49 0 -89 -19.5t-69 -55t-45 -85t-16 -108.5zM535 307q0 106 -48 177l-315 -389q28 -27 63.5 -41.5t79.5 -14.5q49 0 89.5 19.5t69.5 55t45 85t16 108.5zM367 782h56l-88 -117h-50z" />
    <glyph glyph-name="oslashacute" unicode="&#x1ff;" horiz-adv-x="481" 
d="M93 61q-49 61 -49 161q0 51 14 93.5t40 73t62 47.5t80 17q72 0 123 -45l42 54l29 -21l-46 -59q23 -30 36 -70.5t13 -89.5q0 -51 -14 -93.5t-40 -73t-62.5 -47.5t-80.5 -17q-37 0 -67.5 11.5t-55.5 32.5l-44 -57l-29 21zM93 222q0 -76 30 -122l212 272q-39 37 -95 37
q-33 0 -60 -13.5t-46.5 -38t-30 -59t-10.5 -76.5zM388 222q0 36 -8 67t-22 54l-212 -271q37 -37 94 -37q33 0 60.5 13.5t47 38t30 59t10.5 76.5zM293 650h53l-87 -130h-49z" />
    <glyph glyph-name="Scommaaccent" unicode="&#x218;" horiz-adv-x="466" 
d="M39 111q45 -40 90.5 -56.5t99.5 -16.5q66 0 105 30.5t39 84.5q0 23 -6.5 40t-20 30.5t-34.5 25t-49 23.5l-90 38q-24 10 -48 23t-42.5 31t-30.5 43t-12 60q0 39 15 68t40.5 48.5t59.5 29.5t71 10q48 0 93 -13.5t79 -38.5v-57q-36 30 -77.5 46t-93.5 16q-29 0 -53.5 -7
t-43.5 -20.5t-29.5 -33.5t-10.5 -47q0 -45 29 -69t78 -43l95 -40q67 -29 99 -66t32 -96q0 -37 -14.5 -67t-40.5 -51.5t-61.5 -33t-77.5 -11.5q-62 0 -111 17.5t-79 43.5v59zM232 -116q-12 2 -21 10.5t-9 23.5t10.5 25t26.5 10q15 0 25 -10t10 -27q0 -12 -4.5 -21.5
t-9.5 -19.5l-31 -58h-33z" />
    <glyph glyph-name="scommaaccent" unicode="&#x219;" horiz-adv-x="381" 
d="M180 -116q-12 2 -21 10.5t-9 23.5t10.5 25t26.5 10q15 0 25 -10t10 -27q0 -12 -4.5 -21.5t-9.5 -19.5l-31 -58h-33zM41 89q29 -26 63.5 -40t78.5 -14q21 0 40 4.5t33.5 14t23.5 24.5t9 36q0 29 -18 47t-52 30l-74 27q-23 8 -41.5 18t-32.5 23.5t-21.5 32t-7.5 44.5
q0 28 11.5 50t31.5 37t47 22.5t57 7.5q35 0 69 -10t61 -30v-54q-28 22 -58 36t-72 14q-40 0 -69 -18.5t-29 -53.5q0 -32 20 -47t56 -29l77 -29q94 -32 94 -116q0 -30 -12.5 -53.5t-33.5 -39t-49.5 -24t-60.5 -8.5q-45 0 -82 13t-59 31v54z" />
    <glyph glyph-name="uni0237" unicode="&#x237;" horiz-adv-x="192" 
d="M121 -64q0 -57 -30 -86t-82 -29q-6 0 -12.5 0.5t-10.5 2.5v44q7 -3 20 -3q31 0 48 15.5t17 60.5v503h50v-508z" />
    <glyph glyph-name="circumflex" unicode="&#x2c6;" 
d="M318 513l-68 97l-68 -97h-46l92 131h44l92 -131h-46z" />
    <glyph glyph-name="caron" unicode="&#x2c7;" 
d="M228 515l-92 130h46l68 -95l68 95h46l-92 -130h-44z" />
    <glyph glyph-name="breve" unicode="&#x2d8;" 
d="M250 506q-45 0 -73.5 30.5t-28.5 89.5h40q0 -39 17 -61t45 -22t45 22t17 61h40q0 -59 -28.5 -89.5t-73.5 -30.5z" />
    <glyph glyph-name="dotaccent" unicode="&#x2d9;" 
d="M284 579q0 -14 -10 -24t-24 -10t-24 10t-10 24t10 24t24 10t24 -10t10 -24z" />
    <glyph glyph-name="ring" unicode="&#x2da;" 
d="M331 580q0 -34 -23.5 -57.5t-57.5 -23.5t-57.5 23.5t-23.5 57.5t23.5 57.5t57.5 23.5t57.5 -23.5t23.5 -57.5zM299 580q0 21 -14.5 35t-34.5 14t-34.5 -14t-14.5 -35t14.5 -35t34.5 -14t34.5 14t14.5 35z" />
    <glyph glyph-name="ogonek" unicode="&#x2db;" 
d="M303 4q-16 -27 -26 -46t-16 -32.5t-8 -23t-2 -19.5q0 -28 25 -28q11 0 19 3.5t18 10.5v-36q-10 -7 -20.5 -11t-24.5 -4q-26 0 -41.5 15t-15.5 45q0 24 13 51.5t39 74.5h40z" />
    <glyph glyph-name="tilde" unicode="&#x2dc;" 
d="M373 625q0 -48 -17 -76.5t-51 -28.5q-19 0 -33 10t-26.5 22.5t-24 22.5t-24.5 10q-17 0 -26.5 -16.5t-9.5 -45.5h-35q0 48 17 76.5t51 28.5q19 0 33.5 -10t26.5 -22.5t23.5 -22.5t24.5 -10q17 0 26.5 17t9.5 45h35z" />
    <glyph glyph-name="hungarumlaut" unicode="&#x2dd;" 
d="M209 650h45l-74 -130h-45zM319 650h45l-74 -130h-45z" />
    <glyph glyph-name="gravecomb" unicode="&#x300;" 
d="M182 650h53l83 -130h-49z" />
    <glyph glyph-name="acutecomb" unicode="&#x301;" 
d="M265 650h53l-87 -130h-49z" />
    <glyph glyph-name="circumflexcomb" unicode="&#x302;" 
d="M318 513l-68 97l-68 -97h-46l92 131h44l92 -131h-46z" />
    <glyph glyph-name="tildecomb" unicode="&#x303;" 
d="M373 625q0 -48 -17 -76.5t-51 -28.5q-19 0 -33 10t-26.5 22.5t-24 22.5t-24.5 10q-17 0 -26.5 -16.5t-9.5 -45.5h-35q0 48 17 76.5t51 28.5q19 0 33.5 -10t26.5 -22.5t23.5 -22.5t24.5 -10q17 0 26.5 17t9.5 45h35z" />
    <glyph glyph-name="macroncomb" unicode="&#x304;" 
d="M350 578v-41h-201v41h201z" />
    <glyph glyph-name="brevecomb" unicode="&#x306;" 
d="M250 506q-45 0 -73.5 30.5t-28.5 89.5h40q0 -39 17 -61t45 -22t45 22t17 61h40q0 -59 -28.5 -89.5t-73.5 -30.5z" />
    <glyph glyph-name="dotaccentcomb" unicode="&#x307;" 
d="M284 579q0 -14 -10 -24t-24 -10t-24 10t-10 24t10 24t24 10t24 -10t10 -24z" />
    <glyph glyph-name="dieresiscomb" unicode="&#x308;" 
d="M155 571q0 14 9.5 23t23.5 9t23 -9t9 -23t-9 -23.5t-23 -9.5t-23.5 9.5t-9.5 23.5zM280 571q0 14 9 23t23 9t23.5 -9t9.5 -23t-9.5 -23.5t-23.5 -9.5t-23 9.5t-9 23.5z" />
    <glyph glyph-name="ringcomb" unicode="&#x30a;" 
d="M331 580q0 -34 -23.5 -57.5t-57.5 -23.5t-57.5 23.5t-23.5 57.5t23.5 57.5t57.5 23.5t57.5 -23.5t23.5 -57.5zM299 580q0 21 -14.5 35t-34.5 14t-34.5 -14t-14.5 -35t14.5 -35t34.5 -14t34.5 14t14.5 35z" />
    <glyph glyph-name="hungarumlautcomb" unicode="&#x30b;" 
d="M209 650h45l-74 -130h-45zM319 650h45l-74 -130h-45z" />
    <glyph glyph-name="caroncomb" unicode="&#x30c;" 
d="M228 515l-92 130h46l68 -95l68 95h46l-92 -130h-44z" />
    <glyph glyph-name="commaturnedabovecomb" unicode="&#x312;" 
d="M252 595q12 -2 20.5 -11t8.5 -23q0 -15 -10.5 -25.5t-25.5 -10.5q-16 0 -26.5 10.5t-10.5 26.5q0 13 4.5 22.5t10.5 19.5l31 59h34z" />
    <glyph glyph-name="commaaccentcomb" unicode="&#x326;" 
d="M248 -116q-12 2 -21 10.5t-9 23.5t10.5 25t26.5 10q15 0 25 -10t10 -27q0 -12 -4.5 -21.5t-9.5 -19.5l-31 -58h-33z" />
    <glyph glyph-name="cedillacomb" unicode="&#x327;" 
d="M254 -48h48l-61 -127h-46z" />
    <glyph glyph-name="ogonekcomb" unicode="&#x328;" 
d="M303 4q-16 -27 -26 -46t-16 -32.5t-8 -23t-2 -19.5q0 -28 25 -28q11 0 19 3.5t18 10.5v-36q-10 -7 -20.5 -11t-24.5 -4q-26 0 -41.5 15t-15.5 45q0 24 13 51.5t39 74.5h40z" />
    <glyph glyph-name="Wgrave" unicode="&#x1e80;" horiz-adv-x="759" 
d="M545 86l142 528h50l-167 -614h-46l-145 523l-144 -523h-45l-168 614h51l142 -528l144 528h42zM267 782h55l83 -117h-51z" />
    <glyph glyph-name="wgrave" unicode="&#x1e81;" horiz-adv-x="604" 
d="M538 444h48l-134 -444h-43l-107 367l-107 -367h-43l-134 444h49l109 -366l106 366h41l106 -366zM193 650h53l83 -130h-49z" />
    <glyph glyph-name="Wacute" unicode="&#x1e82;" horiz-adv-x="759" 
d="M545 86l142 528h50l-167 -614h-46l-145 523l-144 -523h-45l-168 614h51l142 -528l144 528h42zM433 782h56l-88 -117h-50z" />
    <glyph glyph-name="wacute" unicode="&#x1e83;" horiz-adv-x="604" 
d="M538 444h48l-134 -444h-43l-107 367l-107 -367h-43l-134 444h49l109 -366l106 366h41l106 -366zM356 650h53l-87 -130h-49z" />
    <glyph glyph-name="Wdieresis" unicode="&#x1e84;" horiz-adv-x="759" 
d="M545 86l142 528h50l-167 -614h-46l-145 523l-144 -523h-45l-168 614h51l142 -528l144 528h42zM284 715q0 14 9.5 23.5t23.5 9.5t23 -9.5t9 -23.5t-9 -23.5t-23 -9.5t-23.5 9.5t-9.5 23.5zM409 715q0 14 9 23.5t23 9.5t23.5 -9.5t9.5 -23.5t-9.5 -23.5t-23.5 -9.5t-23 9.5
t-9 23.5z" />
    <glyph glyph-name="wdieresis" unicode="&#x1e85;" horiz-adv-x="604" 
d="M538 444h48l-134 -444h-43l-107 367l-107 -367h-43l-134 444h49l109 -366l106 366h41l106 -366zM207 571q0 14 9.5 23t23.5 9t23 -9t9 -23t-9 -23.5t-23 -9.5t-23.5 9.5t-9.5 23.5zM332 571q0 14 9 23t23 9t23.5 -9t9.5 -23t-9.5 -23.5t-23.5 -9.5t-23 9.5t-9 23.5z" />
    <glyph glyph-name="Ygrave" unicode="&#x1ef2;" horiz-adv-x="535" 
d="M517 614l-224 -352v-262h-51v262l-223 352h56l194 -305l193 305h55zM157 782h55l83 -117h-51z" />
    <glyph glyph-name="ygrave" unicode="&#x1ef3;" horiz-adv-x="432" 
d="M192 6l-174 438h53l146 -376l146 376h51l-244 -614h-50zM108 650h53l83 -130h-49z" />
    <glyph glyph-name="endash" unicode="&#x2013;" horiz-adv-x="475" 
d="M435 280v-41h-395v41h395z" />
    <glyph glyph-name="emdash" unicode="&#x2014;" horiz-adv-x="846" 
d="M806 280v-41h-766v41h766z" />
    <glyph glyph-name="quoteleft" unicode="&#x2018;" horiz-adv-x="141" 
d="M69 517q13 -2 22 -11t9 -25t-10.5 -27t-26.5 -11q-17 0 -27.5 11t-10.5 29q0 12 4 22.5t10 21.5l47 87h35z" />
    <glyph glyph-name="quoteright" unicode="&#x2019;" horiz-adv-x="141" 
d="M72 549q-13 2 -22 11t-9 25t10.5 27t26.5 11q17 0 27.5 -11t10.5 -29q0 -12 -4 -22.5t-10 -21.5l-47 -87h-35z" />
    <glyph glyph-name="quotesinglbase" unicode="&#x201a;" horiz-adv-x="126" 
d="M72 -1q-13 2 -22 11t-9 25t10.5 27t26.5 11q17 0 27.5 -11t10.5 -29q0 -12 -4 -22.5t-10 -21.5l-47 -87h-35z" />
    <glyph glyph-name="quotedblleft" unicode="&#x201c;" horiz-adv-x="264" 
d="M69 517q13 -2 22 -11t9 -25t-10.5 -27t-26.5 -11q-17 0 -27.5 11t-10.5 29q0 12 4 22.5t10 21.5l47 87h35zM192 517q13 -2 22 -11t9 -25t-10.5 -27t-26.5 -11q-17 0 -27.5 11t-10.5 29q0 12 4 22.5t10 21.5l47 87h35z" />
    <glyph glyph-name="quotedblright" unicode="&#x201d;" horiz-adv-x="264" 
d="M72 549q-13 2 -22 11t-9 25t10.5 27t26.5 11q17 0 27.5 -11t10.5 -29q0 -12 -4 -22.5t-10 -21.5l-47 -87h-35zM195 549q-13 2 -22 11t-9 25t10.5 27t26.5 11q17 0 27.5 -11t10.5 -29q0 -12 -4 -22.5t-10 -21.5l-47 -87h-35z" />
    <glyph glyph-name="quotedblbase" unicode="&#x201e;" horiz-adv-x="264" 
d="M72 -1q-13 2 -22 11t-9 25t10.5 27t26.5 11q17 0 27.5 -11t10.5 -29q0 -12 -4 -22.5t-10 -21.5l-47 -87h-35zM195 -1q-13 2 -22 11t-9 25t10.5 27t26.5 11q17 0 27.5 -11t10.5 -29q0 -12 -4 -22.5t-10 -21.5l-47 -87h-35z" />
    <glyph glyph-name="dagger" unicode="&#x2020;" horiz-adv-x="300" 
d="M130 558v92h40v-92h99v-39h-99v-204h-40v204h-99v39h99z" />
    <glyph glyph-name="daggerdbl" unicode="&#x2021;" horiz-adv-x="304" 
d="M131 560v90h41v-90h100v-38h-100v-79h100v-38h-100v-90h-41v90h-99v38h99v79h-99v38h99z" />
    <glyph glyph-name="bullet" unicode="&#x2022;" horiz-adv-x="332" 
d="M295 260q0 -28 -10 -51.5t-27.5 -40.5t-41 -26.5t-50.5 -9.5t-50 9.5t-40.5 26.5t-27.5 40.5t-10 51.5t10 51.5t27.5 40.5t40.5 26.5t50 9.5t50.5 -9.5t41 -26.5t27.5 -40.5t10 -51.5z" />
    <glyph glyph-name="ellipsis" unicode="&#x2026;" horiz-adv-x="462" 
d="M33 35q0 17 11 28t26 11q16 0 27 -11t11 -28q0 -16 -11 -27t-27 -11q-15 0 -26 11t-11 27zM193 35q0 17 11 28t27 11q15 0 26 -11t11 -28q0 -16 -11 -27t-26 -11q-16 0 -27 11t-11 27zM354 35q0 17 11 28t26 11q16 0 27 -11t11 -28q0 -16 -11 -27t-27 -11q-15 0 -26 11
t-11 27z" />
    <glyph glyph-name="perthousand" unicode="&#x2030;" horiz-adv-x="907" 
d="M870 119q0 -27 -10 -50t-27 -40.5t-40 -27.5t-49 -10q-27 0 -50 10t-40.5 27.5t-27.5 40.5t-10 50q0 26 10 49t27.5 40t40.5 27t50 10q26 0 49 -10t40 -27t27 -40t10 -49zM829 119q0 35 -25 60t-60 25q-18 0 -34 -6.5t-27.5 -18t-18.5 -27t-7 -33.5q0 -36 25.5 -61.5
t61.5 -25.5q18 0 33.5 7t27 18.5t18 27.5t6.5 34zM78 495q0 -35 25 -60t61 -25t61 25t25 60q0 36 -25 61.5t-61 25.5t-61 -25.5t-25 -61.5zM531 614l-398 -614h-43l398 614h43zM583 119q0 -27 -10 -50t-27 -40.5t-40 -27.5t-49 -10t-49.5 10t-40.5 27.5t-27 40.5t-10 50
q0 26 10 49t27 40t40.5 27t49.5 10t49 -10t40 -27t27 -40t10 -49zM291 495q0 -26 -10 -49t-27.5 -40t-40.5 -27t-49 -10q-27 0 -50 10t-40 27t-27 40t-10 49q0 27 10 50t27 40.5t40 27.5t50 10q26 0 49 -10t40.5 -27.5t27.5 -40.5t10 -50zM542 119q0 35 -25 60t-60 25
q-36 0 -61 -25t-25 -60q0 -36 25 -61.5t61 -25.5q18 0 33.5 7t27 18.5t18 27.5t6.5 34z" />
    <glyph glyph-name="guilsinglleft" unicode="&#x2039;" horiz-adv-x="192" 
d="M25 222l92 136h50l-92 -136l92 -136h-50z" />
    <glyph glyph-name="guilsinglright" unicode="&#x203a;" horiz-adv-x="192" 
d="M117 222l-92 136h50l92 -136l-92 -136h-50z" />
    <glyph glyph-name="fraction" unicode="&#x2044;" horiz-adv-x="144" 
d="M-161 0l417 614h45l-417 -614h-45z" />
    <glyph glyph-name="zerosuperior" unicode="&#x2070;" horiz-adv-x="312" 
d="M156 280q-28 0 -51 12.5t-39.5 35t-25.5 53.5t-9 69q0 37 9 68.5t25.5 54t39.5 35t51 12.5t51 -12.5t39.5 -35t25.5 -54t9 -68.5q0 -38 -9 -69t-25.5 -53.5t-39.5 -35t-51 -12.5zM156 580q-40 0 -61 -36.5t-21 -93.5t21 -93.5t61 -36.5t61 36.5t21 93.5t-21 93.5
t-61 36.5z" />
    <glyph glyph-name="foursuperior" unicode="&#x2074;" horiz-adv-x="277" 
d="M171 397v76h40v-76h55v-37h-55v-75h-40v75h-158v3l117 252h43l-100 -218h98z" />
    <glyph glyph-name="fivesuperior" unicode="&#x2075;" horiz-adv-x="253" 
d="M115 491q48 0 81.5 -27.5t33.5 -77.5q0 -49 -34 -77.5t-83 -28.5q-29 0 -50.5 7.5t-38.5 19.5v45q37 -34 86 -34q32 0 55.5 18t23.5 50t-23.5 50t-56.5 18q-23 0 -39 -4t-31 -11v176h173v-40h-137v-89q17 5 40 5z" />
    <glyph glyph-name="sixsuperior" unicode="&#x2076;" horiz-adv-x="289" 
d="M145 280q-26 0 -48 9t-38 24.5t-24.5 36t-8.5 44.5q0 25 7.5 48t25.5 54l68 119h45l-71 -123q11 8 26 12t29 4q45 0 76 -31t31 -81q0 -49 -32.5 -82.5t-85.5 -33.5zM222 396q0 32 -21 55t-56 23q-34 0 -56 -23t-22 -55q0 -34 22 -56t56 -22q35 0 56 22t21 56z" />
    <glyph glyph-name="sevensuperior" unicode="&#x2077;" horiz-adv-x="254" 
d="M47 285l133 291h-164v39h226v-2l-150 -328h-45z" />
    <glyph glyph-name="eightsuperior" unicode="&#x2078;" horiz-adv-x="291" 
d="M146 316q32 0 52 18t20 44q0 27 -20 45t-52 18t-52 -18t-20 -45q0 -26 20 -44t52 -18zM146 477q26 0 43.5 15.5t17.5 38.5t-17.5 38.5t-43.5 15.5q-27 0 -44.5 -15.5t-17.5 -38.5t17.5 -38.5t44.5 -15.5zM146 280q-49 0 -82 26.5t-33 69.5q0 31 18.5 52.5t45.5 29.5
q-23 9 -37 28.5t-14 45.5q0 40 29 64t73 24q43 0 72.5 -24t29.5 -64q0 -26 -14.5 -45.5t-37.5 -28.5q28 -8 46 -29.5t18 -52.5q0 -43 -32.5 -69.5t-81.5 -26.5z" />
    <glyph glyph-name="ninesuperior" unicode="&#x2079;" horiz-adv-x="289" 
d="M144 620q26 0 48 -9t37.5 -24.5t24.5 -36t9 -44.5q0 -25 -7.5 -48t-25.5 -54l-68 -119h-45l71 123q-11 -8 -26 -12t-29 -4q-45 0 -76 31t-31 81q0 49 32.5 82.5t85.5 33.5zM67 504q0 -32 21 -55t56 -23q34 0 56 23t22 55q0 34 -22 56t-56 22q-35 0 -56 -22t-21 -56z" />
    <glyph glyph-name="zeroinferior" unicode="&#x2080;" horiz-adv-x="312" 
d="M156 -5q-28 0 -51 12.5t-39.5 35t-25.5 53.5t-9 69q0 37 9 68.5t25.5 54t39.5 35t51 12.5t51 -12.5t39.5 -35t25.5 -54t9 -68.5q0 -38 -9 -69t-25.5 -53.5t-39.5 -35t-51 -12.5zM156 295q-40 0 -61 -36.5t-21 -93.5t21 -93.5t61 -36.5t61 36.5t21 93.5t-21 93.5t-61 36.5
z" />
    <glyph glyph-name="oneinferior" unicode="&#x2081;" horiz-adv-x="217" 
d="M115 0v279l-86 -44v45l102 50h28v-330h-44z" />
    <glyph glyph-name="twoinferior" unicode="&#x2082;" horiz-adv-x="263" 
d="M236 0h-215v2l103 126q25 31 42.5 55.5t17.5 54.5q0 26 -16 41.5t-46 15.5q-27 0 -51.5 -14.5t-41.5 -31.5v45q17 17 42.5 29t56.5 12q47 0 73 -25.5t26 -67.5q0 -35 -20 -65t-47 -64l-63 -74h139v-39z" />
    <glyph glyph-name="threeinferior" unicode="&#x2083;" horiz-adv-x="255" 
d="M227 330v-2l-85 -130q38 -5 63 -30.5t25 -66.5q0 -24 -9 -44t-24.5 -33.5t-36 -21t-43.5 -7.5q-32 0 -53 7.5t-38 19.5v46q38 -35 88 -35q32 0 53 17.5t21 49.5q0 37 -29.5 55.5t-72.5 15.5v2l78 117h-137v40h200z" />
    <glyph glyph-name="fourinferior" unicode="&#x2084;" horiz-adv-x="277" 
d="M171 112v76h40v-76h55v-37h-55v-75h-40v75h-158v3l117 252h43l-100 -218h98z" />
    <glyph glyph-name="fiveinferior" unicode="&#x2085;" horiz-adv-x="253" 
d="M115 206q48 0 81.5 -27.5t33.5 -77.5q0 -49 -34 -77.5t-83 -28.5q-29 0 -50.5 7.5t-38.5 19.5v45q37 -34 86 -34q32 0 55.5 18t23.5 50t-23.5 50t-56.5 18q-23 0 -39 -4t-31 -11v176h173v-40h-137v-89q17 5 40 5z" />
    <glyph glyph-name="sixinferior" unicode="&#x2086;" horiz-adv-x="289" 
d="M145 -5q-26 0 -48 9t-38 24.5t-24.5 36t-8.5 44.5q0 25 7.5 48t25.5 54l68 119h45l-71 -123q11 8 26 12t29 4q45 0 76 -31t31 -81q0 -49 -32.5 -82.5t-85.5 -33.5zM222 111q0 32 -21 55t-56 23q-34 0 -56 -23t-22 -55q0 -34 22 -56t56 -22q35 0 56 22t21 56z" />
    <glyph glyph-name="seveninferior" unicode="&#x2087;" horiz-adv-x="254" 
d="M47 0l133 291h-164v39h226v-2l-150 -328h-45z" />
    <glyph glyph-name="eightinferior" unicode="&#x2088;" horiz-adv-x="291" 
d="M146 31q32 0 52 18t20 44q0 27 -20 45t-52 18t-52 -18t-20 -45q0 -26 20 -44t52 -18zM146 192q26 0 43.5 15.5t17.5 38.5t-17.5 38.5t-43.5 15.5q-27 0 -44.5 -15.5t-17.5 -38.5t17.5 -38.5t44.5 -15.5zM146 -5q-49 0 -82 26.5t-33 69.5q0 31 18.5 52.5t45.5 29.5
q-23 9 -37 28.5t-14 45.5q0 40 29 64t73 24q43 0 72.5 -24t29.5 -64q0 -26 -14.5 -45.5t-37.5 -28.5q28 -8 46 -29.5t18 -52.5q0 -43 -32.5 -69.5t-81.5 -26.5z" />
    <glyph glyph-name="nineinferior" unicode="&#x2089;" horiz-adv-x="289" 
d="M144 335q26 0 48 -9t37.5 -24.5t24.5 -36t9 -44.5q0 -25 -7.5 -48t-25.5 -54l-68 -119h-45l71 123q-11 -8 -26 -12t-29 -4q-45 0 -76 31t-31 81q0 49 32.5 82.5t85.5 33.5zM67 219q0 -32 21 -55t56 -23q34 0 56 23t22 55q0 34 -22 56t-56 22q-35 0 -56 -22t-21 -56z" />
    <glyph glyph-name="Euro" unicode="&#x20ac;" horiz-adv-x="512" 
d="M85 266q-1 10 -1.5 20t-0.5 21v18t1 18h-57v41h62q9 56 31.5 100.5t55 75t73 47t86.5 16.5q45 0 79.5 -12.5t60.5 -33.5v-54q-32 29 -66 41t-74 12q-74 0 -126 -51t-69 -141h222l-10 -41h-218q-1 -9 -1 -18v-18q0 -11 0.5 -21t1.5 -20h206l-10 -41h-190
q17 -88 69.5 -137.5t124.5 -49.5q40 0 74 12.5t66 41.5v-55q-26 -21 -60.5 -33.5t-79.5 -12.5t-85.5 16t-72.5 46t-54.5 73.5t-32.5 98.5h-63v41h58z" />
    <glyph glyph-name="uni2117" unicode="&#x2117;" horiz-adv-x="708" 
d="M670 307q0 -69 -25 -127t-68 -100t-100.5 -65.5t-122.5 -23.5t-122.5 23.5t-100 65.5t-67.5 100t-25 127t25 127t67.5 100t100 65.5t122.5 23.5t122.5 -23.5t100.5 -65.5t68 -100t25 -127zM638 307q0 62 -22.5 114t-61 90t-90.5 59t-110 21q-59 0 -110.5 -21t-90 -59
t-61 -90t-22.5 -114t22.5 -114t61 -90t90 -59t110.5 -21q58 0 110 21t90.5 59t61 90t22.5 114zM294 124h-47v369h141q57 0 89.5 -28t32.5 -83t-32.5 -83.5t-89.5 -28.5h-94v-146zM464 382q0 32 -19.5 50.5t-57.5 18.5h-93v-138h93q38 0 57.5 18.5t19.5 50.5z" />
    <glyph glyph-name="trademark" unicode="&#x2122;" horiz-adv-x="559" 
d="M227 614v-33h-86v-221h-39v221h-86v33h211zM309 547v-187h-38v254h36l85 -136l85 136h34v-254h-38v187l-79 -127h-4z" />
    <glyph glyph-name="uni2153" unicode="&#x2153;" horiz-adv-x="617" 
d="M589 330v-2l-85 -130q38 -5 63 -30.5t25 -66.5q0 -24 -9 -44t-24.5 -33.5t-36 -21t-43.5 -7.5q-32 0 -53 7.5t-38 19.5v46q38 -35 88 -35q32 0 53 17.5t21 49.5q0 37 -29.5 55.5t-72.5 15.5v2l78 117h-137v40h200zM115 285v279l-86 -44v45l102 50h28v-330h-44zM64 0
l417 614h45l-417 -614h-45z" />
    <glyph glyph-name="uni2154" unicode="&#x2154;" horiz-adv-x="665" 
d="M637 330v-2l-85 -130q38 -5 63 -30.5t25 -66.5q0 -24 -9 -44t-24.5 -33.5t-36 -21t-43.5 -7.5q-32 0 -53 7.5t-38 19.5v46q38 -35 88 -35q32 0 53 17.5t21 49.5q0 37 -29.5 55.5t-72.5 15.5v2l78 117h-137v40h200zM236 285h-215v2l103 126q25 31 42.5 55.5t17.5 54.5
q0 26 -16 41.5t-46 15.5q-27 0 -51.5 -14.5t-41.5 -31.5v45q17 17 42.5 29t56.5 12q47 0 73 -25.5t26 -67.5q0 -35 -20 -65t-47 -64l-63 -74h139v-39zM110 0l417 614h45l-417 -614h-45z" />
    <glyph glyph-name="uni215B" unicode="&#x215b;" horiz-adv-x="625" 
d="M480 31q32 0 52 18t20 44q0 27 -20 45t-52 18t-52 -18t-20 -45q0 -26 20 -44t52 -18zM480 192q26 0 43.5 15.5t17.5 38.5t-17.5 38.5t-43.5 15.5q-27 0 -44.5 -15.5t-17.5 -38.5t17.5 -38.5t44.5 -15.5zM480 -5q-49 0 -82 26.5t-33 69.5q0 31 18.5 52.5t45.5 29.5
q-23 9 -37 28.5t-14 45.5q0 40 29 64t73 24q43 0 72.5 -24t29.5 -64q0 -26 -14.5 -45.5t-37.5 -28.5q28 -8 46 -29.5t18 -52.5q0 -43 -32.5 -69.5t-81.5 -26.5zM115 285v279l-86 -44v45l102 50h28v-330h-44zM64 0l417 614h45l-417 -614h-45z" />
    <glyph glyph-name="uni215C" unicode="&#x215c;" horiz-adv-x="644" 
d="M499 31q32 0 52 18t20 44q0 27 -20 45t-52 18t-52 -18t-20 -45q0 -26 20 -44t52 -18zM499 192q26 0 43.5 15.5t17.5 38.5t-17.5 38.5t-43.5 15.5q-27 0 -44.5 -15.5t-17.5 -38.5t17.5 -38.5t44.5 -15.5zM499 -5q-49 0 -82 26.5t-33 69.5q0 31 18.5 52.5t45.5 29.5
q-23 9 -37 28.5t-14 45.5q0 40 29 64t73 24q43 0 72.5 -24t29.5 -64q0 -26 -14.5 -45.5t-37.5 -28.5q28 -8 46 -29.5t18 -52.5q0 -43 -32.5 -69.5t-81.5 -26.5zM227 615v-2l-85 -130q38 -5 63 -30.5t25 -66.5q0 -24 -9 -44t-24.5 -33.5t-36 -21t-43.5 -7.5q-32 0 -53 7.5
t-38 19.5v46q38 -35 88 -35q32 0 53 17.5t21 49.5q0 37 -29.5 55.5t-72.5 15.5v2l78 117h-137v40h200zM83 0l417 614h45l-417 -614h-45z" />
    <glyph glyph-name="uni215D" unicode="&#x215d;" horiz-adv-x="644" 
d="M499 31q32 0 52 18t20 44q0 27 -20 45t-52 18t-52 -18t-20 -45q0 -26 20 -44t52 -18zM499 192q26 0 43.5 15.5t17.5 38.5t-17.5 38.5t-43.5 15.5q-27 0 -44.5 -15.5t-17.5 -38.5t17.5 -38.5t44.5 -15.5zM499 -5q-49 0 -82 26.5t-33 69.5q0 31 18.5 52.5t45.5 29.5
q-23 9 -37 28.5t-14 45.5q0 40 29 64t73 24q43 0 72.5 -24t29.5 -64q0 -26 -14.5 -45.5t-37.5 -28.5q28 -8 46 -29.5t18 -52.5q0 -43 -32.5 -69.5t-81.5 -26.5zM115 491q48 0 81.5 -27.5t33.5 -77.5q0 -49 -34 -77.5t-83 -28.5q-29 0 -50.5 7.5t-38.5 19.5v45q37 -34 86 -34
q32 0 55.5 18t23.5 50t-23.5 50t-56.5 18q-23 0 -39 -4t-31 -11v176h173v-40h-137v-89q17 5 40 5zM83 0l417 614h45l-417 -614h-45z" />
    <glyph glyph-name="uni215E" unicode="&#x215e;" horiz-adv-x="592" 
d="M447 31q32 0 52 18t20 44q0 27 -20 45t-52 18t-52 -18t-20 -45q0 -26 20 -44t52 -18zM447 192q26 0 43.5 15.5t17.5 38.5t-17.5 38.5t-43.5 15.5q-27 0 -44.5 -15.5t-17.5 -38.5t17.5 -38.5t44.5 -15.5zM447 -5q-49 0 -82 26.5t-33 69.5q0 31 18.5 52.5t45.5 29.5
q-23 9 -37 28.5t-14 45.5q0 40 29 64t73 24q43 0 72.5 -24t29.5 -64q0 -26 -14.5 -45.5t-37.5 -28.5q28 -8 46 -29.5t18 -52.5q0 -43 -32.5 -69.5t-81.5 -26.5zM47 285l133 291h-164v39h226v-2l-150 -328h-45zM31 0l417 614h45l-417 -614h-45z" />
    <glyph glyph-name="minus" unicode="&#x2212;" horiz-adv-x="514" 
d="M443 316v-43h-372v43h372z" />
    <glyph glyph-name="uni2219" unicode="&#x2219;" horiz-adv-x="151" 
d="M38 261q0 17 11 28t26 11q16 0 27 -11t11 -28q0 -16 -11 -27t-27 -11q-15 0 -26 11t-11 27z" />
    <glyph glyph-name="approxequal" unicode="&#x2248;" horiz-adv-x="521" 
d="M75 350q26 24 51 34.5t48 10.5q24 0 45 -7.5t41.5 -16t40.5 -16t43 -7.5t49 11t54 37v-46q-28 -25 -54 -35t-49 -10q-24 0 -44.5 7.5t-41 16t-41 16t-43.5 7.5t-48 -11.5t-51 -36.5v46zM75 240q26 25 51 35.5t48 10.5q24 0 45 -7.5t41.5 -16.5t40.5 -16.5t43 -7.5
t49 11.5t54 37.5v-46q-28 -26 -54 -35.5t-49 -9.5q-24 0 -44.5 7.5t-41 16t-41 16t-43.5 7.5t-48 -11.5t-51 -36.5v45z" />
    <glyph glyph-name="notequal" unicode="&#x2260;" horiz-adv-x="521" 
d="M303 379l69 89h45l-69 -89h99v-41h-131l-66 -86h197v-41h-229l-69 -90h-45l69 90h-98v41h130l66 86h-196v41h228z" />
    <glyph glyph-name="lessequal" unicode="&#x2264;" horiz-adv-x="399" 
d="M333 469v-46l-224 -92l224 -92v-46l-275 115v46zM333 154v-43h-275v43h275z" />
    <glyph glyph-name="greaterequal" unicode="&#x2265;" horiz-adv-x="399" 
d="M67 193v46l223 92l-223 92v46l274 -115v-46zM67 111v43h274v-43h-274z" />
    <glyph glyph-name="i.dot" horiz-adv-x="192" 
d="M71 0v444h50v-444h-50zM131 579q0 -14 -10 -24t-24 -10t-24 10t-10 24t10 24t24 10t24 -10t10 -24z" />
    <glyph glyph-name="zero.lt" horiz-adv-x="520" 
d="M260 -9q-51 0 -92 23t-70.5 65t-45.5 100t-16 128t16 128t45.5 100t70.5 65t92 23t92 -23t70.5 -65t45.5 -100t16 -128t-16 -128t-45.5 -100t-70.5 -65t-92 -23zM260 576q-41 0 -73 -20t-54.5 -55.5t-34.5 -85t-12 -108.5t12 -108.5t34.5 -85t54.5 -55.5t73 -20t73 20
t54.5 55.5t34.5 85t12 108.5t-12 108.5t-34.5 85t-54.5 55.5t-73 20z" />
    <glyph glyph-name="one.lt" horiz-adv-x="520" 
d="M257 47v507l-182 -94v52l201 103h31v-568h163v-47h-401v47h188z" />
    <glyph glyph-name="two.lt" horiz-adv-x="520" 
d="M448 0h-395v4l199 233q25 29 46.5 55t38 52t26 53t9.5 58q0 54 -33 87.5t-97 33.5q-54 0 -98.5 -25.5t-76.5 -59.5v55q31 32 77 54.5t100 22.5q85 0 131 -45.5t46 -121.5q0 -35 -10.5 -66t-28.5 -60t-42.5 -58.5t-51.5 -60.5l-141 -164h301v-47z" />
    <glyph glyph-name="three.lt" horiz-adv-x="520" 
d="M438 614v-4l-186 -241q39 -3 73.5 -16.5t60.5 -37.5t41 -57.5t15 -74.5q0 -44 -17 -79t-45.5 -60.5t-67.5 -39t-82 -13.5q-59 0 -99.5 14t-71.5 37v59q35 -33 78 -48.5t91 -15.5q34 0 64.5 10t53.5 29t36 46t13 61q0 38 -17 67.5t-46.5 49t-69 28t-85.5 4.5v4l176 231
h-293v47h378z" />
    <glyph glyph-name="four.lt" horiz-adv-x="520" 
d="M326 196v152h49v-152h113v-46h-113v-150h-49v150h-290v4l213 460h51l-193 -418h219z" />
    <glyph glyph-name="five.lt" horiz-adv-x="520" 
d="M235 377q46 0 86 -13.5t70 -38.5t47 -60.5t17 -79.5q0 -45 -17 -80.5t-47 -61t-70.5 -39t-86.5 -13.5q-57 0 -97.5 13.5t-72.5 36.5v60q35 -33 77.5 -48.5t90.5 -15.5q36 0 67.5 10t55 29.5t37.5 46.5t14 62q0 34 -14 61t-37.5 46t-55 29.5t-67.5 10.5q-24 0 -43 -2.5
t-35 -6.5t-30 -9.5t-29 -11.5v312h325v-47h-280v-205q16 6 41 10.5t54 4.5z" />
    <glyph glyph-name="six.lt" horiz-adv-x="520" 
d="M259 -9q-43 0 -80 16t-64.5 43.5t-43 65.5t-15.5 82q0 33 9.5 66.5t35.5 79.5l154 270h53l-138 -240q17 13 41 21t50 8q43 0 80 -15.5t64 -43.5t42.5 -65.5t15.5 -80.5q0 -44 -15.5 -82t-43 -65.5t-65 -43.5t-80.5 -16zM416 198q0 34 -12 63t-33.5 51t-50 34.5
t-61.5 12.5t-61 -12.5t-49 -34.5t-33 -51t-12 -63t12 -63.5t33 -51t49 -34t61 -12.5t61.5 12.5t50 34t33.5 51t12 63.5z" />
    <glyph glyph-name="seven.lt" horiz-adv-x="520" 
d="M153 0l260 567h-361v47h431v-4l-279 -610h-51z" />
    <glyph glyph-name="eight.lt" horiz-adv-x="520" 
d="M260 35q36 0 65.5 10.5t51 28.5t33.5 42.5t12 53.5q0 28 -12 53t-33.5 43t-51 28.5t-65.5 10.5q-35 0 -64.5 -10.5t-51 -28.5t-33.5 -43t-12 -53q0 -29 12 -53.5t33.5 -42.5t51 -28.5t64.5 -10.5zM260 349q30 0 55 9t43 24.5t28 36.5t10 45q0 49 -37.5 82t-98.5 33
q-30 0 -55 -9t-43 -24.5t-28 -36.5t-10 -45t10 -45t28 -36.5t43 -24.5t55 -9zM260 -9q-45 0 -83.5 13.5t-66.5 37t-44 56t-16 70.5q0 58 36 101t93 58q-47 17 -75 53.5t-28 84.5q0 34 13.5 63t38 50t58.5 33t74 12t74 -12t59 -33t38.5 -50t13.5 -63q0 -48 -28 -84.5
t-76 -53.5q58 -15 94 -58t36 -101q0 -38 -16 -70.5t-44 -56t-66.5 -37t-84.5 -13.5z" />
    <glyph glyph-name="nine.lt" horiz-adv-x="520" 
d="M260 623q43 0 80 -16t64.5 -43.5t43 -65.5t15.5 -82q0 -33 -9.5 -66.5t-35.5 -79.5l-154 -270h-53l138 240q-17 -13 -41 -21t-50 -8q-43 0 -80 15.5t-64 43.5t-42.5 65t-15.5 81t15.5 82t43 65.5t65 43.5t80.5 16zM103 416q0 -34 12 -63.5t33.5 -51t50 -34t61.5 -12.5
t61.5 12.5t49.5 34t33 51t12 63.5t-12 63.5t-33 51t-49.5 34t-61.5 12.5t-61.5 -12.5t-50 -34t-33.5 -51t-12 -63.5z" />
    <glyph glyph-name="backslash.cap" horiz-adv-x="306" 
d="M253 -64l-248 734h48l248 -734h-48z" />
    <glyph glyph-name="periodcentered.cap" horiz-adv-x="151" 
d="M38 301q0 17 11 28t26 11q16 0 27 -11t11 -28q0 -16 -11 -27t-27 -11q-15 0 -26 11t-11 27z" />
    <glyph glyph-name="bullet.cap" horiz-adv-x="332" 
d="M295 300q0 -28 -10 -51.5t-27.5 -40.5t-41 -26.5t-50.5 -9.5t-50 9.5t-40.5 26.5t-27.5 40.5t-10 51.5t10 51.5t27.5 40.5t40.5 26.5t50 9.5t50.5 -9.5t41 -26.5t27.5 -40.5t10 -51.5z" />
    <glyph glyph-name="exclamdown.cap" horiz-adv-x="206" 
d="M65 579q0 16 11 27t27 11q15 0 26 -11t11 -27q0 -17 -11 -28t-26 -11q-16 0 -27 11t-11 28zM121 422l10 -422h-56l10 422h36z" />
    <glyph glyph-name="questiondown.cap" horiz-adv-x="415" 
d="M179 310q-14 -16 -30 -32.5t-30 -35.5t-23 -40t-9 -45q0 -54 33 -86t96 -32q54 0 98.5 27.5t76.5 63.5v-56q-29 -33 -75.5 -58t-101.5 -25q-85 0 -131 45t-46 121q0 27 9.5 51.5t24.5 46t33.5 41.5t36.5 40q24 26 33 45t10 40h48q-1 -17 -4.5 -31t-10 -27t-16 -25.5
t-22.5 -27.5zM247 579q0 -17 -11 -28t-26 -11q-16 0 -27 11t-11 28q0 16 11 27t27 11q15 0 26 -11t11 -27z" />
    <glyph glyph-name="slash.cap" horiz-adv-x="306" 
d="M301 670l-248 -734h-48l248 734h48z" />
    <glyph glyph-name="asterisk.ss01" horiz-adv-x="315" 
d="M-247 606l74 -43v86h27v-86l74 43l13 -23l-75 -43l75 -43l-13 -22l-74 43v-86h-27v86l-74 -43l-14 22l75 43l-75 43z" />
    <glyph glyph-name="colon.tab" horiz-adv-x="260" 
d="M93 35q0 17 11 28t26 11q16 0 27 -11t11 -28q0 -16 -11 -27t-27 -11q-15 0 -26 11t-11 27zM93 364q0 17 11 28t26 11q16 0 27 -11t11 -28q0 -16 -11 -27t-27 -11q-15 0 -26 11t-11 27z" />
    <glyph glyph-name="comma.tab" horiz-adv-x="260" 
d="M123 -1q-12 2 -21 11t-9 25q0 17 10.5 27.5t26.5 10.5q17 0 27.5 -11t10.5 -29q0 -12 -4.5 -22.5t-10.5 -21.5l-48 -90h-36z" />
    <glyph glyph-name="period.tab" horiz-adv-x="260" 
d="M93 35q0 17 11 28t26 11q16 0 27 -11t11 -28q0 -16 -11 -27t-27 -11q-15 0 -26 11t-11 27z" />
    <glyph glyph-name="semicolon.tab" horiz-adv-x="260" 
d="M123 -1q-12 2 -21 11t-9 25q0 17 10.5 27.5t26.5 10.5q17 0 27.5 -11t10.5 -29q0 -12 -4.5 -22.5t-10.5 -21.5l-48 -90h-36zM93 364q0 17 11 28t26 11q16 0 27 -11t11 -28q0 -16 -11 -27t-27 -11q-15 0 -26 11t-11 27z" />
    <glyph glyph-name="braceleft.cap" horiz-adv-x="334" 
d="M152 22q0 -45 42 -45h113v-45h-112q-40 0 -65.5 25.5t-25.5 67.5v206q0 45 -42 45h-42v46h42q42 0 42 45v206q0 42 25.5 67.5t65.5 25.5h112v-45h-113q-42 0 -42 -45v-207q0 -25 -11.5 -42t-28.5 -28q17 -11 28.5 -28.5t11.5 -41.5v-207z" />
    <glyph glyph-name="braceright.cap" horiz-adv-x="334" 
d="M182 229q0 24 11.5 41.5t28.5 28.5q-17 11 -28.5 28t-11.5 42v207q0 45 -42 45h-113v45h112q40 0 65.5 -25.5t25.5 -67.5v-206q0 -45 42 -45h42v-46h-42q-42 0 -42 -45v-206q0 -42 -25.5 -67.5t-65.5 -25.5h-112v45h113q42 0 42 45v207z" />
    <glyph glyph-name="bracketleft.cap" horiz-adv-x="311" 
d="M284 -23v-45h-205v734h205v-45h-158v-644h158z" />
    <glyph glyph-name="bracketright.cap" horiz-adv-x="311" 
d="M27 621v45h205v-734h-205v45h158v644h-158z" />
    <glyph glyph-name="parenleft.cap" horiz-adv-x="325" 
d="M30 299q0 69 19 128.5t53.5 107.5t84 81.5t111.5 49.5v-50q-44 -11 -84 -38t-70 -67.5t-47.5 -94t-17.5 -117.5t17.5 -117.5t47.5 -94t70 -67.5t84 -38v-50q-62 16 -111.5 49.5t-84 81.5t-53.5 107.5t-19 128.5z" />
    <glyph glyph-name="parenright.cap" horiz-adv-x="325" 
d="M295 299q0 -69 -19 -128.5t-53.5 -107.5t-84.5 -81.5t-111 -49.5v50q44 11 84 38t70 67.5t47.5 94t17.5 117.5t-17.5 117.5t-47.5 94t-70 67.5t-84 38v50q61 -16 111 -49.5t84.5 -81.5t53.5 -107.5t19 -128.5z" />
    <glyph glyph-name="emdash.cap" horiz-adv-x="846" 
d="M806 320v-41h-766v41h766z" />
    <glyph glyph-name="endash.cap" horiz-adv-x="475" 
d="M435 320v-41h-395v41h395z" />
    <glyph glyph-name="hyphen.cap" horiz-adv-x="321" 
d="M281 323v-46h-241v46h241z" />
    <glyph glyph-name="guillemotleft.cap" horiz-adv-x="314" 
d="M25 309l92 136h49l-92 -136l92 -136h-49zM148 309l92 136h49l-92 -136l92 -136h-49z" />
    <glyph glyph-name="guillemotright.cap" horiz-adv-x="314" 
d="M240 309l-92 136h49l92 -136l-92 -136h-49zM117 309l-92 136h49l92 -136l-92 -136h-49z" />
    <glyph glyph-name="guilsinglleft.cap" horiz-adv-x="192" 
d="M25 309l92 136h50l-92 -136l92 -136h-50z" />
    <glyph glyph-name="guilsinglright.cap" horiz-adv-x="192" 
d="M117 309l-92 136h50l92 -136l-92 -136h-50z" />
    <glyph glyph-name="slash_2" horiz-adv-x="380" 
d="M1267 488l-1429 -399l-10 35l1429 399z" />
    <glyph glyph-name="slash_3" horiz-adv-x="380" 
d="M1778 489l-1923 -399l-8 34l1923 399z" />
    <glyph glyph-name="slash_4" horiz-adv-x="380" 
d="M2296 487l-2430 -399l-7 36l2430 399z" />
    <glyph glyph-name="slash_5" horiz-adv-x="380" 
d="M2818 488l-2946 -399l-5 35l2946 399z" />
    <glyph glyph-name="slash_6" horiz-adv-x="380" 
d="M3344 487l-3468 -399l-5 36l3468 399z" />
    <glyph glyph-name="hyphen_alt1.ss01" horiz-adv-x="321" 
d="M281 313v-46h-241v46h241z" />
    <glyph glyph-name="space.tab" horiz-adv-x="260" 
 />
    <glyph glyph-name="space_dotbelowcomb" 
d="M284 -112q0 -14 -10 -24t-24 -10t-24 10t-10 24t10 24.5t24 10.5t24 -10.5t10 -24.5z" />
    <glyph glyph-name="space_uni0326" 
d="M248 -116q-12 2 -21 10.5t-9 23.5t10.5 25t26.5 10q15 0 25 -10t10 -27q0 -12 -4.5 -21.5t-9.5 -19.5l-31 -58h-33z" />
    <glyph glyph-name="space_uni0326.alt" 
d="M252 595q12 -2 20.5 -11t8.5 -23q0 -15 -10.5 -25.5t-25.5 -10.5q-16 0 -26.5 10.5t-10.5 26.5q0 13 4.5 22.5t10.5 19.5l31 59h34z" />
    <glyph glyph-name="cent.lt" horiz-adv-x="520" 
d="M267 3q-39 5 -71.5 23.5t-56 48t-36.5 69.5t-13 88t13 88t36.5 69.5t56 48t71.5 23.5v87h45v-86q29 -2 55.5 -11t47.5 -27v-51q-26 24 -54.5 34.5t-61.5 10.5t-62 -12.5t-50.5 -36.5t-34 -58.5t-12.5 -78.5t12.5 -78.5t34 -58.5t50.5 -36.5t62 -12.5t61.5 10.5t54.5 34.5
v-51q-21 -18 -47.5 -27.5t-55.5 -11.5v-85h-45v87z" />
    <glyph glyph-name="dollar.lt" horiz-adv-x="520" 
d="M235 13q-48 4 -88 18.5t-66 37.5v57q41 -37 85.5 -52t92.5 -15q61 0 97 27.5t36 77.5q0 21 -6 37t-18.5 28.5t-32 23t-45.5 22.5l-84 35q-23 9 -45 20.5t-40 29t-29 41t-11 56.5t12 58.5t33 43.5t49 28t60 13v90h45v-90q38 -3 73 -15t62 -32v-55q-32 28 -71 42.5
t-88 14.5q-27 0 -50 -6t-40 -18t-26.5 -30.5t-9.5 -43.5q0 -42 26.5 -63.5t71.5 -40.5l90 -37q63 -27 92.5 -61.5t29.5 -90.5q0 -32 -12 -58.5t-33 -46t-50.5 -31t-64.5 -14.5v-99h-45v98z" />
    <glyph glyph-name="Euro.lt" horiz-adv-x="520" 
d="M94 266q-1 10 -1.5 20t-0.5 21v18t1 18h-57v41h62q9 56 31.5 100.5t55 75t73 47t86.5 16.5q45 0 79.5 -12.5t60.5 -33.5v-54q-32 29 -66 41t-74 12q-74 0 -126 -51t-69 -141h222l-10 -41h-218q-1 -9 -1 -18v-18q0 -11 0.5 -21t1.5 -20h206l-10 -41h-190
q17 -88 69.5 -137.5t124.5 -49.5q40 0 74 12.5t66 41.5v-55q-26 -21 -60.5 -33.5t-79.5 -12.5t-85.5 16t-72.5 46t-54.5 73.5t-32.5 98.5h-63v41h58z" />
    <glyph glyph-name="florin.lt" horiz-adv-x="520" 
d="M247 337l27 151q11 60 45 97.5t91 37.5q16 0 31 -3.5t28 -8.5v-46q-14 7 -28 10.5t-31 3.5q-35 0 -57 -25.5t-30 -70.5l-26 -146h103v-42h-111l-60 -340q-10 -56 -37.5 -92t-84.5 -36q-33 0 -58 12v46q28 -14 57 -14q36 0 51.5 24.5t23.5 64.5l59 335h-72v42h79z" />
    <glyph glyph-name="sterling.lt" horiz-adv-x="520" 
d="M149 323v86q0 98 49.5 156t143.5 58q32 0 61 -8t48 -21v-48q-21 14 -47.5 22.5t-61.5 8.5q-73 0 -109 -46t-36 -124v-84h169v-42h-169v-145q0 -26 -6.5 -51t-17.5 -40h293v-45h-407v45h65q11 17 18 37.5t7 53.5v145h-90v42h90z" />
    <glyph glyph-name="yen.lt" horiz-adv-x="520" 
d="M221 303l-188 311h56l172 -288l171 288h54l-189 -311h145v-41h-157v-77h157v-41h-157v-144h-51v144h-157v41h157v77h-157v41h144z" />
    <glyph glyph-name="approxequal.lt" horiz-adv-x="520" 
d="M75 350q26 24 51 34.5t48 10.5q24 0 45 -7.5t41.5 -16t40.5 -16t43 -7.5t49 11t54 37v-46q-28 -25 -54 -35t-49 -10q-24 0 -44.5 7.5t-41 16t-41 16t-43.5 7.5t-48 -11.5t-51 -36.5v46zM75 240q26 25 51 35.5t48 10.5q24 0 45 -7.5t41.5 -16.5t40.5 -16.5t43 -7.5
t49 11.5t54 37.5v-46q-28 -26 -54 -35.5t-49 -9.5q-24 0 -44.5 7.5t-41 16t-41 16t-43.5 7.5t-48 -11.5t-51 -36.5v45z" />
    <glyph glyph-name="divide.lt" horiz-adv-x="520" 
d="M446 316v-43h-372v43h372zM223 447q0 16 11 27t26 11q14 0 25 -11t11 -27q0 -15 -11 -25.5t-25 -10.5q-15 0 -26 10.5t-11 25.5zM223 142q0 15 11 26t26 11q14 0 25 -11t11 -26q0 -16 -11 -26.5t-25 -10.5q-15 0 -26 10.5t-11 26.5z" />
    <glyph glyph-name="equal.lt" horiz-adv-x="520" 
d="M447 252v-42h-372v42h372zM447 380v-42h-372v42h372z" />
    <glyph glyph-name="greater.lt" horiz-adv-x="520" 
d="M122 119v49l232 125l-232 125v48l275 -150v-47z" />
    <glyph glyph-name="greaterequal.lt" horiz-adv-x="520" 
d="M123 193v46l223 92l-223 92v46l274 -115v-46zM123 111v43h274v-43h-274z" />
    <glyph glyph-name="less.lt" horiz-adv-x="520" 
d="M397 466v-48l-232 -125l232 -125v-49l-274 150v47z" />
    <glyph glyph-name="lessequal.lt" horiz-adv-x="520" 
d="M397 469v-46l-224 -92l224 -92v-46l-275 115v46zM397 154v-43h-275v43h275z" />
    <glyph glyph-name="minus.lt" horiz-adv-x="520" 
d="M446 316v-43h-372v43h372z" />
    <glyph glyph-name="multiply.lt" horiz-adv-x="520" 
d="M140 443l120 -122l120 122l30 -29l-120 -122l120 -122l-30 -29l-120 121l-120 -121l-30 29l122 122l-122 122z" />
    <glyph glyph-name="notequal.lt" horiz-adv-x="520" 
d="M303 379l69 89h45l-69 -89h99v-41h-131l-66 -86h197v-41h-229l-69 -90h-45l69 90h-98v41h130l66 86h-196v41h228z" />
    <glyph glyph-name="percent.lt" horiz-adv-x="520" 
d="M19 500q0 25 9.5 47.5t26 39.5t38.5 26.5t47 9.5t47.5 -9.5t39.5 -26.5t26.5 -39.5t9.5 -47.5q0 -26 -9.5 -48t-26.5 -38.5t-39.5 -26t-47.5 -9.5t-47 9.5t-38.5 26t-26 38.5t-9.5 48zM57 500q0 -35 24 -59t59 -24q18 0 33.5 6.5t27 17.5t18 26.5t6.5 32.5q0 35 -25 59.5
t-60 24.5q-17 0 -32.5 -6.5t-26.5 -18t-17.5 -26.5t-6.5 -33zM502 114q0 -26 -9.5 -48t-26 -39t-39 -26.5t-47.5 -9.5q-26 0 -48 9.5t-38.5 26.5t-26 39t-9.5 48q0 25 9.5 47.5t26 39t38.5 26t48 9.5q25 0 47.5 -9.5t39 -26t26 -39t9.5 -47.5zM464 114q0 17 -6.5 32
t-18 26.5t-26.5 18t-33 6.5t-33 -6.5t-26.5 -18t-18 -26.5t-6.5 -32q0 -35 24.5 -59.5t59.5 -24.5t59.5 24.5t24.5 59.5zM481 614l-398 -614h-43l398 614h43z" />
    <glyph glyph-name="perthousand.lt" horiz-adv-x="800" 
d="M20 500q0 25 9.5 47.5t26 39.5t38.5 26.5t48 9.5q25 0 47.5 -9.5t39.5 -26.5t26.5 -39.5t9.5 -47.5q0 -26 -9.5 -48t-26.5 -38.5t-39.5 -26t-47.5 -9.5q-26 0 -48 9.5t-38.5 26t-26 38.5t-9.5 48zM59 500q0 -35 24 -59t59 -24q18 0 33 6.5t26.5 17.5t18 26.5t6.5 32.5
q0 35 -24.5 59.5t-59.5 24.5q-17 0 -32.5 -6.5t-26.5 -18t-17.5 -26.5t-6.5 -33zM504 114q0 -26 -9.5 -48t-26 -39t-39 -26.5t-47.5 -9.5q-26 0 -48 9.5t-39 26.5t-26.5 39t-9.5 48q0 25 9.5 47.5t26.5 39t39 26t48 9.5q25 0 47.5 -9.5t39 -26t26 -39t9.5 -47.5zM465 114
q0 35 -24 59t-59 24q-18 0 -33 -6.5t-26.5 -18t-18 -26.5t-6.5 -32q0 -35 24.5 -59.5t59.5 -24.5q17 0 32 6.5t26.5 18t18 26.5t6.5 33zM483 614l-398 -614h-44l398 614h44zM780 114q0 -26 -9.5 -48t-26 -39t-38.5 -26.5t-47 -9.5q-26 0 -48 9.5t-39 26.5t-26.5 39t-9.5 48
q0 25 9.5 47.5t26.5 39t39 26t48 9.5q25 0 47 -9.5t38.5 -26t26 -39t9.5 -47.5zM742 114q0 35 -24 59t-59 24q-18 0 -33.5 -6.5t-27 -18t-18 -26.5t-6.5 -32q0 -35 25 -59.5t60 -24.5q17 0 32 6.5t26.5 18t18 26.5t6.5 33z" />
    <glyph glyph-name="plus.lt" horiz-adv-x="520" 
d="M281 316h165v-43h-165v-164h-43v164h-164v43h164v164h43v-164z" />
    <glyph glyph-name="plusminus.lt" horiz-adv-x="520" 
d="M281 369h164v-42h-164v-126h-42v126h-164v42h164v126h42v-126zM445 147v-43h-370v43h370z" />
    <glyph glyph-name="percent.ss01" horiz-adv-x="307" 
d="M32 546q0 -18 11.5 -30t30.5 -12t30.5 12t11.5 30t-11.5 30t-30.5 12t-30.5 -12t-11.5 -30zM271 615l-202 -330h-30l202 330h30zM143 546q0 -29 -20 -49t-49 -20q-30 0 -49.5 20t-19.5 49t19.5 49t49.5 20q29 0 49 -20t20 -49zM191 349q0 -18 11.5 -30t30.5 -12t30.5 12
t11.5 30t-11.5 30t-30.5 12t-30.5 -12t-11.5 -30zM302 349q0 -29 -20 -49t-49 -20q-30 0 -49.5 20t-19.5 49t19.5 49t49.5 20q29 0 49 -20t20 -49z" />
    <glyph glyph-name="bar.cap" horiz-adv-x="205" 
d="M126 670v-734h-47v734h47z" />
    <glyph glyph-name="at.cap" horiz-adv-x="774" 
d="M503 217q-1 -5 -1.5 -9.5t-0.5 -8.5q0 -25 14 -33.5t36 -8.5q30 0 56 13.5t45.5 39t31 63.5t11.5 87q0 55 -21 101.5t-58.5 80.5t-90 52.5t-115.5 18.5q-74 0 -135 -26t-104.5 -71.5t-67 -106.5t-23.5 -131q0 -81 28.5 -138t75.5 -93t106 -53t121 -17q65 0 118.5 13.5
t91.5 31.5v-41q-38 -17 -92 -30t-118 -13q-72 0 -139 19.5t-119.5 61t-84 106t-31.5 153.5q0 78 27 146.5t76 119.5t117.5 80.5t152.5 29.5q73 0 133.5 -22.5t103.5 -62t66.5 -93t23.5 -116.5q0 -61 -16 -106.5t-42.5 -75.5t-61 -45t-71.5 -15q-35 0 -60 16.5t-30 45.5
q-17 -23 -46.5 -41t-62.5 -18q-32 0 -56 11.5t-40.5 31t-25 46t-8.5 57.5q0 40 13 78.5t36.5 68.5t57 48t74.5 18q37 0 61.5 -18t35.5 -39l9 49h44zM485 371q-11 29 -32.5 48t-52.5 19q-32 0 -57 -15t-43 -39t-27.5 -54.5t-9.5 -61.5q0 -49 24 -77.5t66 -28.5
q35 0 61.5 20.5t46.5 49.5z" />
    <glyph glyph-name="commaaccentcomb.alt" 
d="M252 595q12 -2 20.5 -11t8.5 -23q0 -15 -10.5 -25.5t-25.5 -10.5q-16 0 -26.5 10.5t-10.5 26.5q0 13 4.5 22.5t10.5 19.5l31 59h34z" />
    <glyph glyph-name="dieresiscomb.cap" 
d="M155 715q0 14 9.5 23.5t23.5 9.5t23 -9.5t9 -23.5t-9 -23.5t-23 -9.5t-23.5 9.5t-9.5 23.5zM280 715q0 14 9 23.5t23 9.5t23.5 -9.5t9.5 -23.5t-9.5 -23.5t-23.5 -9.5t-23 9.5t-9 23.5z" />
    <glyph glyph-name="dotaccentcomb.cap" 
d="M284 714q0 -14 -10 -24t-24 -10t-24 10t-10 24t10 24t24 10t24 -10t10 -24z" />
    <glyph glyph-name="gravecomb.cap" 
d="M181 782h55l83 -117h-51z" />
    <glyph glyph-name="acutecomb.cap" 
d="M263 782h56l-88 -117h-50z" />
    <glyph glyph-name="hungarumlautcomb.cap" 
d="M208 782h46l-75 -117h-45zM319 782h46l-74 -117h-46z" />
    <glyph glyph-name="circumflexcomb.cap" 
d="M317 667l-67 84l-67 -84h-47l92 119h44l92 -119h-47z" />
    <glyph glyph-name="caroncomb.cap" 
d="M183 779l67 -83l67 83h47l-92 -119h-44l-92 119h47z" />
    <glyph glyph-name="brevecomb.cap" 
d="M250 664q-45 0 -74 30t-29 87h40q0 -38 17.5 -58.5t45.5 -20.5q27 0 45 20.5t18 58.5h39q0 -57 -28.5 -87t-73.5 -30z" />
    <glyph glyph-name="ringcomb.cap" 
d="M331 728q0 -34 -23.5 -57t-57.5 -23t-57.5 23t-23.5 57q0 35 23.5 58t57.5 23t57.5 -23t23.5 -58zM299 728q0 21 -14.5 35.5t-34.5 14.5t-34.5 -14.5t-14.5 -35.5q0 -20 14.5 -34.5t34.5 -14.5t34.5 14.5t14.5 34.5z" />
    <glyph glyph-name="tildecomb.cap" 
d="M375 769q0 -48 -17.5 -76t-51.5 -28q-19 0 -33.5 10t-27 22t-24 22t-25.5 10q-18 0 -27 -16.5t-9 -44.5h-36q0 47 17.5 75.5t51.5 28.5q19 0 33.5 -10t27 -22t24 -22t25.5 -10q18 0 27 16.5t10 44.5h35z" />
    <glyph glyph-name="macroncomb.cap" 
d="M350 712v-42h-201v42h201z" />
    <glyph glyph-name="caron.Slovak" 
d="M244 650h40l-32 -160h-41z" />
    <glyph glyph-name="cedilla.alt" 
d="M254 -48h48l-61 -127h-46z" />
    <glyph glyph-name="acute.cap" 
d="M263 782h56l-88 -117h-50z" />
    <glyph glyph-name="breve.cap" 
d="M250 664q-45 0 -74 30t-29 87h40q0 -38 17.5 -58.5t45.5 -20.5q27 0 45 20.5t18 58.5h39q0 -57 -28.5 -87t-73.5 -30z" />
    <glyph glyph-name="caron.cap" 
d="M183 779l67 -83l67 83h47l-92 -119h-44l-92 119h47z" />
    <glyph glyph-name="circumflex.cap" 
d="M317 667l-67 84l-67 -84h-47l92 119h44l92 -119h-47z" />
    <glyph glyph-name="dieresis.cap" 
d="M155 715q0 14 9.5 23.5t23.5 9.5t23 -9.5t9 -23.5t-9 -23.5t-23 -9.5t-23.5 9.5t-9.5 23.5zM280 715q0 14 9 23.5t23 9.5t23.5 -9.5t9.5 -23.5t-9.5 -23.5t-23.5 -9.5t-23 9.5t-9 23.5z" />
    <glyph glyph-name="dotaccent.cap" 
d="M284 714q0 -14 -10 -24t-24 -10t-24 10t-10 24t10 24t24 10t24 -10t10 -24z" />
    <glyph glyph-name="grave.cap" 
d="M181 782h55l83 -117h-51z" />
    <glyph glyph-name="hungarumlaut.cap" 
d="M208 782h46l-75 -117h-45zM319 782h46l-74 -117h-46z" />
    <glyph glyph-name="macron.cap" 
d="M350 712v-42h-201v42h201z" />
    <glyph glyph-name="ring.cap" 
d="M331 728q0 -34 -23.5 -57t-57.5 -23t-57.5 23t-23.5 57q0 35 23.5 58t57.5 23t57.5 -23t23.5 -58zM299 728q0 21 -14.5 35.5t-34.5 14.5t-34.5 -14.5t-14.5 -35.5q0 -20 14.5 -34.5t34.5 -14.5t34.5 14.5t14.5 34.5z" />
    <glyph glyph-name="tilde.cap" 
d="M375 769q0 -48 -17.5 -76t-51.5 -28q-19 0 -33.5 10t-27 22t-24 22t-25.5 10q-18 0 -27 -16.5t-9 -44.5h-36q0 47 17.5 75.5t51.5 28.5q19 0 33.5 -10t27 -22t24 -22t25.5 -10q18 0 27 16.5t10 44.5h35z" />
    <glyph glyph-name="firsttonechinesecomb" 
d="M350 578v-41h-201v41h201z" />
    <glyph glyph-name="firsttonechinesecomb.cap" 
d="M350 578v-41h-201v41h201z" />
    </font>
</defs>
</svg>
